<svg width="16" height="16" viewBox="0 0 16 16" fill="none" xmlns="http://www.w3.org/2000/svg">
<g clip-path="url(#clip0_1467_8937)">
<path fill-rule="evenodd" clip-rule="evenodd" d="M7.99984 0.833008C6.25094 0.833008 4.83317 2.25077 4.83317 3.99967C4.83317 5.74858 6.25094 7.16634 7.99984 7.16634C9.74874 7.16634 11.1665 5.74858 11.1665 3.99967C11.1665 2.25077 9.74874 0.833008 7.99984 0.833008ZM5.83317 3.99967C5.83317 2.80306 6.80322 1.83301 7.99984 1.83301C9.19645 1.83301 10.1665 2.80306 10.1665 3.99967C10.1665 5.19629 9.19645 6.16634 7.99984 6.16634C6.80322 6.16634 5.83317 5.19629 5.83317 3.99967Z" fill="#4A4A4A"/>
<path d="M11.9998 2.16634C11.7237 2.16634 11.4998 2.3902 11.4998 2.66634C11.4998 2.94248 11.7237 3.16634 11.9998 3.16634C12.9175 3.16634 13.4998 3.77016 13.4998 4.33301C13.4998 4.89585 12.9175 5.49967 11.9998 5.49967C11.7237 5.49967 11.4998 5.72353 11.4998 5.99967C11.4998 6.27582 11.7237 6.49967 11.9998 6.49967C13.2913 6.49967 14.4998 5.61111 14.4998 4.33301C14.4998 3.0549 13.2913 2.16634 11.9998 2.16634Z" fill="#4A4A4A"/>
<path d="M4.49984 2.66634C4.49984 2.3902 4.27598 2.16634 3.99984 2.16634C2.70836 2.16634 1.49984 3.0549 1.49984 4.33301C1.49984 5.61111 2.70836 6.49967 3.99984 6.49967C4.27598 6.49967 4.49984 6.27582 4.49984 5.99967C4.49984 5.72353 4.27598 5.49967 3.99984 5.49967C3.08218 5.49967 2.49984 4.89585 2.49984 4.33301C2.49984 3.77016 3.08218 3.16634 3.99984 3.16634C4.27598 3.16634 4.49984 2.94248 4.49984 2.66634Z" fill="#4A4A4A"/>
<path fill-rule="evenodd" clip-rule="evenodd" d="M7.99984 8.16634C6.81032 8.16634 5.7108 8.48687 4.89406 9.03136C4.08081 9.57353 3.49984 10.3774 3.49984 11.333C3.49984 12.2886 4.08081 13.0925 4.89406 13.6347C5.7108 14.1791 6.81032 14.4997 7.99984 14.4997C9.18935 14.4997 10.2889 14.1791 11.1056 13.6347C11.9189 13.0925 12.4998 12.2886 12.4998 11.333C12.4998 10.3774 11.9189 9.57353 11.1056 9.03136C10.2889 8.48687 9.18935 8.16634 7.99984 8.16634ZM4.49984 11.333C4.49984 10.8158 4.81429 10.2864 5.44876 9.86342C6.07973 9.44277 6.98021 9.16634 7.99984 9.16634C9.01946 9.16634 9.91994 9.44277 10.5509 9.86342C11.1854 10.2864 11.4998 10.8158 11.4998 11.333C11.4998 11.8502 11.1854 12.3796 10.5509 12.8026C9.91994 13.2232 9.01946 13.4997 7.99984 13.4997C6.98021 13.4997 6.07973 13.2232 5.44876 12.8026C4.81429 12.3796 4.49984 11.8502 4.49984 11.333Z" fill="#4A4A4A"/>
<path d="M12.8448 9.22591C12.9039 8.95617 13.1705 8.78546 13.4403 8.84461C14.0815 8.98524 14.6594 9.23924 15.0884 9.59029C15.517 9.94103 15.8332 10.4232 15.8332 10.9997C15.8332 11.5762 15.517 12.0583 15.0884 12.4091C14.6594 12.7601 14.0815 13.0141 13.4403 13.1547C13.1705 13.2139 12.9039 13.0432 12.8448 12.7734C12.7856 12.5037 12.9563 12.2371 13.2261 12.1779C13.7543 12.0621 14.1765 11.8631 14.4551 11.6351C14.7341 11.4068 14.8332 11.1839 14.8332 10.9997C14.8332 10.8155 14.7341 10.5925 14.4551 10.3642C14.1765 10.1362 13.7543 9.93724 13.2261 9.8214C12.9563 9.76225 12.7856 9.49564 12.8448 9.22591Z" fill="#4A4A4A"/>
<path d="M2.5594 8.84461C2.82913 8.78546 3.09575 8.95617 3.1549 9.22591C3.21405 9.49564 3.04334 9.76225 2.77361 9.8214C2.24536 9.93724 1.8232 10.1362 1.54459 10.3642C1.26559 10.5925 1.1665 10.8155 1.1665 10.9997C1.1665 11.1839 1.26559 11.4068 1.54459 11.6351C1.8232 11.8631 2.24536 12.0621 2.77361 12.1779C3.04334 12.2371 3.21405 12.5037 3.1549 12.7734C3.09575 13.0432 2.82913 13.2139 2.5594 13.1547C1.91815 13.0141 1.34031 12.7601 0.911299 12.4091C0.48267 12.0583 0.166504 11.5762 0.166504 10.9997C0.166504 10.4232 0.48267 9.94103 0.911299 9.59029C1.34031 9.23924 1.91815 8.98524 2.5594 8.84461Z" fill="#4A4A4A"/>
</g>
<defs>
<clipPath id="clip0_1467_8937">
<rect width="16" height="16" fill="white"/>
</clipPath>
</defs>
</svg>
