<svg width="16" height="16" viewBox="0 0 16 16" fill="none" xmlns="http://www.w3.org/2000/svg">
<g clip-path="url(#clip0_1523_11506)">
<path fill-rule="evenodd" clip-rule="evenodd" d="M11.604 0.833282C11.6349 0.833297 11.6662 0.833313 11.6979 0.833313L12.1116 0.833312C12.6926 0.833292 13.1784 0.833276 13.5644 0.885008C13.9721 0.939666 14.3425 1.06016 14.6406 1.35733C14.9388 1.65471 15.06 2.02459 15.1149 2.43185C15.1668 2.81693 15.1668 3.30153 15.1668 3.88059V4.29327C15.1668 4.32505 15.1668 4.35642 15.1668 4.38738C15.1672 5.08741 15.1674 5.57871 14.9807 6.0282C14.794 6.47753 14.4456 6.82455 13.9488 7.31931C13.9269 7.34118 13.9046 7.36334 13.8821 7.38581L12.1022 9.16032L12.1643 9.25614C12.4267 9.66145 12.6393 9.98978 12.7928 10.2729C12.9518 10.5662 13.0647 10.8413 13.11 11.1456C13.1827 11.6348 13.117 12.1377 12.9241 12.5997C12.8526 12.771 12.7289 12.9505 12.602 13.1142C12.469 13.2856 12.3065 13.4724 12.1319 13.6627C11.7844 14.0413 11.3672 14.4572 10.9969 14.8264L10.9362 14.8869C10.4563 15.3655 9.6243 15.2103 9.36835 14.5682C9.21659 14.1875 9.15517 14.0358 9.0783 13.8956C9.00703 13.7657 8.92525 13.6417 8.83377 13.525C8.73638 13.4007 8.62258 13.2857 8.34036 13.0043L8.00382 12.7093C7.99912 12.7051 7.99449 12.7009 7.98995 12.6966C7.92764 12.7047 7.86439 12.7089 7.80003 12.7089C7.37905 12.7089 7.03173 12.5331 6.70432 12.2841C6.39463 12.0485 6.05104 11.7059 5.64026 11.2963L4.67585 10.3348C4.26508 9.92532 3.92146 9.58275 3.68515 9.27395C3.43537 8.94757 3.25851 8.60058 3.25851 8.17947C3.25851 8.10304 3.26438 8.02828 3.27577 7.95494L2.72216 7.40299C2.68988 7.37081 2.67695 7.35794 2.6642 7.34556C2.41509 7.10385 2.12199 6.91161 1.80056 6.77917C1.78409 6.77239 1.76711 6.76565 1.72469 6.74884L1.47226 6.64882C0.79656 6.38107 0.614671 5.50902 1.13053 4.99472L1.13524 4.99002C1.50552 4.62086 1.92268 4.20496 2.30244 3.85853C2.49326 3.68445 2.68059 3.52241 2.85254 3.38988C3.01675 3.26331 3.19661 3.14011 3.36811 3.06896C3.83092 2.87693 4.33453 2.81151 4.82431 2.88389C5.12891 2.9289 5.40439 3.04129 5.69846 3.19975C5.98238 3.35274 6.31164 3.56466 6.71824 3.82635L6.81668 3.88972L8.5982 2.11354C8.62065 2.09116 8.64279 2.06906 8.66465 2.04725C9.16118 1.55171 9.50907 1.20451 9.95933 1.01857C10.4094 0.832685 10.9014 0.832931 11.604 0.833282ZM6.09181 4.61242C5.71847 4.37235 5.44974 4.20167 5.2241 4.08008C4.98471 3.95108 4.82439 3.89476 4.67812 3.87314C4.37269 3.82801 4.05179 3.86795 3.75134 3.99261C3.70646 4.01123 3.61197 4.0671 3.46302 4.18191C3.3218 4.29075 3.15717 4.43239 2.97639 4.5973C2.61457 4.92738 2.21194 5.32865 1.83657 5.70289C1.83445 5.70501 1.83377 5.70617 1.83371 5.70627C1.83365 5.70638 1.83371 5.70627 1.83371 5.70627C1.83364 5.7065 1.83317 5.70847 1.8338 5.7115C1.83442 5.71452 1.83556 5.71619 1.83586 5.71656C1.83605 5.7167 1.83767 5.71796 1.84064 5.71914L2.09645 5.82051C2.13448 5.83557 2.15803 5.8449 2.1815 5.85457C2.62013 6.03529 3.02029 6.29771 3.36056 6.62787C3.37877 6.64554 3.3967 6.66342 3.42565 6.69227L3.74415 7.00982C3.78775 6.95567 3.83327 6.90189 3.88027 6.84825C4.09478 6.60344 4.37039 6.32866 4.68943 6.01059L6.09181 4.61242ZM8.96982 12.2263L9.02371 12.2735L9.05809 12.3078C9.31852 12.5674 9.47994 12.7284 9.62086 12.9082C9.74586 13.0677 9.85764 13.2371 9.95507 13.4147C10.0615 13.6088 10.144 13.8134 10.2727 14.1364L10.2862 14.1229C10.6616 13.7487 11.064 13.3473 11.3951 12.9865C11.5605 12.8063 11.7026 12.6422 11.8117 12.5014C11.9269 12.3529 11.9828 12.2588 12.0013 12.2145C12.1261 11.9155 12.166 11.5963 12.1209 11.2927C12.0993 11.1475 12.043 10.9881 11.9137 10.7495C11.7915 10.5241 11.6199 10.2556 11.3783 9.88212L9.97254 11.2836C9.64592 11.6093 9.36459 11.8898 9.11402 12.1062C9.06617 12.1475 9.01816 12.1876 8.96982 12.2263ZM11.6979 1.83331C10.8633 1.83331 10.585 1.84212 10.341 1.94285C10.0973 2.04352 9.89441 2.23331 9.30425 2.82171L5.40635 6.70792C5.07405 7.03921 4.82215 7.29072 4.63238 7.50729C4.44171 7.72488 4.34438 7.87384 4.29706 7.99151C4.26946 8.06014 4.25851 8.11936 4.25851 8.17947C4.25851 8.29309 4.29746 8.42862 4.47929 8.66622C4.6699 8.9153 4.96472 9.21074 5.40635 9.65103L5.51111 9.75548L6.53144 8.73821C6.72699 8.54324 7.04357 8.54372 7.23854 8.73927C7.43351 8.93483 7.43304 9.25141 7.23748 9.44638L6.21928 10.4615L6.32191 10.5639C6.76352 11.0041 7.05987 11.2981 7.30975 11.4882C7.54804 11.6694 7.68468 11.7089 7.80003 11.7089C7.85657 11.7089 7.91156 11.6993 7.97316 11.6767C8.09009 11.6336 8.23918 11.5404 8.4604 11.3493C8.68077 11.159 8.93725 10.9037 9.27814 10.5639L13.176 6.67765C13.7664 6.08908 13.9565 5.88704 14.0572 5.64453C14.1579 5.40219 14.1668 5.12566 14.1668 4.29327V3.91516C14.1668 3.29244 14.1657 2.87584 14.1239 2.56549C14.084 2.26967 14.0155 2.14623 13.9345 2.0655C13.8533 1.98457 13.7289 1.91601 13.4315 1.87614C13.1198 1.83437 12.7016 1.83331 12.0772 1.83331H11.6979ZM11.1093 4.88227C10.7988 4.57269 10.2947 4.57269 9.98418 4.88227C9.6745 5.19103 9.6745 5.69099 9.98418 5.99975C10.2947 6.30933 10.7988 6.30933 11.1093 5.99975C11.419 5.69099 11.419 5.19103 11.1093 4.88227ZM9.27814 4.1741C9.97894 3.47541 11.1145 3.47541 11.8153 4.1741C12.5169 4.87363 12.5169 6.0084 11.8153 6.70792C11.1145 7.40661 9.97894 7.40661 9.27814 6.70792C8.57652 6.0084 8.57652 4.87363 9.27814 4.1741Z" fill="#395AA8"/>
</g>
<defs>
<clipPath id="clip0_1523_11506">
<rect width="16" height="16" fill="white"/>
</clipPath>
</defs>
</svg>
