<svg width="16" height="16" viewBox="0 0 16 16" fill="none" xmlns="http://www.w3.org/2000/svg">
<path d="M12.5456 5.51463C12.8135 5.44765 13.0849 5.61053 13.1519 5.87843C13.2189 6.14633 13.056 6.4178 12.7881 6.48477L10.1214 7.15144C9.85353 7.21841 9.58207 7.05553 9.51509 6.78763C9.44812 6.51974 9.611 6.24827 9.87889 6.18129L12.5456 5.51463Z" fill="#4A4A4A"/>
<path d="M12.5456 8.18129C12.8135 8.11432 13.0849 8.2772 13.1519 8.5451C13.2189 8.81299 13.056 9.08446 12.7881 9.15144L10.1214 9.8181C9.85353 9.88508 9.58207 9.7222 9.51509 9.4543C9.44812 9.1864 9.611 8.91493 9.87889 8.84796L12.5456 8.18129Z" fill="#4A4A4A"/>
<path d="M2.84842 5.87843C2.9154 5.61053 3.18687 5.44765 3.45476 5.51463L6.12143 6.18129C6.38933 6.24827 6.55221 6.51974 6.48523 6.78763C6.41826 7.05553 6.14679 7.21841 5.87889 7.15144L3.21223 6.48477C2.94433 6.4178 2.78145 6.14633 2.84842 5.87843Z" fill="#4A4A4A"/>
<path d="M2.84842 8.5451C2.9154 8.2772 3.18687 8.11432 3.45476 8.18129L6.12143 8.84796C6.38933 8.91493 6.55221 9.1864 6.48523 9.4543C6.41826 9.7222 6.14679 9.88508 5.87889 9.8181L3.21223 9.15144C2.94433 9.08446 2.78145 8.81299 2.84842 8.5451Z" fill="#4A4A4A"/>
<path fill-rule="evenodd" clip-rule="evenodd" d="M15.1668 3.28849C15.1668 2.31296 14.39 1.47633 13.3707 1.51183C12.6119 1.53827 11.6199 1.61721 10.8568 1.84566C10.1934 2.04426 9.44726 2.43215 8.8656 2.76878C8.32021 3.08442 7.64127 3.10017 7.08872 2.80799C6.42507 2.45707 5.55194 2.04111 4.7944 1.84121C4.15386 1.67218 3.34361 1.591 2.68577 1.55057C1.64694 1.48672 0.833496 2.33213 0.833496 3.33157V10.7621C0.833496 11.7862 1.66269 12.5858 2.64552 12.6473C3.2847 12.6872 4.00394 12.7641 4.53926 12.9054C5.20096 13.08 6.01923 13.4682 6.67991 13.8204C7.50211 14.2587 8.49821 14.2587 9.32042 13.8204C9.98109 13.4682 10.7994 13.08 11.4611 12.9054C11.9964 12.7641 12.7156 12.6872 13.3548 12.6473C14.3376 12.5858 15.1668 11.7862 15.1668 10.7621V3.28849ZM13.4056 2.51123C13.8154 2.49695 14.1668 2.8341 14.1668 3.28849V10.7621C14.1668 11.2193 13.788 11.6182 13.2924 11.6492C12.639 11.6901 11.8395 11.7713 11.2059 11.9385C10.4257 12.1444 9.52199 12.5798 8.85002 12.938C8.73786 12.9978 8.6205 13.0448 8.50016 13.0792V3.96105C8.80171 3.90069 9.09489 3.79148 9.36651 3.63428C9.93347 3.30616 10.5967 2.96736 11.1436 2.80366C11.7763 2.61422 12.6597 2.53721 13.4056 2.51123ZM7.50016 3.98302C7.19682 3.93585 6.89949 3.83913 6.62127 3.69201C5.97007 3.34767 5.18067 2.97737 4.53926 2.80811C3.99778 2.66523 3.26841 2.58826 2.62443 2.54868C2.20178 2.52271 1.8335 2.86678 1.8335 3.33157V10.7621C1.8335 11.2193 2.21237 11.6182 2.70795 11.6492C3.36134 11.6901 4.16078 11.7713 4.7944 11.9385C5.57463 12.1444 6.47834 12.5798 7.15031 12.938C7.26247 12.9978 7.37982 13.0448 7.50016 13.0792V3.98302Z" fill="#4A4A4A"/>
</svg>
