<svg width="16" height="16" viewBox="0 0 16 16" fill="none" xmlns="http://www.w3.org/2000/svg">
<g clip-path="url(#clip0_1467_10951)">
<path fill-rule="evenodd" clip-rule="evenodd" d="M0.833496 1.33301C0.833496 1.05687 1.05735 0.833008 1.3335 0.833008H14.6668C14.943 0.833008 15.1668 1.05687 15.1668 1.33301C15.1668 1.60915 14.943 1.83301 14.6668 1.83301H13.8335V7.03829C13.8335 8.02684 13.8335 8.82217 13.7449 9.44731C13.6526 10.0978 13.4557 10.6369 13.008 11.0613C12.5641 11.4821 12.0065 11.6639 11.3333 11.7497C10.6793 11.833 9.84493 11.833 8.79748 11.833H8.50016V13.6907L9.5571 14.2191C9.80409 14.3426 9.9042 14.643 9.78071 14.8899C9.65721 15.1369 9.35688 15.237 9.10989 15.1136L8.00016 14.5587L6.89044 15.1136C6.64345 15.237 6.34311 15.1369 6.21962 14.8899C6.09612 14.643 6.19623 14.3426 6.44322 14.2191L7.50016 13.6907V11.833H7.20285C6.1554 11.833 5.32105 11.833 4.667 11.7497C3.99382 11.6639 3.43627 11.4821 2.99232 11.0613C2.5446 10.6369 2.34773 10.0978 2.25547 9.44731C2.1668 8.82217 2.16681 8.02686 2.16683 7.03831L2.16683 1.83301H1.3335C1.05735 1.83301 0.833496 1.60915 0.833496 1.33301ZM3.16683 1.83301V6.99967C3.16683 8.03594 3.16801 8.76012 3.24556 9.30688C3.32066 9.8364 3.45853 10.1253 3.68028 10.3355C3.9058 10.5493 4.22173 10.6848 4.79342 10.7577C5.37687 10.8321 6.14734 10.833 7.23826 10.833H8.76207C9.85298 10.833 10.6235 10.8321 11.2069 10.7577C11.7786 10.6848 12.0945 10.5493 12.32 10.3355C12.5418 10.1253 12.6797 9.8364 12.7548 9.30688C12.8323 8.76011 12.8335 8.03594 12.8335 6.99967V1.83301H3.16683ZM10.3537 5.31279C10.549 5.50805 10.549 5.82463 10.3537 6.01989L9.49179 6.88182C9.4864 6.88721 9.48099 6.89263 9.47555 6.89807C9.37889 6.9948 9.27438 7.09939 9.17427 7.17578C9.05697 7.26527 8.88914 7.3616 8.66683 7.3616C8.44451 7.3616 8.27668 7.26527 8.15939 7.17578C8.05927 7.09939 7.95476 6.9948 7.85811 6.89807C7.85267 6.89263 7.84726 6.88721 7.84187 6.88182L7.45135 6.4913C7.40464 6.44459 7.36676 6.40675 7.3335 6.37454C7.30023 6.40675 7.26235 6.44459 7.21565 6.4913L6.35372 7.35323C6.15845 7.54849 5.84187 7.54849 5.64661 7.35323C5.45135 7.15797 5.45135 6.84138 5.64661 6.64612L6.50854 5.78419C6.51392 5.77881 6.51934 5.77339 6.52477 5.76795C6.62143 5.67122 6.72594 5.56662 6.82606 5.49024C6.94335 5.40075 7.11118 5.30441 7.3335 5.30441C7.55581 5.30441 7.72364 5.40075 7.84093 5.49023C7.94105 5.56663 8.04557 5.67122 8.14222 5.76795C8.14766 5.77339 8.15307 5.77881 8.15845 5.78419L8.54898 6.17472C8.59568 6.22142 8.63356 6.25927 8.66683 6.29148C8.7001 6.25927 8.73797 6.22142 8.78468 6.17472L9.64661 5.31279C9.84187 5.11753 10.1585 5.11753 10.3537 5.31279Z" fill="#4A4A4A"/>
</g>
<defs>
<clipPath id="clip0_1467_10951">
<rect width="16" height="16" fill="white"/>
</clipPath>
</defs>
</svg>
