<svg width="16" height="16" viewBox="0 0 16 16" fill="none" xmlns="http://www.w3.org/2000/svg">
<g clip-path="url(#clip0_1523_14310)">
<path fill-rule="evenodd" clip-rule="evenodd" d="M11.1372 2.04768C9.9753 2.35569 8.43618 2.97037 6.32572 3.81455C5.39845 4.18546 5.04812 4.33275 4.77656 4.57088C4.70354 4.63491 4.63479 4.70366 4.57076 4.77669C4.33262 5.04824 4.18534 5.39857 3.81443 6.32584C2.97024 8.4363 2.35557 9.97542 2.04755 11.1373C1.73512 12.3158 1.78575 12.9446 2.06091 13.3495C2.21851 13.5814 2.41853 13.7814 2.65045 13.939C3.05537 14.2142 3.68417 14.2648 4.86266 13.9524C6.02452 13.6444 7.56365 13.0297 9.6741 12.1855C10.6014 11.8146 10.9517 11.6673 11.2233 11.4292L11.5291 11.778L11.2233 11.4292C11.2963 11.3651 11.365 11.2964 11.4291 11.2234L11.7817 11.5326L11.4291 11.2234C11.6672 10.9518 11.8145 10.6015 12.1854 9.67423C13.0296 7.56377 13.6442 6.02465 13.9523 4.86278C14.2647 3.68429 14.2141 3.05549 13.9389 2.65058C13.7813 2.41866 13.5813 2.21863 13.3494 2.06103C12.9444 1.78587 12.3157 1.73525 11.1372 2.04768ZM10.8809 1.08107C12.0994 0.758043 13.1183 0.694979 13.9114 1.23393C14.2476 1.46238 14.5376 1.75234 14.766 2.08853C15.305 2.88164 15.2419 3.90058 14.9189 5.11904C14.5933 6.34696 13.9551 7.94251 13.1284 10.0093L13.1139 10.0456C13.1025 10.0741 13.0913 10.1022 13.0802 10.1299C12.7549 10.9437 12.5459 11.4665 12.1809 11.8827C12.0881 11.9886 11.9884 12.0882 11.8826 12.181C11.4664 12.546 10.9435 12.755 10.1298 13.0803C10.1021 13.0914 10.0739 13.1026 10.0455 13.114L10.0092 13.1285C7.9424 13.9552 6.34684 14.5935 5.11892 14.919C3.90046 15.242 2.88151 15.3051 2.08841 14.7661C1.75222 14.5377 1.46226 14.2477 1.2338 13.9115L1.64736 13.6305L1.2338 13.9115C0.694857 13.1184 0.757921 12.0995 1.08094 10.881C1.40648 9.65311 2.0447 8.05755 2.87143 5.99074L2.88595 5.95445C2.89733 5.926 2.90856 5.89791 2.91966 5.87015C3.24493 5.0564 3.45392 4.53356 3.8189 4.11736C3.91173 4.01151 4.01138 3.91185 4.11724 3.81902C4.53344 3.45404 5.05628 3.24505 5.87003 2.91977C5.89779 2.90868 5.92589 2.89745 5.95433 2.88607L5.99062 2.87156C8.05743 2.04483 9.65299 1.4066 10.8809 1.08107ZM7.99991 6.50003C7.17148 6.50003 6.49991 7.17161 6.49991 8.00003C6.49991 8.82846 7.17148 9.50003 7.99991 9.50003C8.82834 9.50003 9.49991 8.82846 9.49991 8.00003C9.49991 7.17161 8.82834 6.50003 7.99991 6.50003ZM5.49991 8.00003C5.49991 6.61932 6.6192 5.50003 7.99991 5.50003C9.38062 5.50003 10.4999 6.61932 10.4999 8.00003C10.4999 9.38074 9.38062 10.5 7.99991 10.5C6.6192 10.5 5.49991 9.38074 5.49991 8.00003Z" fill="#395AA8"/>
</g>
<defs>
<clipPath id="clip0_1523_14310">
<rect width="16" height="16" fill="white"/>
</clipPath>
</defs>
</svg>
