<svg width="16" height="16" viewBox="0 0 16 16" fill="none" xmlns="http://www.w3.org/2000/svg">
<path fill-rule="evenodd" clip-rule="evenodd" d="M6.81283 1.09708C7.18923 0.921147 7.59443 0.833008 7.99984 0.833008C8.40524 0.833008 8.81044 0.921147 9.18684 1.09708C10.6369 1.77486 11.7961 3.04426 12.5895 4.5051C13.3838 5.96773 13.8332 7.66074 13.8332 9.23748C13.8332 12.5035 11.2298 15.1663 7.99984 15.1663C4.76985 15.1663 2.1665 12.5035 2.1665 9.23748C2.1665 7.66074 2.61586 5.96773 3.41021 4.5051C4.20358 3.04426 5.36275 1.77486 6.81283 1.09708ZM7.49984 1.90393C7.41028 1.92984 7.32216 1.96286 7.23627 2.00301C6.03052 2.56658 5.01066 3.65351 4.28897 4.98235C3.56826 6.3094 3.1665 7.83943 3.1665 9.23748C3.1665 11.7948 5.07198 13.8853 7.49984 14.1402V1.90393ZM8.49984 1.90393V4.79257L10.2518 3.04059C9.79902 2.60774 9.2996 2.25362 8.76341 2.00301C8.67752 1.96286 8.58939 1.92984 8.49984 1.90393ZM10.924 3.78263L8.49984 6.20678V8.45923L11.8028 5.15631C11.7727 5.09796 11.742 5.03997 11.7107 4.98235C11.4782 4.55419 11.2147 4.15114 10.924 3.78263ZM12.2383 6.13496L8.49984 9.87345V11.7926L12.6463 7.64615L12.6782 7.67805C12.5778 7.15991 12.4299 6.64045 12.2383 6.13496ZM12.8247 8.88193L8.49984 13.2068V14.1402C10.9277 13.8853 12.8332 11.7948 12.8332 9.23748C12.8332 9.11983 12.8303 9.00125 12.8247 8.88193Z" fill="#4A4A4A"/>
</svg>
