<svg width="16" height="16" viewBox="0 0 16 16" fill="none" xmlns="http://www.w3.org/2000/svg">
<path fill-rule="evenodd" clip-rule="evenodd" d="M6.19756 1.32736C6.59283 1.69594 6.89834 2.23876 7.05511 2.85957C7.21201 3.48085 7.20189 4.10835 7.03596 4.6288C6.87278 5.1406 6.52822 5.62361 5.96736 5.78307C5.40011 5.94434 4.86075 5.70476 4.46946 5.33989C4.07419 4.97131 3.76869 4.4285 3.61191 3.80769C3.45502 3.1864 3.46514 2.5589 3.63107 2.03845C3.79424 1.52665 4.1388 1.04365 4.69967 0.884186C5.26691 0.722913 5.80627 0.962488 6.19756 1.32736ZM5.51557 2.05872C5.2793 1.8384 5.08897 1.81313 4.97314 1.84607C4.85093 1.88081 4.68837 2.01429 4.58382 2.34221C4.48203 2.66149 4.46383 3.09696 4.58148 3.56284C4.69925 4.02921 4.91916 4.39193 5.15145 4.60853C5.38772 4.82885 5.57805 4.85412 5.69388 4.82119C5.81609 4.78644 5.97866 4.65296 6.08321 4.32504C6.185 4.00577 6.2032 3.5703 6.08555 3.10441C5.96778 2.63805 5.74786 2.27533 5.51557 2.05872Z" fill="#4A4A4A"/>
<path fill-rule="evenodd" clip-rule="evenodd" d="M7.23412 6.29267C7.73146 6.12506 8.26892 6.12506 8.76626 6.29267C9.31852 6.47879 9.71953 6.94091 10.0917 7.53127C10.4653 8.12386 10.8712 8.95021 11.3878 10.002L11.9925 11.2331C12.125 11.5028 12.2309 11.7184 12.3071 11.8898C12.3819 12.058 12.4464 12.2229 12.4738 12.383C12.6573 13.4584 11.862 14.4679 10.765 14.4998C10.6021 14.5046 10.428 14.4724 10.2511 14.4313C10.0704 14.3893 9.8415 14.3266 9.55574 14.2483L9.54507 14.2454C9.20183 14.1513 9.0522 14.1106 8.90414 14.0806C8.30732 13.9598 7.69306 13.9598 7.09625 14.0806C6.94819 14.1106 6.79855 14.1513 6.45531 14.2454L6.44465 14.2483C6.15903 14.3266 5.92989 14.3894 5.74932 14.4313C5.57241 14.4724 5.39831 14.5046 5.23535 14.4998C4.13838 14.4679 3.34306 13.4584 3.52663 12.383C3.55396 12.2229 3.61854 12.058 3.69331 11.8898C3.76953 11.7184 3.8754 11.5028 4.0079 11.2331L4.61258 10.0021C5.12923 8.95022 5.53513 8.12387 5.9087 7.53127C6.28086 6.94091 6.68187 6.47879 7.23412 6.29267ZM8.44689 7.2403C8.15674 7.14251 7.84365 7.14251 7.55349 7.2403C7.34493 7.31059 7.10125 7.51472 6.75464 8.06455C6.41283 8.60676 6.02985 9.38491 5.49607 10.4716L4.91024 11.6643C4.77188 11.9459 4.67458 12.1442 4.60708 12.2961C4.53723 12.4532 4.51737 12.522 4.51237 12.5513C4.42767 13.0475 4.79507 13.4866 5.26447 13.5002C5.29032 13.501 5.35801 13.4955 5.52312 13.4572C5.68225 13.4203 5.89211 13.3628 6.191 13.2809L6.21029 13.2756C6.52897 13.1883 6.71269 13.1379 6.89792 13.1005C7.62562 12.9532 8.37476 12.9532 9.10247 13.1005C9.28771 13.1379 9.47138 13.1883 9.7901 13.2756L9.80939 13.2809C10.1083 13.3628 10.3181 13.4203 10.4773 13.4572C10.6424 13.4955 10.7101 13.501 10.7359 13.5002C11.2053 13.4866 11.5727 13.0475 11.488 12.5513C11.483 12.522 11.4632 12.4532 11.3933 12.2961C11.3258 12.1442 11.2285 11.9459 11.0901 11.6643L10.5043 10.4716C9.97054 9.38491 9.58756 8.60677 9.24575 8.06455C8.89914 7.51472 8.65545 7.31059 8.44689 7.2403Z" fill="#4A4A4A"/>
<path fill-rule="evenodd" clip-rule="evenodd" d="M8.94525 2.85957C9.10203 2.23876 9.40753 1.69594 9.8028 1.32736C10.1941 0.962488 10.7335 0.722913 11.3007 0.884186C11.8616 1.04365 12.2061 1.52665 12.3693 2.03845C12.5352 2.5589 12.5453 3.1864 12.3885 3.80769C12.2317 4.4285 11.9262 4.97131 11.5309 5.33989C11.1396 5.70476 10.6003 5.94434 10.033 5.78307C9.47215 5.62361 9.12758 5.1406 8.96441 4.6288C8.79848 4.10835 8.78836 3.48085 8.94525 2.85957ZM11.0272 1.84607C10.9114 1.81313 10.7211 1.8384 10.4848 2.05872C10.2525 2.27533 10.0326 2.63805 9.91482 3.10441C9.79717 3.5703 9.81537 4.00577 9.91716 4.32504C10.0217 4.65296 10.1843 4.78644 10.3065 4.82119C10.4223 4.85412 10.6126 4.82885 10.8489 4.60853C11.0812 4.39193 11.3011 4.02921 11.4189 3.56284C11.5365 3.09696 11.5183 2.66149 11.4165 2.34221C11.312 2.01429 11.1494 1.88081 11.0272 1.84607Z" fill="#4A4A4A"/>
<path fill-rule="evenodd" clip-rule="evenodd" d="M3.13044 6.13596C2.75466 5.876 2.26856 5.73863 1.7904 5.90759C1.30949 6.07751 1.02201 6.49163 0.903326 6.93319C0.784482 7.37533 0.817836 7.88669 0.99955 8.37329C1.18134 8.86009 1.49199 9.26985 1.86993 9.5313C2.24571 9.79127 2.7318 9.92864 3.20996 9.75968C3.69087 9.58975 3.97835 9.17563 4.09704 8.73408C4.21588 8.29194 4.18253 7.78058 4.00082 7.29398C3.81903 6.80718 3.50838 6.39742 3.13044 6.13596ZM2.56151 6.95835C2.75377 7.09135 2.94579 7.32726 3.06401 7.64381C3.18229 7.96057 3.18947 8.25817 3.13132 8.4745C3.07301 8.69143 2.96598 8.7853 2.8768 8.81681C2.78488 8.84929 2.63326 8.84341 2.43885 8.70891C2.2466 8.57591 2.05457 8.34001 1.93636 8.02345C1.81807 7.7067 1.8109 7.4091 1.86905 7.19276C1.92736 6.97584 2.03439 6.88197 2.12356 6.85046C2.21548 6.81798 2.36711 6.82386 2.56151 6.95835Z" fill="#4A4A4A"/>
<path fill-rule="evenodd" clip-rule="evenodd" d="M14.21 5.90759C13.7318 5.73863 13.2457 5.876 12.8699 6.13596C12.492 6.39742 12.1813 6.80718 11.9995 7.29398C11.8178 7.78058 11.7845 8.29194 11.9033 8.73408C12.022 9.17563 12.3095 9.58975 12.7904 9.75968C13.2686 9.92864 13.7547 9.79127 14.1304 9.5313C14.5084 9.26985 14.819 8.86009 15.0008 8.37329C15.1825 7.88669 15.2159 7.37533 15.097 6.93319C14.9784 6.49163 14.6909 6.07751 14.21 5.90759ZM12.9364 7.64381C13.0546 7.32726 13.2466 7.09135 13.4389 6.95835C13.6333 6.82386 13.7849 6.81798 13.8768 6.85046C13.966 6.88197 14.073 6.97584 14.1313 7.19276C14.1895 7.4091 14.1823 7.7067 14.064 8.02345C13.9458 8.34001 13.7538 8.57591 13.5615 8.70891C13.3671 8.84341 13.2155 8.84929 13.1236 8.81681C13.0344 8.7853 12.9274 8.69143 12.869 8.4745C12.8109 8.25817 12.8181 7.96057 12.9364 7.64381Z" fill="#4A4A4A"/>
</svg>
