<?xml version="1.0" encoding="UTF-8"?>
<!-- Creator: CorelDRAW X7 -->
<svg xmlns="http://www.w3.org/2000/svg" xmlns:xlink="http://www.w3.org/1999/xlink" xml:space="preserve" width="2480px" height="945px" version="1.1" style="shape-rendering:geometricPrecision; text-rendering:geometricPrecision; image-rendering:optimizeQuality; fill-rule:evenodd; clip-rule:evenodd" viewBox="0 0 2480 945">
 <defs>
  <style type="text/css">
   <![CDATA[
    .fil2 {fill:#239BAA}
    .fil0 {fill:#25ACC1}
    .fil4 {fill:#36849F}
    .fil1 {fill:#39B9D1}
    .fil7 {fill:#409A47}
    .fil3 {fill:#49BD9A}
    .fil10 {fill:#5A5D67}
    .fil9 {fill:#5B5E69}
    .fil6 {fill:#61AE46}
    .fil8 {fill:#65544E}
    .fil5 {fill:#80C342}
    .fil12 {fill:#3C3E45;fill-opacity:0.670588}
    .fil11 {fill:#585B66;fill-opacity:0.968627}
   ]]>
  </style>
 </defs>
 <g id="Layer_x0020_1">
  <metadata id="CorelCorpID_0Corel-Layer"></metadata>
  <g id="_1847540794640">
   <g>
    <path class="fil0" d="M169 235c74,-52 181,-42 246,20 -86,-17 -178,30 -219,107 -11,20 -12,43 -18,64 -5,10 -14,17 -22,25 -7,-40 -5,-83 14,-119 22,-47 63,-81 106,-108 -36,-7 -73,-2 -107,11z"></path>
    <path class="fil1" d="M375 212c49,9 94,38 123,79 23,31 34,70 37,109 -49,-72 -147,-105 -229,-80 -22,7 -39,22 -58,33 -11,3 -23,2 -34,3 21,-33 51,-59 87,-72 50,-20 106,-16 157,-4 -20,-31 -50,-53 -83,-68z"></path>
    <path class="fil2" d="M118 274c32,-23 71,-34 109,-36 -87,58 -119,194 -51,278 10,12 6,28 7,42 -34,-21 -61,-54 -74,-93 -17,-48 -14,-102 -2,-151 -30,20 -52,51 -68,83 10,-49 38,-94 79,-123z"></path>
    <path class="fil3" d="M322 328c44,-8 91,-3 129,20 41,23 73,60 97,99 8,-35 1,-71 -10,-105 33,50 43,115 23,172 -9,27 -25,51 -44,73 18,-84 -27,-173 -100,-215 -22,-14 -49,-17 -73,-21 -8,-8 -14,-15 -22,-23z"></path>
    <path class="fil4" d="M32 457c7,-37 26,-71 51,-100 -4,31 -6,62 4,91 16,51 48,97 95,124 22,14 48,17 73,21 7,8 15,16 22,24 -39,7 -80,4 -116,-14 -47,-22 -82,-62 -108,-105 -10,35 -2,71 9,104 -28,-42 -39,-95 -30,-145z"></path>
    <path class="fil5" d="M417 386c32,21 58,51 72,87 19,50 16,106 4,157 31,-19 52,-51 68,-83 -12,58 -50,111 -103,138 -27,14 -56,20 -86,22 72,-47 104,-143 81,-224 -6,-24 -21,-44 -35,-63 0,-11 -1,-23 -1,-34z"></path>
    <path class="fil6" d="M418 533c0,-17 15,-28 26,-38 8,44 3,91 -21,130 -23,41 -59,72 -99,96 37,7 75,2 109,-13 -71,52 -177,46 -242,-14l-4 5c2,-6 4,-12 7,-17l-3 9c55,9 112,-8 155,-41 38,-28 67,-69 72,-117z"></path>
    <path class="fil7" d="M225 732c-90,-13 -158,-98 -159,-187 46,70 140,103 221,81 25,-6 45,-21 66,-35 11,-1 22,-1 33,-2 -27,44 -74,74 -125,83 -40,6 -81,3 -120,-7 21,30 50,53 84,67z"></path>
   </g>
   <g>
    <g>
     <g>
      <path class="fil8" d="M791 217c6,0 13,0 20,0 0,45 -2,90 0,135 2,18 24,6 36,7 1,6 3,12 4,18 -15,2 -31,6 -46,1 -11,-4 -15,-16 -14,-26 -1,-45 0,-90 0,-135z"></path>
      <path class="fil8" d="M868 245c-3,-9 -8,-24 6,-28 14,-2 20,14 13,25 -6,2 -13,3 -19,3z"></path>
      <g>
       <path class="fil8" d="M1803 217c7,0 14,0 21,0 0,53 0,107 0,160 -26,3 -54,8 -79,-4 -18,-9 -24,-31 -24,-49 -1,-20 3,-42 20,-55 18,-12 41,-9 62,-7 0,-15 0,-30 0,-45l0 0zm-55 73c-10,18 -9,43 2,61 13,14 35,11 53,11 0,-28 0,-55 0,-82 -19,-2 -42,-7 -55,10z"></path>
      </g>
      <path class="fil8" d="M684 233c25,-18 59,-11 87,-5 -2,6 -3,12 -4,18 -21,-4 -45,-10 -65,1 -19,12 -23,37 -22,58 1,20 7,44 27,53 20,8 43,2 63,-1 2,6 3,13 4,19 -25,4 -52,8 -77,0 -26,-10 -37,-40 -38,-66 -1,-27 1,-59 25,-77z"></path>
      <path class="fil8" d="M1223 226c7,0 14,0 20,0 0,12 0,25 0,37 13,0 26,0 38,0 0,5 0,14 0,18 -12,0 -25,0 -38,0 1,27 -2,55 3,82 11,-1 23,-2 34,-4 1,5 3,14 4,18 -15,2 -30,6 -45,2 -11,-4 -16,-16 -16,-27 0,-42 0,-84 0,-126z"></path>
      <path class="fil8" d="M866 263c7,0 14,0 20,0 0,38 0,76 0,114 -6,0 -13,0 -20,0 0,-38 0,-76 0,-114z"></path>
      <path class="fil8" d="M914 263c26,-3 56,-8 80,6 19,-8 42,-14 62,-5 14,6 21,21 22,36 1,25 0,51 0,77 -7,0 -14,0 -20,0 -1,-24 0,-49 -1,-73 0,-10 -5,-21 -15,-25 -13,-4 -26,2 -38,6 3,31 1,61 2,92 -7,0 -14,0 -20,0 -1,-28 2,-56 -2,-84 -7,-21 -33,-15 -50,-13 0,32 0,64 0,97 -7,0 -14,0 -20,0 0,-38 -1,-76 0,-114z"></path>
      <g>
       <path class="fil8" d="M1106 264c24,-4 49,-9 72,1 13,6 20,21 20,35 1,25 0,51 0,77 -26,2 -54,7 -80,-1 -28,-8 -30,-55 -3,-66 20,-9 43,-6 65,-7 -3,-8 -4,-19 -13,-22 -18,-7 -38,-2 -56,0 -2,-4 -4,-13 -5,-17l0 0zm21 62c-11,3 -12,16 -9,25 15,17 40,9 60,10 0,-13 0,-26 0,-38 -17,-1 -35,-3 -51,3z"></path>
      </g>
      <g>
       <path class="fil8" d="M1318 267c20,-10 48,-11 67,4 17,14 18,38 19,59 -30,0 -60,-1 -90,0 4,11 8,25 20,29 20,7 41,2 61,-1 1,6 2,12 3,19 -26,2 -54,8 -79,-3 -18,-9 -24,-31 -24,-50 0,-21 3,-46 23,-57l0 0zm9 18c-9,7 -10,18 -13,27 23,0 47,0 70,0 -3,-10 -4,-21 -13,-27 -13,-10 -32,-10 -44,0z"></path>
      </g>
      <g>
       <path class="fil8" d="M1486 263c23,-3 48,-7 70,2 15,7 22,24 21,40 -1,24 2,48 -2,72 -25,3 -52,6 -77,-1 -29,-7 -32,-54 -5,-66 21,-8 44,-6 65,-7 -2,-8 -3,-19 -13,-22 -18,-7 -38,-2 -56,0 -1,-6 -2,-12 -3,-18l0 0zm19 64c-13,5 -13,27 0,31 16,7 34,4 51,3 1,-13 1,-26 1,-38 -18,-1 -36,-4 -52,4z"></path>
      </g>
      <path class="fil8" d="M1603 263c23,-2 47,-6 70,-1 15,3 25,18 27,33 2,27 0,54 1,82 -7,0 -13,0 -20,0 -1,-28 2,-56 -2,-84 -9,-23 -38,-14 -56,-13 0,32 0,65 0,97 -7,0 -14,0 -20,0 0,-38 0,-76 0,-114z"></path>
     </g>
     <g>
      <g>
       <path class="fil8" d="M1100 422c7,0 13,0 20,0 0,53 0,106 0,160 -25,3 -53,8 -78,-4 -16,-8 -23,-27 -24,-45 -1,-21 2,-45 20,-58 18,-14 41,-11 62,-8 0,-15 0,-30 0,-45l0 0zm-45 65c-12,6 -16,20 -17,32 0,14 1,31 13,40 14,11 33,7 49,7 0,-27 0,-54 0,-81 -15,-2 -31,-5 -45,2z"></path>
      </g>
      <path class="fil8" d="M1780 422c7,0 13,0 20,0 1,45 -1,90 1,135 2,18 24,6 35,7 2,6 3,12 4,18 -15,1 -31,6 -46,1 -11,-5 -15,-16 -14,-26 0,-45 0,-90 0,-135z"></path>
      <path class="fil8" d="M1853 422c7,0 13,0 20,0 2,48 -3,97 3,145 11,-1 22,-2 33,-3 1,4 4,13 5,18 -15,2 -30,5 -45,1 -11,-3 -16,-15 -16,-26 0,-45 0,-90 0,-135z"></path>
      <path class="fil8" d="M1930 426c15,-13 31,10 18,23 -16,6 -28,-10 -18,-23z"></path>
      <path class="fil8" d="M659 430c7,0 14,0 21,0 0,44 0,89 0,133 27,0 53,0 80,0 -1,6 -1,12 0,19 -34,0 -67,0 -101,0 0,-51 0,-101 0,-152z"></path>
      <path class="fil8" d="M1206 430c7,0 15,0 22,0 0,28 -1,56 0,84 0,16 1,33 14,44 13,10 31,10 47,6 16,-5 22,-24 23,-40 2,-31 0,-62 1,-94 7,0 14,0 21,0 -1,35 2,70 -2,104 -3,19 -13,40 -32,46 -22,8 -47,8 -67,-4 -20,-11 -25,-36 -26,-57 -1,-30 0,-59 -1,-89z"></path>
      <g>
       <path class="fil8" d="M1631 582c18,-51 34,-101 51,-152 11,0 22,0 34,0 17,51 33,101 50,152 -7,0 -14,0 -21,0 -4,-11 -8,-22 -12,-33 -23,0 -46,0 -69,0 -4,11 -8,22 -11,33 -7,0 -14,0 -22,0l0 0zm38 -51c20,0 39,0 59,0 -10,-29 -20,-59 -29,-88 -10,29 -20,58 -30,88z"></path>
      </g>
      <g>
       <path class="fil8" d="M782 468c24,-3 48,-8 71,2 13,5 20,20 21,34 1,26 0,52 0,78 -26,2 -54,7 -80,-1 -29,-9 -30,-58 -1,-67 20,-7 42,-5 63,-6 -3,-8 -5,-19 -14,-23 -18,-6 -37,-1 -56,1 -1,-6 -2,-12 -4,-18l0 0zm19 64c-12,5 -12,26 1,31 17,6 35,3 52,3 0,-13 0,-26 0,-39 -18,0 -36,-3 -53,5z"></path>
      </g>
      <path class="fil8" d="M899 468c22,-2 43,-5 65,-2 17,2 32,16 33,33 1,28 0,55 0,83 -7,0 -13,0 -20,0 0,-26 1,-52 0,-78 0,-10 -8,-20 -18,-21 -13,-2 -27,1 -40,2 0,32 0,64 0,97 -7,0 -13,0 -20,0 0,-38 0,-76 0,-114z"></path>
      <path class="fil8" d="M1370 471c21,-11 45,-5 67,-3 0,6 0,12 0,19 -18,-2 -36,-8 -53,-2 -9,2 -14,15 -5,21 13,11 32,7 47,15 24,10 24,52 -2,60 -24,8 -49,3 -73,1 1,-7 2,-13 3,-19 21,2 44,10 64,-1 9,-5 5,-18 -1,-23 -16,-9 -37,-6 -52,-18 -17,-12 -14,-42 5,-50z"></path>
      <g>
       <path class="fil8" d="M1486 469c22,-8 53,-7 69,13 11,15 11,35 11,52 -29,0 -59,0 -88,1 4,10 6,24 18,28 20,8 41,2 62,0 1,6 2,12 4,18 -28,3 -58,10 -83,-5 -18,-10 -21,-33 -21,-52 0,-21 6,-46 28,-55l0 0zm-9 47c24,1 47,1 70,0 -2,-15 -11,-33 -29,-33 -22,-5 -39,14 -41,33z"></path>
      </g>
      <path class="fil8" d="M1929 468c6,0 13,0 20,0 0,38 0,76 0,114 -7,0 -14,0 -20,0 0,-38 0,-76 0,-114z"></path>
      <g>
       <path class="fil8" d="M1979 468c21,-3 43,-6 64,-1 15,3 27,17 28,33 3,27 0,54 1,82 -27,2 -55,7 -81,-2 -28,-8 -30,-53 -4,-65 21,-9 44,-6 66,-7 -3,-8 -4,-20 -15,-23 -17,-6 -36,-1 -54,1 -1,-4 -4,-13 -5,-18l0 0zm19 64c-13,6 -11,29 4,32 16,5 33,2 50,2 0,-13 0,-26 0,-39 -18,0 -37,-3 -54,5z"></path>
      </g>
      <path class="fil8" d="M2097 468c23,-2 46,-6 68,-2 18,4 29,21 30,39 0,25 0,51 0,77 -7,0 -14,0 -20,0 -1,-28 2,-57 -2,-85 -9,-22 -38,-13 -56,-12 0,32 0,64 0,97 -7,0 -14,0 -20,0 0,-38 -1,-76 0,-114z"></path>
      <path class="fil8" d="M2216 515c1,-19 11,-40 30,-47 20,-7 42,-3 63,0 -1,6 -2,12 -3,18 -19,-2 -40,-8 -58,3 -13,10 -12,29 -12,45 1,12 6,27 19,30 18,5 36,2 53,0 2,6 3,12 4,18 -24,2 -51,8 -74,-4 -21,-13 -25,-41 -22,-63z"></path>
      <g>
       <path class="fil8" d="M2323 497c10,-35 59,-41 86,-22 18,13 18,38 19,59 -29,1 -59,0 -89,1 4,10 7,24 19,28 19,8 41,2 61,0 1,5 3,14 4,19 -27,2 -58,9 -83,-6 -24,-18 -22,-53 -17,-79l0 0zm27 -6c-7,7 -8,17 -11,25 23,1 46,1 70,0 -4,-9 -5,-22 -14,-28 -14,-8 -33,-8 -45,3z"></path>
      </g>
     </g>
    </g>
    <g>
     <path class="fil9" d="M767 656c2,-9 2,-19 10,-24 -1,24 -7,47 -12,70 -2,0 -5,0 -6,0 3,-15 6,-31 8,-46z"></path>
     <path class="fil9" d="M1199 642c0,-4 4,-7 7,-9 -2,23 -8,46 -12,69 -2,0 -5,0 -7,1 4,-21 8,-41 12,-61z"></path>
     <path class="fil9" d="M1493 637c7,-3 14,-1 21,-2 -5,6 -13,6 -19,8 -3,4 -5,9 -7,13 6,0 11,1 17,2 -4,4 -11,4 -17,5 -4,18 -5,37 -12,54 -4,8 -22,13 -25,3 7,-1 18,1 21,-8 4,-16 6,-33 10,-49 -3,-1 -10,-2 -13,-3 5,-1 9,-3 13,-5 3,-6 5,-14 11,-18z"></path>
     <path class="fil9" d="M1807 644c0,-5 4,-9 7,-11 -1,23 -8,46 -12,70 -1,-1 -5,-1 -6,-2 4,-19 7,-38 11,-57z"></path>
     <path class="fil9" d="M2098 638c2,-2 5,-4 6,-5 0,12 -3,24 -6,35 6,-8 20,-19 28,-8 2,13 -2,26 -5,39 -2,1 -5,4 -6,5 0,-14 6,-27 5,-41 -8,-6 -15,5 -19,11 -7,9 -4,24 -15,30 3,-22 7,-45 12,-66z"></path>
     <path class="fil9" d="M2263 636c2,-1 5,-1 7,-1 -4,19 -7,39 -11,58 0,5 -4,9 -8,11 3,-23 8,-45 12,-68z"></path>
     <path class="fil9" d="M824 638c3,2 15,4 8,9 -6,7 -10,-4 -8,-9z"></path>
     <g>
      <path class="fil9" d="M2018 655c2,-8 0,-19 10,-21 -2,18 -7,37 -10,55 -2,6 -1,15 -9,14 1,-3 3,-11 4,-14 -6,7 -12,16 -22,14 -7,-1 -9,-8 -8,-14 0,-10 2,-20 10,-27 7,-6 16,-6 25,-7l0 0zm-24 15c-4,8 -8,21 0,28 15,-6 19,-23 23,-37 -8,0 -19,1 -23,9z"></path>
     </g>
     <path class="fil9" d="M671 649c9,-11 24,-9 37,-8 0,1 0,5 -1,7 -7,-1 -15,-4 -23,-1 -15,7 -20,27 -16,41 6,14 23,6 34,7 -10,10 -29,11 -39,1 -8,-15 -3,-35 8,-47z"></path>
     <path class="fil9" d="M792 655c2,-6 2,-14 10,-17 -1,6 -1,12 -2,18 5,1 10,2 16,3 -6,2 -12,3 -18,4 -2,10 -4,21 -6,32 6,1 11,3 16,5 -7,3 -15,3 -22,1 0,-13 3,-26 5,-39 -3,0 -9,-1 -12,-1 4,-3 8,-4 13,-6z"></path>
     <path class="fil9" d="M937 655c3,-6 3,-14 11,-17 -1,6 -2,12 -3,18 5,1 10,1 15,2 -4,4 -11,4 -17,5 -2,11 -4,22 -5,33 4,0 12,2 15,3 -6,4 -16,7 -21,0 -1,-13 3,-25 5,-36 -3,-1 -10,-2 -13,-3 5,-1 9,-3 13,-5z"></path>
     <path class="fil9" d="M1272 655c2,-6 2,-14 10,-17 -1,6 -2,12 -3,18 4,1 11,1 15,2 -4,4 -11,4 -16,5 -3,11 -5,21 -6,32 5,1 10,2 15,4 -7,5 -14,4 -22,2 1,-13 3,-26 6,-38 -3,-1 -10,-2 -13,-3 5,-2 9,-3 14,-5z"></path>
     <path class="fil9" d="M2063 657c3,-7 2,-16 11,-19 -1,6 -2,12 -3,18 4,1 11,1 15,2 -4,4 -11,4 -17,5 -2,11 -4,22 -5,33 4,0 11,1 15,2 -6,7 -14,5 -22,3 1,-13 3,-26 6,-39 -3,0 -8,0 -10,0 0,-1 0,-4 0,-5 3,0 8,0 10,0z"></path>
     <path class="fil9" d="M2428 655c2,-6 1,-15 10,-17 -1,6 -2,12 -3,18 5,1 11,2 16,3 -6,2 -12,3 -18,4 -2,11 -4,22 -5,33 3,0 10,1 14,2 -5,8 -14,4 -21,3 0,-13 3,-26 6,-38 -3,-1 -10,-2 -13,-2 4,-3 9,-4 14,-6z"></path>
     <path class="fil9" d="M716 656c2,0 6,1 7,2 -3,13 -6,27 -6,40 20,-3 23,-25 29,-40 1,-1 4,-3 5,-3 -2,17 -5,34 -10,50l-3 -6 0 -8c-5,8 -18,17 -27,9 -3,-15 4,-30 5,-44z"></path>
     <path class="fil9" d="M823 656c2,0 5,0 6,1 -2,15 -5,30 -9,46 -1,-1 -4,-1 -6,-2 3,-15 6,-30 9,-45z"></path>
     <path class="fil9" d="M872 656c1,0 5,-1 6,-1 -7,15 -15,30 -24,44 -2,2 -5,4 -7,5 -3,-16 -7,-33 -9,-49 14,6 9,25 13,37 8,-11 13,-25 21,-36z"></path>
     <g>
      <path class="fil9" d="M890 660c9,-6 20,-4 29,-4 -4,17 -2,37 -14,50 1,-4 1,-12 2,-16 -6,6 -12,15 -21,13 -5,0 -8,-5 -8,-10 -1,-12 2,-26 12,-33l0 0zm-1 10c-4,9 -8,21 0,28 15,-6 20,-23 23,-37 -8,0 -19,1 -23,9z"></path>
     </g>
     <path class="fil9" d="M969 654c1,1 4,4 5,6 -2,13 -4,27 -8,40 -1,1 -4,4 -6,5 2,-17 5,-34 9,-51z"></path>
     <path class="fil9" d="M985 685c3,-10 2,-23 10,-31 0,3 1,8 1,11 6,-6 19,-15 26,-5 4,14 -3,29 -5,43 -2,0 -5,-2 -6,-2 2,-12 5,-23 6,-35 -2,-9 -10,-4 -14,1 -10,10 -12,25 -16,38 -6,-6 -3,-13 -2,-20z"></path>
     <g>
      <path class="fil9" d="M1048 659c8,-5 18,-3 27,-3 -5,19 -6,39 -12,58 -6,13 -23,11 -35,11 0,-2 0,-6 0,-8 7,2 16,4 23,0 9,-5 8,-18 12,-27 -6,7 -19,19 -28,9 -5,-14 0,-33 13,-40l0 0zm-7 19c-1,6 -4,24 7,18 12,-7 16,-22 19,-35 -11,-1 -24,4 -26,17z"></path>
     </g>
     <path class="fil9" d="M1107 667c2,-12 16,-11 24,-12l1 6c-7,1 -15,-1 -20,6 5,9 19,14 16,26 -4,11 -17,10 -27,10 1,-1 1,-4 2,-6 6,-1 16,2 19,-6 -1,-10 -18,-13 -15,-24z"></path>
     <g>
      <path class="fil9" d="M1154 658c10,-6 27,-1 26,12 3,19 -17,40 -36,31 -12,-12 -5,-36 10,-43l0 0zm7 3c-14,3 -22,25 -12,35 21,10 37,-35 12,-35z"></path>
     </g>
     <path class="fil9" d="M1218 658c1,-1 5,-2 7,-2 -2,13 -7,27 -6,41 13,2 19,-12 23,-22 4,-6 2,-18 11,-20 -3,16 -4,34 -11,49l-3 -1c1,-4 1,-10 1,-13 -5,8 -15,17 -26,11 -6,-14 3,-29 4,-43z"></path>
     <path class="fil9" d="M1302 656c2,0 5,1 7,1 -3,14 -5,29 -9,44l-6 3c2,-16 5,-32 8,-48z"></path>
     <g>
      <path class="fil9" d="M1335 657c6,-2 15,-2 20,4 13,19 -10,51 -33,40 -13,-13 -4,-39 13,-44l0 0zm4 4c-13,3 -19,21 -14,33 20,16 40,-33 14,-33z"></path>
     </g>
     <path class="fil9" d="M1374 659c2,-1 5,-4 6,-5 0,3 -1,11 -2,14 5,-9 25,-20 29,-5 -2,14 0,32 -12,41 0,-13 6,-27 5,-41 -4,-7 -12,3 -16,6 -9,10 -6,27 -18,35 2,-15 4,-30 8,-45z"></path>
     <path class="fil9" d="M1420 663c5,-8 19,-11 26,-3 -7,2 -17,-1 -21,7 1,10 18,13 15,24 -4,13 -20,14 -30,9 8,-4 21,-1 24,-11 -5,-8 -20,-14 -14,-26z"></path>
     <g>
      <path class="fil9" d="M1520 657c7,-3 18,-2 22,5 10,20 -10,48 -32,39 -16,-11 -7,-39 10,-44l0 0zm4 4c-13,4 -21,24 -11,34 20,12 37,-35 11,-34z"></path>
     </g>
     <path class="fil9" d="M1552 704c4,-17 1,-37 13,-51 0,3 0,9 0,12 4,-6 11,-10 19,-10 -8,9 -19,16 -21,28 -4,7 -2,18 -11,21z"></path>
     <g>
      <path class="fil9" d="M1609 681c2,-9 2,-19 8,-28 1,3 2,9 3,12 5,-6 18,-15 25,-5 4,12 1,27 -8,36 -7,7 -17,7 -25,7 -3,9 -1,20 -11,25 1,-16 5,-31 8,-47l0 0zm3 16c9,1 20,-1 24,-10 4,-8 7,-20 -1,-27 -14,7 -19,23 -23,37z"></path>
     </g>
     <path class="fil9" d="M1657 699c-7,-15 0,-39 18,-43 7,-2 18,1 17,11 0,8 -9,10 -15,13 -3,-2 -6,-4 -9,-6 7,0 18,-1 17,-10 -9,-8 -19,3 -23,11 3,2 6,4 8,6 -11,-3 -10,10 -6,15 7,2 14,0 21,-1 0,2 -1,5 -2,7 -8,0 -18,3 -26,-3z"></path>
     <g>
      <path class="fil9" d="M1714 657c8,-3 20,-3 24,6 6,15 -3,36 -19,39 -8,3 -19,0 -21,-9 -3,-14 3,-29 16,-36l0 0zm7 4c-14,3 -20,21 -15,33 20,16 40,-32 15,-33z"></path>
     </g>
     <g>
      <path class="fil9" d="M1752 674c2,-7 1,-16 10,-20 -1,3 -2,10 -2,14 5,-9 19,-19 27,-8 4,13 1,29 -10,38 -7,5 -16,4 -24,5 -2,8 0,21 -10,24 2,-18 6,-35 9,-53l0 0zm2 23c20,5 35,-20 25,-36 -16,4 -21,22 -25,36z"></path>
     </g>
     <path class="fil9" d="M1831 659c7,-5 22,-6 25,4 2,12 -13,18 -22,17 5,-6 15,-8 15,-17 -10,-6 -18,4 -23,11l9 2c-2,2 -6,6 -8,7 -5,2 -8,8 -2,10 7,6 16,3 25,2 -1,2 -2,5 -3,7 -9,0 -22,4 -27,-5 -4,-13 0,-29 11,-38z"></path>
     <g>
      <path class="fil9" d="M1897 659c9,-5 19,-3 28,-3 -3,15 -5,30 -9,45l-7 3c1,-4 3,-11 3,-15 -5,6 -11,16 -21,14 -7,0 -8,-8 -8,-14 0,-11 4,-24 14,-30l0 0zm0 8c-7,8 -11,22 -3,31 15,-6 19,-23 24,-37 -7,1 -16,-1 -21,6z"></path>
     </g>
     <path class="fil9" d="M1941 659c1,-2 4,-4 5,-5 0,3 0,9 -1,12 7,-8 24,-18 28,-3 -2,14 0,32 -12,42 0,-14 6,-28 5,-42 -8,-5 -14,4 -18,10 -7,9 -6,24 -16,32 2,-16 4,-32 9,-46z"></path>
     <path class="fil9" d="M2136 689c-2,-19 17,-43 37,-30 5,11 -5,18 -14,21 -3,-2 -6,-4 -9,-6 7,0 14,-1 18,-7 -6,-13 -20,-1 -23,8 2,2 5,5 7,7l-9 -1c1,5 0,11 3,15 8,3 16,0 24,-1 -8,12 -35,12 -34,-6z"></path>
     <g>
      <path class="fil9" d="M2206 677c2,-8 2,-18 9,-24 0,4 0,11 -1,15 6,-7 14,-15 24,-12 9,9 5,23 1,33 -5,12 -19,14 -31,14 -3,8 0,21 -10,24 1,-17 5,-33 8,-50l0 0zm3 20c21,6 35,-22 23,-38 -13,8 -20,23 -23,38z"></path>
     </g>
     <g>
      <path class="fil9" d="M2281 665c8,-11 22,-10 34,-9 -4,15 -5,30 -10,44l-5 4c0,-3 1,-10 2,-13 -6,7 -18,18 -26,9 -7,-11 -3,-26 5,-35l0 0zm1 11c-2,7 -6,20 4,22 13,-8 18,-24 21,-37 -10,-1 -23,3 -25,15z"></path>
     </g>
     <path class="fil9" d="M2322 705c4,-17 2,-37 13,-51 0,6 1,12 4,17 -8,10 -6,26 -17,34z"></path>
     <path class="fil9" d="M2340 659c7,-1 18,-8 22,2 1,13 -2,27 -6,39l-5 4c1,-12 4,-25 5,-37 2,-7 -7,-6 -10,-3 -2,-2 -4,-3 -6,-5z"></path>
     <g>
      <path class="fil9" d="M2376 699c-10,-17 3,-47 26,-43 9,1 11,13 4,19 -8,5 -18,5 -26,8 -1,4 0,8 1,12 7,4 15,1 22,0 0,2 -1,5 -1,6 -9,1 -19,4 -26,-2l0 0zm4 -23c9,-1 19,-1 25,-9 -8,-14 -21,0 -25,9z"></path>
     </g>
     <path class="fil10" d="M971 641c6,-2 8,0 6,6 -6,2 -8,0 -6,-6z"></path>
     <path class="fil11" d="M1305 641c6,-2 8,0 6,6 -6,2 -8,0 -6,-6z"></path>
     <path class="fil12" d="M1825 693c-6,-2 -3,-8 2,-10 -1,3 -1,7 -2,10z"></path>
    </g>
   </g>
  </g>
 </g>
</svg>
