<?xml version="1.0" encoding="UTF-8" standalone="no"?>
<!-- Created with Inkscape (http://www.inkscape.org/) -->

<svg
   xmlns:dc="http://purl.org/dc/elements/1.1/"
   xmlns:cc="http://creativecommons.org/ns#"
   xmlns:rdf="http://www.w3.org/1999/02/22-rdf-syntax-ns#"
   xmlns:svg="http://www.w3.org/2000/svg"
   xmlns="http://www.w3.org/2000/svg"
   xmlns:sodipodi="http://sodipodi.sourceforge.net/DTD/sodipodi-0.dtd"
   xmlns:inkscape="http://www.inkscape.org/namespaces/inkscape"
   version="1.1"
   id="svg2"
   width="350"
   height="350"
   viewBox="0 0 350 350"
   sodipodi:docname="Global-Forest-Watch-opt.svg"
   inkscape:version="0.91 r13725">
  <metadata
     id="metadata8">
    <rdf:RDF>
      <cc:Work
         rdf:about="">
        <dc:format>image/svg+xml</dc:format>
        <dc:type
           rdf:resource="http://purl.org/dc/dcmitype/StillImage" />
        <dc:title></dc:title>
      </cc:Work>
    </rdf:RDF>
  </metadata>
  <defs
     id="defs6" />
  <sodipodi:namedview
     pagecolor="#ffffff"
     bordercolor="#666666"
     borderopacity="1"
     objecttolerance="10"
     gridtolerance="10"
     guidetolerance="10"
     inkscape:pageopacity="0"
     inkscape:pageshadow="2"
     inkscape:window-width="1458"
     inkscape:window-height="1050"
     id="namedview4"
     showgrid="false"
     inkscape:zoom="1.645931"
     inkscape:cx="87.058794"
     inkscape:cy="91.553819"
     inkscape:window-x="220"
     inkscape:window-y="0"
     inkscape:window-maximized="0"
     inkscape:current-layer="svg2"
     showguides="false"
     inkscape:guide-bbox="true"
     inkscape:snap-global="false"
     fit-margin-top="0"
     fit-margin-left="0"
     fit-margin-right="0"
     fit-margin-bottom="0">
    <sodipodi:guide
       position="186.96382,117.93103"
       orientation="0,1"
       id="guide844"
       inkscape:locked="false" />
    <sodipodi:guide
       position="193.43565,148.49243"
       orientation="0,1"
       id="guide846"
       inkscape:locked="false" />
    <sodipodi:guide
       position="25.168208,124.04331"
       orientation="1,0"
       id="guide848"
       inkscape:locked="false" />
    <sodipodi:guide
       position="155.67052,97.660812"
       orientation="1,0"
       id="guide850"
       inkscape:locked="false" />
    <sodipodi:guide
       position="166.11017,59.684623"
       orientation="0,1"
       id="guide874"
       inkscape:locked="false" />
    <sodipodi:guide
       position="159.45857,27.145726"
       orientation="0,1"
       id="guide876"
       inkscape:locked="false" />
    <sodipodi:guide
       position="164.31244,73.70691"
       orientation="0,1"
       id="guide894"
       inkscape:locked="false" />
    <sodipodi:guide
       position="6.831372,104.08852"
       orientation="0,1"
       id="guide896"
       inkscape:locked="false" />
    <sodipodi:guide
       position="119.88662,66.898102"
       orientation="1,0"
       id="guide941"
       inkscape:locked="false" />
    <sodipodi:guide
       position="155.65687,99.539132"
       orientation="0,1"
       id="guide958"
       inkscape:locked="false" />
    <sodipodi:guide
       position="111.21944,91.844072"
       orientation="0,1"
       id="guide960"
       inkscape:locked="false" />
    <sodipodi:guide
       position="111.21944,87.524522"
       orientation="0,1"
       id="guide962"
       inkscape:locked="false" />
    <sodipodi:guide
       position="143.91204,131.34724"
       orientation="1,0"
       id="guide968"
       inkscape:locked="false" />
    <sodipodi:guide
       position="51.235281,117.39172"
       orientation="0,1"
       id="guide980"
       inkscape:locked="false" />
    <sodipodi:guide
       position="36.941706,129.63114"
       orientation="1,0"
       id="guide991"
       inkscape:locked="false" />
    <sodipodi:guide
       position="34.971367,123.97436"
       orientation="0,1"
       id="guide993"
       inkscape:locked="false" />
    <sodipodi:guide
       position="49.844249,129.12267"
       orientation="0,1"
       id="guide995"
       inkscape:locked="false" />
    <sodipodi:guide
       position="46.92052,119.77945"
       orientation="1,0"
       id="guide997"
       inkscape:locked="false" />
  </sodipodi:namedview>
  <g
     inkscape:groupmode="layer"
     id="layer1"
     inkscape:label="bg #97bd3d"
     style="display:inline"
     transform="translate(-20.134565,129.41547)">
    <path
       style="opacity:1;fill:#97bd3d;fill-opacity:1;stroke:none;stroke-width:0;stroke-linecap:square;stroke-linejoin:miter;stroke-miterlimit:10;stroke-dasharray:none;stroke-dashoffset:0;stroke-opacity:1;paint-order:stroke fill markers"
       d="m 20.134565,-129.41547 350.000005,0 0,350 -350.000005,0 z"
       id="rect1000"
       inkscape:connector-curvature="0" />
  </g>
  <g
     inkscape:groupmode="layer"
     id="layer2"
     inkscape:label="text"
     style="display:inline"
     transform="translate(-20.134565,129.41547)">
    <g
       id="g1080"
       transform="matrix(1.9444444,0,0,1.9444444,-19.015977,-208.32982)">
      <g
         id="g1017"
         style="fill:#ffffff;fill-opacity:1">
        <path
           inkscape:connector-curvature="0"
           id="path878"
           style="font-style:normal;font-variant:normal;font-weight:bold;font-stretch:normal;font-size:medium;line-height:1.03999996;font-family:'Arial Narrow';-inkscape-font-specification:'Arial Narrow Bold';text-align:start;letter-spacing:0px;word-spacing:0px;text-anchor:start;opacity:1;fill:#ffffff;fill-opacity:1;stroke:none;stroke-width:1.03889906"
           d="m 54.088357,193.26115 -6.602492,-32.45052 5.948847,0 4.046147,22.03613 5.510266,-22.03613 6.90449,0 5.295256,22.41243 4.165579,-22.41243 5.829415,0 -6.721924,32.45052 -6.418121,0 -5.733836,-24.26041 -5.686074,24.26041 z"
           sodipodi:nodetypes="cccccccccccccc" />
        <path
           inkscape:connector-curvature="0"
           id="path880"
           style="font-style:normal;font-variant:normal;font-weight:bold;font-stretch:normal;font-size:medium;line-height:1.03999996;font-family:'Arial Narrow';-inkscape-font-specification:'Arial Narrow Bold';text-align:start;letter-spacing:0px;word-spacing:0px;text-anchor:start;opacity:1;fill:#ffffff;fill-opacity:1;stroke:none;stroke-width:0.96956336"
           d="m 109.18095,193.26115 -6.3197,0 -1.61281,-6.60838 -9.543187,0 -1.67868,6.60838 -5.940619,0 9.357008,-32.45052 6.11049,0 z m -9.11072,-11.2199 -3.624052,-14.55014 -3.646016,14.55014 z"
           sodipodi:nodetypes="ccccccccccccc" />
        <path
           inkscape:connector-curvature="0"
           id="path882"
           style="font-style:normal;font-variant:normal;font-weight:bold;font-stretch:normal;font-size:medium;line-height:1.03999996;font-family:'Arial Narrow';-inkscape-font-specification:'Arial Narrow Bold';text-align:start;letter-spacing:0px;word-spacing:0px;text-anchor:start;opacity:1;fill:#ffffff;fill-opacity:1;stroke:none"
           d="m 115.25818,193.26115 0,-27.4694 -7.77522,0 0,-4.98112 21.13932,0 0,4.98112 -7.75309,0 0,27.4694 z"
           sodipodi:nodetypes="ccccccccc" />
        <path
           style="font-style:normal;font-variant:normal;font-weight:bold;font-stretch:normal;font-size:medium;line-height:1.03999996;font-family:'Arial Narrow';-inkscape-font-specification:'Arial Narrow Bold';text-align:start;letter-spacing:0px;word-spacing:0px;text-anchor:start;opacity:1;fill:#ffffff;fill-opacity:1;stroke:none;stroke-width:0.95642143"
           d="m 140.25,160.25781 0,0.01 c -3.24725,0.0518 -5.84533,1.27852 -7.78711,3.93554 -2.28131,3.12847 -3.23633,7.58725 -3.23633,13.1211 0,5.23872 0.94709,9.52713 3.21485,12.61133 1.97088,2.67101 4.54265,4.00586 7.71484,4.00586 0.13532,0 0.26541,-0.0128 0.39844,-0.0176 l 0,0.0176 c 3.17219,0 5.74201,-1.33485 7.71289,-4.00586 1.30762,-1.77839 1.90877,-3.96954 2.40982,-6.5 l -5.64844,-0.95101 c -0.0465,1.992 -0.22171,3.44963 -0.76529,4.2576 -1.00263,1.49032 -1.86153,1.91997 -3.6289,1.98052 l 0,0.0488 c -0.18811,-0.0164 -0.36129,-0.042 -0.56055,-0.0488 -1.76737,-0.0605 -2.62628,-0.40031 -3.62891,-1.89063 -1.00263,-1.49032 -1.22461,-5.84202 -1.22461,-9.92969 0,-3.94011 0.11623,-7.73862 1.20313,-9.36718 1.08691,-1.62856 1.97813,-2.18555 3.77344,-2.18555 0.1068,0 0.20811,-0.006 0.31445,-0.008 l 0,0.008 c 1.79531,0 2.50676,0.28733 3.59367,1.91589 0.50349,0.75441 0.84363,2.12916 0.82486,3.61324 l 5.48828,-0.93538 c -0.5227,-2.23117 -1.01613,-4.15722 -2.17048,-5.74024 -1.8231,-2.49465 -4.22923,-3.72294 -7.20313,-3.9082 -0.18969,-0.0228 -0.38176,-0.0371 -0.58398,-0.0371 -0.0357,0 -0.0699,0.004 -0.10547,0.004 -0.0356,-2.9e-4 -0.0696,-0.004 -0.10547,-0.004 z"
           id="path884"
           inkscape:connector-curvature="0"
           sodipodi:nodetypes="cccscscccccccccsscscccccccsccc" />
        <path
           inkscape:connector-curvature="0"
           id="path886"
           style="font-style:normal;font-variant:normal;font-weight:bold;font-stretch:normal;font-size:medium;line-height:1.03999996;font-family:'Arial Narrow';-inkscape-font-specification:'Arial Narrow Bold';text-align:start;letter-spacing:0px;word-spacing:0px;text-anchor:start;opacity:1;fill:#ffffff;fill-opacity:1;stroke:none;stroke-width:1.01400185"
           d="m 153.98097,193.26115 0,-32.45052 5.76206,0 0,13.02638 10.3251,0 0,-13.02638 5.78484,0 0,32.45052 -5.78484,0 0,-14.31592 -10.3251,0 0,14.31592 z"
           sodipodi:nodetypes="ccccccccccccc" />
      </g>
    </g>
    <g
       id="g1072"
       style="fill:#493f43;fill-opacity:1"
       transform="matrix(1.9444444,0,0,1.9444444,-19.015977,-208.32982)">
      <path
         sodipodi:nodetypes="ccsccsccsccccccsccccscssssscc"
         d="m 92.335007,146.89972 0,-30.35099 9.628903,0 c 2.72223,0 4.79379,0.59558 5.96046,1.15113 1.16667,0.54167 2.06144,1.23882 2.81144,2.59993 0.75,1.34722 1.06144,2.71104 1.06144,4.59993 0,2.38889 -0.44927,3.86758 -1.60205,5.32591 -1.13889,1.45833 -2.89101,2.81992 -5.00212,3.19492 2.10028,0.52354 2.61826,1.68089 3.38665,2.5625 1.02278,1.17348 1.54649,2.56944 2.76871,4.95833 l 3.04167,5.95834 -5.57591,0 -3.66667,-6.64584 c -1.31945,-2.40277 -2.21528,-4.34769 -2.6875,-4.94492 -0.47222,-0.61111 -0.97222,-1.02777 -1.5,-1.25 -0.52778,-0.23611 -1.75853,-0.42521 -2.923041,-0.35416 l -1.04166,0 0,13.19492 z m 4.660322,-16.92584 3.241541,0 c 2.29167,0 3.65466,-0.0972 4.27966,-0.29167 1.1017,-0.43079 1.56846,-1.2273 1.96575,-1.83298 0.48422,-0.73823 0.71044,-1.4554 0.71044,-2.46929 0,-0.97222 -0.62284,-2.34665 -1.06002,-2.84181 -0.47169,-0.53425 -1.06047,-0.97503 -1.86935,-1.16561 -0.66007,-0.15552 -1.55426,-0.29272 -3.81815,-0.29272 l -3.449871,0 z"
         style="font-style:normal;font-variant:normal;font-weight:bold;font-stretch:normal;font-size:medium;line-height:1.03999996;font-family:'Arial Narrow';-inkscape-font-specification:'Arial Narrow Bold';text-align:start;letter-spacing:0px;word-spacing:0px;text-anchor:start;opacity:1;fill:#493f43;fill-opacity:1;stroke:none"
         id="path914"
         inkscape:connector-curvature="0" />
      <path
         sodipodi:nodetypes="ccccccccccccc"
         d="m 116.97054,146.89972 0,-30.35099 15.40537,0 0,4.53107 -10.49082,0 0,7.66067 9.46892,0 0,4.31955 -9.46892,0 0,9.13878 11.13983,0 0,4.70092 z"
         style="font-style:normal;font-variant:normal;font-weight:bold;font-stretch:normal;font-size:medium;line-height:1.03999996;font-family:'Arial Narrow';-inkscape-font-specification:'Arial Narrow Bold';text-align:start;letter-spacing:0px;word-spacing:0px;text-anchor:start;opacity:1;fill:#493f43;fill-opacity:1;stroke:none"
         id="path916"
         inkscape:connector-curvature="0" />
      <path
         sodipodi:nodetypes="ccscscscsscssccccsssccsscscc"
         d="m 135.13932,137.28002 5.12818,-0.0485 c -0.0897,3.50028 1.68048,6.07894 4.69562,6.08208 1.52777,0.002 2.72916,-0.39583 3.60416,-1.1875 0.875,-0.80555 1.18926,-1.80012 1.24894,-2.97917 0.0969,-1.91339 -1.03382,-2.88262 -2.4262,-3.97528 -0.625,-0.31945 -1.36276,-0.98542 -3.71539,-2.02825 -1.99836,-0.88579 -2.87657,-1.36882 -3.87657,-2.13271 -1,-0.76389 -1.91184,-1.60242 -2.67639,-2.80161 -0.82057,-1.28705 -1.14786,-2.2911 -1.1928,-3.7666 -0.0507,-1.6659 0.375,-3.16667 1.125,-4.5 0.76389,-1.33333 1.8125,-2.34028 3.14583,-3.02083 1.33333,-0.68055 2.97917,-1.02083 4.9375,-1.02083 2.94445,0 4.8617,0.79861 6.51448,2.39583 1.65278,1.59722 2.27354,3.50058 2.37076,6.47281 l -5.1928,0.0461 c -0.0471,-1.62799 0.0831,-2.45149 -1.22502,-3.80343 -0.73611,-0.65278 -1.81542,-1.18481 -2.84666,-1.2148 -1.09138,-0.0317 -2.29535,0.35153 -3.08227,1.10841 -0.73464,0.70659 -1.24728,1.64912 -1.14592,2.83506 0.21493,2.51469 2.92457,3.77503 4.88321,4.60386 2.40684,0.91588 4.12076,1.76811 5.24576,2.58756 1.13889,0.80555 2.22698,1.69236 2.85841,2.8916 0.73795,1.40155 0.93286,2.77848 0.89583,4.66667 -0.0404,2.05983 -0.62876,4.18279 -2.26765,5.98834 -1.625,1.80555 -3.98294,2.83545 -7.45517,2.83545 -5.43973,0 -8.66571,-2.85746 -9.55084,-10.03424 z"
         style="font-style:normal;font-variant:normal;font-weight:bold;font-stretch:normal;font-size:medium;line-height:1.03999996;font-family:'Arial Narrow';-inkscape-font-specification:'Arial Narrow Bold';text-align:start;letter-spacing:0px;word-spacing:0px;text-anchor:start;opacity:1;fill:#493f43;fill-opacity:1;stroke:none"
         id="path918"
         inkscape:connector-curvature="0" />
      <path
         inkscape:connector-curvature="0"
         id="path956"
         style="font-style:normal;font-variant:normal;font-weight:bold;font-stretch:normal;font-size:medium;line-height:1.03999996;font-family:'Arial Narrow';-inkscape-font-specification:'Arial Narrow Bold';text-align:start;letter-spacing:0px;word-spacing:0px;text-anchor:start;opacity:1;fill:#493f43;fill-opacity:1;stroke:none;stroke-width:0.93664318"
         d="m 163.65542,146.90161 0,-25.8562 -7.1555,0 0,-4.53833 19.29152,0 0,4.53833 -7.13472,0 0,25.8562 z"
         sodipodi:nodetypes="ccccccccc" />
      <path
         inkscape:connector-curvature="0"
         id="path964"
         style="font-style:normal;font-variant:normal;font-weight:bold;font-stretch:normal;font-size:medium;line-height:1.03999996;font-family:'Arial Narrow';-inkscape-font-specification:'Arial Narrow Bold';text-align:start;letter-spacing:0px;word-spacing:0px;text-anchor:start;opacity:1;fill:#493f43;fill-opacity:1;stroke:none"
         d="m 47.445112,146.89972 0,-30.35099 15.40537,0 0,4.53107 -10.49082,0 0,7.66067 8.614999,0 0,4.31955 -8.614999,0 -0.0062,13.8397 z"
         sodipodi:nodetypes="ccccccccccc" />
      <path
         inkscape:connector-curvature="0"
         id="path974"
         d="m 76.953354,115.98047 0,0.01 c -3.180719,0.0484 -5.726435,1.19176 -7.628411,3.66853 -2.234569,2.91641 -3.169612,7.07272 -3.169612,12.23121 0,4.88346 0.927739,8.88109 3.149036,11.75601 1.93048,2.48993 4.450121,3.73422 7.557302,3.73422 0.132559,0 0.258873,-0.0119 0.389188,-0.0163 l 0,0.0163 c 3.107181,0 5.624958,-1.24429 7.555438,-3.73422 2.221297,-2.87492 3.149036,-6.87255 3.149036,-11.75601 0,-5.15849 -0.93317,-9.3148 -3.167744,-12.23121 -1.785744,-2.32536 -4.142888,-3.47041 -7.055866,-3.64304 -0.185787,-0.0211 -0.374518,-0.0342 -0.572551,-0.0342 -0.03517,0 -0.06794,0.004 -0.102907,0.004 -0.03507,-2.8e-4 -0.06774,-0.004 -0.102909,-0.004 z m 0.256339,4.73922 0,0.008 c 1.758492,0 2.630768,0.51923 3.695392,2.03726 1.064617,1.5182 1.178779,5.05899 1.178779,8.73191 0,3.81045 -0.217271,7.86698 -1.199359,9.25626 -0.98209,1.38919 -1.823905,1.70593 -3.55506,1.76233 l 0,0.0459 c -0.184282,-0.0154 -0.353033,-0.0391 -0.548238,-0.0459 -1.731148,-0.0559 -2.57296,-0.37314 -3.55505,-1.76233 -0.982088,-1.38928 -1.199369,-5.44581 -1.199369,-9.25626 0,-3.67292 0.114162,-7.21371 1.178779,-8.73191 1.064624,-1.51803 1.9369,-2.03726 3.695392,-2.03726 0.104612,0 0.204563,-0.006 0.308734,-0.008 z"
         style="font-style:normal;font-variant:normal;font-weight:bold;font-stretch:normal;font-size:medium;line-height:1.03999996;font-family:'Arial Narrow';-inkscape-font-specification:'Arial Narrow Bold';text-align:start;letter-spacing:0px;word-spacing:0px;text-anchor:start;opacity:1;fill:#493f43;fill-opacity:1;stroke:none;stroke-width:0.91390979" />
    </g>
    <g
       style="fill:#ffffff;fill-opacity:1"
       id="g1010"
       transform="matrix(1.9444444,0,0,1.9444444,-19.015977,-208.32982)">
      <path
         sodipodi:nodetypes="csccscccsccsccccsccsccscccsccsccsc"
         d="m 113.92374,72.111836 8.41283,0.127119 c 2.33155,0.03523 3.84407,0.377118 4.79103,0.877118 0.94689,0.5 1.87296,1.254826 2.52396,2.518715 0.65104,1.263889 1.10368,2.567326 1.10368,4.164548 0,1.472222 -0.27816,2.805555 -0.83447,4 -0.55636,1.180556 -2.48604,2.246234 -3.69157,2.625 1.8386,0.3371 3.78036,1.430556 4.49054,2.708334 0.722,1.277777 1.083,2.833333 1.083,4.666666 0,2.222223 -0.45569,4.104167 -1.36708,5.645834 -0.91145,1.52778 -2.1157,2.28154 -3.35852,2.64265 -0.86404,0.25 -2.74322,0.56568 -5.89178,0.56568 l -7.26162,0 z m 4.77245,5.083333 0,7.062501 1.85649,0 c 1.70445,0 2.24941,-0.03472 2.65182,-0.104167 0.73391,-0.138889 1.30798,-0.5 1.72222,-1.083333 0.41428,-0.597223 0.62142,-1.402778 0.62142,-2.416667 0,-0.902778 -0.17164,-1.631945 -0.51492,-2.1875 -0.33135,-0.569445 -0.73969,-0.923611 -1.22501,-1.0625 -0.47346,-0.138889 -1.338,-0.208334 -3.61058,-0.208334 z m 0,12.145834 0,8.166667 2.88335,0 c 1.75185,0 2.68567,-0.104167 3.18281,-0.3125 0.49714,-0.222222 0.91143,-0.645833 1.24286,-1.270833 0.34326,-0.638889 0.51489,-1.444445 0.51489,-2.416667 0,-1 -0.18351,-1.819445 -0.55051,-2.458334 -0.35508,-0.652777 -0.83442,-1.097222 -1.43804,-1.333333 -0.59187,-0.25 -1.62038,-0.375 -3.4669,-0.375 z"
         style="font-style:normal;font-variant:normal;font-weight:bold;font-stretch:normal;font-size:medium;line-height:1.03999996;font-family:'Arial Narrow';-inkscape-font-specification:'Arial Narrow Bold';text-align:start;letter-spacing:0px;word-spacing:0px;text-anchor:start;opacity:1;fill:#ffffff;fill-opacity:1;stroke:none;stroke-width:0.92316115"
         id="path904"
         inkscape:connector-curvature="0" />
      <path
         inkscape:connector-curvature="0"
         id="path966"
         style="font-style:normal;font-variant:normal;font-weight:bold;font-stretch:normal;font-size:medium;line-height:1.03999996;font-family:'Arial Narrow';-inkscape-font-specification:'Arial Narrow Bold';text-align:start;letter-spacing:0px;word-spacing:0px;text-anchor:start;opacity:1;fill:#ffffff;fill-opacity:1;stroke:none"
         d="m 159.27743,102.71995 0,-30.60523 4.91455,0.02259 0,25.881712 11.52119,0 0,4.700918 z"
         sodipodi:nodetypes="ccccccc" />
      <path
         sodipodi:nodetypes="ccccccc"
         d="m 71.532353,102.71995 0,-30.60523 4.91455,0.02259 c 0,8.627237 0,17.254475 0,25.881712 l 11.26695,0 0,4.700918 z"
         style="font-style:normal;font-variant:normal;font-weight:bold;font-stretch:normal;font-size:medium;line-height:1.03999996;font-family:'Arial Narrow';-inkscape-font-specification:'Arial Narrow Bold';text-align:start;letter-spacing:0px;word-spacing:0px;text-anchor:start;opacity:1;fill:#ffffff;fill-opacity:1;stroke:none"
         id="path970"
         inkscape:connector-curvature="0" />
      <path
         inkscape:connector-curvature="0"
         id="path972"
         style="font-style:normal;font-variant:normal;font-weight:bold;font-stretch:normal;font-size:medium;line-height:1.03999996;font-family:'Arial Narrow';-inkscape-font-specification:'Arial Narrow Bold';text-align:start;letter-spacing:0px;word-spacing:0px;text-anchor:start;opacity:1;fill:#ffffff;fill-opacity:1;stroke:none;stroke-width:0.91547334"
         d="m 157.06187,102.69931 -5.96718,0 -1.52279,-6.239694 -9.01077,0 -1.58502,6.239694 -5.60924,0 8.83495,-30.640142 5.76959,0 z m -8.60245,-10.593936 -3.42182,-13.73842 -3.44266,13.73842 z"
         sodipodi:nodetypes="ccccccccccccc" />
      <path
         sodipodi:nodetypes="cccscsccccccscscscccccccsccc"
         inkscape:connector-curvature="0"
         id="path976"
         d="m 56.773438,71.802734 0,0.0078 c -3.18072,0.0483 -5.726931,1.191201 -7.628907,3.667969 -2.234569,2.916409 -3.169922,7.07393 -3.169922,12.232422 0,4.883448 0.929094,8.880925 3.150391,11.755859 1.93048,2.489926 4.449656,3.769296 7.556641,3.734376 6.464535,-0.0727 10.290414,-3.992045 10.290414,-3.992045 0,0 0.08432,-8.812158 0.08269,-12.060194 l -9.919027,0.02539 c 6.31e-4,0.177224 -0.05945,4.109475 -0.05945,4.287535 l 4.914493,-0.0069 c 0.09259,1.75309 0.04906,5.182831 0.04906,5.182831 -1.575868,1.49221 -3.037241,1.744619 -4.993347,1.69816 -1.731559,-0.04113 -3.017512,-0.372519 -3.999602,-1.761719 -0.982088,-1.389271 -1.389897,-5.44737 -1.389897,-9.257813 0,-3.672918 0.303796,-7.212277 1.368413,-8.730468 1.064624,-1.518041 1.93682,-2.03711 3.695312,-2.03711 0.104612,0 0.204423,-0.0078 0.308594,-0.0098 l 0,0.0098 c 1.758488,0 2.567123,0.646188 3.631753,2.164229 0.631432,0.909856 0.792334,1.582417 1.086103,3.199052 1.793945,-0.39211 3.505424,-0.765375 5.28605,-1.136718 -0.512453,-2.05722 -1.304739,-3.833767 -2.425781,-5.296875 -1.78575,-2.325352 -4.141718,-3.469949 -7.054688,-3.642578 -0.18579,-0.02104 -0.37619,-0.0332 -0.574218,-0.0332 -0.03517,0 -0.0666,0.0039 -0.101563,0.0039 -0.03507,-2.82e-4 -0.06835,-0.0039 -0.103515,-0.0039 z"
         style="font-style:normal;font-variant:normal;font-weight:bold;font-stretch:normal;font-size:medium;line-height:1.03999996;font-family:'Arial Narrow';-inkscape-font-specification:'Arial Narrow Bold';text-align:start;letter-spacing:0px;word-spacing:0px;text-anchor:start;opacity:1;fill:#ffffff;fill-opacity:1;stroke:none;stroke-width:0.91390938" />
      <path
         inkscape:connector-curvature="0"
         id="path986"
         d="m 99.515181,71.80073 0,0.01006 c -3.18073,0.0483 -5.726446,1.191751 -7.628422,3.668519 -2.234569,2.916409 -3.169612,7.072716 -3.169612,12.231207 0,4.883448 0.927739,8.881065 3.149036,11.755999 1.93048,2.489925 4.450121,3.734215 7.557315,3.734215 0.132553,0 0.258876,-0.0119 0.389186,-0.0162 l 0,0.0162 c 3.107186,0 5.624966,-1.24429 7.555446,-3.734215 2.22129,-2.874934 3.14903,-6.872551 3.14903,-11.755999 0,-5.158491 -0.93317,-9.314798 -3.16774,-12.231207 -1.78575,-2.325352 -4.14289,-3.470397 -7.05586,-3.643027 -0.18579,-0.02104 -0.374523,-0.03422 -0.572556,-0.03422 -0.0352,0 -0.0679,0.004 -0.102913,0.004 -0.0351,-2.82e-4 -0.0677,-0.004 -0.10291,-0.004 z m 0.256343,4.73921 0,0.008 c 1.758496,0 2.630766,0.519217 3.695396,2.037258 1.06461,1.518191 1.17877,5.058976 1.17877,8.731894 0,3.810443 -0.21727,7.866974 -1.19935,9.256245 -0.98209,1.3892 -1.82391,1.705938 -3.555053,1.762336 l 0,0.0459 c -0.184293,-0.0154 -0.353046,-0.03914 -0.548259,-0.0459 -1.731153,-0.05586 -2.572965,-0.373136 -3.555055,-1.762336 -0.982088,-1.389271 -1.199369,-5.445802 -1.199369,-9.256245 0,-3.672918 0.114162,-7.213703 1.178779,-8.731894 1.064624,-1.518041 1.9369,-2.037258 3.695408,-2.037258 0.10461,0 0.204563,-0.006 0.308733,-0.008 z"
         style="font-style:normal;font-variant:normal;font-weight:bold;font-stretch:normal;font-size:medium;line-height:1.03999996;font-family:'Arial Narrow';-inkscape-font-specification:'Arial Narrow Bold';text-align:start;letter-spacing:0px;word-spacing:0px;text-anchor:start;opacity:1;fill:#ffffff;fill-opacity:1;stroke:none;stroke-width:0.91390938" />
    </g>
  </g>
</svg>
