<?xml version="1.0" encoding="UTF-8"?>
<svg xmlns="http://www.w3.org/2000/svg" width="600pt" height="340pt" viewBox="0 0 600 340" version="1.1">
  <g id="#002d55ff">
    <path fill="#002d55" opacity="1.00" d=" M 108.12 28.22 C 128.75 25.72 150.36 28.54 169.02 37.97 C 183.36 45.22 195.61 56.75 203.16 70.98 C 213.33 89.75 215.56 112.08 212.07 132.93 C 208.37 155.34 196.65 176.57 178.73 190.70 C 164.87 201.77 147.58 208.29 129.94 209.72 C 111.06 211.34 91.39 208.56 74.62 199.41 C 56.62 189.80 43.03 172.91 36.12 153.84 C 29.03 134.63 27.62 113.11 33.51 93.40 C 39.24 73.50 51.31 55.21 68.35 43.25 C 80.07 35.00 93.90 29.91 108.12 28.22 M 92.25 40.53 L 91.93 40.56 C 87.83 42.55 83.94 44.92 80.13 47.40 C 79.84 47.86 79.28 48.79 78.99 49.25 L 79.82 49.99 C 79.25 49.69 78.12 49.09 77.55 48.80 C 76.98 49.53 76.42 50.25 75.85 50.98 C 74.74 51.40 73.87 52.19 73.23 53.35 C 72.11 54.33 71.05 55.39 69.92 56.37 C 69.06 57.41 67.86 58.45 67.52 59.77 C 66.99 60.44 65.94 61.78 65.41 62.45 L 65.39 63.50 C 64.50 64.16 63.61 64.82 62.71 65.46 L 63.88 64.80 C 58.11 74.23 54.70 84.94 53.28 95.87 C 50.31 119.04 53.23 143.64 64.81 164.23 C 70.71 174.61 79.04 183.93 89.12 190.25 C 91.24 191.65 93.51 192.82 95.70 194.09 C 105.45 198.75 116.22 201.18 127.02 201.19 C 142.28 200.91 157.62 195.31 168.79 184.76 C 179.86 174.38 186.19 159.86 188.91 145.12 C 189.26 142.57 190.19 139.94 189.77 137.38 C 192.09 124.21 191.00 110.64 188.81 97.52 C 188.34 97.55 187.40 97.62 186.93 97.65 C 187.35 97.33 188.18 96.69 188.60 96.37 C 186.08 85.95 182.36 75.76 176.57 66.69 C 175.87 65.85 175.30 64.87 174.43 64.21 C 173.50 62.59 172.41 61.08 171.30 59.59 C 163.62 50.50 153.67 43.30 142.44 39.30 C 126.30 33.51 108.17 34.49 92.25 40.53 Z"></path>
    <path fill="#002d55" opacity="1.00" d=" M 292.91 35.11 C 294.05 32.22 294.89 28.77 297.97 27.31 C 299.60 29.37 300.97 31.62 301.85 34.10 C 320.24 81.73 338.26 129.50 357.12 176.95 C 360.51 184.96 364.18 193.35 370.80 199.25 C 375.63 203.48 382.30 203.58 388.33 204.23 C 390.31 207.03 385.81 207.41 383.92 207.43 C 369.43 207.25 354.89 207.66 340.45 206.33 C 340.47 205.58 340.51 204.85 340.55 204.11 C 343.63 203.39 344.61 200.12 343.34 197.43 C 336.22 178.55 329.06 159.68 321.90 140.81 C 321.57 139.40 320.62 138.38 319.05 138.73 C 302.03 138.72 285.00 138.63 267.99 138.78 C 263.28 151.38 259.28 164.23 254.84 176.92 C 252.60 183.44 250.15 190.04 249.86 197.01 C 249.80 200.18 252.40 202.73 255.35 203.43 C 257.89 203.96 260.50 203.95 263.07 204.35 C 264.55 206.06 262.53 207.28 260.93 207.36 C 253.29 207.69 245.67 206.37 238.03 206.74 C 230.05 207.09 222.06 207.58 214.07 207.37 C 212.22 207.66 211.15 206.24 210.17 204.95 C 214.84 202.86 220.30 204.41 224.90 202.03 C 232.12 198.80 235.64 191.09 238.33 184.13 C 256.57 134.48 274.68 84.77 292.91 35.11 M 293.16 63.06 C 292.30 64.69 291.69 66.43 291.11 68.17 C 284.89 87.48 278.51 106.74 272.26 126.04 C 271.88 127.40 271.54 128.77 271.24 130.16 C 286.71 130.15 302.17 130.19 317.64 130.14 C 317.23 128.55 316.82 126.97 316.31 125.42 C 309.28 105.55 302.28 85.65 295.28 65.76 C 294.82 64.68 294.48 63.34 293.16 63.06 Z"></path>
    <path fill="#002d55" opacity="1.00" d=" M 400.34 34.31 C 400.56 33.08 400.14 31.14 402.00 31.30 C 409.31 30.76 416.65 31.47 423.97 31.56 C 434.04 32.14 444.10 30.77 454.16 31.24 C 455.80 31.00 457.42 33.38 455.40 34.28 C 451.20 35.12 446.16 34.57 442.96 37.95 C 439.87 41.53 440.07 46.62 439.69 51.06 C 439.29 71.72 439.44 92.39 439.53 113.06 C 460.38 91.77 481.31 70.53 501.79 48.88 C 504.27 45.69 507.97 42.33 507.23 37.89 C 506.66 35.53 504.07 34.92 502.42 33.55 C 501.66 32.34 502.65 31.27 503.92 31.23 C 508.96 30.87 514.01 31.63 519.06 31.68 C 528.87 32.05 538.71 30.47 548.50 31.51 C 548.47 32.42 548.44 33.33 548.43 34.25 C 542.85 34.59 537.28 35.71 532.25 38.20 C 525.02 41.47 519.13 46.95 513.54 52.45 C 495.88 69.48 478.29 86.59 461.07 104.06 C 459.75 105.67 457.64 106.94 457.11 109.00 C 466.49 119.54 476.59 129.44 486.36 139.61 C 500.03 153.66 513.54 167.90 528.06 181.07 C 536.87 189.25 545.93 197.88 557.62 201.69 C 562.48 203.53 567.72 203.68 572.83 204.33 C 572.83 204.93 572.83 206.13 572.83 206.73 C 567.30 207.98 561.60 207.25 555.99 207.44 C 545.46 207.35 534.11 207.92 524.73 202.28 C 508.75 192.58 496.77 177.94 483.78 164.80 C 469.67 149.72 455.51 134.66 442.07 118.96 C 441.29 118.12 440.40 117.40 439.50 116.70 C 439.42 135.78 439.37 154.86 439.62 173.94 C 439.69 179.95 440.14 185.96 440.74 191.95 C 441.26 195.69 442.33 200.08 446.01 201.94 C 450.48 203.88 455.51 203.25 460.20 204.25 C 461.99 206.39 458.90 207.49 457.15 207.42 C 449.07 207.48 440.98 207.13 432.91 206.73 C 423.62 206.34 414.31 208.04 405.04 207.16 C 404.57 206.59 403.62 205.45 403.14 204.89 C 406.78 203.27 410.98 203.99 414.58 202.29 C 417.96 200.10 418.41 195.67 419.15 192.07 C 420.83 178.10 420.40 163.99 420.48 149.95 C 420.48 121.30 420.48 92.66 420.48 64.01 C 420.40 57.32 420.62 50.57 419.55 43.94 C 419.10 41.12 417.55 38.36 414.99 36.97 C 410.52 34.53 405.27 34.70 400.34 34.31 Z"></path>
    <path fill="#002d55" opacity="1.00" d=" M 83.07 58.46 C 84.44 58.71 84.66 59.42 83.74 60.56 C 82.37 60.31 82.15 59.60 83.07 58.46 Z"></path>
    <path fill="#002d55" opacity="1.00" d=" M 87.27 58.23 C 87.77 58.81 87.77 58.81 87.27 58.23 Z"></path>
    <path fill="#002d55" opacity="1.00" d=" M 85.26 73.24 C 85.77 73.80 85.77 73.80 85.26 73.24 Z"></path>
    <path fill="#002d55" opacity="1.00" d=" M 91.32 127.31 C 91.79 127.90 91.79 127.90 91.32 127.31 Z"></path>
    <path fill="#002d55" opacity="1.00" d=" M 88.44 260.55 C 98.15 258.57 109.32 260.25 116.74 267.26 C 125.92 275.77 126.04 291.15 118.96 301.00 C 109.28 314.69 87.13 316.29 75.13 304.88 C 68.11 297.77 65.46 286.46 69.25 277.11 C 72.29 268.78 79.74 262.32 88.44 260.55 M 90.50 262.66 C 84.44 263.72 78.85 267.71 76.54 273.51 C 72.39 283.92 74.43 297.41 83.30 304.80 C 90.89 311.07 103.20 311.51 110.52 304.59 C 115.83 299.65 117.19 291.94 116.83 285.00 C 116.61 277.86 113.59 270.50 107.69 266.24 C 102.82 262.57 96.41 261.61 90.50 262.66 Z"></path>
    <path fill="#002d55" opacity="1.00" d=" M 167.57 260.98 C 171.43 260.61 175.30 261.30 179.16 260.97 C 180.85 260.95 182.72 260.46 184.24 261.44 C 182.30 262.29 179.17 262.19 179.02 264.97 C 177.86 276.27 180.12 287.87 177.43 299.01 C 175.54 306.88 167.74 311.94 159.96 312.44 C 153.62 312.87 146.57 311.74 141.89 307.08 C 138.34 303.73 136.83 298.80 136.48 294.04 C 136.02 284.33 136.78 274.58 136.12 264.89 C 135.73 261.76 131.88 262.24 129.75 261.03 C 135.89 260.69 142.06 260.82 148.21 260.99 C 146.42 262.24 143.01 262.07 143.03 264.96 C 142.34 271.93 142.90 278.97 142.71 285.97 C 142.69 292.25 142.42 299.31 146.52 304.51 C 152.94 312.78 168.37 311.19 172.20 301.18 C 174.70 294.44 174.09 287.08 174.17 280.02 C 174.04 275.02 174.54 269.97 173.81 264.99 C 173.59 261.77 169.51 262.60 167.57 260.98 Z"></path>
    <path fill="#002d55" opacity="1.00" d=" M 196.47 260.26 C 197.99 259.74 198.85 261.34 199.85 262.17 C 211.70 274.63 224.07 286.60 235.97 299.01 C 237.06 300.10 238.21 301.13 239.38 302.13 C 239.24 290.74 238.77 279.37 238.59 267.98 C 238.42 266.28 238.72 264.11 237.12 262.97 C 235.36 262.23 233.40 262.15 231.57 261.69 C 232.80 260.57 234.47 260.96 235.97 261.00 C 240.11 261.42 244.27 261.00 248.42 261.24 C 246.92 262.27 244.73 262.27 243.59 263.71 C 242.39 269.74 243.01 275.95 242.87 282.06 C 242.72 292.15 242.92 302.25 242.68 312.33 C 238.90 310.69 236.41 307.26 233.38 304.62 C 221.82 293.75 210.96 282.18 199.80 270.91 C 200.19 282.95 200.14 295.04 201.02 307.05 C 201.18 310.68 205.48 310.15 208.00 310.95 C 205.24 312.51 201.95 311.31 198.96 311.53 C 196.00 311.25 192.76 312.45 190.01 310.97 C 191.77 310.36 193.79 310.32 195.35 309.25 C 195.95 307.55 196.05 305.73 196.15 303.95 C 196.29 289.39 196.11 274.81 196.47 260.26 Z"></path>
    <path fill="#002d55" opacity="1.00" d=" M 368.66 260.39 C 375.67 262.06 382.92 261.13 390.05 261.46 C 397.46 261.45 404.91 261.91 412.28 260.87 C 412.13 264.04 412.72 267.40 411.34 270.37 C 410.76 268.33 410.29 265.73 407.82 265.24 C 403.06 264.01 398.05 264.68 393.19 264.35 C 393.21 277.59 393.07 290.83 393.21 304.06 C 393.49 306.09 392.89 308.84 394.87 310.18 C 396.68 310.73 398.57 310.92 400.42 311.35 C 394.21 312.65 387.76 311.45 381.45 311.84 C 382.66 311.00 384.09 310.63 385.49 310.25 C 386.75 307.35 386.72 304.14 386.78 301.04 C 386.88 288.82 386.86 276.60 386.83 264.37 C 382.05 264.43 377.27 264.28 372.51 264.72 C 369.68 264.98 368.51 267.98 366.72 269.75 C 367.09 266.58 367.80 263.46 368.66 260.39 Z"></path>
    <path fill="#002d55" opacity="1.00" d=" M 27.60 260.71 C 38.03 260.45 48.53 261.47 58.94 260.28 C 58.34 263.29 58.74 266.61 57.23 269.39 C 56.51 267.51 56.31 264.76 53.95 264.17 C 49.30 263.20 44.46 263.82 39.74 263.48 C 39.71 270.04 39.70 276.61 39.75 283.17 C 45.49 282.54 52.09 284.59 57.12 281.00 C 56.70 284.11 56.42 287.25 55.82 290.33 C 54.71 288.83 54.05 286.52 51.94 286.14 C 47.93 285.35 43.80 285.81 39.73 285.72 C 39.95 293.00 39.16 300.37 40.31 307.58 C 40.63 310.56 44.43 309.94 46.54 310.28 L 46.40 311.41 C 40.26 310.87 33.98 311.90 27.93 310.80 C 29.45 309.89 32.49 310.34 32.82 308.02 C 33.79 303.77 33.37 299.35 33.52 295.02 C 33.42 285.03 33.74 275.02 33.36 265.04 C 33.46 261.80 29.39 262.28 27.60 260.71 Z"></path>
    <path fill="#002d55" opacity="1.00" d=" M 257.73 261.70 C 262.70 260.52 267.85 261.58 272.90 261.20 C 283.78 261.05 296.18 260.27 304.98 267.92 C 316.89 277.92 314.66 298.64 302.13 307.17 C 294.60 312.55 284.88 312.88 275.98 312.15 C 270.69 311.61 265.36 311.56 260.05 311.81 C 262.07 310.41 264.31 308.85 264.12 306.08 C 264.66 294.07 264.18 282.03 264.38 270.02 C 264.25 267.80 264.76 265.35 263.52 263.37 C 261.81 262.25 259.64 262.27 257.73 261.70 M 270.81 263.93 C 270.37 273.29 270.66 282.66 270.57 292.03 C 270.64 296.66 270.38 301.33 271.02 305.93 C 271.28 308.13 273.67 308.85 275.51 309.28 C 284.72 310.95 295.78 309.80 302.03 302.02 C 308.78 292.36 307.37 277.55 298.12 269.93 C 290.72 263.38 280.14 263.04 270.81 263.93 Z"></path>
    <path fill="#002d55" opacity="1.00" d=" M 327.24 294.12 C 331.93 282.68 335.94 270.94 341.08 259.68 C 343.42 263.14 344.58 267.19 346.21 271.00 C 350.57 281.58 354.82 292.21 359.28 302.75 C 360.48 305.37 361.70 308.25 364.19 309.91 C 365.87 310.58 367.68 310.77 369.44 311.22 C 364.48 312.70 359.16 311.43 354.06 311.74 C 354.47 310.92 354.89 310.10 355.31 309.29 C 352.71 303.67 350.72 297.80 348.19 292.16 C 342.80 292.29 337.41 292.18 332.02 292.27 C 330.25 298.24 326.97 303.83 326.53 310.14 C 327.86 310.37 329.19 310.61 330.52 310.84 L 330.58 311.86 C 325.08 311.52 319.57 311.99 314.08 311.63 C 316.40 310.22 319.84 310.72 321.35 308.09 C 323.91 303.72 325.23 298.75 327.24 294.12 M 339.74 270.62 C 337.51 276.91 335.30 283.21 333.15 289.54 C 337.80 289.52 342.46 289.51 347.11 289.56 C 344.80 283.20 342.94 276.58 339.74 270.62 Z"></path>
    <path fill="#002d55" opacity="1.00" d=" M 423.81 261.33 C 429.61 261.52 435.41 261.31 441.20 261.54 C 439.86 262.61 438.09 262.76 436.59 263.49 C 435.27 265.71 435.72 268.45 435.57 270.92 C 435.74 282.25 435.21 293.59 435.66 304.92 C 435.78 306.66 435.83 308.54 436.84 310.06 C 438.85 310.78 440.98 311.04 443.05 311.55 C 436.92 312.73 430.59 311.32 424.39 312.21 C 424.39 311.90 424.40 311.26 424.41 310.95 C 425.68 310.74 426.96 310.53 428.24 310.33 C 428.98 307.58 429.34 304.76 429.27 301.92 C 429.11 290.28 429.68 278.63 429.26 267.00 C 429.26 265.59 428.67 264.29 428.19 263.00 C 426.68 262.60 424.66 262.96 423.81 261.33 Z"></path>
    <path fill="#002d55" opacity="1.00" d=" M 471.17 261.35 C 481.04 259.13 492.39 261.01 499.96 268.08 C 508.85 276.58 509.03 291.54 502.26 301.37 C 493.31 314.55 472.96 316.79 460.46 307.57 C 451.77 300.88 448.22 288.30 452.21 278.07 C 455.15 269.76 462.54 263.22 471.17 261.35 M 472.44 263.64 C 466.47 264.93 461.25 269.35 459.24 275.16 C 455.66 285.25 457.66 297.91 465.97 305.15 C 472.93 311.34 484.21 312.23 491.85 306.77 C 496.59 303.43 499.09 297.71 499.67 292.08 C 500.60 284.41 499.32 275.93 494.03 269.99 C 488.84 263.94 480.07 261.58 472.44 263.64 Z"></path>
    <path fill="#002d55" opacity="1.00" d=" M 520.96 260.28 C 521.91 260.86 522.81 261.51 523.67 262.24 C 537.00 275.83 550.41 289.34 563.80 302.86 C 563.66 291.92 563.26 280.98 563.22 270.04 C 563.19 268.38 563.14 266.72 562.62 265.14 C 562.46 262.91 559.60 263.32 558.19 262.68 L 558.11 261.56 C 562.95 261.77 567.79 261.72 572.63 261.57 L 572.46 262.58 C 570.66 262.93 567.84 262.96 567.71 265.40 C 567.13 281.31 567.88 297.28 567.04 313.19 C 563.53 311.07 560.83 307.94 557.83 305.21 C 546.27 294.34 535.37 282.82 524.30 271.47 C 524.65 282.62 524.58 293.77 525.22 304.90 C 525.43 306.69 525.25 308.90 526.83 310.15 C 528.42 310.83 530.09 311.30 531.66 312.07 C 525.96 312.07 520.16 312.69 514.53 311.80 C 516.10 311.27 517.73 310.91 519.29 310.31 C 520.57 308.89 520.39 306.83 520.57 305.06 C 520.78 290.14 520.45 275.19 520.96 260.28 Z"></path>
  </g>
  <g id="#afbdd2ff">
    <path fill="#afbdd2" opacity="1.00" d=" M 112.26 39.73 C 118.50 38.64 125.06 37.83 131.13 40.21 C 130.14 42.07 127.80 41.48 126.08 41.95 C 126.91 42.04 128.58 42.21 129.41 42.30 C 129.40 42.62 129.38 43.26 129.37 43.59 C 131.98 42.12 135.05 41.99 137.98 41.94 C 136.90 43.23 135.42 44.02 134.00 44.84 C 133.03 45.90 132.06 46.95 131.09 48.01 C 131.58 48.62 132.56 49.84 133.05 50.45 L 130.18 50.28 C 130.83 50.58 132.14 51.17 132.79 51.47 C 132.70 53.30 131.98 54.86 130.43 55.90 C 130.58 56.83 130.89 58.71 131.04 59.64 C 129.32 59.27 127.61 58.73 125.83 58.95 C 127.45 58.97 128.63 60.05 129.90 60.85 C 127.58 61.62 125.30 62.75 122.79 62.65 C 120.89 64.33 118.62 65.38 116.30 66.33 C 114.93 68.97 113.88 71.78 112.20 74.25 C 110.09 72.63 106.43 71.28 107.18 67.95 C 105.28 67.53 105.60 65.26 105.23 63.80 C 105.98 63.17 107.48 61.93 108.23 61.31 C 107.37 61.29 105.64 61.25 104.77 61.23 L 104.88 59.47 C 105.45 59.61 106.59 59.90 107.16 60.04 C 106.39 59.43 105.63 58.83 104.87 58.22 C 104.78 56.31 104.61 54.28 103.00 52.98 C 100.73 50.08 96.37 54.66 94.43 51.29 C 95.40 51.17 97.36 50.93 98.33 50.80 C 97.45 50.80 95.69 50.81 94.81 50.81 L 96.69 48.67 C 96.00 49.34 95.30 49.99 94.57 50.63 L 93.03 48.72 C 95.02 48.04 97.06 47.44 99.10 46.86 C 98.57 46.40 97.52 45.48 97.00 45.02 C 100.13 44.03 102.82 42.11 105.82 40.82 C 108.46 42.37 111.51 40.21 114.01 42.10 C 113.57 41.51 112.69 40.33 112.26 39.73 Z"></path>
    <path fill="#afbdd2" opacity="1.00" d=" M 80.13 47.40 C 83.94 44.92 87.83 42.55 91.93 40.56 L 92.25 40.53 C 95.64 40.30 99.59 39.42 102.44 41.81 C 100.96 42.02 99.47 42.18 97.98 42.29 C 97.65 42.84 97.60 43.49 97.40 44.09 C 94.31 46.16 91.39 48.45 88.88 51.21 C 88.81 51.74 88.68 52.79 88.61 53.32 C 85.87 53.33 83.13 53.32 80.41 53.63 C 82.90 55.18 85.88 53.87 88.58 54.03 C 86.81 57.32 82.62 55.97 79.59 56.48 C 79.49 55.77 79.30 54.36 79.20 53.65 C 78.56 53.73 77.28 53.90 76.64 53.98 C 76.94 53.16 77.52 51.53 77.81 50.71 L 75.85 50.98 C 76.42 50.25 76.98 49.53 77.55 48.80 C 77.92 50.26 78.31 51.71 78.68 53.17 C 80.04 52.64 81.40 52.10 82.76 51.54 L 82.26 50.23 C 83.05 50.23 84.62 50.23 85.41 50.23 C 83.77 49.57 82.06 49.52 80.51 50.51 L 79.82 49.99 L 78.99 49.25 C 79.28 48.79 79.84 47.86 80.13 47.40 Z"></path>
    <path fill="#afbdd2" opacity="1.00" d=" M 141.23 45.37 C 144.11 45.89 147.00 45.32 149.83 44.73 C 150.95 45.18 152.07 45.62 153.19 46.07 C 152.22 46.86 150.18 46.67 149.85 48.07 C 150.08 48.84 150.33 49.61 150.61 50.37 C 150.10 50.32 149.09 50.23 148.59 50.18 C 148.55 49.69 148.47 48.70 148.44 48.21 L 148.67 47.73 C 148.91 46.11 146.90 46.50 145.90 46.09 C 146.45 46.49 147.56 47.30 148.11 47.70 C 146.65 48.50 145.77 52.56 143.66 50.15 L 142.54 48.45 L 144.55 48.35 C 144.55 48.15 144.55 47.75 144.55 47.56 C 143.45 47.82 142.35 48.08 141.25 48.34 C 141.24 47.59 141.23 46.11 141.23 45.37 Z"></path>
    <path fill="#afbdd2" opacity="1.00" d=" M 69.92 56.37 C 71.05 55.39 72.11 54.33 73.23 53.35 C 74.98 53.37 76.38 54.49 77.87 55.22 C 78.59 56.42 79.55 57.45 80.56 58.42 C 79.22 59.24 77.87 60.05 76.49 60.79 C 76.82 59.64 77.49 57.34 77.82 56.20 C 75.25 55.81 72.21 54.53 69.92 56.37 Z"></path>
    <path fill="#afbdd2" opacity="1.00" d=" M 71.74 60.59 C 72.64 59.15 73.94 58.06 75.29 57.06 C 75.61 58.56 75.95 60.05 76.31 61.54 C 74.70 61.80 73.17 61.26 71.74 60.59 Z"></path>
    <path fill="#afbdd2" opacity="1.00" d=" M 80.91 58.28 C 83.13 56.47 86.24 57.36 88.87 57.03 C 90.67 58.93 93.05 60.02 95.41 61.03 C 95.42 61.70 95.43 63.04 95.43 63.71 C 96.87 64.40 98.29 65.12 99.69 65.87 C 98.87 66.75 98.06 67.64 97.24 68.52 C 96.39 67.69 95.54 66.86 94.68 66.05 C 95.32 67.93 96.07 69.77 96.76 71.63 C 96.17 71.32 95.00 70.70 94.42 70.39 C 94.50 71.12 94.66 72.59 94.75 73.32 C 93.36 72.33 91.99 71.34 90.66 70.29 C 89.70 70.25 87.79 70.16 86.83 70.12 C 88.61 68.88 90.29 67.52 91.73 65.90 C 90.92 64.79 90.13 63.67 89.35 62.54 C 89.36 63.76 89.42 64.97 89.53 66.17 L 89.16 66.16 C 88.18 64.93 87.04 63.86 85.77 62.93 C 86.14 65.95 84.71 68.02 81.98 68.94 C 82.82 69.42 84.49 70.38 85.32 70.85 C 84.27 71.67 83.54 72.70 83.15 73.96 L 82.58 74.04 C 82.67 73.56 82.84 72.60 82.92 72.11 L 81.91 72.49 L 80.60 71.38 C 77.84 72.84 76.30 75.69 74.68 78.22 C 76.21 81.12 79.37 82.13 82.26 83.16 C 82.84 84.48 81.80 87.68 83.90 87.53 C 84.52 85.13 85.30 82.77 86.28 80.49 C 86.49 77.86 86.39 75.20 86.74 72.57 C 88.09 72.65 89.43 72.79 90.76 73.00 C 91.92 74.63 92.75 76.46 93.78 78.17 C 94.26 77.23 95.20 75.33 95.68 74.38 C 96.84 76.08 97.48 78.05 97.96 80.05 C 98.94 80.66 99.93 81.28 100.92 81.89 C 99.87 82.32 98.82 82.76 97.77 83.19 C 98.98 82.89 100.20 82.62 101.42 82.38 C 101.54 83.29 101.76 85.10 101.88 86.00 C 100.44 86.23 98.99 86.52 97.66 87.14 C 94.49 87.55 91.81 89.25 89.60 91.49 C 91.13 90.59 92.63 89.65 94.16 88.76 C 94.19 90.27 94.24 91.79 94.30 93.31 C 95.65 92.90 97.01 92.52 98.38 92.16 C 96.42 93.96 94.28 95.56 92.19 97.20 C 92.56 96.28 93.29 94.45 93.65 93.53 C 92.21 94.72 90.78 95.93 89.42 97.21 C 85.51 101.83 84.36 107.94 80.55 112.64 C 81.12 114.90 81.54 117.21 81.59 119.55 C 80.13 118.19 79.74 116.23 79.04 114.46 C 78.20 114.08 76.53 113.33 75.69 112.96 C 75.58 113.57 75.36 114.80 75.25 115.42 C 74.66 114.94 73.48 113.99 72.89 113.51 C 69.37 116.74 69.60 122.46 71.93 126.30 C 74.17 127.19 74.62 125.08 74.90 123.42 C 75.39 123.27 76.38 122.97 76.87 122.82 C 76.70 124.93 76.53 127.03 76.39 129.13 C 77.17 129.26 78.75 129.52 79.53 129.65 C 79.50 131.86 79.54 134.07 79.68 136.28 C 81.16 136.50 82.64 136.72 84.11 136.96 C 85.20 135.77 86.32 134.60 87.46 133.45 C 87.60 134.95 87.75 136.48 87.92 137.99 C 88.02 137.15 88.23 135.46 88.34 134.62 C 90.36 135.67 92.48 136.58 94.80 136.53 C 96.83 138.88 98.71 141.59 101.84 142.54 C 104.59 143.45 105.22 146.59 105.75 149.08 C 106.86 149.38 107.97 149.67 109.09 149.95 C 109.42 150.32 110.08 151.07 110.41 151.44 C 113.78 152.22 119.76 153.44 118.88 158.06 C 118.60 159.83 116.99 160.97 115.99 162.34 C 115.57 164.90 115.79 167.88 114.00 169.97 C 112.40 171.05 110.31 171.42 108.96 172.84 C 107.77 175.75 106.27 178.52 104.14 180.85 C 103.23 180.29 102.32 179.72 101.41 179.15 C 101.83 180.37 103.63 181.56 102.52 182.92 C 100.81 183.86 98.98 184.55 97.20 185.33 C 97.42 185.67 97.86 186.36 98.08 186.71 C 97.47 187.61 96.86 188.51 96.25 189.41 C 96.87 191.02 96.27 192.58 95.70 194.09 C 93.51 192.82 91.24 191.65 89.12 190.25 C 90.06 189.69 90.98 189.10 91.89 188.49 C 91.56 187.08 91.24 185.67 90.86 184.27 C 91.54 178.52 91.70 172.71 91.61 166.92 C 91.63 163.51 87.91 162.29 86.58 159.59 C 85.16 156.75 83.79 153.90 82.17 151.17 C 82.13 148.01 82.60 144.88 84.28 142.15 C 83.85 140.38 83.42 138.60 83.00 136.83 C 82.54 137.33 81.61 138.34 81.15 138.85 C 78.53 135.21 75.86 131.60 72.28 128.83 C 71.76 128.84 70.72 128.87 70.20 128.89 C 68.80 127.54 67.39 126.20 65.99 124.85 C 65.49 121.24 63.55 118.11 61.90 114.94 C 61.75 115.88 61.44 117.78 61.29 118.72 C 60.72 116.97 60.20 115.21 59.65 113.45 C 60.36 113.83 61.77 114.57 62.48 114.95 C 61.63 113.93 60.72 112.97 59.71 112.10 C 58.75 110.89 57.80 109.68 56.83 108.49 C 54.27 103.39 55.84 97.74 55.35 92.32 C 53.96 93.06 53.77 94.58 53.28 95.87 C 54.70 84.94 58.11 74.23 63.88 64.80 C 63.76 65.83 63.52 67.90 63.40 68.93 C 64.33 68.40 65.26 67.87 66.20 67.33 C 66.88 68.10 67.56 68.87 68.23 69.65 C 68.19 68.82 68.19 67.98 68.25 67.15 C 69.74 66.02 71.42 67.46 72.99 67.69 C 73.72 66.27 74.50 64.86 75.77 63.85 C 75.79 64.83 75.83 66.79 75.86 67.77 C 76.92 65.98 76.89 64.19 75.25 62.71 C 76.11 62.01 76.98 61.32 77.85 60.62 C 78.44 63.11 79.99 65.08 81.66 66.93 C 82.30 65.76 82.94 64.60 83.62 63.46 C 83.86 63.46 84.34 63.46 84.59 63.46 C 83.18 63.01 81.74 62.67 80.31 62.28 C 80.45 60.93 80.65 59.60 80.91 58.28 M 83.07 58.46 C 82.15 59.60 82.37 60.31 83.74 60.56 C 84.66 59.42 84.44 58.71 83.07 58.46 M 87.27 58.23 C 87.77 58.81 87.77 58.81 87.27 58.23 M 60.92 77.83 C 63.09 77.99 64.61 76.41 66.10 75.11 C 64.29 75.86 62.48 76.64 60.92 77.83 Z"></path>
    <path fill="#afbdd2" opacity="1.00" d=" M 68.15 62.33 C 68.16 60.35 68.94 58.80 70.48 57.68 C 70.51 59.32 70.52 60.96 70.54 62.60 C 71.10 62.94 72.24 63.61 72.81 63.95 C 72.41 64.61 71.60 65.93 71.20 66.59 C 70.65 66.35 69.54 65.87 68.99 65.62 C 67.53 66.22 66.06 66.82 64.61 67.44 C 64.90 66.13 65.38 64.85 65.39 63.50 L 65.41 62.45 C 65.94 61.78 66.99 60.44 67.52 59.77 C 67.68 60.41 67.99 61.69 68.15 62.33 Z"></path>
    <path fill="#afbdd2" opacity="1.00" d=" M 147.58 61.66 C 149.78 60.34 152.43 60.37 154.90 60.10 C 157.51 62.97 161.31 64.11 164.25 66.53 C 164.13 66.86 163.90 67.52 163.78 67.85 C 162.24 69.12 160.59 67.41 159.03 67.05 C 159.88 68.46 160.72 69.88 161.58 71.28 C 163.08 69.96 164.70 68.77 166.39 67.69 C 166.19 66.99 165.80 65.59 165.61 64.89 C 166.87 65.58 167.84 66.52 167.65 68.10 C 170.28 66.08 173.48 66.41 176.57 66.69 C 182.36 75.76 186.08 85.95 188.60 96.37 C 188.18 96.69 187.35 97.33 186.93 97.65 C 187.40 97.62 188.34 97.55 188.81 97.52 C 191.00 110.64 192.09 124.21 189.77 137.38 C 189.60 136.94 189.27 136.07 189.10 135.64 C 187.95 132.24 187.39 128.69 187.00 125.15 C 186.26 124.30 185.54 123.44 184.85 122.56 C 184.48 121.64 184.11 120.72 183.74 119.80 C 179.74 120.89 174.79 118.56 173.87 114.34 C 173.46 114.43 172.65 114.61 172.25 114.70 C 173.22 116.96 174.25 119.20 175.23 121.47 C 176.01 120.93 176.78 120.40 177.56 119.87 C 178.40 120.93 179.26 121.98 180.12 123.04 C 178.16 127.65 174.47 131.25 170.07 133.55 C 169.57 133.06 169.07 132.56 168.58 132.06 C 168.35 125.92 165.12 120.46 163.13 114.78 C 163.32 120.57 165.53 125.99 167.03 131.53 L 167.87 131.18 C 168.21 132.62 168.49 134.08 168.93 135.49 C 170.83 135.43 172.59 134.68 174.37 134.11 C 173.53 137.42 172.35 140.69 170.28 143.45 C 168.47 146.39 165.42 148.61 164.55 152.07 C 164.19 155.02 164.74 157.98 164.59 160.93 C 163.48 162.88 161.50 164.10 159.91 165.61 C 159.78 171.02 155.84 175.60 152.07 179.16 C 150.00 179.42 147.95 179.73 145.90 180.02 C 144.95 175.18 144.24 170.20 142.25 165.66 C 142.85 163.41 143.80 161.26 144.39 159.01 C 144.50 155.79 142.63 152.98 141.68 150.01 C 141.63 148.20 142.03 146.42 142.05 144.61 C 140.04 143.85 138.09 142.89 136.00 142.38 C 132.23 143.06 128.08 145.04 124.37 143.46 C 121.37 140.23 118.89 136.40 117.43 132.22 C 119.20 129.35 118.25 126.10 118.20 122.98 C 119.03 120.39 120.56 118.11 121.74 115.68 C 124.13 114.36 125.10 111.93 125.53 109.36 C 127.17 107.91 128.35 106.07 128.97 103.96 C 128.09 103.80 126.34 103.48 125.47 103.33 C 125.45 100.37 125.71 97.43 125.82 94.48 C 128.30 94.54 130.77 94.62 133.25 94.68 C 133.42 91.80 131.97 89.39 129.44 88.03 C 133.60 87.67 136.64 84.82 138.94 81.59 C 139.61 81.63 140.95 81.72 141.62 81.76 C 141.17 80.35 140.73 78.95 140.31 77.53 C 140.95 77.50 142.23 77.42 142.87 77.39 C 142.60 78.22 142.07 79.90 141.80 80.73 C 144.90 81.82 148.15 81.63 151.35 81.24 C 151.21 80.44 150.93 78.82 150.79 78.01 C 151.63 78.19 153.29 78.55 154.12 78.73 C 153.66 78.02 152.74 76.60 152.28 75.89 C 153.94 75.70 155.60 75.47 157.26 75.19 C 155.80 74.48 154.18 74.75 152.66 75.01 C 151.51 74.02 150.70 72.77 150.25 71.32 C 151.31 70.05 152.36 68.76 153.34 67.41 C 152.80 67.38 151.72 67.31 151.19 67.28 C 150.14 69.03 148.73 70.49 147.33 71.95 C 147.92 72.89 148.51 73.83 149.11 74.76 C 147.97 76.80 147.11 79.13 145.05 80.43 C 144.23 78.53 143.57 76.57 142.86 74.63 C 141.57 75.24 140.26 75.82 138.95 76.39 C 138.48 74.75 138.01 73.11 137.52 71.47 C 139.06 70.04 140.82 68.88 142.34 67.43 C 144.11 65.53 145.40 63.16 147.58 61.66 M 145.11 92.24 C 144.91 96.04 148.75 97.75 150.09 100.84 C 150.55 100.08 151.02 99.31 151.48 98.53 C 149.42 96.37 147.32 94.24 145.11 92.24 M 163.20 93.57 C 162.64 95.24 163.17 95.74 164.80 95.07 C 165.34 93.40 164.81 92.90 163.20 93.57 M 157.69 97.68 C 160.36 100.71 156.28 100.11 154.47 100.82 C 154.61 103.40 154.83 106.12 156.85 107.98 C 156.32 107.78 155.26 107.40 154.73 107.20 C 152.94 105.35 152.59 102.71 151.68 100.40 C 151.11 100.62 149.99 101.05 149.42 101.27 C 148.78 102.44 148.11 103.60 147.50 104.79 C 146.73 104.14 145.95 103.50 145.17 102.87 C 145.86 102.64 147.22 102.18 147.91 101.95 C 148.53 99.77 145.71 98.91 144.59 97.50 C 144.06 96.41 143.53 95.31 143.00 94.22 C 142.23 94.63 140.69 95.44 139.93 95.85 C 139.34 95.63 138.18 95.19 137.59 94.98 C 137.10 96.25 136.46 97.46 135.41 98.37 C 133.88 99.49 134.23 101.72 133.06 103.04 C 131.65 103.75 130.15 104.25 128.78 105.03 C 130.07 105.33 131.37 105.62 132.68 105.89 C 135.90 102.97 140.34 103.74 144.33 103.73 C 144.41 105.38 144.11 106.99 143.41 108.48 C 144.80 108.99 146.20 109.48 147.60 109.93 C 148.92 110.97 150.28 111.96 151.64 112.93 C 152.05 111.81 152.45 110.69 152.87 109.57 C 155.91 111.42 159.15 112.96 162.83 112.37 C 163.27 110.22 166.14 106.16 162.41 105.69 C 162.52 106.32 162.73 107.58 162.83 108.22 L 162.36 108.39 C 162.13 107.71 161.65 106.36 161.41 105.68 C 160.18 105.65 158.96 105.61 157.75 105.57 C 157.46 104.01 157.16 102.45 156.87 100.89 C 158.79 100.30 160.70 99.63 162.61 98.99 C 164.24 99.85 165.86 101.36 167.85 100.76 C 167.40 97.85 164.72 95.56 161.75 95.62 C 161.31 94.92 160.42 93.54 159.97 92.85 C 159.17 94.44 158.43 96.06 157.69 97.68 M 171.19 96.52 C 171.61 98.54 172.44 100.44 173.45 102.24 C 172.63 104.55 173.23 106.98 175.99 107.23 C 175.66 103.89 175.14 100.46 173.32 97.57 C 173.88 97.19 174.99 96.41 175.55 96.03 C 175.06 95.48 174.57 94.94 174.08 94.40 C 173.12 95.11 172.15 95.82 171.19 96.52 Z"></path>
    <path fill="#afbdd2" opacity="1.00" d=" M 171.30 59.59 C 172.41 61.08 173.50 62.59 174.43 64.21 C 173.09 63.40 171.77 62.58 170.45 61.74 C 170.66 61.20 171.08 60.12 171.30 59.59 Z"></path>
    <path fill="#afbdd2" opacity="1.00" d=" M 122.14 66.24 C 122.84 65.60 123.54 64.96 124.24 64.32 C 124.46 64.74 124.90 65.56 125.12 65.97 C 126.70 65.56 128.29 65.23 129.89 64.89 C 130.42 65.45 131.47 66.59 132.00 67.15 C 129.21 68.70 124.97 70.06 123.20 66.38 C 122.93 66.34 122.41 66.28 122.14 66.24 Z"></path>
    <path fill="#afbdd2" opacity="1.00" d=" M 169.26 65.18 C 169.81 65.88 169.81 65.88 169.26 65.18 Z"></path>
    <path fill="#afbdd2" opacity="1.00" d=" M 128.78 74.74 C 129.94 75.16 131.11 75.60 132.27 76.05 C 130.78 79.46 135.70 81.72 135.66 85.24 C 133.50 85.17 131.31 85.21 129.28 86.05 C 130.71 84.34 128.94 83.54 128.12 82.53 C 127.10 83.40 125.93 83.96 124.59 84.20 C 125.21 82.43 124.90 79.86 126.99 79.04 C 127.72 79.18 129.18 79.47 129.91 79.61 C 128.94 78.11 128.56 76.49 128.78 74.74 M 128.53 81.73 C 129.49 83.14 132.05 81.30 130.49 80.08 L 129.53 80.04 C 129.28 80.46 128.78 81.31 128.53 81.73 Z"></path>
    <path fill="#afbdd2" opacity="1.00" d=" M 100.26 87.25 C 101.33 87.49 102.32 87.99 103.36 88.35 C 103.48 89.46 103.61 90.57 103.75 91.68 C 102.81 91.35 101.87 91.01 100.93 90.67 C 100.30 90.73 99.04 90.84 98.41 90.89 C 99.05 89.69 99.66 88.48 100.26 87.25 Z"></path>
    <path fill="#afbdd2" opacity="1.00" d=" M 142.19 95.68 C 142.59 97.82 143.20 100.05 142.40 102.19 C 141.07 100.24 141.92 97.80 142.19 95.68 Z"></path>
    <path fill="#afbdd2" opacity="1.00" d=" M 62.41 118.94 C 64.83 118.71 62.34 122.36 61.99 119.68 L 62.41 118.94 Z"></path>
    <path fill="#afbdd2" opacity="1.00" d=" M 78.76 122.02 C 80.26 120.79 82.10 121.72 83.33 122.85 C 85.36 124.62 88.00 125.42 90.09 127.08 C 89.21 127.32 87.45 127.79 86.57 128.03 L 86.68 126.27 C 84.71 125.68 83.56 127.02 82.65 128.57 C 82.00 127.17 82.66 125.85 83.64 124.84 C 82.17 123.65 80.58 122.59 78.76 122.02 Z"></path>
    <path fill="#afbdd2" opacity="1.00" d=" M 166.32 162.14 C 168.40 161.03 169.63 159.04 170.79 157.07 C 171.53 161.21 168.92 165.13 167.60 168.91 C 166.99 169.19 165.77 169.74 165.15 170.01 C 165.55 167.39 166.30 164.81 166.32 162.14 Z"></path>
  </g>
</svg>
