<?xml version="1.0" encoding="UTF-8"?>
<!-- Generator: Adobe Illustrator 16.0.0, SVG Export Plug-In . SVG Version: 6.00 Build 0)  -->
<svg xmlns="http://www.w3.org/2000/svg" xmlns:xlink="http://www.w3.org/1999/xlink" version="1.1" id="Layer_1" x="0px" y="0px" width="2880px" height="1440px" viewBox="0 0 2880 1440" xml:space="preserve">
<g>
	<path fill="#DE522D" d="M2053.445,990.264c-0.055,0.266-1.019,1.263-1.25,1.595c-1.164,1.674-2.267,3.391-3.357,5.112   c-0.738,1.164-1.456,2.487-2.302,3.563c-0.311,0.396-1.189,0.842-1.367,1.312c-0.246,0.655-0.163,0.457,0.541,1.188   c9.37,9.735-6.635,31.708-9.307,16.235c0.922,5.338,0.842,11.1,1.542,16.449c-2.189-1.336-5.885-1.768-7.891-3.141   c3.047,9.348,14.995,15.857,6.841,27.147c-2.391,3.31-5.849,5.699-8.07,9.147c1.429,1.71,2.792,2.801,1.464,5.031   c-3.987,6.644-14.289,6.177-14.959,15.136c1.724-0.847,3.795-1.763,5.321-2.97c0.432,3.646-0.63,7.45-0.096,10.966   c0.319,2.098,4.425,2.487,4.011,5.259c-0.263,1.763-8.509,12.45-9.037,11.979c5.738,5.109-6.993,11.9-10.034,15.085   c4.576-4.801,7.346,4.789,6.59,7.432c-1.378,4.821-7.086,7.355-9.551,11.101c2.358,0.316,5.305,0.881,7.721,0.559   c-2.009,2.344-4.488,5.319-6.338,7.588c12,5.328-0.373,34.217-5.941,40.041c13.257,3.144,25.858,8.797,39.334,11.041   c6.313,1.045,10.996,2.385,14.324-2.027c2.846-3.813,4.269-11.817,5.104-16.469c1.42-7.892,2.395-10.052,6.481-16.789   c4.811,0.982,6.639,6.314,8.911,10.021c1.312-3.301,2.873-7.931,3.35-11.581c3.086-0.447,5.799,1.689,7.292,4.166   c6.036-8.523-0.525-23.555,9.354-31.063c8.387-6.367,9.832,16.147,9.878,21.056c0-0.519,12.411-10.597,13.845-11.596   c5.767-4.085,11.68-5.181,15.349,1.513c1.413-4.547,3.571-8.974,7.78-11.477c-0.484,4.832-2.488,10.562-0.593,15.249   c5.044-4.613,11.376-0.578,17.105-0.008c9.815,0.979,13.595-5.272,21.988-6.399c7.062-0.949,9.045,1.022,13.598-5.47   c3.449-4.909,8.824-14.063,15.432-15.148c7.946-1.304,9.923,7.14,14.833,11.375c0.757-6.683,0.63-13.618,1.358-20.303   c1.405,0.966,2.215,0.419,3.867,2.291c3.751-6.224-4.762-21.619-3.264-29.704c2.656-0.004,5.354,0.257,7.985,0.167   c-9.013-7.484-9.914-22.846-6.447-33.094c2.069,0.578,14.579,10.364,14.358,12.295c0.966-8.35,0.385-17.322,0.811-25.15   c1.646,0.292,4.744-0.753,5.73-0.62c-2.688-3.476-5.6-7.271-9.555-9.174c0.906-6.045,13.119-10.486,17.321-14.273   c-1.567-1.63-4.245-1.738-5.759-3.309c-3.838-3.98,0.635-12.541,3.771-16.018c-1.331,1.484-13.43-1.084-15.142-2.022   c-7.167-3.884-1.595-8.269,1.576-12.385c1.198-1.556,1.771-3.808,1.852-5.736c-0.122,2.128-8.592-0.943-9.269-1.708   c-3.057-3.457,4.844-15.975,5.857-19.881c-5.414-0.78-12.412,1.718-17.302,3.456c0.258-3.581-2.683-8.285-6.061-12.114   c-2.561-2.902-5.313-5.376-8.823-6.926c-0.3,1.399-0.494,2.98-0.756,4.498c-0.352,2.035-5.234-2.158-5.766-2.611   c-0.9-0.765-2.075-2.414-3.16-2.829c-0.781-0.3-2.383-0.059-3.208,0.051c-1.126,0.149-2.16,0.557-2.991,1.35   c0.144-0.983,0.954-2.271,1.432-3.156c0.549-1.016,1.004-1.934,1.277-3.066c0.578-2.402,0.782-5.15,0.781-7.607   c-0.001-2.094-0.174-4.164-0.256-6.259c-0.123-3.208-0.038-6.437-0.181-9.647c0.694,1.174,1.591,4.843,3.313,4.88   c0.208-3.691-0.526-7.291-1.307-10.858c-0.355-1.621-0.291-3.405-0.421-5.045c-0.072-0.92,0.118-1.92,0.185-2.84   c0.026-0.362,0.434-2.711,0.205-2.891c3.979,3.132,8.4,3.122,13.157,4.123c-2.921-9.584-16.729-21.689-14.826-31.403   c3.197,2.833,6.613,4.792,9.11,8.751c-9.646-13.86-2.572-64.698-24.896-64.691c-0.012,0-0.022,0-0.033,0.001   c-4.47,0.179-8.889,1.129-12.889,3.173c-2.004,1.024-3.873,2.297-5.6,3.739c-0.654,0.547-5.354,4.396-5.074,5.134   c-0.453-1.196-1.037-2.324-1.752-3.383c0.119,0.177-2.907,4.981-3.183,5.549c-1.056,2.181-1.956,4.434-2.798,6.705   c-1.428,3.849-1.817,7.963-3.736,11.629c-0.909,1.735-3.453,3.606-3.891,5.346c2.049-0.574,4.017-2.29,6.141-2.511   c1.531,4.878-2.312,10.908-3.235,15.719c2.139,0.006,4.259-1.374,6.418-1.568c0.683,4.815-4.011,8.213-5.285,12.407   c-1.264,4.155-0.069,9.379-3.795,12.641c3.851-2.797,8.515-2.938,12.998-3.411c0.038,2.745-0.935,5.769-1.319,8.521   c-0.319,2.283-0.215,6.049-1.358,8.146c-0.718,1.318-2.28,2.125-3.277,3.228c-1.254,1.386-2.375,2.844-3.35,4.432   c2.516-0.375,4.42-1.481,6.997-1.38c-0.987,4.065-2.909,7.391-5.892,10.245c-1.162,1.113-3.142,3.534-2.75,5.307   c0.487,2.207,3.41,1.457,5.001,0.878c0.671,2.646-1.654,6.284-2.496,8.741c-1.056,3.079-2.789,5.618-4.22,8.486   c-1.026,2.058-0.575,3.928-0.846,6.098c-0.334,2.681-1.679,6.045-3.667,7.852c-2.001,1.82-4.013,2.737-5.13,5.369   c1.064-2.51,1.059-5.802,1.37-8.563c0.271-2.409,0.181-4.99-0.404-7.353c-0.772-3.12-3.344-5.591-5.038-8.201   c-1.054-1.623-1.469-3.603-1.912-5.46c-0.205-0.86-0.354-5.107-0.863-5.532c1.608,1.344,3.724,2.498,5.148,3.974   c-1.053-1.128-1.83-3.065-2.555-4.452c-1.882-3.604-2.999-7.445-4.49-11.204c-1.093-2.756-2.123-4.346-1.485-7.477   c0.783,0.298,5.143,3.815,4.965,4.636c0.403-1.864-0.531-5.246-0.868-7.32c-0.297-1.83-1.882-6.239,0.007-7.614   c2.35-1.709,3.877,2.7,4.614,4.234c0.276-1.372-0.536-3.444-0.785-4.828c-0.331-1.848-0.556-3.737-0.984-5.562   c0.735,1.806,2.03,3.337,3.057,4.98c0.337-2.339-1.566-5.234-2.079-7.547c-0.666-3.003-1.678-6.225-2.026-9.257   c-0.18-1.568,0.211-3.151,0.062-4.727c-0.085-0.895-0.065-3.34-0.435-4.056c0.877,1.699,1.941,3.633,3.27,4.991   c-1.417-2.089-0.441-3.778-0.533-5.966c-0.097-2.281-2.091-4.958-3.037-6.94c-3.84-8.049-5.05-16.611-11.523-23.167   c-2.606-2.64-5.722-4.691-9.01-6.382c-1.361-0.699-13.806-5.227-13.799-5.438c-0.093,2.96-0.655,5.911-1.609,8.712   c-0.861,2.527-1.639,5.421-2.719,7.813c-2.289,5.067-6.719,9.636-10.542,13.553c-3.935,4.031-8.737,7.462-12.376,11.752   c2.393-0.511,9.067-4.354,9.438-0.032c0.297,3.466-2.512,8.314-4.179,11.124c-1.496,2.521-6.05,7.104-5.954,10.068   c2.92,0.065,7.835-2.312,6.487,2.693c-1.608,5.979-18.251,20.137-9.351,25.362c1.398,0.821,2.514,0.785,2.788,2.368   c0.341,1.975-2.854,4.87-3.607,6.532c-2.322,5.128,1.545,4.398,4.889,5.966c-0.748,2.047-2.507,3.784-3.93,5.371   c-3.245,3.621-6.894,6.892-9.262,11.206c-1.398,2.547-3.526,6.957-3.206,10.028c1.846-0.188,4.926-1.7,5.505,0.543   c0.544,2.102-6.489,8.399-7.521,9.519c-2.571,2.787-6.524,5.966-7.719,9.72c3.442-0.068,6.409-2.951,9.897-3.313   c1.619-0.169,4.104-0.49,5.247,0.82c0.572,0.656,0.86,2.074,1.423,2.959C2053.445,986.527,2053.919,987.973,2053.445,990.264z"></path>
	<path fill="#FFFFFF" stroke="#DE522D" d="M2160.405,1050.638c6.222,9.83,1.525,29.799-6.934,34.598   c-7.379,4.167-17.069,5.424-25.718-0.378c-7.396-4.971-12.007-13.195-13.606-20.851c-1.584-7.653,0.407-14.931,5.312-20.258   c1.185-1.267,2.516-2.78,3.99-3.753c1.491-1,3.404-1.226,4.97-2.083c5.747-3.133,14.07,0.308,20.006,3.399   C2152.701,1043.514,2157.854,1046.597,2160.405,1050.638z"></path>
	<path fill="#FFFFFF" d="M2135.182,1025.176c2.827,13.222,19.581,11.846,23.886,1.263   C2165.918,1009.557,2131.293,1006.998,2135.182,1025.176z"></path>
	<path fill="#3F2616" d="M2144.321,1016.653c-8.06,5.712,3.092,20.109,8.431,12.527   C2156.698,1023.568,2150.407,1012.308,2144.321,1016.653z"></path>
	<path fill="#FFFFFF" d="M2154.036,1024.034c-1.009,1.652-3.092,2.23-4.662,1.271c-1.562-0.931-1.998-3.062-1.006-4.704   c1.002-1.652,3.088-2.218,4.646-1.272C2154.573,1020.275,2155.024,1022.406,2154.036,1024.034z"></path>
	<path fill="#DE522D" d="M2151.371,1055.422c0.903-2.374-2.747-2.026-4.175-1.974c-0.785,0.03-2.328,0.43-3.118,0.04   c-1.241-0.61-1.925-2.877-2.216-4.023c-0.309-1.26-2.32-5.429-3.473-2.788c-0.495,1.133,1.021,3.808,1.506,4.953   c0.688,1.583,1.854,3.432,3.496,4.396c1.789,1.066,3.001,0.356,4.877,0.246C2149.323,1056.2,2150.986,1056.424,2151.371,1055.422z"></path>
	<path fill="#DE522D" d="M2126.735,1065.663c0.733,0.708,1.481,1.4,2.215,2.094c3.361,3.175,7.44,4.583,11.293,6.917   c4,2.409,8.696,3.734,13.068,2.42c1.855-0.551,4.128-0.979,5.449-2.212c-2.019-1.316-2.606-0.732-4.726-0.573   c-3.35,0.236-6.437,0.232-9.625-1.099c-3.627-1.525-7.126-3.338-10.564-5.26c-3.425-1.919-6.581-4.974-9.177-7.84   c-2.196-2.418-2.398-5-3.743-7.752c-0.545-1.115-0.783-2.987-1.866-3.725c-2.024-1.401-1.876,1.217-1.856,2.741   c0.019,2.715,0.917,6.208,2.985,8.186C2122.331,1061.611,2124.536,1063.622,2126.735,1065.663z"></path>
	<path fill="#FFFFFF" d="M2177.867,1054.833c-12.936,3.802-19.156-11.616-11.709-20.476   C2178.037,1020.242,2195.627,1049.61,2177.867,1054.833z"></path>
	<path fill="#3F2616" d="M2181.347,1042.389c-1.394,9.921-19.479,6.673-15.158-1.687   C2169.379,1034.52,2182.412,1034.854,2181.347,1042.389z"></path>
	<path fill="#FFFFFF" d="M2169.672,1037.523c-1.021,1.696-0.542,3.845,1.057,4.819c1.6,0.975,3.74,0.397,4.748-1.297   c1.021-1.682,0.557-3.832-1.043-4.817C2172.818,1035.266,2170.681,1035.844,2169.672,1037.523z"></path>
	<path fill="#DE522D" d="M2010.739,1182.961c-2.173,0.671-4.287,1.571-6.291,2.672c-4.191,2.317-19.244,26.287-18.152,26.582   c2.154,0.599,4.405,1.018,6.542,1.63c-0.249-0.069-0.224,13.374,0.05,14.912c0.731,4.048,2.717,9.161,4.887,13.019   c2.029,3.607,4.986,6.552,5.578,10.482c0.435,2.788,0.108,5.175,1.114,8.073c1.314,3.744,3.815,5.129,7.195,7.786   c7.515,5.854,11.186,9.411,19.457,6.92c4.01-1.224,4.53-2.145,4.69-6.567c0.405-11.969-5.285-25.486-0.57-36.384   c3.195,1.71,9.66,5.014,9.875,8.77c0.669-2.718,3.522-4.729,4.664-7.113c2.038,0.857,3.854,1.129,5.063,1.524   c-3.548-7.765-9.663-34.693,8.151-20.854c-5.852-11.406-6.12-25.474-20.051-30.122   C2032.602,1180.837,2020.907,1179.73,2010.739,1182.961z"></path>
	<path fill="#DE522D" d="M2172.315,1182.689c10.474-4.291,16.182,18.56,15.504,25.3c1.64-3.199,6.093-0.586,7.377,1.939   c1.878,3.665,0.452,8.733,1.329,12.678c0.958,4.323,3.047,8.272,4.753,12.146c5.272-1.47,27.176,28.082,31.506,32.974   c6.003,6.766,7.369,9.309,16.434,6.071c10.56-3.8,25.28-14.464,21.692-26.955c-2.556-8.903-10.167-16.311-15.666-23.489   c2.401,0.462,5.095,0.411,7.103-0.9c-6.146-7.821-10.685-13.354-14.194-22.957c-1.327-3.635-7.582-15.479-4.596-18.892   c1.913-2.182,8.254-0.158,11.229-3.471c-2.275-1.715-25.421-15.983-16.765-17.782c-2.809-4.054-1.79-9.787-4.737-13.548   c-0.95-1.209-5.979-2.847-7.375-3.601c-8.04-4.354-16.462-11.369-20.749-19.527c-4.928-9.354-5.335-12.1-14.975-3.938   c-8.083,6.844-18.592,14.648-23.78,23.889c-3.127,5.569-3.85,12.524-5.457,18.377   C2157.716,1172.836,2166.733,1174.515,2172.315,1182.689z"></path>
	<path fill="#DE522D" d="M2218.379,1259.391c8.587,10,24.084,11.618,29.238,25.9c0.606,1.69,1.832,33.411,6.724,30.642   c0.357-0.206,4.036-1.332,4.536-1.441c2.238-0.453,2.062-8.852,6.146-9.958c5.337-1.443,11.601,8.937,12.315,12.589   c1.798,8.859,3.347,11.956-1.074,20.325c17.657,9.569,29.793-13.842,26.497-26.034c-3.811-14.037-18.736-20.779-25.502-32.869   c-7.545-13.479,2.134-33.677-20.12-36.248C2243.441,1240.715,2229.404,1253.006,2218.379,1259.391z"></path>
</g>
<path fill="#DE522D" d="M2362.998,388.005c-15.954-29.791-50.227-54.849-92.408-64.634c-53.908-12.508-115.166,5.799-171.145,1.57  c-46.228-3.489-88.741-21.337-133.5-30.411c-21.659-4.39-42.537-13.645-63.843-20.532c-6.494-2.1-15.137-8.039-20.618-9.601  c-11.371-3.239-20.213,1.857-32.285-0.049c-19.284-3.045-20.297-15.064-41.794-10.879c-12.376,2.409-27.018,8.9-37.588-1.244  c-9.701-9.311-3.584-9.872-17.235-5.253c-7.177,2.428-15.027,2.094-22.462,3.041c-12.709,1.619-25.308,4.681-38.177,4.788  c-22.848,0.189-45.772,0.271-68.485-2.577c-16.062-2.014-77.823-4.89-73.717-28.359c1.054-6.02-48.375-0.593-53.542-0.062  c-15.007,1.544-22.325-1.39-35.751-6.153c-15.781-5.599-33.105-1.192-49.183-5.041c3.303-2.649,7.299-4.125,11.294-5.38  c-9.898-1.51-20.439-2.248-30.461-2.128c1.695-3.243,4.978-5.162,8.783-5.228c-15.64,3.743-33.663,11.073-49.792,10.18  c0.782-0.306,2.356-0.643,2.92-0.829c-12.629-1.019-25.552,0.594-38.16-0.397c4.67-6.082,12.399-8.947,19.051-12.719  c-23.941-1.856-47.349,4.141-68.789,14.549c-12.276,5.959-18.057,10.534-32.026,10.102c-12.228-0.379-24.243-1.353-36.14-3.304  c-11.92-1.955-24.074-6.007-36.041-4.045c0.909-0.748,1.335-1.687,1.278-2.817c-21.165,6.109-49.728,27.016-70.802,26.232  c1.742-4.83,2.199-12.726,5.009-17.491c-16.199,2.378-29.327,13.488-45.118,17.492c-14.982,3.799-30.333,2.884-41.333,15.979  c4.205-5.005,7.196-12.139,7.744-19.188c-18.684,20.275-58.821,28.154-73.277,49.893c-22.968,34.538,6.672,99.599,0.778,140.909  c-2.823,19.783-18.925,56.306-7,74.471c10.381,15.813,23.458,1.282,37.342-0.046c4.304-0.412,36.278,2.762,36.165,7.87  c0.207-9.284-0.099-18.558,2.683-27.591c4.785,4.174,12.373,5.65,17.552,7.909c-2.364-6.174-3.696-12.957-3.752-19.503  c7.993,0.374,16.133,6.356,19.994,13.895c-1.231-20.751-7.52-29,3.817-47.812c7.786-12.917,16.904-16.596,27.965-24.952  c4.432,4.323,9.601,7.08,13.636,11.827c-11.421-13.435,23.097-30.629,29.52-33.146c21.482-8.417,40.948-7.566,63.978-6.631  c14.981,0.608,19.788,9.275,31.89,17.209c7.577-8.818,1.143-15.083,15.583-18.468c14.149-3.316,24.39,3.346,37.957,4.112  c11.816,0.667,22.804,4.416,34.47,7.443c27.291,7.082,55.475,11.556,83.458,5.736c0.119,1.491-0.344,3.333-0.211,4.972  c9.189,1.935,19.057,0.488,26.197-5.869c0.051,2.759,3.869,8.613,3.973,12.058c15.403,0.116,27.91-11.325,40.792-18.042  c14.389-7.502,24.218-0.163,11.31,13.963c14.626,1.899,28.474-7.903,42.829-9.855c12.213-1.663,23.741-6.76,35.928-8.423  c17.005-2.319,19.425,9.132,4.449,18.248c12.334-7.508,28.35-7.182,42.118-9.602c13.842-2.432,24.662-7.944,38.525-8.902  c13.968-0.966,29.135-3.876,42.951-1.681c-0.094,2.93,2.365,6.618,2.185,9.582c10.506-3.406,16.937-12.193,26.361-17.338  c11.568-6.315,24.412-5.329,37.101-3.178c13.205,2.239,26.565,6.503,38.23,13.163c1.725,0.984,26.163,19.26,22.124,21.725  c7.821-4.774,13.426-13.548,22.354-16.662c15.446-5.379,39.865-3.321,50.318,10.318c-3.309-4.317,46.266-12.155,49.973-12.256  c13.172-0.359,28.096-0.156,34.224,13.954c13.244-14.317,44.354-5.896,62.604-5.915c18.959-0.02,38.363-5.914,56.912-1.83  c20.136,4.433,37.041,9.995,58.306,9.163c29.498-1.154,39.565-25.744,65.854-31.031c31.622-6.359,64.538,4.521,94.233,14.443  C2308.414,390.196,2386.616,432.109,2362.998,388.005z"></path>
<g>
	<path fill="none" d="M553.243,891.991c0.817,0.26,1.637,0.52,2.434,0.785c-11.312-8.593-28.843-22.404-41.471-34.787   c-1.726-1.688-3.28-3.548-4.7-5.526c1.669,2.538,3.542,4.899,5.671,7.004C526.604,870.798,542.028,883.283,553.243,891.991z"></path>
	<path fill="none" d="M394.315,785.721c0.129-0.726,0.223-1.233,0.259-1.287c-0.316-0.021-0.61,0.105-0.92,0.072   c-0.197-0.021-0.394-0.017-0.592-0.031c0.094,0.171,0.188,0.34,0.282,0.513c-1.993,11.315-14.37,100.257-5.427,112.978   C380.917,879.965,392.403,796.702,394.315,785.721z"></path>
	<path fill="none" d="M518.668,764.838c-19.421-11.735-21.184-19.168-21.184-19.168s-0.023,0.565-0.062,1.563   c1.741,2.895,6.676,8.938,20.275,17.072c19.437,11.662,49.194,45.854,59.881,75.567c4.498,12.563,6.254,27.869,6.812,41.447   c0.285-0.018,0.591-0.032,0.879-0.048c-0.635-13.276-2.415-27.938-6.721-40.1C567.862,811.162,538.105,776.605,518.668,764.838z"></path>
	<g>
		<path fill="none" d="M614.174,259.3c0.13,0.2,0.262,0.401,0.371,0.606c0.441,0.837,0.81,1.474,1.45,2.213    c0.575,0.667,0.962,1.425,1.469,2.15c0.646,0.927,1.113,1.991,1.788,2.892c0.625,0.835,1.498,1.809,2.417,2.283    c1.454,0.75,2.44-0.611,2.43-2.027c-0.01-1.42-1.173-2.937-2.022-3.986c-0.668-0.828-2.15-1.386-2.229-2.606    c1.768,0.809,3.432,1.254,5.446,1.235c3.457-0.035,1.199-5.919-0.798-6.633c-1.899-0.681-3.393,0.776-4.96,1.593    c-1.22,0.637-2.537,1.063-3.796,1.642C615.232,258.893,614.707,259.1,614.174,259.3z"></path>
		<path fill="none" d="M602.178,250.223c2.359,1.071,4.604,2.409,6.668,4c0.444,0.342,0.924,0.712,1.412,1.103    c0.086-0.261,0.171-0.471,0.252-0.594c2.324-3.53,4.63-7.312,5.987-11.412c-1.659,0.324-3.262,0.869-4.9,1.341    c-2.47,0.71-4.722,2.039-7.174,2.805c-1.756,0.55-3.52,1.042-5.285,1.555C600.166,249.378,601.183,249.771,602.178,250.223z"></path>
		<path fill="#9CB181" d="M1079.237,999.339c-0.428-0.877-0.827-1.767-1.198-2.669c-0.286-0.697-0.591-1.387-0.884-2.081    c-0.205,0.204-0.406,0.384-0.594,0.521c-0.107,0.075-0.201,0.137-0.304,0.21c-5.851,4.107-6.654,2.338-11.765-2.515    c-4.961-4.714-18.246-33.267-17.383-40.134c-1.655,13.188,7.586,28.245,3.233,41.029c-4.505,13.235-31.14,9.188-29.925-0.93    c-1.238,10.315-5.105,35.671-20.832,20.544c-10.058-9.675-5.236-26.225-19.82-35.176c2.214,1.359-4.462,23.427-5.696,26.433    c-28.573,6.257-22.862-59.333-39.777-70.143c-8.226-5.257-27.014,9.787-34.167,14.866c-6.36,4.518-61.745,51.599-58.281,57.392    c-0.832-1.393-1.471-2.732-2.308-4.192c-25.392-43.628-46.162-63.329-105.345-97.16c-43.284-24.794-113.943-24.314-148.83-22.279    c-0.024-0.586-0.063-1.191-0.092-1.782c-0.635-13.276-2.415-27.938-6.721-40.1c-10.687-30.011-40.444-64.567-59.88-76.335    c-19.421-11.735-21.184-19.168-21.184-19.168s-0.023,0.565-0.062,1.563c-0.2,5.106-0.81,21.777-0.81,34.791    c0,13.944-1.238,48.961,12.893,70.438c1.669,2.538,3.542,4.899,5.671,7.004c11.427,11.331,26.851,23.816,38.066,32.524    c1.18,0.915,2.329,1.803,3.405,2.629c-18.332-6.199-41.962-10.833-70.959-9.82c-25.775,0.907-43.373,8.467-59.432,21.001    c-8.254-0.799-15.965-1.638-22.179-2.417c-0.605-0.063-1.235-0.15-1.813-0.224c-0.971-0.106-1.859-0.246-2.744-0.33    c-0.727-0.116-1.399-0.201-2.06-0.311c-0.708-0.105-1.4-0.18-2.014-0.273c-0.672-0.117-1.234-0.235-1.793-0.32    c-0.429-0.074-0.888-0.14-1.229-0.234c-0.821-0.148-1.503-0.288-1.87-0.426c-1.078-0.371-1.947-1.523-2.639-3.301    c-7.001-18,4.485-101.263,6.398-112.244c0.129-0.726,0.223-1.233,0.259-1.287c-0.316-0.021-0.61,0.105-0.92,0.072    c-0.197-0.021-0.394-0.017-0.592-0.031c-11.812-0.937-22.37,7.804-30.258,15.832c-4.052,4.123-9.007,15.996-14.154,19.566    c-0.663,0.459-1.329,0.78-1.996,0.932c-17.377,3.917-17.805-53.003-15.69-62.659c1.865-8.514,8.013-15.733,12.472-23.152    c-0.352-0.734-0.759-1.46-1.249-2.176c-6.875-10.062-39.06-14.672-50.433-15.795c-18.744-1.852-47.027-2.464-62.124,11.538    c1.409-1.307,44.225,55.271,48.571,60.224c18.663,21.278,40.435,25.244,61.413,40.764c-32.738,0.672-64.881,9.635-89.284,33.243    c-32.562,31.531-52.37,52.158-59.88,82.934c-0.873,3.557,35.19-28.807,68.62-27.934c17.66,0.471,29.188,4.921,41.684,9.033    c-3.684,2.703-6.73,5.304-8.792,7.635c-15.738,17.88-31.502,22.365-37.803,47.623c-6.322,25.336,0.088,57.477,1.218,83.356    c19.478-16.58,43.389-23.343,65.446-35.148c11.878-6.361,18.681-14.296,28.986-21.831c-10.175,7.442-15.383,89.361-8.868,98.575    c20.19-16.309,36.697-35.646,61.745-45.039c44.006-16.5,117.438-16.336,126.08-77.56c-4.236,43.259,35.268,96.644,71.251,114.961    c20.499,10.436,50.423,18.573,61.565,40.61c1.774-22.97,13.083-44.996,9.555-68.109c-3.588-23.511-11.488-46.447-13.044-70.826    c14.652,15.81,28.725,31.556,46.591,43.767c27.5,18.786,75.852,35.258,114.312,46.418c1.508,14.922,5.128,30.957,12.758,47.678    c12.067,26.391,11.172,18.193,11.171,18.188c-0.934-8.538,22.396-33.558,27.078-40.055c11.308-15.711,17.473-34.137,27.922-49.059    c-5.494,7.845,27.949,40.632,33.935,44.424c18.264,11.567,40.655,9.884,61.123,13.246c27.302,4.488,51.289,12.205,72.335,29.746    c11.691-50.38-41.445-64.956-64.047-95.839c12.45-9.456,122.132-3.609,121.208,10.016    C1124.579,1038.625,1091.216,1023.912,1079.237,999.339z"></path>
		<path fill="#DE522D" d="M346.654,820.805c0.667-0.151,1.333-0.473,1.996-0.932c5.146-3.57,10.102-15.443,14.154-19.566    c7.889-8.028,18.446-16.769,30.258-15.832c0.198,0.015,0.395,0.011,0.592,0.031c0.31,0.033,0.604-0.094,0.92-0.072    c-0.037,0.054-0.13,0.562-0.259,1.287c-1.913,10.981-13.399,94.244-6.398,112.244c0.691,1.777,1.561,2.93,2.639,3.301    c0.367,0.138,1.049,0.277,1.87,0.426c0.341,0.095,0.8,0.16,1.229,0.234c0.559,0.085,1.121,0.203,1.793,0.32    c0.614,0.094,1.307,0.168,2.014,0.273c0.661,0.109,1.333,0.194,2.06,0.311c0.885,0.084,1.772,0.224,2.744,0.33    c0.579,0.073,1.208,0.16,1.813,0.224c6.213,0.779,13.925,1.618,22.179,2.417c16.059-12.534,33.657-20.094,59.432-21.001    c28.998-1.013,52.627,3.621,70.959,9.82c-1.077-0.826-2.226-1.714-3.405-2.629c-11.215-8.708-26.64-21.193-38.066-32.524    c-2.128-2.104-4.001-4.466-5.671-7.004c-14.131-21.478-12.893-56.494-12.893-70.438c0-13.014,0.61-29.685,0.81-34.791    c0.04-0.998,0.062-1.563,0.062-1.563s1.763,7.433,21.184,19.168c19.437,11.768,49.193,46.324,59.88,76.335    c4.307,12.162,6.086,26.823,6.721,40.1c0.029,0.591,0.068,1.196,0.092,1.782c34.886-2.035,105.546-2.515,148.83,22.279    c59.184,33.831,79.954,53.532,105.345,97.16c0.837,1.46,1.476,2.8,2.308,4.192c-3.464-5.793,51.921-52.874,58.281-57.392    c7.153-5.079,25.941-20.123,34.167-14.866c16.915,10.81,11.204,76.399,39.777,70.143c1.234-3.006,7.91-25.073,5.696-26.433    c14.584,8.951,9.763,25.501,19.82,35.176c15.726,15.127,19.593-10.229,20.832-20.544c-1.215,10.118,25.42,14.165,29.925,0.93    c4.353-12.784-4.889-27.841-3.233-41.029c-0.863,6.867,12.422,35.42,17.383,40.134c5.111,4.853,5.914,6.622,11.765,2.515    c0.103-0.073,0.196-0.135,0.304-0.21c0.188-0.137,0.39-0.316,0.594-0.521c4.75-4.688,13.617-26.663,14.947-31.552    c4.037-14.851,6.244-32.279,3.228-47.558c-7.78-39.393-49.51-77.046-86.024-82.837c-18.135-2.879-11.316-12.556-8.573-15.41    c1.348-1.374,5.273-2.066,9.597-5.325c3.155-2.416,6.482-6.433,9.188-13.014c0.429-1.033,0.821-2.13,1.209-3.302    c0.733-2.107,1.425-4.344,1.984-7.037c2.685-12.833,2.262-24.685,0.888-34.292c-0.258-1.726-0.517-3.311-0.822-4.888    c-0.428-2.268-0.858-4.408-1.357-6.326c-1.117-4.217-2.315-7.346-3.12-9.029c-2.743-5.687-7.144-12.481-1.089-19.871    c6.038-7.392,25.283,21.021,24.735,14.739c-0.878-10.026-3.556-19.907-6.438-29.488c-1.307-4.345-2.228-9.983-4.623-13.825    c-2.333-3.743-4.052-7.735-5.186-12.083c-1.158-4.437-1.576-9.014-1.183-13.593c0.176-2.04,0.543-4.031,0.503-6.08    c3.424,1.37,7.218,2.594,10.719,4.026c-3.534-3.73-6.746-8.658-9.446-13.034c-2.506-4.062-4.448-7.985-5.637-12.652    c-1.72-6.752-1.072-13.673-4.125-20.154c-0.445-0.945-0.917-1.787-1.47-2.702c-1.092-1.807-2.672-3.121-3.662-5.013    c-0.253-0.483-0.532-0.948-0.791-1.432c-1.208-2.284-2.49-4.543-3.816-6.773c-0.49-0.826-0.971-1.635-1.483-2.429    c-1.27-2.107-2.583-4.13-3.9-6.107c-0.372-0.548-0.708-1.106-1.079-1.64c-1.679-2.493-3.358-4.876-5.042-7.209    c-0.445-0.617-0.868-1.199-1.306-1.828c-1.333-1.8,25.106,1.242,23.847-0.431c-0.547-0.781-1.089-1.475-1.632-2.209    c-7.737-10.234-13.58-17.572-12.732-19.76c1.705-4.371,8.563-0.703,12.666-1.905c0.107-0.034,0.221-0.108,0.33-0.151    c1.059-0.408-25.779-5.851-25.329-7.267c0.443-1.401,0.344-3.136,0.01-4.975c-0.124-0.813,27.396,3.127,27.127,2.222    c-0.237-0.693-0.574-1.396-0.893-2.108c-2.21-5.384-4.995-10.49-8.1-15.373c-2.209-3.477-7.076-7.817-8.29-11.677    c-1.441-4.601-0.087-10.154-1.653-15.126c-1.472-4.692-3.811-9.081-5.769-13.564c-1.891-4.322-3.684-9.792-6.778-13.39    c-2.768-3.226-6.906-4.605-10.057-7.316c-10.475-9.009-20.438-18.002-21.404-32.794c-3.208-49.071,53.832-54.684,36.622-114.271    c-3.054-10.562-15.997-12.039-19.401-23.204c-2.129-6.986,0.857-14.616-0.751-21.596c-2.196-9.526-9.032-15.294-7.405-26.368    c8.731,3.243,27.174,15.205,33.635,22.001c-2.498-2.629-1.542-19.771-3.195-24.009c-6.085-15.592-4.019-37.811-20.266-47.639    c7.335-0.332,12.915,4.577,18.632,8.672c3.222-20.862-24.854-28.554-34.556-41.067c-6.396-8.249-26.791-40.328-38.855-38.672    c17.535-2.407,31.552,5.361,44.615,15.909c-17.572-19.328-35.985-63.198-66.817-57.185c9.505-14.612,30.862-11.88,36.106-28.978    c-1.529-0.181-3.068-0.346-4.613-0.49c-23.976-2.328-48.147-1.443-72.105-3.987c-7.818-0.83-14.031-3.486-9.315-12.973    c2.325-4.68,14.224-14.588,19.364-14.791c-16.854,0.664-34.322-1.043-50.706,3.94c-1.233,0.375-2.465,0.756-3.693,1.153    c-8.799,2.846-17.967,6.179-25.482,11.834c-3.125,2.353-5.815,6.802-9.265,7.862c-2.979,0.914-8.547-0.695-11.76-0.752    c-17.84-0.31-35.729,2.82-52.783,8.094c-34.167,10.564-68.812,30.693-88.959,61.908c8.01-3.106,17.204-4.127,25.68-4.411    c-15.008,29.274-52.941,34.567-71.826,62.861c11.155-4.97,25.446-7.181,36.801-3.72c-11.208,15.127-21.972,25.028-25.133,45.221    c7.052-3.065,14.335-7.297,22.108-7.385c-4.652,12.877-25.26,23.849-29.492,37.648c-11.752,0.011-23.205,2.104-34.772,2.18    c-14.549,0.096-28.869-3.879-43.574-3.21c4.076,6.157,19.572,10.577,27.11,13.16c-7.472,6.85-22.695,7.126-32.458,11.702    c-10.398,4.873-21.252,10.589-30.071,18.063c9.565-0.612,17.245-4.118,27.399-3.917c-1.387,12.662-24.197,20.968-33.281,25.934    c-8.327,4.554-16.834,9.245-25.035,14.135c-4.777,2.849-18.902,16.867-23.535,16.939c10.283-0.16,20.208-4.045,30.466-5.115    c-10.149,10.185-20.698,17.691-29.529,28.388c-6.798,8.234-13.608,17.724-21.465,24.697c-11.008,9.77-14,19.451-22.217,29.93    c12.909-4.437,39.267-17.836,46.141,0.757c9.426,25.499-34.354,52.97-49.961,65.581c15.426,1.613,34.902-3.63,23.98,21.836    c-7.944,18.522-30.356,21.604-38.649,42.666c7.271-6.903,16.422-6.925,25.087-10.713c16.143,10.039-1.014,22.56-9.307,32.233    c-12.699,14.813-18.095,26.66-21.271,44.917c0.923-5.304,34.665-22.129,38.648-15.032c4.946,8.813-24.369,37.662-28.988,44.341    c-4.463,6.452-9.938,12.954-13.874,19.725c-2.363,4.067-7.711,29.601-9.829,30.557c5.734-2.59,12.237-6.137,18.822-6.215    c1.501,8.064-2.683,16.019-4.168,23.685c-0.486,2.512-0.457,11.679-0.84,12.897c-0.887,2.812-2.287,5.524-3.903,8.214    c-4.459,7.419-10.607,14.639-12.472,23.152C328.85,767.802,329.277,824.722,346.654,820.805z M624.495,255.425    c1.997,0.714,4.255,6.599,0.798,6.633c-2.014,0.02-3.678-0.426-5.446-1.235c0.079,1.22,1.561,1.778,2.229,2.606    c0.849,1.05,2.013,2.566,2.022,3.986c0.01,1.416-0.976,2.777-2.43,2.027c-0.919-0.474-1.792-1.448-2.417-2.283    c-0.675-0.9-1.142-1.964-1.788-2.892c-0.506-0.725-0.894-1.483-1.469-2.15c-0.641-0.74-1.009-1.376-1.45-2.213    c-0.108-0.205-0.24-0.406-0.371-0.606c0.532-0.2,1.058-0.408,1.564-0.64c1.259-0.579,2.576-1.005,3.796-1.642    C621.103,256.201,622.596,254.745,624.495,255.425z M604.423,247.466c2.452-0.767,4.704-2.095,7.174-2.805    c1.638-0.472,3.241-1.018,4.9-1.341c-1.357,4.099-3.663,7.882-5.987,11.412c-0.081,0.123-0.166,0.333-0.252,0.594    c-0.488-0.39-0.968-0.761-1.412-1.103c-2.064-1.59-4.309-2.928-6.668-4c-0.995-0.452-2.012-0.845-3.04-1.202    C600.903,248.507,602.667,248.016,604.423,247.466z"></path>
	</g>
</g>
<path fill="#9CB181" d="M427.213,861.149c0.579,0.087,1.234,0.172,1.9,0.277C428.447,861.321,427.792,861.236,427.213,861.149"></path>
<path fill="#9CB181" d="M431.062,861.703c0.836,0.087,1.673,0.211,2.592,0.32C432.735,861.914,431.898,861.79,431.062,861.703"></path>
<path fill="#9CB181" d="M424.356,860.637c0.326,0.086,0.771,0.15,1.163,0.216C425.116,860.787,424.682,860.723,424.356,860.637"></path>
<path fill="#FFFFFF" stroke="#DE522D" stroke-width="0.5" d="M850.704,246.666c-7.268,9.493-14.628,22.411-15.567,34.667  c-1.266,16.33,9.163,25.452,22.029,32.613c9.509,5.318,29.323,19.365,40.861,10.659c4.458-3.37,7.181-11.958,9.608-17.038  c9.583-20.054,5.709-57.637-13.899-70.854C879.304,226.987,860.367,234.045,850.704,246.666z"></path>
<path fill="#FFFFFF" stroke="#DE522D" stroke-width="0.5" d="M810.002,254.689c-2.752-10.5-11.354-21.635-22.047-24.1  c-20.131-4.643-48.317,17.166-51.826,37.886c-3.268,19.295-3.401,49.79,20.326,53.229c7.091,1.027,14.571-3.893,21.374-6.096  c7.034-2.27,15.16-7.897,21.006-13.536C809.259,292.061,814.083,270.248,810.002,254.689z"></path>
<path fill="#FFFFFF" d="M782.803,334.787c-9.143,5.531-16.513,10.147-24.56,16.851c-14.5,12.062-25.284,31.053-26.194,48.924  c-1.833,36.01,1.97,72.496,33.771,93.573c27.947,18.522,59.287,22.946,89.957,9.388c11.45-5.061,18.708-7.133,26.793-17.227  c5.316-6.636,12.577-12.918,15.991-20.927c2.775-6.509,1.048-13.368,2.812-19.745c1.521-5.497,5.461-9.722,7.084-15.158  c9.015-30.2-9.604-55.36-29.541-74.358c-14.725-14.03-11.75-31.377-33.397-39.881c-14.427-5.666-29.396-5.857-43.097,2.217  C794.94,322.852,790.071,330.39,782.803,334.787z"></path>
<path fill="#DE522D" d="M826.527,353.619c13.91,2.487,25.257-20.036,11.596-26.751c-3.869,7.083-5.925,18.674-16.581,15.453  c-2.521-0.766-13.615-13.427-13.538-14.047c-1.121,9.057-3.043,9.974,3,16.389C815.457,349.397,820.246,352.496,826.527,353.619z"></path>
<path fill="#DE522D" d="M907.094,428.935c2.908,7.843-41.88,18.076-48.011,19.2c-21.792,3.977-45.243,3.919-66.844-1.022  c-10.206-2.348-17.634-5.156-25.062-11.459c-3.078-2.597-4.819-5.718-8.496-8.041c-1.628-1.022-14.354-4.615-14.411-4.738  c5.614,12.088,18.233,29.36,29.483,37.715c13.27,9.845,36.059,9.628,52.855,9.628c19.721,0,38.781-1.014,56.136-9.874  C894.495,454.343,912.151,442.417,907.094,428.935z"></path>
<path fill="#3F2616" d="M850.549,285.203c-5.957-8.85,7.433-13.935,13.275-16.869c4.37-2.193,9.205-3.519,14.344-2.193  c2.583,0.662,4.69,2.193,6.788,3.584c2.892,1.928,6.482,3.21,8.523,6.081c3.621,5.084,0.392,7.579-2.124,11.896  c-1.602,2.751-2.236,4.52-5.077,6.075c-2.784,1.517-5.491,3.476-8.811,4.253c-6.763,1.551-14.752-0.128-19.923-4.759  C854.863,290.87,852.368,287.865,850.549,285.203z"></path>
<path fill="#DE522D" d="M1122.398,278.25c19.826,4.542,19.618,27.877,15.845,47.625c17.402-27.661,19.544-30.364,48.355-22.947  c26.752,6.885,42.216,15.338,46.614,48.171c10.251-12.926,15.19-35.029,26.228-47.192c8.563-9.429,22.377-12.828,32.101-20.511"></path>
<path fill="#FFFFFF" d="M878.788,277.414c0,4.148-2.856,7.513-6.384,7.513c-3.523,0-6.389-3.365-6.389-7.513  c0-4.153,2.866-7.518,6.389-7.518C875.931,269.896,878.788,273.26,878.788,277.414z"></path>
<path fill="#3F2616" d="M796.64,284.603c3.88-5.683-0.252-8.884-4.687-11.897c-2.597-1.764-5.436-3.114-8.225-4.515  c-4.251-2.134-8.953-3.423-13.957-2.134c-2.51,0.643-4.555,2.134-6.601,3.487c-2.814,1.873-6.308,3.119-8.29,5.916  c-3.517,4.947-0.377,7.369,2.066,11.57c1.56,2.68,2.179,4.397,4.938,5.91c2.712,1.474,5.345,3.382,8.573,4.142  c6.581,1.502,14.35-0.126,19.381-4.637C792.446,290.112,794.869,287.196,796.64,284.603z"></path>
<path fill="#FFFFFF" d="M769.171,277.02c0,4.042,2.78,7.316,6.214,7.316c3.425,0,6.209-3.275,6.209-7.316  c0-4.036-2.784-7.31-6.209-7.31C771.951,269.71,769.171,272.984,769.171,277.02z"></path>
<path fill="#3F2616" d="M1255.596,424.07h68.501c15.495,0,28.051,4.012,37.669,12.032c9.616,8.022,14.425,19.416,14.425,34.182  c0,12.124-3.442,22.447-10.323,30.969c-6.883,8.524-17.207,15.245-30.969,20.167c17.228,2.735,27.893,13.673,31.995,32.815  l12.989,60.571h-48.676l-7.121-52.775c-1.278-8.935-3.395-15.453-6.356-19.554c-2.961-4.102-7.494-6.153-13.598-6.153h-4.1v78.482  h-44.437V424.07z M1305.033,461.124v40.882h9.708c6.926,0,12.213-2.051,15.86-6.153c3.645-4.102,5.469-9.297,5.469-15.587  c0-6.379-1.596-11.165-4.786-14.357c-3.192-3.189-8.022-4.785-14.493-4.785H1305.033z"></path>
<path fill="#3F2616" d="M1441.211,424.07h44.206l50.228,190.737h-48.405l-6.776-37.874h-36.566l-6.969,37.874h-45.533  L1441.211,424.07z M1462.426,476.164l-12.244,66.587h24.165L1462.426,476.164z"></path>
<path fill="#3F2616" d="M1545.181,424.07h45.258l21.739,60.434c6.472,17.958,11.438,33.499,14.904,46.625h2.324l-1.094-32.268  V424.07h42.659v190.737h-45.121l-21.739-60.435c-6.474-17.956-11.44-33.543-14.903-46.761h-2.462l1.094,32.268v74.928h-42.659  V424.07z"></path>
<path fill="#3F2616" d="M1775.082,600.451c-4.376,5.743-9.071,10.073-14.084,12.989c-5.014,2.916-10.346,4.375-15.997,4.375  c-10.757,0-20.851-4.215-30.285-12.647c-9.435-8.43-16.387-20.462-20.852-36.096c-4.467-15.632-6.699-32.108-6.699-49.428  c0-29.442,6.539-53.256,19.62-71.441c13.079-18.185,30.741-27.278,52.982-27.278c14.856,0,28.257,3.739,40.199,11.212v42.286  c-11.327-9.413-21.785-14.119-31.373-14.119c-12.424,0-21.695,5.516-27.814,16.544c-6.118,11.03-9.178,26.07-9.178,45.121  c0,17.685,2.081,31.745,6.245,42.181c4.163,10.438,9.816,15.655,16.956,15.655c3.66,0,6.382-1.777,8.168-5.332  c1.783-3.555,2.677-8.888,2.677-15.998v-11.896h-14.63V512.26h56.059v102.547h-21.604L1775.082,600.451z"></path>
<path fill="#3F2616" d="M1822.457,424.07h44.3v126.338c0,10.028,1.389,17.57,4.171,22.628c2.779,5.059,6.949,7.589,12.511,7.589  c5.832,0,10.187-2.301,13.058-6.905c2.871-4.602,4.307-11.507,4.307-20.715V424.07h44.574v131.397  c0,19.873-5.448,35.231-16.34,46.078c-10.894,10.849-26.23,16.271-46.009,16.271c-19.143,0-34.024-5.24-44.643-15.724  c-10.62-10.481-15.929-26.023-15.929-46.625V424.07z"></path>
<path fill="#3F2616" d="M1955.699,424.07h120.458v38.694h-38.694v152.043h-44.437V462.764h-37.327V424.07z"></path>
<path fill="#3F2616" d="M2112.488,424.07h44.206l50.228,190.737h-48.405l-6.776-37.874h-36.566l-6.969,37.874h-45.533  L2112.488,424.07z M2133.703,476.164l-12.244,66.587h24.165L2133.703,476.164z"></path>
<path fill="#3F2616" d="M2220.458,424.07h45.258l21.739,60.434c6.472,17.958,11.438,33.499,14.904,46.625h2.324l-1.094-32.268  V424.07h42.659v190.737h-45.121l-21.739-60.435c-6.474-17.956-11.44-33.543-14.903-46.761h-2.462l1.094,32.268v74.928h-42.659  V424.07z"></path>
<path fill="#3F2616" d="M1153.634,642.725c26.55,0,47.486,10.023,62.81,30.067c15.321,20.046,22.983,47.437,22.983,82.172  c0,34.844-7.713,62.628-23.14,83.354c-15.427,20.728-35.419,31.09-59.977,31.09c-25.502,0-45.233-10.756-59.189-32.271  c-13.958-21.513-20.937-48.327-20.937-80.44c0-22.248,3.409-42.213,10.232-59.898c6.821-17.682,16.372-31.115,28.65-40.299  C1127.345,647.317,1140.2,642.725,1153.634,642.725z M1159.144,689.006c-10.287,0-18.157,5.93-23.613,17.788  c-5.458,11.86-8.186,28.075-8.186,48.643c0,20.885,2.649,37.283,7.95,49.193c5.298,11.912,12.618,17.867,21.96,17.867  c9.233,0,16.632-6.14,22.196-18.418c5.561-12.279,8.343-28.65,8.343-49.115c0-21.197-2.809-37.489-8.422-48.878  C1173.757,694.7,1167.015,689.006,1159.144,689.006z"></path>
<path fill="#3F2616" d="M1260.049,646.345h51.003V791.8c0,11.546,1.599,20.229,4.801,26.053c3.2,5.825,8.001,8.737,14.404,8.737  c6.715,0,11.728-2.649,15.034-7.95c3.306-5.298,4.958-13.247,4.958-23.849V646.345h51.318v151.28c0,22.88-6.271,40.562-18.812,53.05  c-12.542,12.49-30.199,18.732-52.971,18.732c-22.039,0-39.172-6.033-51.397-18.103c-12.227-12.067-18.339-29.962-18.339-53.68  V646.345z"></path>
<path fill="#3F2616" d="M1422.663,646.345h138.686v44.55h-44.55v175.049h-51.16V690.895h-42.976V646.345z"></path>
<path fill="#3F2616" d="M1583.23,646.345h78.866c17.84,0,32.296,4.62,43.369,13.853c11.07,9.236,16.607,22.354,16.607,39.354  c0,13.959-3.963,25.844-11.885,35.655c-7.926,9.814-19.811,17.553-35.655,23.22c19.834,3.148,32.113,15.741,36.836,37.78  l14.954,69.736h-56.041l-8.198-60.761c-1.471-10.287-3.908-17.791-7.317-22.514s-8.628-7.084-15.655-7.084h-4.721v90.358h-51.16  V646.345z M1634.391,689.006v47.068h11.177c7.975,0,14.062-2.361,18.261-7.084c4.196-4.723,6.297-10.704,6.297-17.946  c0-7.345-1.837-12.854-5.51-16.529c-3.675-3.672-9.236-5.51-16.687-5.51H1634.391z"></path>
<path fill="#3F2616" d="M1746.315,646.345h125.147v44.235h-73.986v40.456h68.949v42.818h-68.949v47.226h73.986v44.864h-125.147  V646.345z"></path>
<path fill="#3F2616" d="M1939.994,646.345h50.896l57.827,219.599h-55.729l-7.803-43.604h-42.1l-8.023,43.604h-52.423  L1939.994,646.345z M1964.419,706.322l-14.097,76.663h27.821L1964.419,706.322z"></path>
<path fill="#3F2616" d="M2220.458,646.345h44.796v84.849h35.782v-84.849h45.213v219.599h-45.213v-91.933h-35.782v91.933h-44.796  V646.345z"></path>
<path fill="#3F2616" d="M1153.634,400.725c26.55,0,47.486,10.023,62.81,30.067c15.321,20.046,22.983,47.437,22.983,82.172  c0,34.844-7.713,62.628-23.14,83.354c-15.427,20.728-35.419,31.09-59.977,31.09c-25.502,0-45.233-10.756-59.189-32.271  c-13.958-21.513-20.937-48.327-20.937-80.44c0-22.248,3.409-42.213,10.232-59.898c6.821-17.682,16.372-31.115,28.65-40.299  C1127.345,405.317,1140.2,400.725,1153.634,400.725z M1159.144,447.006c-10.287,0-18.157,5.93-23.613,17.788  c-5.458,11.86-8.186,28.075-8.186,48.643c0,20.885,2.649,37.283,7.95,49.193c5.298,11.912,12.618,17.867,21.96,17.867  c9.233,0,16.632-6.14,22.196-18.418c5.561-12.279,8.343-28.65,8.343-49.115c0-21.197-2.809-37.489-8.422-48.878  C1173.757,452.7,1167.015,447.006,1159.144,447.006z"></path>
<path fill="#3F2616" d="M2154.94,789.703c-1.262,5.266-2.853,10.047-4.788,14.32c-5.564,12.279-12.963,18.418-22.196,18.418  c-9.342,0-16.661-5.955-21.96-17.867c-5.301-11.91-7.949-28.309-7.949-49.193c0-20.566,2.728-36.781,8.186-48.642  c5.455-11.858,13.326-17.788,23.613-17.788c7.87,0,14.612,5.694,20.228,17.08c2.549,5.171,4.513,11.364,5.905,18.557l45.886-24.16  c-3.681-10.405-8.572-19.65-14.719-27.692c-15.323-20.043-36.261-30.066-62.81-30.066c-13.436,0-26.289,4.593-38.568,13.774  c-12.278,9.184-21.829,22.616-28.65,40.299c-6.822,17.685-10.232,37.65-10.232,59.898c0,32.113,6.979,58.928,20.938,80.441  c13.956,21.514,33.688,32.27,59.189,32.27c24.557,0,44.549-10.361,59.977-31.09c8.771-11.783,15.04-25.854,18.824-42.199  L2154.94,789.703z"></path>
<path fill="#DE522D" d="M2198.174,805.605c0.027-0.194,0.064-0.388,0.087-0.572c0.065-0.524,0.136-1.901,0.085-2.445  c-0.13-1.613-1.49-2.041-1.932-3.333c-0.438-1.325,0.439-2.853,0.38-4.278c-0.054-1.471-0.489-2.896-1.044-4.217  c-1.254-2.995-4.712-5.653-7.471-6.994c-1.511-0.736-3.591-1.295-5.232-1.449c-2.22-0.231-4.201,0.938-6.015,0.273  c-2.562-0.949-4.452-1.803-7.366-0.861c-2.549,0.824-4.098,1.033-6.757,0.995c-4.952-0.058-7.495,2.892-9.253,7.567  c-1.07,2.825,1.792,4.046,2.851,6.579c0.991,2.372,1.954,4.917,3.614,6.587c1.694,1.703,2.83,1.001,3.011-1.363  c0.179-2.355-0.032-3.78,0.938-6.049c0.283-0.647,2.153,1.818,2.269,2.122c0.383,1.076,0.051,2.324,0.245,3.444  c0.438,2.421,1.728,6.626,4.224,7.358c1.947,0.563,3.316-2.107,3.76-3.726c0.531-1.952-1.004-5.081,1.746-5.421  c3.87-0.466,3.108,5.408,3.973,8.314c0.715,2.442,2.604,7.197,5.6,4.129c1.969-2.008-0.012-5.049,0.414-7.334  c0.289-1.505,0.878-2.487,0.904-3.996c0.021-1.271-0.433-2.463,0.159-3.641c2.753,0.838,4.122,1.557,5.223,4.653  c0.624,1.79,0.874,7.214,3.556,6.747C2197.597,808.432,2197.975,806.96,2198.174,805.605z"></path>
<path fill="#DE522D" d="M2088.91,793.508c0.121-0.095,0.234-0.188,0.357-0.266c0.335-0.253,1.282-0.811,1.697-0.964  c1.235-0.479,2.305,0.423,3.474,0.297c1.188-0.14,1.793-1.38,2.845-1.858c1.076-0.476,2.339-0.663,3.597-0.71  c2.852-0.108,6.686,1.619,9.21,3.283c1.361,0.902,2.93,2.316,3.969,3.553c1.398,1.642,1.688,3.604,3.18,4.769  c2.115,1.656,3.784,2.825,4.756,5.435c0.838,2.302,1.57,3.578,3.081,5.635c2.821,3.845,2.147,6.893-0.216,9.957  c-1.414,1.862-3.893,0.077-6.301,0.177c-2.25,0.082-4.618,0.254-6.739-0.425c-2.166-0.701-2.306-1.843-0.717-2.849  c1.585-0.994,2.721-1.341,3.8-2.923c0.307-0.463-2.514-1.022-2.794-0.995c-0.987,0.096-1.694,0.809-2.596,1.051  c-1.982,0.535-5.711,1.065-7.635-0.61c-1.493-1.309-0.354-3.352,0.545-4.282c1.101-1.126,4.2-1.072,2.896-3.331  c-1.836-3.187-5.603-0.464-8.168-0.066c-2.153,0.325-6.614,0.577-6.105-2.873c0.326-2.266,3.62-1.838,5.002-2.989  c0.924-0.769,1.299-1.592,2.361-2.158c0.9-0.48,2.001-0.556,2.508-1.451c-2.141-1.838-3.418-2.636-6.262-2.376  c-1.628,0.161-5.645,1.948-6.813-0.322C2087.209,794.982,2088.047,794.155,2088.91,793.508z"></path>
<path fill="#DE522D" d="M2203.774,809.497c1.326,2.283,12.69-8.323,4.641-15.476C2198.396,785.121,2200.52,803.892,2203.774,809.497  z"></path>
<g>
	<path fill="#9CB181" d="M1214.803,947.31v11.22c1.231-4.488,2.683-7.788,4.356-9.9c3.871-4.838,9.283-7.26,16.236-7.26   c4.839,0,8.91,1.563,12.21,4.687c3.3,3.124,4.95,6.975,4.95,11.55c0,3.609-1.056,6.579-3.168,8.91   c-2.112,2.332-4.797,3.498-8.052,3.498c-2.465,0-4.554-0.792-6.27-2.376c-1.716-1.584-2.574-3.519-2.574-5.809   c0-1.231,0.571-2.947,1.716-5.147h-0.792c-5.896,0-9.856,3.124-11.88,9.372c-1.584,5.016-2.376,10.78-2.376,17.292v5.016   c0,3.168,0.264,5.193,0.792,6.072c0.351,0.527,0.967,0.792,1.848,0.792c0.792,0,1.892-0.219,3.3-0.66   c1.407-0.439,2.462-0.66,3.168-0.66c1.935,0,3.584,0.695,4.95,2.081c1.364,1.386,2.046,3.062,2.046,5.03   c0,2.595-0.858,4.765-2.574,6.51c-1.716,1.744-3.807,2.615-6.27,2.615c-1.32,0-3.785-0.221-7.392-0.66   c-2.201-0.265-4.973-0.396-8.316-0.396c-3.345,0-6.292,0.132-8.844,0.396c-4.224,0.439-6.821,0.66-7.788,0.66   c-5.458,0-8.184-2.947-8.184-8.845c0-4.927,2.112-7.392,6.336-7.392c0.704,0,1.496,0.154,2.376,0.462   c0.879,0.31,1.539,0.462,1.98,0.462c1.496,0,2.244-2.463,2.244-7.392v-21.384c0-5.017-0.749-7.524-2.244-7.524   c-0.353,0-1.035,0.154-2.046,0.462c-1.013,0.31-1.782,0.462-2.31,0.462c-4.224,0-6.336-2.419-6.336-7.26   c0-2.64,0.703-4.795,2.112-6.468c1.407-1.671,3.211-2.509,5.412-2.509c0.879,0,2.112,0.178,3.696,0.528   c1.584,0.353,3.079,0.528,4.488,0.528c1.056,0,2.595-0.176,4.62-0.528c2.023-0.351,3.519-0.528,4.488-0.528   C1213.438,943.217,1214.803,944.583,1214.803,947.31z"></path>
	<path fill="#9CB181" d="M1319.346,970.938c0,3.695-0.462,6.16-1.386,7.392c-0.924,1.233-2.751,1.849-5.478,1.849h-32.208   c-1.584,0-2.574,0.154-2.97,0.462c-0.396,0.309-0.594,1.078-0.594,2.31c0,3.696,1.188,6.777,3.564,9.24   c2.376,2.465,5.367,3.696,8.976,3.696c3.696,0,7.479-2.023,11.352-6.072c2.64-2.815,5.544-4.225,8.712-4.225   c2.64,0,4.772,0.749,6.402,2.244c1.627,1.498,2.442,3.389,2.442,5.677c0,5.104-2.794,9.438-8.382,13.002   c-5.589,3.563-12.387,5.346-20.394,5.346c-10.473,0-18.833-3.168-25.08-9.504c-6.249-6.336-9.372-14.784-9.372-25.344   c0-10.647,3.102-19.25,9.306-25.807c6.204-6.555,14.322-9.834,24.354-9.834c9.327,0,16.785,2.686,22.374,8.052   C1316.552,954.79,1319.346,961.961,1319.346,970.938z M1277.371,964.337c0,0.528,0.132,0.97,0.396,1.32   c0.264,0.353,1.188,0.528,2.772,0.528h14.784c1.32,0,2.133-0.153,2.442-0.462c0.308-0.308,0.462-0.858,0.462-1.65   c0-2.287-1.013-4.29-3.036-6.006c-2.025-1.716-4.401-2.574-7.128-2.574c-3.521,0-6.381,1.365-8.58,4.092   C1278.074,961.347,1277.371,962.931,1277.371,964.337z"></path>
	<path fill="#9CB181" d="M1354.853,942.293c6.687,0,12.848,2.597,18.48,7.788v-9.504c0-3.168-1.101-4.752-3.3-4.752   c-0.528,0-1.584,0.089-3.168,0.264c-1.145,0.354-2.29,0.528-3.432,0.528c-1.673,0-3.082-0.703-4.224-2.112   c-1.145-1.406-1.716-3.168-1.716-5.279c0-5.631,2.991-8.448,8.976-8.448c1.935,0,3.343,0.045,4.224,0.132   c3.519,0.353,5.895,0.528,7.128,0.528c1.143,0,2.815-0.109,5.016-0.33c2.198-0.219,3.828-0.33,4.884-0.33   c2.199,0,3.717,0.51,4.554,1.526c0.835,1.019,1.254,2.897,1.254,5.641v60.382c0,4.513,0.835,6.768,2.508,6.768   c0.528,0,1.188-0.184,1.98-0.556c0.528-0.245,1.231-0.369,2.112-0.369c3.782,0,5.676,2.244,5.676,6.732   c0,2.729-0.66,4.95-1.98,6.666s-3.082,2.574-5.28,2.574h-0.792l-4.62-0.792c-1.056-0.176-2.554-0.265-4.488-0.265   c-2.289,0-4.181,0.089-5.676,0.265c-2.201,0.264-3.389,0.396-3.564,0.396c-2.729,0-4.092-1.584-4.092-4.752v-4.884   c-4.577,7.833-11.44,11.748-20.592,11.748c-8.097,0-14.763-3.32-19.998-9.966c-5.237-6.644-7.854-15.025-7.854-25.146   c0-10.296,2.574-18.612,7.722-24.948S1346.492,942.293,1354.853,942.293z M1359.473,958.925c-3.257,0-5.919,1.541-7.986,4.62   c-2.069,3.082-3.234,7.261-3.498,12.54v1.717c0,5.368,1.033,9.592,3.102,12.672c2.066,3.081,4.861,4.62,8.382,4.62   c3.872,0,7.017-1.671,9.438-5.017c2.419-3.343,3.63-7.788,3.63-13.332c0-5.366-1.188-9.679-3.564-12.936   C1366.601,960.555,1363.433,958.925,1359.473,958.925z"></path>
	<path fill="#9CB181" d="M1470.352,1011.857c-7.217,0-12.057-2.904-14.52-8.712c-6.16,5.808-13.464,8.712-21.912,8.712   c-6.953,0-12.497-1.827-16.632-5.479c-4.137-3.65-6.204-8.514-6.204-14.586c0-9.239,4.003-15.223,12.012-17.952   c3.432-1.143,7.392-2.111,11.88-2.903c6.248-1.057,10.495-2.265,12.739-3.63c2.243-1.363,3.365-3.453,3.365-6.271   c0-2.023-0.857-3.717-2.574-5.082c-1.716-1.363-3.851-2.046-6.402-2.046c-2.903,0-4.355,0.924-4.355,2.772c0,0.616,0,1.233,0,1.848   v0.528c0,2.464-1.029,4.533-3.085,6.204c-2.056,1.672-4.616,2.508-7.677,2.508c-3.5,0-6.387-1.057-8.662-3.168   c-2.275-2.112-3.412-4.752-3.412-7.92c0-4.752,2.508-8.491,7.524-11.221c5.016-2.727,11.923-4.092,20.724-4.092   c9.504,0,16.586,1.452,21.252,4.356c5.016,3.168,7.523,9.064,7.523,17.688v27.324c0,2.817,0.704,4.224,2.113,4.224   c0.703,0,1.363,0,1.979,0c0.264,0,0.571,0,0.924,0c2.023,0,3.739,0.693,5.147,2.079c1.407,1.387,2.113,3.077,2.113,5.07   c0,2.858-1.301,5.199-3.895,7.019C1477.722,1010.945,1474.398,1011.857,1470.352,1011.857z M1451.08,983.609v-2.904   c-0.612,0.353-4.457,1.452-11.535,3.3c-4.806,1.233-7.208,3.125-7.208,5.677c0,4.048,2.359,6.071,7.078,6.071   C1447.19,995.753,1451.08,991.707,1451.08,983.609z"></path>
	<path fill="#9CB181" d="M1513.516,947.907v4.022c5.455-7.04,12.275-10.561,20.459-10.561c8.008,0,14.389,3.103,19.141,9.306   c4.752,6.204,7.128,14.543,7.128,25.015c0,10.824-2.407,19.404-7.217,25.74s-11.282,9.504-19.416,9.504   c-3.236,0-6.167-0.617-8.79-1.849c-1.663-0.792-4.197-2.462-7.609-5.016v10.164c0,2.727,1.037,4.092,3.115,4.092   c0.863,0,1.857-0.132,2.984-0.396c1.557-0.178,2.681-0.265,3.373-0.265c3.981,0,5.972,2.287,5.972,6.864   c0,5.28-2.729,7.92-8.185,7.92c-1.584,0-4.005-0.178-7.26-0.528c-4.049-0.441-8.052-0.659-12.012-0.659   c-1.673,0-5.412,0.351-11.22,1.056c-1.056,0.087-1.849,0.132-2.376,0.132c-2.289,0-4.182-0.814-5.676-2.442   c-1.498-1.629-2.244-3.718-2.244-6.27c0-4.93,2.154-7.392,6.468-7.392c0.703,0,1.363,0.132,1.979,0.396   c1.584,0.351,2.331,0.528,2.244,0.528c1.584,0,2.377-2.508,2.377-7.524v-43.691c0-5.017-0.75-7.524-2.244-7.524   c-0.265,0-1.057,0.221-2.377,0.66c-0.881,0.177-1.584,0.264-2.111,0.264c-4.225,0-6.336-2.463-6.336-7.392   c0-2.552,0.703-4.663,2.111-6.336c1.406-1.671,3.211-2.509,5.412-2.509h0.924l4.621,0.66c0.613,0.178,1.891,0.265,3.827,0.265   c2.552,0,4.927-0.204,7.128-0.617c1.143-0.204,1.98-0.308,2.508-0.308C1512.414,943.217,1513.516,944.78,1513.516,947.907z    M1528.168,958.133c-3.433,0-6.118,1.584-8.053,4.753c-1.937,3.168-2.904,7.569-2.904,13.199c0,5.544,0.968,9.945,2.904,13.2   c1.935,3.257,4.531,4.884,7.788,4.884c3.343,0,6.026-1.627,8.052-4.884c2.023-3.255,3.036-7.656,3.036-13.2   c0-5.455-0.989-9.811-2.97-13.067C1534.041,959.763,1531.422,958.133,1528.168,958.133z"></path>
	<path fill="#9CB181" d="M1631.787,970.938c0,3.695-0.463,6.16-1.387,7.392c-0.924,1.233-2.751,1.849-5.478,1.849h-32.208   c-1.584,0-2.574,0.154-2.971,0.462c-0.396,0.309-0.594,1.078-0.594,2.31c0,3.696,1.188,6.777,3.564,9.24   c2.376,2.465,5.367,3.696,8.977,3.696c3.695,0,7.479-2.023,11.352-6.072c2.64-2.815,5.544-4.225,8.712-4.225   c2.64,0,4.772,0.749,6.401,2.244c1.628,1.498,2.442,3.389,2.442,5.677c0,5.104-2.794,9.438-8.382,13.002   c-5.59,3.563-12.387,5.346-20.395,5.346c-10.473,0-18.832-3.168-25.08-9.504s-9.371-14.784-9.371-25.344   c0-10.647,3.102-19.25,9.306-25.807c6.204-6.555,14.322-9.834,24.354-9.834c9.326,0,16.784,2.686,22.373,8.052   C1628.992,954.79,1631.787,961.961,1631.787,970.938z M1589.811,964.337c0,0.528,0.133,0.97,0.396,1.32   c0.264,0.353,1.188,0.528,2.771,0.528h14.784c1.32,0,2.133-0.153,2.442-0.462c0.307-0.308,0.462-0.858,0.462-1.65   c0-2.287-1.013-4.29-3.036-6.006c-2.025-1.716-4.401-2.574-7.128-2.574c-3.521,0-6.382,1.365-8.58,4.092   C1590.514,961.347,1589.811,962.931,1589.811,964.337z"></path>
	<path fill="#9CB181" d="M1665.709,941.369c6.775,0,12.495,1.894,17.16,5.676c0.352-3.782,2.727-5.676,7.129-5.676   c4.488,0,6.731,1.584,6.731,4.752c0,1.057-0.177,2.244-0.528,3.564c-0.264,1.584-0.396,3.081-0.396,4.487   c0,0.265,0.044,0.97,0.132,2.112c0,1.145,0,2.157,0,3.036v0.528c0,4.665-2.332,6.996-6.996,6.996c-3.346,0-6.249-1.652-8.712-4.957   c-2.993-3.999-6.646-5.999-10.956-5.999c-5.104,0-7.656,1.761-7.656,5.279c0,1.849,0.836,3.147,2.508,3.895   c1.672,0.748,6.072,1.738,13.201,2.97c5.808,1.056,10.098,2.244,12.869,3.564c2.772,1.319,5.037,3.213,6.799,5.676   c2.198,3.168,3.299,6.864,3.299,11.088c0,6.688-2.573,12.276-7.721,16.764c-5.148,4.488-11.596,6.732-19.339,6.732   c-7.745,0-14.784-2.463-21.12-7.393c0,4.313-2.2,6.469-6.6,6.469c-4.752,0-7.128-1.935-7.128-5.809   c0-0.878,0.087-2.244,0.264-4.092c0.175-1.848,0.265-3.211,0.265-4.092c0-0.792-0.066-1.98-0.198-3.564s-0.198-2.771-0.198-3.563   c0-3.96,2.463-5.94,7.393-5.94c2.375,0,4.178,0.353,5.412,1.057c1.23,0.705,2.551,2.068,3.959,4.092   c2.199,3.257,4.225,5.392,6.072,6.401c1.848,1.013,4.574,1.519,8.184,1.519c6.336,0,9.504-1.98,9.504-5.94   c0-2.727-2.553-4.62-7.655-5.676l-7.656-1.584c-6.249-1.32-10.671-2.64-13.267-3.96s-4.643-3.409-6.137-6.27   c-1.498-2.859-2.244-6.139-2.244-9.834c0-6.601,2.178-11.967,6.533-16.104C1652.972,943.438,1658.668,941.369,1665.709,941.369z"></path>
	<path fill="#9CB181" d="M1724.713,1011.857c-3.695,0-6.844-1.32-9.438-3.96c-2.598-2.641-3.895-5.809-3.895-9.504   c0-3.696,1.297-6.842,3.895-9.438c2.594-2.595,5.742-3.894,9.438-3.894c3.696,0,6.842,1.299,9.438,3.894   c2.596,2.597,3.895,5.742,3.895,9.438c0,3.695-1.299,6.863-3.895,9.504C1731.555,1010.537,1728.409,1011.857,1724.713,1011.857z"></path>
	<path fill="#9CB181" d="M1784.111,1011.857c-10.912,0-19.338-3.079-25.277-9.24c-5.94-6.158-8.91-14.827-8.91-26.004   c0-11.088,2.947-19.734,8.844-25.938c5.895-6.203,14.167-9.306,24.816-9.306c10.471,0,18.721,3.081,24.75,9.24   c6.025,6.16,9.041,14.608,9.041,25.344c0,11.266-2.926,20.064-8.777,26.4C1802.744,1008.689,1794.582,1011.857,1784.111,1011.857z    M1783.584,957.605c-3.874,0-6.931,1.695-9.175,5.082c-2.243,3.389-3.366,8.031-3.366,13.926c0,5.985,1.123,10.648,3.366,13.992   c2.244,3.345,5.39,5.016,9.438,5.016c8.184,0,12.275-6.336,12.275-19.008S1791.943,957.605,1783.584,957.605z"></path>
	<path fill="#9CB181" d="M1851.695,947.31v11.22c1.23-4.488,2.683-7.788,4.355-9.9c3.871-4.838,9.283-7.26,16.236-7.26   c4.838,0,8.91,1.563,12.209,4.687c3.301,3.124,4.951,6.975,4.951,11.55c0,3.609-1.057,6.579-3.168,8.91   c-2.113,2.332-4.798,3.498-8.053,3.498c-2.465,0-4.554-0.792-6.27-2.376c-1.717-1.584-2.574-3.519-2.574-5.809   c0-1.231,0.571-2.947,1.716-5.147h-0.792c-5.896,0-9.856,3.124-11.88,9.372c-1.584,5.016-2.376,10.78-2.376,17.292v5.016   c0,3.168,0.264,5.193,0.792,6.072c0.351,0.527,0.968,0.792,1.848,0.792c0.792,0,1.892-0.219,3.3-0.66   c1.407-0.439,2.463-0.66,3.168-0.66c1.936,0,3.585,0.695,4.95,2.081c1.364,1.386,2.046,3.062,2.046,5.03   c0,2.595-0.857,4.765-2.574,6.51c-1.715,1.744-3.807,2.615-6.27,2.615c-1.32,0-3.785-0.221-7.393-0.66   c-2.2-0.265-4.973-0.396-8.315-0.396c-3.345,0-6.292,0.132-8.844,0.396c-4.224,0.439-6.821,0.66-7.788,0.66   c-5.457,0-8.184-2.947-8.184-8.845c0-4.927,2.111-7.392,6.336-7.392c0.703,0,1.495,0.154,2.375,0.462   c0.879,0.31,1.539,0.462,1.98,0.462c1.496,0,2.244-2.463,2.244-7.392v-21.384c0-5.017-0.748-7.524-2.244-7.524   c-0.353,0-1.035,0.154-2.046,0.462c-1.013,0.31-1.782,0.462-2.31,0.462c-4.225,0-6.336-2.419-6.336-7.26   c0-2.64,0.703-4.795,2.111-6.468c1.406-1.671,3.211-2.509,5.412-2.509c0.879,0,2.112,0.178,3.696,0.528   c1.584,0.353,3.079,0.528,4.487,0.528c1.057,0,2.596-0.176,4.621-0.528c2.023-0.351,3.518-0.528,4.487-0.528   C1850.329,943.217,1851.695,944.583,1851.695,947.31z"></path>
	<path fill="#9CB181" d="M1924.561,941.369h5.016c0.086-4.405,1.584-7.837,4.488-10.3c2.904-2.461,6.906-3.692,12.012-3.692   c4.135,0,7.59,1.057,10.361,3.168c2.772,2.112,4.158,4.798,4.158,8.053c0,2.2-0.726,4.048-2.178,5.544   c-1.451,1.497-3.279,2.244-5.479,2.244c-2.464,0-4.269-0.925-5.411-2.772l-1.32-2.112c-0.353-0.614-0.924-0.924-1.716-0.924   c-1.848,0-2.771,1.276-2.771,3.828c0,0.616,0.043,1.056,0.131,1.32c8.449,2.992,12.672,8.976,12.672,17.952   c0,6.777-2.625,12.232-7.876,16.367c-5.251,4.138-12.159,6.204-20.718,6.204c-4.592,0-9.312-1.011-14.166-3.036l-0.661-0.264   c-1.324,1.042-1.986,2.17-1.986,3.385c0,2.949,2.116,4.772,6.353,5.466c1.41,0.26,4.631,0.39,9.66,0.39h1.455h8.471   c8.469-0.087,14.996,1.54,19.583,4.884c4.587,3.346,6.882,8.098,6.882,14.256c0,7.831-3.432,14.013-10.295,18.546   c-6.864,4.531-16.193,6.798-27.984,6.798c-10.561,0-19.031-1.959-25.41-5.874c-6.381-3.916-9.57-9.13-9.57-15.642   c0-7.039,4.443-11.923,13.332-14.652c-7.128-1.406-10.691-5.411-10.691-12.012c0-3.432,0.779-6.138,2.338-8.118   c1.561-1.979,4.344-3.849,8.354-5.609c-3.168-3.519-4.752-7.393-4.752-11.616c0-6.159,2.661-11.329,7.986-15.51   C1910.149,943.461,1916.727,941.369,1924.561,941.369z M1922.977,1007.633c-2.112,0-4.752-0.132-7.92-0.396   c-3.961,1.584-5.94,3.607-5.94,6.072c0,4.663,5.191,6.996,15.575,6.996c10.473,0,15.709-2.333,15.709-6.996   c0-3.783-3.432-5.677-10.297-5.677c-0.264,0-1.451,0-3.563,0H1922.977z M1925.616,954.965c-2.465,0-4.511,0.827-6.138,2.479   c-1.63,1.654-2.442,3.731-2.442,6.233c0,2.501,0.812,4.601,2.442,6.299c1.627,1.697,3.673,2.545,6.138,2.545   c2.462,0,4.509-0.848,6.138-2.545c1.627-1.698,2.442-3.754,2.442-6.167c0-2.5-0.815-4.6-2.442-6.297   C1930.125,955.815,1928.078,954.965,1925.616,954.965z"></path>
</g>
</svg>
