<?xml version="1.0" encoding="UTF-8" ?>
<!DOCTYPE svg PUBLIC "-//W3C//DTD SVG 1.1//EN" "http://www.w3.org/Graphics/SVG/1.1/DTD/svg11.dtd">
<svg width="792pt" height="644pt" viewBox="0 0 792 644" version="1.1" xmlns="http://www.w3.org/2000/svg">
<g id="#ecd72cff">
<path fill="#ecd72c" opacity="1.00" d=" M 0.00 0.00 L 189.65 0.00 C 190.47 9.65 189.99 19.34 190.00 29.01 C 190.17 34.90 190.17 40.80 189.78 46.68 L 189.33 46.57 C 169.84 42.68 150.35 38.82 130.96 34.47 C 120.37 32.68 110.05 29.53 99.40 28.07 C 99.48 28.63 99.65 29.74 99.73 30.29 C 99.41 29.51 98.76 27.95 98.44 27.17 C 96.60 27.38 94.96 28.26 93.32 29.04 C 93.74 28.49 94.57 27.39 94.99 26.84 L 93.31 26.54 C 68.28 21.47 43.31 16.17 18.30 11.00 C 12.46 9.72 6.49 8.84 0.95 6.49 C 0.37 13.93 0.39 21.44 0.77 28.88 C 1.03 29.12 1.56 29.60 1.82 29.84 L 0.51 29.56 C 0.61 36.24 0.49 42.92 0.59 49.60 C 22.87 54.15 45.15 58.73 67.36 63.61 C 69.55 64.16 71.75 64.70 73.99 65.02 C 75.28 65.21 76.57 65.39 77.86 65.58 C 77.81 66.05 77.73 66.99 77.68 67.46 C 77.10 67.65 75.93 68.04 75.35 68.23 C 74.61 69.68 73.86 71.13 73.09 72.56 C 75.84 71.96 78.51 72.62 80.86 74.11 C 82.39 75.24 84.22 74.38 85.88 74.09 C 87.81 74.58 89.75 75.03 91.71 75.43 C 89.84 74.19 87.83 73.18 85.87 72.08 C 88.24 72.46 90.59 72.93 92.86 73.72 C 92.69 72.65 92.52 71.58 92.36 70.51 C 94.58 70.47 96.80 70.42 99.02 70.37 C 98.32 70.59 96.91 71.04 96.20 71.26 C 95.87 72.20 95.54 73.13 95.20 74.06 C 94.31 74.66 93.43 75.26 92.56 75.88 C 96.03 75.88 99.51 75.56 102.89 74.68 C 101.91 73.86 100.95 73.05 99.98 72.23 C 101.11 72.48 102.24 72.73 103.37 72.99 C 103.34 72.32 103.29 70.98 103.26 70.32 C 104.30 70.59 105.35 70.87 106.40 71.15 C 106.46 69.93 106.52 68.72 106.59 67.50 C 107.72 67.40 108.85 67.29 109.99 67.19 C 108.95 69.76 107.04 71.66 104.30 72.34 C 105.24 73.19 106.06 74.17 107.08 74.91 C 108.84 74.63 110.32 73.55 111.92 72.85 C 137.90 78.30 163.95 83.46 189.84 89.28 C 189.87 91.46 189.84 93.64 189.81 95.83 C 126.54 96.00 63.26 95.88 0.00 95.86 L 0.00 0.00 M 95.15 20.31 C 95.04 22.81 95.02 25.30 94.98 27.80 C 96.35 26.21 97.56 24.49 98.83 22.82 C 97.61 21.98 96.39 21.13 95.15 20.31 M 93.99 71.29 C 92.29 74.16 97.31 71.66 93.99 71.29 Z" />
<path fill="#ecd72c" opacity="1.00" d=" M 201.40 0.00 L 390.58 0.00 C 391.12 31.86 390.28 63.74 390.60 95.61 C 327.52 95.57 264.44 95.47 201.36 95.65 C 201.77 63.77 200.84 31.88 201.40 0.00 M 202.12 1.33 C 202.04 16.94 202.10 32.55 202.08 48.16 C 201.92 63.77 202.02 79.38 202.02 94.99 C 264.68 95.01 327.34 95.00 390.00 95.00 C 389.96 79.38 390.08 63.77 389.93 48.16 C 389.86 32.53 390.01 16.91 389.86 1.28 C 327.28 1.40 264.70 1.32 202.12 1.33 Z" />
<path fill="#ecd72c" opacity="1.00" d=" M 429.92 10.91 C 436.17 6.55 444.83 6.52 451.22 10.59 C 448.04 10.41 444.83 10.01 441.66 10.50 C 434.14 12.29 427.63 19.04 427.52 27.00 C 427.03 35.50 433.50 43.92 441.99 45.26 C 445.63 45.97 449.36 45.46 452.88 44.41 C 443.67 51.95 428.52 48.14 423.22 37.71 C 418.02 28.84 421.07 16.22 429.92 10.91 Z" />
<path fill="#ecd72c" opacity="1.00" d=" M 607.37 9.38 C 607.74 9.71 608.49 10.38 608.87 10.71 C 610.47 10.66 612.09 10.60 613.71 10.54 C 613.12 11.39 612.53 12.24 611.96 13.09 C 612.83 13.88 613.73 14.66 614.64 15.44 C 612.39 15.35 610.54 16.46 609.56 18.46 C 609.00 16.31 607.43 15.09 605.29 14.80 C 606.09 14.23 606.90 13.67 607.73 13.10 C 607.62 11.86 607.50 10.62 607.37 9.38 Z" />
<path fill="#ecd72c" opacity="1.00" d=" M 459.45 20.87 C 459.91 17.58 460.53 14.32 461.23 11.07 C 461.59 14.36 462.12 17.62 462.57 20.90 C 464.36 18.61 466.01 16.20 467.69 13.83 C 467.40 16.64 466.44 19.32 465.97 22.09 C 468.60 20.69 471.20 19.22 473.91 17.96 C 471.86 20.22 469.80 22.47 467.83 24.80 C 470.91 24.63 474.00 24.48 477.10 24.51 C 474.50 25.86 471.14 26.22 469.11 28.38 C 471.69 29.65 474.45 30.51 477.14 31.53 C 474.06 31.67 470.98 31.52 467.91 31.32 C 469.86 33.84 472.09 36.13 474.07 38.63 C 471.38 37.10 468.71 35.55 466.00 34.06 C 466.42 37.18 467.45 40.16 468.50 43.11 C 466.35 40.56 464.39 37.87 462.54 35.10 C 462.25 38.11 461.83 41.11 461.23 44.07 C 460.26 41.16 459.89 38.10 459.36 35.09 C 457.49 37.83 455.60 40.56 453.54 43.16 C 454.44 40.15 455.36 37.14 456.00 34.06 C 453.41 35.51 450.79 36.90 448.05 38.03 C 449.60 36.29 451.23 34.64 452.84 32.95 C 453.47 32.52 454.41 31.14 453.02 30.96 C 451.44 30.79 449.90 31.24 448.35 31.40 C 447.48 31.47 445.74 31.61 444.87 31.69 C 447.42 30.45 450.14 29.58 452.72 28.37 C 451.21 26.05 447.32 25.88 444.91 24.38 C 445.38 24.39 446.33 24.40 446.80 24.41 L 448.30 24.48 C 449.86 24.81 451.43 25.53 453.07 25.19 C 454.53 24.91 453.51 23.54 452.83 23.07 C 451.63 21.85 450.47 20.61 449.34 19.33 C 449.14 19.10 448.73 18.63 448.53 18.40 C 448.47 18.16 448.35 17.68 448.30 17.44 C 450.69 19.23 453.33 20.66 456.01 22.00 C 455.52 18.96 454.69 16.00 454.11 12.99 C 455.83 15.65 457.57 18.31 459.45 20.87 Z" />
<path fill="#ecd72c" opacity="1.00" d=" M 631.57 28.30 C 631.78 28.31 632.21 28.34 632.43 28.35 C 633.87 31.37 632.73 34.92 633.89 38.05 C 635.14 39.94 637.63 39.81 639.57 39.24 C 641.35 36.97 642.90 33.71 646.35 34.22 C 646.29 35.79 646.25 37.37 646.20 38.94 C 643.50 40.37 639.86 42.11 641.29 45.90 C 643.97 45.54 646.67 45.17 649.29 44.43 C 649.36 46.11 650.55 47.27 651.63 48.42 C 649.03 50.36 645.61 48.91 642.67 49.66 C 640.61 50.80 640.10 53.51 640.75 55.61 C 642.98 57.36 647.29 59.43 645.16 62.89 C 642.77 60.96 640.76 58.63 638.47 56.60 C 636.65 56.16 634.54 56.95 633.65 58.63 C 633.09 61.81 634.12 65.39 632.01 68.14 C 629.50 65.29 631.29 61.30 630.07 58.04 C 628.93 56.66 627.12 56.55 625.49 56.38 C 623.31 58.78 621.10 61.20 618.39 63.02 C 617.72 60.52 619.00 58.25 621.23 57.10 C 624.50 55.89 624.27 51.09 621.49 49.47 C 618.25 49.16 614.42 50.55 611.82 48.02 C 613.20 47.54 614.57 47.02 615.92 46.46 C 615.45 46.15 614.50 45.55 614.03 45.25 C 617.26 45.18 620.31 47.15 623.46 45.53 C 623.46 44.17 623.48 42.80 623.50 41.44 C 621.31 39.22 618.18 37.38 617.90 33.96 C 621.28 34.26 622.96 37.50 625.48 39.31 C 626.78 39.66 628.15 39.48 629.49 39.54 C 631.22 35.99 629.89 31.81 631.57 28.30 Z" />
<path fill="#ecd72c" opacity="1.00" d=" M 629.22 31.40 C 630.61 31.36 630.56 33.77 629.82 34.55 C 628.42 34.59 628.32 32.13 629.22 31.40 Z" />
<path fill="#ecd72c" opacity="1.00" d=" M 634.18 31.26 C 636.31 30.33 636.31 34.48 634.60 34.84 C 632.94 34.65 633.04 32.06 634.18 31.26 Z" />
<path fill="#ecd72c" opacity="1.00" d=" M 666.35 46.60 C 668.10 46.33 670.55 43.96 671.71 46.38 C 673.54 48.27 671.56 50.68 671.08 52.71 C 670.57 51.99 670.05 51.28 669.55 50.58 C 668.96 50.47 667.78 50.26 667.19 50.15 C 666.98 49.26 666.56 47.49 666.35 46.60 Z" />
<path fill="#ecd72c" opacity="1.00" d=" M 616.37 50.27 C 617.55 49.32 618.27 49.51 618.52 50.82 C 617.31 51.78 616.59 51.60 616.37 50.27 Z" />
<path fill="#ecd72c" opacity="1.00" d=" M 645.42 50.15 C 646.59 49.28 647.32 49.51 647.60 50.84 C 646.41 51.73 645.68 51.50 645.42 50.15 Z" />
<path fill="#ecd72c" opacity="1.00" d=" M 110.27 53.60 C 111.31 54.86 112.33 56.20 112.35 57.93 L 112.04 58.60 C 109.71 60.65 107.57 62.93 105.89 65.56 C 105.06 65.44 104.23 65.33 103.40 65.21 C 102.59 66.26 101.79 67.32 100.97 68.37 C 97.68 67.65 94.33 67.26 90.98 67.00 C 89.54 67.60 88.10 68.19 86.65 68.77 C 87.37 67.92 88.11 67.08 88.85 66.24 C 86.34 65.26 83.86 64.16 81.60 62.66 L 82.01 62.28 C 82.40 61.82 83.18 60.89 83.57 60.43 L 84.60 61.26 C 85.02 61.65 85.85 62.44 86.27 62.83 C 88.61 65.03 92.02 65.35 94.94 66.37 C 97.16 65.99 99.41 65.61 101.60 66.36 C 101.53 65.61 101.39 64.11 101.31 63.36 C 104.02 62.72 106.60 61.67 109.02 60.30 C 108.55 59.74 107.62 58.63 107.16 58.08 L 107.35 57.90 C 108.37 57.53 109.40 57.22 110.44 56.89 C 110.38 55.79 110.33 54.70 110.27 53.60 Z" />
<path fill="#ecd72c" opacity="1.00" d=" M 78.85 59.79 C 78.54 58.21 78.99 56.82 80.33 55.93 C 78.74 58.41 81.84 58.73 83.10 60.07 C 81.96 60.45 80.88 60.93 79.84 61.53 C 79.59 61.09 79.09 60.23 78.85 59.79 Z" />
<path fill="#ecd72c" opacity="1.00" d=" M 629.18 62.41 C 630.49 62.69 630.68 63.42 629.76 64.61 C 628.42 64.33 628.23 63.60 629.18 62.41 Z" />
<path fill="#ecd72c" opacity="1.00" d=" M 634.14 62.46 C 635.48 62.64 635.72 63.36 634.86 64.60 C 633.52 64.41 633.28 63.70 634.14 62.46 Z" />
<path fill="#ecd72c" opacity="1.00" d=" M 89.31 69.03 C 92.31 67.59 89.32 72.39 89.31 69.03 Z" />
<path fill="#ecd72c" opacity="1.00" d=" M 82.56 69.89 C 83.48 69.02 85.62 70.20 85.00 71.45 C 84.07 72.17 82.02 71.14 82.56 69.89 Z" />
<path fill="#ecd72c" opacity="1.00" d=" M 97.00 72.50 C 98.24 71.49 99.34 73.67 98.22 74.45 C 96.97 75.57 95.81 73.27 97.00 72.50 Z" />
<path fill="#ecd72c" opacity="1.00" d=" M 609.41 77.24 C 609.91 78.34 610.35 79.47 610.75 80.62 C 611.50 80.59 613.01 80.52 613.76 80.49 C 612.99 81.99 612.43 83.59 612.09 85.25 C 610.69 85.41 609.31 85.59 607.93 85.76 C 607.71 84.54 607.51 83.32 607.31 82.10 C 608.29 80.62 609.27 79.07 609.41 77.24 Z" />
</g>
<g id="#f7f7f7ff">
<path fill="#f7f7f7" opacity="1.00" d=" M 0.95 6.49 C 6.49 8.84 12.46 9.72 18.30 11.00 C 43.31 16.17 68.28 21.47 93.31 26.54 C 91.66 27.69 91.59 29.89 90.84 31.58 C 92.22 31.54 93.61 31.49 94.99 31.44 C 94.93 31.99 94.82 33.11 94.76 33.66 C 92.43 32.97 89.81 32.12 87.62 33.69 C 84.89 35.46 81.87 36.60 78.58 36.59 C 81.23 39.46 84.80 41.27 88.52 42.34 C 90.23 42.14 91.88 41.56 93.49 40.96 C 93.52 43.64 93.77 46.32 93.57 49.01 C 88.86 47.94 84.11 47.02 79.40 45.97 C 79.70 44.17 80.09 42.39 80.43 40.60 C 79.33 42.20 78.31 43.86 77.49 45.62 C 74.67 45.03 71.84 44.43 69.02 43.85 C 68.45 43.09 67.89 42.32 67.34 41.55 C 66.73 41.33 65.50 40.89 64.89 40.68 C 64.52 41.18 63.78 42.18 63.42 42.68 C 42.88 38.39 22.36 34.05 1.82 29.84 C 1.56 29.60 1.03 29.12 0.77 28.88 C 0.39 21.44 0.37 13.93 0.95 6.49 Z" />
<path fill="#f7f7f7" opacity="1.00" d=" M 496.69 7.77 C 527.82 7.73 558.95 7.73 590.08 7.77 C 590.08 9.93 590.08 12.08 590.09 14.24 C 558.95 14.27 527.81 14.25 496.67 14.25 C 496.82 12.09 496.82 9.93 496.69 7.77 Z" />
<path fill="#f7f7f7" opacity="1.00" d=" M 496.67 21.32 C 527.81 21.20 558.96 21.30 590.10 21.27 C 590.06 23.43 590.03 25.59 590.01 27.75 C 558.90 27.74 527.80 27.79 496.70 27.72 C 496.82 25.59 496.81 23.45 496.67 21.32 Z" />
<path fill="#f7f7f7" opacity="1.00" d=" M 99.40 28.07 C 110.05 29.53 120.37 32.68 130.96 34.47 C 150.35 38.82 169.84 42.68 189.33 46.57 C 189.33 54.02 189.21 61.48 189.37 68.93 C 166.74 64.31 144.16 59.48 121.53 54.83 C 121.64 52.36 123.14 50.45 124.64 48.64 C 126.38 46.59 126.45 43.77 127.00 41.27 C 125.56 41.35 124.12 41.43 122.68 41.51 C 121.59 44.61 119.06 46.77 116.76 48.98 C 116.71 50.71 116.65 52.43 116.61 54.16 L 114.82 53.18 C 114.60 53.04 114.15 52.77 113.92 52.63 C 113.61 48.29 113.05 43.61 109.69 40.47 C 110.64 44.32 111.52 48.49 110.05 52.33 C 105.86 51.58 101.68 50.73 97.54 49.72 L 97.27 48.98 C 97.17 48.49 96.96 47.51 96.86 47.02 C 97.20 45.07 97.33 43.09 97.45 41.12 C 102.81 43.25 108.20 40.15 112.13 36.63 C 108.69 36.53 105.60 35.09 102.66 33.43 C 100.62 32.11 98.30 33.06 96.17 33.53 C 96.14 32.99 96.08 31.91 96.05 31.37 C 97.36 31.47 98.67 31.56 99.99 31.66 L 99.73 30.29 C 99.65 29.74 99.48 28.63 99.40 28.07 Z" />
<path fill="#f7f7f7" opacity="1.00" d=" M 496.92 34.70 C 527.98 34.75 559.03 34.77 590.08 34.69 C 590.08 36.87 590.09 39.06 590.10 41.25 C 558.94 41.31 527.79 41.28 496.64 41.26 C 496.76 39.07 496.85 36.89 496.92 34.70 Z" />
<path fill="#f7f7f7" opacity="1.00" d=" M 202.08 48.16 C 264.69 48.27 327.31 48.27 389.93 48.16 C 390.08 63.77 389.96 79.38 390.00 95.00 C 327.34 95.00 264.68 95.01 202.02 94.99 C 202.02 79.38 201.92 63.77 202.08 48.16 Z" />
<path fill="#f7f7f7" opacity="1.00" d=" M 496.66 48.26 C 527.78 48.22 558.91 48.27 590.04 48.24 C 590.03 50.40 590.02 52.57 590.03 54.73 C 558.99 54.65 527.95 54.89 496.92 54.61 C 496.85 52.49 496.78 50.37 496.66 48.26 Z" />
<path fill="#f7f7f7" opacity="1.00" d=" M 402.22 61.65 C 464.90 61.85 527.58 61.70 590.25 61.73 C 590.25 63.90 590.25 66.07 590.26 68.24 C 527.57 68.33 464.88 68.15 402.20 68.33 C 402.19 66.10 402.20 63.88 402.22 61.65 Z" />
<path fill="#f7f7f7" opacity="1.00" d=" M 402.38 75.15 C 464.98 75.40 527.59 75.23 590.20 75.23 C 590.23 77.41 590.23 79.59 590.25 81.77 C 529.15 81.75 468.06 81.76 406.96 81.77 C 405.31 81.77 403.67 81.63 402.03 81.58 C 402.18 79.44 402.22 77.29 402.38 75.15 Z" />
<path fill="#f7f7f7" opacity="1.00" d=" M 402.21 88.65 C 464.90 88.83 527.59 88.67 590.27 88.73 C 590.28 90.89 590.30 93.05 590.31 95.22 C 527.62 95.28 464.92 95.34 402.23 95.16 C 402.20 92.99 402.20 90.82 402.21 88.65 Z" />
</g>
<g id="#e7161bff">
<path fill="#e7161b" opacity="1.00" d=" M 202.12 1.33 C 264.70 1.32 327.28 1.40 389.86 1.28 C 390.01 16.91 389.86 32.53 389.93 48.16 C 327.31 48.27 264.69 48.27 202.08 48.16 C 202.10 32.55 202.04 16.94 202.12 1.33 Z" />
</g>
<g id="#0e3887ff">
<path fill="#0e3887" opacity="1.00" d=" M 401.77 1.07 C 433.32 1.08 464.87 1.00 496.42 1.10 C 496.46 3.33 496.55 5.55 496.69 7.77 C 496.82 9.93 496.82 12.09 496.67 14.25 C 496.49 16.60 496.48 18.96 496.67 21.32 C 496.81 23.45 496.82 25.59 496.70 27.72 C 496.56 29.97 496.47 32.22 496.41 34.47 C 527.63 34.85 558.86 34.42 590.08 34.69 C 559.03 34.77 527.98 34.75 496.92 34.70 C 496.85 36.89 496.76 39.07 496.64 41.26 C 496.48 43.59 496.50 45.93 496.66 48.26 C 496.78 50.37 496.85 52.49 496.92 54.61 C 465.17 54.38 433.41 54.69 401.66 54.44 C 401.78 36.65 401.54 18.86 401.77 1.07 M 429.92 10.91 C 421.07 16.22 418.02 28.84 423.22 37.71 C 428.52 48.14 443.67 51.95 452.88 44.41 C 449.36 45.46 445.63 45.97 441.99 45.26 C 433.50 43.92 427.03 35.50 427.52 27.00 C 427.63 19.04 434.14 12.29 441.66 10.50 C 444.83 10.01 448.04 10.41 451.22 10.59 C 444.83 6.52 436.17 6.55 429.92 10.91 M 459.45 20.87 C 457.57 18.31 455.83 15.65 454.11 12.99 C 454.69 16.00 455.52 18.96 456.01 22.00 C 453.33 20.66 450.69 19.23 448.30 17.44 C 448.35 17.68 448.47 18.16 448.53 18.40 C 448.73 18.63 449.14 19.10 449.34 19.33 C 449.36 20.36 449.42 21.39 449.51 22.41 C 448.51 22.97 447.61 23.63 446.80 24.41 C 446.33 24.40 445.38 24.39 444.91 24.38 C 447.32 25.88 451.21 26.05 452.72 28.37 C 450.14 29.58 447.42 30.45 444.87 31.69 C 445.74 31.61 447.48 31.47 448.35 31.40 C 449.67 32.27 451.25 32.86 452.84 32.95 C 451.23 34.64 449.60 36.29 448.05 38.03 C 450.79 36.90 453.41 35.51 456.00 34.06 C 455.36 37.14 454.44 40.15 453.54 43.16 C 455.60 40.56 457.49 37.83 459.36 35.09 C 459.89 38.10 460.26 41.16 461.23 44.07 C 461.83 41.11 462.25 38.11 462.54 35.10 C 464.39 37.87 466.35 40.56 468.50 43.11 C 467.45 40.16 466.42 37.18 466.00 34.06 C 468.71 35.55 471.38 37.10 474.07 38.63 C 472.09 36.13 469.86 33.84 467.91 31.32 C 470.98 31.52 474.06 31.67 477.14 31.53 C 474.45 30.51 471.69 29.65 469.11 28.38 C 471.14 26.22 474.50 25.86 477.10 24.51 C 474.00 24.48 470.91 24.63 467.83 24.80 C 469.80 22.47 471.86 20.22 473.91 17.96 C 471.20 19.22 468.60 20.69 465.97 22.09 C 466.44 19.32 467.40 16.64 467.69 13.83 C 466.01 16.20 464.36 18.61 462.57 20.90 C 462.12 17.62 461.59 14.36 461.23 11.07 C 460.53 14.32 459.91 17.58 459.45 20.87 Z" />
<path fill="#0e3887" opacity="1.00" d=" M 603.34 0.80 C 664.25 0.45 725.18 0.81 786.09 0.62 C 788.08 0.57 790.09 0.76 792.00 1.38 L 792.00 48.39 C 756.25 48.15 720.49 48.24 684.74 48.34 C 657.84 32.12 630.14 17.18 603.34 0.80 Z" />
<path fill="#0e3887" opacity="1.00" d=" M 466.56 247.96 C 468.27 254.02 468.57 260.92 473.51 265.52 C 482.65 277.07 502.52 275.90 510.72 263.82 C 513.66 258.87 516.63 253.61 521.86 250.72 C 526.54 247.28 532.58 248.17 538.01 248.15 C 543.46 247.97 548.09 251.56 551.67 255.30 C 558.03 262.00 559.60 272.48 556.24 280.96 C 550.39 293.22 539.29 302.85 526.20 306.56 C 512.19 310.79 496.35 308.01 484.55 299.41 C 468.68 288.17 460.90 266.65 466.56 247.96 Z" />
</g>
<g id="#c3182aff">
<path fill="#c3182a" opacity="1.00" d=" M 496.42 1.10 C 515.27 0.88 534.12 1.22 552.97 1.00 C 565.60 1.36 578.24 0.60 590.86 1.15 C 590.37 32.69 590.81 64.20 590.80 95.76 C 527.74 95.66 464.68 95.92 401.63 95.61 C 401.71 81.88 401.65 68.16 401.66 54.44 C 433.41 54.69 465.17 54.38 496.92 54.61 C 527.95 54.89 558.99 54.65 590.03 54.73 C 590.02 52.57 590.03 50.40 590.04 48.24 C 558.91 48.27 527.78 48.22 496.66 48.26 C 496.50 45.93 496.48 43.59 496.64 41.26 C 527.79 41.28 558.94 41.31 590.10 41.25 C 590.09 39.06 590.08 36.87 590.08 34.69 C 558.86 34.42 527.63 34.85 496.41 34.47 C 496.47 32.22 496.56 29.97 496.70 27.72 C 527.80 27.79 558.90 27.74 590.01 27.75 C 590.03 25.59 590.06 23.43 590.10 21.27 C 558.96 21.30 527.81 21.20 496.67 21.32 C 496.48 18.96 496.49 16.60 496.67 14.25 C 527.81 14.25 558.95 14.27 590.09 14.24 C 590.08 12.08 590.08 9.93 590.08 7.77 C 558.95 7.73 527.82 7.73 496.69 7.77 C 496.55 5.55 496.46 3.33 496.42 1.10 M 402.22 61.65 C 402.20 63.88 402.19 66.10 402.20 68.33 C 464.88 68.15 527.57 68.33 590.26 68.24 C 590.25 66.07 590.25 63.90 590.25 61.73 C 527.58 61.70 464.90 61.85 402.22 61.65 M 402.38 75.15 C 402.22 77.29 402.18 79.44 402.03 81.58 C 403.67 81.63 405.31 81.77 406.96 81.77 C 468.06 81.76 529.15 81.75 590.25 81.77 C 590.23 79.59 590.23 77.41 590.20 75.23 C 527.59 75.23 464.98 75.40 402.38 75.15 M 402.21 88.65 C 402.20 90.82 402.20 92.99 402.23 95.16 C 464.92 95.34 527.62 95.28 590.31 95.22 C 590.30 93.05 590.28 90.89 590.27 88.73 C 527.59 88.67 464.90 88.83 402.21 88.65 Z" />
<path fill="#c3182a" opacity="1.00" d=" M 602.22 8.03 C 602.20 5.48 602.23 2.93 602.56 0.40 C 603.08 32.04 602.59 63.70 602.82 95.34 C 630.29 79.98 657.29 63.75 684.74 48.34 C 720.49 48.24 756.25 48.15 792.00 48.39 L 792.00 95.63 C 728.73 95.83 665.46 95.69 602.19 95.70 C 602.24 66.48 602.27 37.25 602.22 8.03 Z" />
<path fill="#c3182a" opacity="1.00" d=" M 95.15 20.31 C 96.39 21.13 97.61 21.98 98.83 22.82 C 97.56 24.49 96.35 26.21 94.98 27.80 C 95.02 25.30 95.04 22.81 95.15 20.31 Z" />
<path fill="#c3182a" opacity="1.00" d=" M 452.83 23.07 C 453.51 23.54 454.53 24.91 453.07 25.19 C 451.43 25.53 449.86 24.81 448.30 24.48 C 449.80 24.00 451.29 23.47 452.83 23.07 Z" />
<path fill="#c3182a" opacity="1.00" d=" M 90.84 31.58 C 91.59 29.89 91.66 27.69 93.31 26.54 L 94.99 26.84 C 94.57 27.39 93.74 28.49 93.32 29.04 C 94.96 28.26 96.60 27.38 98.44 27.17 C 98.76 27.95 99.41 29.51 99.73 30.29 L 99.99 31.66 C 98.67 31.56 97.36 31.47 96.05 31.37 C 96.08 31.91 96.14 32.99 96.17 33.53 C 98.30 33.06 100.62 32.11 102.66 33.43 C 105.60 35.09 108.69 36.53 112.13 36.63 C 108.20 40.15 102.81 43.25 97.45 41.12 C 97.33 43.09 97.20 45.07 96.86 47.02 C 96.96 47.51 97.17 48.49 97.27 48.98 C 97.29 53.68 97.99 58.32 98.80 62.94 C 102.01 62.15 104.80 60.36 107.16 58.08 C 107.62 58.63 108.55 59.74 109.02 60.30 C 106.60 61.67 104.02 62.72 101.31 63.36 C 101.39 64.11 101.53 65.61 101.60 66.36 C 99.41 65.61 97.16 65.99 94.94 66.37 C 92.02 65.35 88.61 65.03 86.27 62.83 C 85.85 62.44 85.02 61.65 84.60 61.26 L 83.57 60.43 C 83.45 60.34 83.22 60.16 83.10 60.07 C 81.84 58.73 78.74 58.41 80.33 55.93 C 78.99 56.82 78.54 58.21 78.85 59.79 C 76.53 55.43 76.45 50.35 77.49 45.62 C 78.31 43.86 79.33 42.20 80.43 40.60 C 80.09 42.39 79.70 44.17 79.40 45.97 C 79.00 53.64 84.02 61.27 91.70 62.98 C 92.64 58.37 93.33 53.71 93.57 49.01 C 93.77 46.32 93.52 43.64 93.49 40.96 C 91.88 41.56 90.23 42.14 88.52 42.34 C 84.80 41.27 81.23 39.46 78.58 36.59 C 81.87 36.60 84.89 35.46 87.62 33.69 C 89.81 32.12 92.43 32.97 94.76 33.66 C 94.82 33.11 94.93 31.99 94.99 31.44 C 93.61 31.49 92.22 31.54 90.84 31.58 Z" />
<path fill="#c3182a" opacity="1.00" d=" M 448.35 31.40 C 449.90 31.24 451.44 30.79 453.02 30.96 C 454.41 31.14 453.47 32.52 452.84 32.95 C 451.25 32.86 449.67 32.27 448.35 31.40 Z" />
<path fill="#c3182a" opacity="1.00" d=" M 63.42 42.68 C 63.78 42.18 64.52 41.18 64.89 40.68 C 65.50 40.89 66.73 41.33 67.34 41.55 C 67.89 42.32 68.45 43.09 69.02 43.85 C 70.88 46.37 74.19 48.41 73.73 51.97 C 73.51 56.33 74.34 60.67 73.99 65.02 C 71.75 64.70 69.55 64.16 67.36 63.61 C 68.68 59.91 69.29 55.71 68.08 51.91 C 65.98 49.12 63.83 46.29 63.42 42.68 Z" />
<path fill="#c3182a" opacity="1.00" d=" M 109.69 40.47 C 113.05 43.61 113.61 48.29 113.92 52.63 C 114.15 52.77 114.60 53.04 114.82 53.18 C 113.94 54.73 113.00 56.25 112.35 57.93 C 112.33 56.20 111.31 54.86 110.27 53.60 C 110.33 54.70 110.38 55.79 110.44 56.89 C 109.40 57.22 108.37 57.53 107.35 57.90 C 108.38 56.11 109.26 54.24 110.05 52.33 C 111.52 48.49 110.64 44.32 109.69 40.47 Z" />
<path fill="#c3182a" opacity="1.00" d=" M 122.68 41.51 C 124.12 41.43 125.56 41.35 127.00 41.27 C 126.45 43.77 126.38 46.59 124.64 48.64 C 123.14 50.45 121.64 52.36 121.53 54.83 C 121.70 57.93 122.22 61.01 122.77 64.07 C 120.61 64.28 118.44 64.32 116.28 64.25 C 116.46 60.89 116.63 57.52 116.61 54.16 C 116.65 52.43 116.71 50.71 116.76 48.98 C 119.06 46.77 121.59 44.61 122.68 41.51 Z" />
<path fill="#c3182a" opacity="1.00" d=" M 105.89 65.56 C 107.57 62.93 109.71 60.65 112.04 58.60 C 111.36 60.14 110.63 61.66 109.87 63.17 C 110.69 63.82 111.50 64.47 112.32 65.12 C 112.42 65.61 112.60 66.59 112.70 67.08 C 115.31 67.64 116.26 69.82 116.82 72.22 C 115.18 72.41 113.54 72.56 111.92 72.85 C 110.32 73.55 108.84 74.63 107.08 74.91 C 106.06 74.17 105.24 73.19 104.30 72.34 C 107.04 71.66 108.95 69.76 109.99 67.19 C 108.85 67.29 107.72 67.40 106.59 67.50 C 106.52 68.72 106.46 69.93 106.40 71.15 C 105.35 70.87 104.30 70.59 103.26 70.32 C 103.29 70.98 103.34 72.32 103.37 72.99 C 102.24 72.73 101.11 72.48 99.98 72.23 C 100.95 73.05 101.91 73.86 102.89 74.68 C 99.51 75.56 96.03 75.88 92.56 75.88 C 93.43 75.26 94.31 74.66 95.20 74.06 C 95.54 73.13 95.87 72.20 96.20 71.26 C 96.91 71.04 98.32 70.59 99.02 70.37 C 96.80 70.42 94.58 70.47 92.36 70.51 C 92.52 71.58 92.69 72.65 92.86 73.72 C 90.59 72.93 88.24 72.46 85.87 72.08 C 87.83 73.18 89.84 74.19 91.71 75.43 C 89.75 75.03 87.81 74.58 85.88 74.09 C 84.22 74.38 82.39 75.24 80.86 74.11 C 78.51 72.62 75.84 71.96 73.09 72.56 C 73.86 71.13 74.61 69.68 75.35 68.23 C 75.93 68.04 77.10 67.65 77.68 67.46 C 77.73 66.99 77.81 66.05 77.86 65.58 C 79.14 64.64 80.39 63.67 81.60 62.66 C 83.86 64.16 86.34 65.26 88.85 66.24 C 88.11 67.08 87.37 67.92 86.65 68.77 C 88.10 68.19 89.54 67.60 90.98 67.00 C 94.33 67.26 97.68 67.65 100.97 68.37 C 101.79 67.32 102.59 66.26 103.40 65.21 C 104.23 65.33 105.06 65.44 105.89 65.56 M 89.31 69.03 C 89.32 72.39 92.31 67.59 89.31 69.03 M 82.56 69.89 C 82.02 71.14 84.07 72.17 85.00 71.45 C 85.62 70.20 83.48 69.02 82.56 69.89 M 97.00 72.50 C 95.81 73.27 96.97 75.57 98.22 74.45 C 99.34 73.67 98.24 71.49 97.00 72.50 Z" />
<path fill="#c3182a" opacity="1.00" d=" M 93.99 71.29 C 97.31 71.66 92.29 74.16 93.99 71.29 Z" />
<path fill="#c3182a" opacity="1.00" d=" M 485.77 220.72 C 499.43 211.44 517.95 209.84 532.90 216.97 C 546.96 223.26 557.34 236.84 559.91 252.00 C 561.81 261.76 560.14 271.90 556.24 280.96 C 559.60 272.48 558.03 262.00 551.67 255.30 C 548.09 251.56 543.46 247.97 538.01 248.15 C 532.58 248.17 526.54 247.28 521.86 250.72 C 516.63 253.61 513.66 258.87 510.72 263.82 C 502.52 275.90 482.65 277.07 473.51 265.52 C 468.57 260.92 468.27 254.02 466.56 247.96 C 469.13 236.84 476.43 227.12 485.77 220.72 Z" />
</g>
<g id="#000000ff">
<path fill="#000000" opacity="1.00" d=" M 449.34 19.33 C 450.47 20.61 451.63 21.85 452.83 23.07 C 451.29 23.47 449.80 24.00 448.30 24.48 L 446.80 24.41 C 447.61 23.63 448.51 22.97 449.51 22.41 C 449.42 21.39 449.36 20.36 449.34 19.33 Z" />
<path fill="#000000" opacity="1.00" d=" M 0.51 29.56 L 1.82 29.84 C 22.36 34.05 42.88 38.39 63.42 42.68 C 63.83 46.29 65.98 49.12 68.08 51.91 C 69.29 55.71 68.68 59.91 67.36 63.61 C 45.15 58.73 22.87 54.15 0.59 49.60 C 0.49 42.92 0.61 36.24 0.51 29.56 Z" />
<path fill="#000000" opacity="1.00" d=" M 69.02 43.85 C 71.84 44.43 74.67 45.03 77.49 45.62 C 76.45 50.35 76.53 55.43 78.85 59.79 C 79.09 60.23 79.59 61.09 79.84 61.53 C 80.88 60.93 81.96 60.45 83.10 60.07 C 83.22 60.16 83.45 60.34 83.57 60.43 C 83.18 60.89 82.40 61.82 82.01 62.28 L 81.60 62.66 C 80.39 63.67 79.14 64.64 77.86 65.58 C 76.57 65.39 75.28 65.21 73.99 65.02 C 74.34 60.67 73.51 56.33 73.73 51.97 C 74.19 48.41 70.88 46.37 69.02 43.85 Z" />
<path fill="#000000" opacity="1.00" d=" M 91.70 62.98 C 84.02 61.27 79.00 53.64 79.40 45.97 C 84.11 47.02 88.86 47.94 93.57 49.01 C 93.33 53.71 92.64 58.37 91.70 62.98 Z" />
<path fill="#000000" opacity="1.00" d=" M 189.33 46.57 L 189.78 46.68 C 189.48 60.88 189.85 75.08 189.84 89.28 C 163.95 83.46 137.90 78.30 111.92 72.85 C 113.54 72.56 115.18 72.41 116.82 72.22 C 116.26 69.82 115.31 67.64 112.70 67.08 C 112.60 66.59 112.42 65.61 112.32 65.12 C 111.50 64.47 110.69 63.82 109.87 63.17 C 110.63 61.66 111.36 60.14 112.04 58.60 L 112.35 57.93 C 113.00 56.25 113.94 54.73 114.82 53.18 L 116.61 54.16 C 116.63 57.52 116.46 60.89 116.28 64.25 C 118.44 64.32 120.61 64.28 122.77 64.07 C 122.22 61.01 121.70 57.93 121.53 54.83 C 144.16 59.48 166.74 64.31 189.37 68.93 C 189.21 61.48 189.33 54.02 189.33 46.57 Z" />
<path fill="#000000" opacity="1.00" d=" M 97.27 48.98 L 97.54 49.72 C 101.68 50.73 105.86 51.58 110.05 52.33 C 109.26 54.24 108.38 56.11 107.35 57.90 L 107.16 58.08 C 104.80 60.36 102.01 62.15 98.80 62.94 C 97.99 58.32 97.29 53.68 97.27 48.98 Z" />
<path fill="#000000" opacity="1.00" d=" M 627.48 151.41 C 637.16 142.82 650.11 138.35 662.98 138.24 C 705.91 138.26 748.83 138.22 791.76 138.26 C 791.74 153.09 791.76 167.92 791.75 182.76 C 753.82 182.74 715.89 182.78 677.96 182.74 C 672.08 182.71 665.93 185.58 662.99 190.83 C 659.46 197.25 658.37 204.70 658.24 211.94 C 658.24 220.88 658.26 229.81 658.26 238.75 C 699.18 238.76 740.11 238.75 781.03 238.75 C 784.69 238.76 788.37 238.52 792.00 239.14 L 792.00 283.52 C 747.45 283.44 702.89 283.60 658.34 283.45 C 658.13 316.30 658.31 349.15 658.25 382.00 C 641.65 381.96 625.05 382.08 608.46 381.94 C 608.54 368.71 608.50 355.48 608.48 342.26 C 599.32 351.04 589.45 359.17 578.37 365.43 C 568.25 371.47 557.09 375.44 545.90 378.95 C 528.39 383.60 509.99 383.21 492.06 382.01 C 444.69 381.99 397.32 381.99 349.96 382.01 C 336.18 382.22 322.20 379.48 309.96 373.01 C 297.66 366.66 287.42 356.48 280.89 344.29 C 268.03 319.72 255.22 295.13 242.35 270.56 C 240.32 266.82 238.65 262.86 236.12 259.40 C 235.76 277.29 236.23 295.18 235.89 313.07 C 235.93 331.81 228.39 350.81 214.62 363.67 C 199.62 377.26 178.70 381.23 159.09 381.75 C 106.66 381.79 54.23 381.72 1.80 381.78 C 1.69 301.02 1.78 220.26 1.75 139.50 C 25.84 139.50 49.93 139.51 74.02 139.50 C 83.29 139.43 92.62 139.64 101.80 141.13 C 117.10 143.36 132.36 149.49 143.03 161.01 C 154.22 173.48 160.67 190.14 160.88 206.90 C 161.15 218.00 160.39 229.28 156.95 239.91 C 167.93 240.55 178.90 242.06 189.50 245.05 C 189.50 209.86 189.48 174.67 189.52 139.48 C 205.01 139.52 220.50 139.50 236.00 139.49 C 236.05 170.76 235.91 202.03 236.07 233.30 C 239.59 229.70 242.77 225.79 246.12 222.04 C 270.12 194.55 294.18 167.12 318.11 139.58 C 339.71 139.39 361.33 139.56 382.94 139.50 C 350.81 177.47 318.57 215.33 286.37 253.24 C 296.59 270.42 307.01 287.47 317.31 304.61 C 321.47 311.59 326.93 317.73 332.93 323.17 C 342.30 331.43 354.36 337.26 367.02 337.26 C 382.09 337.21 397.17 337.28 412.24 337.22 C 391.66 311.18 382.58 276.85 386.23 243.99 C 388.81 219.08 399.52 195.00 416.75 176.78 C 435.75 156.43 462.34 143.86 489.85 140.47 C 511.83 137.55 534.64 140.15 555.05 148.97 C 549.20 162.63 543.35 176.28 537.62 189.99 C 519.20 182.18 498.03 182.22 479.14 188.32 C 463.25 193.43 449.02 204.06 440.47 218.51 C 425.17 244.33 427.07 278.67 443.31 303.62 C 454.41 320.82 472.74 333.16 492.90 336.82 C 502.83 338.74 513.02 338.43 523.07 337.78 C 528.60 337.44 534.06 336.22 539.19 334.10 C 561.98 326.62 581.51 309.93 592.73 288.76 C 602.13 271.16 605.92 250.90 605.37 231.06 C 603.65 217.34 603.97 203.34 606.82 189.78 C 609.84 175.42 616.22 161.19 627.48 151.41 M 46.01 182.74 C 45.99 234.66 46.01 286.58 45.99 338.49 C 81.32 338.51 116.64 338.48 151.96 338.51 C 160.28 338.44 168.96 335.91 174.97 329.91 C 180.65 324.21 182.81 315.85 182.53 307.98 C 182.70 301.09 179.93 293.88 174.32 289.66 C 167.68 284.61 159.12 283.05 150.97 282.76 C 129.06 282.73 107.15 282.81 85.25 282.72 C 85.23 268.27 85.28 253.82 85.22 239.37 C 94.87 238.30 105.29 235.63 111.84 227.93 C 117.63 221.05 117.72 211.32 115.86 202.95 C 114.51 196.49 110.74 190.44 105.03 186.98 C 99.67 183.65 93.22 182.72 87.01 182.74 C 73.34 182.76 59.68 182.77 46.01 182.74 Z" />
<path fill="#000000" opacity="1.00" d=" M 425.90 446.94 C 432.81 440.42 442.87 438.16 452.12 439.29 C 460.19 440.17 467.54 444.42 473.34 449.96 C 470.46 453.92 467.47 457.80 464.64 461.79 C 459.40 457.29 453.27 452.14 445.85 453.21 C 440.31 453.52 435.57 457.24 432.83 461.89 C 427.98 469.75 427.52 479.45 428.77 488.37 C 429.92 495.16 432.94 502.40 439.33 505.79 C 445.23 508.57 452.63 508.51 458.34 505.27 C 458.75 500.02 458.38 494.75 458.48 489.49 C 453.23 489.48 447.97 489.59 442.72 489.42 C 442.76 484.79 442.76 480.17 442.71 475.56 C 453.10 475.38 463.50 475.64 473.89 475.43 C 474.16 487.70 473.87 499.98 474.04 512.25 C 465.78 519.98 453.89 522.58 442.87 521.53 C 435.63 520.90 428.40 518.01 423.42 512.58 C 414.61 503.57 411.89 490.30 412.59 478.09 C 413.16 466.61 417.33 454.87 425.90 446.94 Z" />
<path fill="#000000" opacity="1.00" d=" M 678.52 439.67 C 688.23 437.45 699.35 439.20 706.78 446.20 C 714.07 453.12 717.58 463.18 718.49 473.01 C 719.33 483.70 718.75 494.94 713.90 504.70 C 710.18 512.32 703.48 518.90 695.05 520.87 C 685.54 523.25 674.44 521.92 666.98 515.14 C 659.35 508.27 655.93 497.97 654.96 488.00 C 654.01 476.85 654.75 465.09 659.88 454.94 C 663.58 447.55 670.31 441.43 678.52 439.67 M 683.05 453.22 C 676.01 455.07 673.01 462.62 671.51 469.03 C 669.39 480.05 669.69 492.40 675.73 502.20 C 679.92 509.04 690.67 509.98 695.95 503.95 C 701.42 497.73 702.80 489.01 703.03 481.00 C 702.93 472.67 701.87 463.44 695.96 457.06 C 692.84 453.44 687.63 451.87 683.05 453.22 Z" />
<path fill="#000000" opacity="1.00" d=" M 5.48 440.30 C 13.99 440.17 22.49 440.28 30.99 440.24 C 36.38 440.28 41.99 440.46 46.90 442.92 C 53.00 445.55 57.53 451.41 58.20 458.06 C 59.59 465.21 56.63 472.41 51.78 477.60 C 62.73 484.90 65.12 501.64 56.73 511.74 C 52.19 517.81 44.38 520.30 37.05 520.26 C 26.78 520.22 16.50 520.31 6.23 520.20 C 6.25 504.79 6.24 489.38 6.24 473.97 C 6.24 462.75 6.38 451.50 5.48 440.30 M 21.99 454.51 C 22.03 460.26 21.95 466.02 22.04 471.78 C 26.06 471.67 30.10 471.97 34.10 471.47 C 37.65 471.05 41.21 468.82 42.28 465.27 C 43.72 461.46 41.94 456.43 37.79 455.29 C 32.67 453.78 27.24 454.78 21.99 454.51 M 22.00 485.76 C 22.00 492.59 22.00 499.42 22.00 506.25 C 28.05 505.91 34.35 507.14 40.20 505.13 C 46.89 502.88 48.19 492.48 42.29 488.66 C 36.28 484.79 28.77 485.94 22.00 485.76 Z" />
<path fill="#000000" opacity="1.00" d=" M 72.41 440.29 C 77.93 440.20 83.45 440.29 88.96 440.22 C 89.05 466.89 88.98 493.57 89.00 520.25 C 83.74 520.24 78.49 520.28 73.24 520.21 C 72.96 493.57 73.97 466.89 72.41 440.29 Z" />
<path fill="#000000" opacity="1.00" d=" M 107.02 440.21 C 112.65 440.27 118.29 440.25 123.92 440.23 C 129.14 458.56 134.50 476.85 139.68 495.20 C 145.58 477.03 150.36 458.49 156.00 440.23 C 161.59 440.26 167.18 440.25 172.77 440.24 C 172.78 444.14 172.63 448.05 172.85 451.96 C 174.35 470.00 175.77 488.04 177.27 506.08 C 177.73 510.84 178.90 515.49 179.88 520.17 C 174.09 520.34 168.29 520.21 162.50 520.25 C 162.20 504.48 160.64 488.74 159.56 473.01 C 154.78 488.88 149.94 504.74 144.92 520.54 C 141.34 520.48 137.76 520.47 134.19 520.56 C 129.37 505.39 125.51 489.91 120.42 474.84 C 119.46 489.98 118.22 505.10 117.44 520.26 C 111.76 520.23 106.09 520.26 100.41 520.25 C 103.68 504.33 103.91 488.02 105.60 471.90 C 106.40 461.36 107.92 450.80 107.02 440.21 Z" />
<path fill="#000000" opacity="1.00" d=" M 188.37 440.38 C 197.49 440.14 206.63 440.19 215.75 440.35 C 223.79 440.43 232.34 442.87 237.73 449.16 C 242.91 455.26 243.50 463.90 242.25 471.48 C 240.89 479.32 235.05 485.97 227.68 488.81 C 220.43 491.92 212.40 490.81 204.74 491.00 C 204.79 500.72 204.71 510.44 204.78 520.16 C 199.52 520.34 194.26 520.22 189.00 520.25 C 189.00 505.50 189.00 490.76 189.00 476.02 C 188.95 464.14 189.26 452.24 188.37 440.38 M 204.75 454.51 C 204.75 462.00 204.76 469.50 204.74 477.00 C 210.05 476.69 215.69 477.90 220.73 475.74 C 228.29 472.56 229.49 459.94 221.96 456.07 C 216.62 453.42 210.46 454.87 204.75 454.51 Z" />
<path fill="#000000" opacity="1.00" d=" M 288.18 440.28 C 304.23 440.29 320.28 440.10 336.32 440.37 C 336.20 445.07 336.26 449.76 336.27 454.46 C 325.68 454.56 315.09 454.48 304.51 454.50 C 304.49 460.16 304.51 465.83 304.50 471.49 C 314.57 471.49 324.64 471.53 334.71 471.47 C 334.79 476.12 334.73 480.77 334.79 485.42 C 324.69 485.63 314.59 485.42 304.49 485.53 C 304.51 492.43 304.50 499.34 304.50 506.25 C 315.66 506.23 326.82 506.26 337.98 506.23 C 338.01 510.89 337.98 515.56 338.00 520.24 C 321.58 520.26 305.16 520.25 288.75 520.24 C 288.75 503.48 288.75 486.72 288.75 469.96 C 288.71 460.07 288.97 450.15 288.18 440.28 Z" />
<path fill="#000000" opacity="1.00" d=" M 369.14 440.22 C 374.32 440.28 379.49 440.21 384.66 440.27 C 391.48 461.18 398.43 482.05 405.35 502.93 C 407.27 508.83 409.82 514.51 412.26 520.22 C 405.94 520.26 399.62 520.29 393.31 520.20 C 392.14 513.56 389.82 507.20 387.96 500.74 C 380.35 500.76 372.73 500.77 365.11 500.74 C 363.24 507.20 361.01 513.59 359.80 520.23 C 353.53 520.27 347.26 520.23 340.99 520.26 C 347.07 506.64 351.22 492.30 356.16 478.27 C 360.50 465.59 364.74 452.88 369.14 440.22 M 376.62 462.75 C 374.20 470.93 371.62 479.06 369.26 487.25 C 374.16 487.25 379.06 487.22 383.96 487.26 C 381.51 479.09 379.46 470.79 376.62 462.75 Z" />
<path fill="#000000" opacity="1.00" d=" M 507.21 440.23 C 512.40 440.26 517.59 440.24 522.78 440.24 C 529.60 461.02 536.47 481.77 543.36 502.52 C 545.30 508.59 547.91 514.41 550.44 520.25 C 544.15 519.97 537.59 520.81 531.48 519.86 C 530.07 513.39 528.01 507.10 526.15 500.76 C 518.50 500.76 510.85 500.71 503.21 500.80 C 501.35 507.26 499.25 513.66 497.88 520.25 C 491.62 520.26 485.36 520.23 479.11 520.27 C 484.32 508.87 487.88 496.83 492.04 485.03 C 497.05 470.08 502.22 455.19 507.21 440.23 M 514.78 462.86 C 512.25 470.92 509.89 479.03 507.38 487.09 C 512.30 487.39 517.22 487.21 522.15 487.23 C 519.58 479.14 517.71 470.83 514.78 462.86 Z" />
<path fill="#000000" opacity="1.00" d=" M 591.70 440.36 C 599.81 440.12 607.92 440.29 616.04 440.26 C 624.09 440.44 633.01 441.05 639.28 446.73 C 645.34 452.35 646.19 461.46 644.72 469.17 C 643.86 473.54 641.13 477.17 638.09 480.30 C 641.71 483.07 644.02 487.34 644.68 491.82 C 645.37 496.29 645.16 500.86 645.83 505.34 C 646.73 510.55 648.64 515.53 651.04 520.23 C 645.41 520.24 639.77 520.31 634.14 520.19 C 631.21 513.55 630.69 506.24 630.18 499.10 C 629.78 493.77 627.50 487.70 622.01 485.84 C 617.41 485.98 612.81 486.03 608.22 486.03 C 608.29 497.44 608.24 508.84 608.24 520.25 C 603.10 520.19 597.95 520.37 592.81 520.17 C 592.21 518.87 592.57 517.35 592.47 515.98 C 592.53 501.29 592.48 486.61 592.50 471.93 C 592.46 461.40 592.75 450.85 591.70 440.36 M 608.28 454.48 C 608.22 460.24 608.26 465.99 608.26 471.75 C 613.65 471.45 619.37 472.65 624.51 470.50 C 630.02 468.46 631.37 459.70 626.53 456.31 C 620.90 453.41 614.34 454.86 608.28 454.48 Z" />
<path fill="#000000" opacity="1.00" d=" M 728.20 440.27 C 733.72 440.22 739.23 440.27 744.75 440.23 C 744.81 450.01 744.66 459.79 744.82 469.57 C 748.67 465.14 752.15 460.42 755.79 455.83 C 759.54 450.80 764.02 446.18 766.37 440.26 C 773.62 440.21 780.88 440.29 788.13 440.21 C 778.67 450.85 769.73 461.93 761.00 473.16 C 765.11 481.42 770.30 489.19 774.80 497.28 C 779.43 504.94 783.54 512.92 788.74 520.23 C 782.21 520.27 775.69 520.24 769.16 520.25 C 764.20 507.60 756.55 496.23 750.54 484.07 C 748.55 486.33 746.68 488.68 744.79 491.02 C 744.72 500.74 744.75 510.46 744.78 520.18 C 739.52 520.32 734.26 520.22 729.00 520.25 C 728.71 493.59 729.70 466.89 728.20 440.27 Z" />
<path fill="#000000" opacity="1.00" d=" M 250.74 478.01 C 260.01 478.03 269.29 477.90 278.56 478.09 C 278.47 481.36 278.48 484.64 278.56 487.92 C 269.29 488.10 260.02 487.95 250.75 488.00 C 250.75 484.67 250.75 481.34 250.74 478.01 Z" />
<path fill="#000000" opacity="1.00" d=" M 554.43 478.10 C 563.71 477.87 572.98 478.06 582.26 478.01 C 582.24 481.34 582.25 484.67 582.25 488.00 C 572.98 487.94 563.70 488.13 554.43 487.90 C 554.52 484.63 554.52 481.36 554.43 478.10 Z" />
<path fill="#000000" opacity="1.00" d=" M 418.30 551.40 C 423.96 548.13 431.38 553.74 430.27 560.04 C 430.22 566.47 421.68 570.15 416.86 566.01 C 411.91 562.43 412.73 553.94 418.30 551.40 Z" />
<path fill="#000000" opacity="1.00" d=" M 18.98 557.94 C 30.76 550.01 47.81 551.86 57.92 561.75 C 55.69 564.76 53.42 567.74 51.21 570.76 C 46.84 567.33 41.91 563.69 36.05 563.96 C 30.57 563.71 25.27 566.65 22.24 571.17 C 16.15 579.89 15.42 591.33 17.62 601.48 C 19.01 607.46 22.10 613.69 27.90 616.46 C 33.52 619.06 40.37 618.90 45.88 616.07 C 48.63 614.74 50.98 612.76 53.44 610.98 C 55.25 614.25 57.41 617.31 59.22 620.58 C 53.18 625.40 45.90 629.00 38.05 629.24 C 29.41 629.82 20.10 627.49 14.07 620.96 C 5.73 612.32 3.31 599.61 4.20 588.00 C 4.92 576.64 9.56 564.83 18.98 557.94 Z" />
<path fill="#000000" opacity="1.00" d=" M 771.42 553.28 C 775.78 553.22 780.15 553.22 784.53 553.28 C 784.46 574.52 784.54 595.76 784.49 617.01 C 784.46 620.71 785.01 624.38 785.72 628.01 C 781.96 627.77 778.05 628.47 774.38 627.64 C 774.09 626.47 773.85 625.29 773.64 624.12 C 769.07 628.65 762.29 630.52 756.02 629.12 C 748.33 627.78 742.24 621.43 739.84 614.20 C 737.03 605.80 737.01 596.44 739.89 588.06 C 742.41 580.62 748.99 574.42 756.92 573.38 C 762.24 572.35 767.78 573.68 772.30 576.62 C 772.26 568.83 771.97 561.05 771.42 553.28 M 758.49 584.61 C 755.71 585.45 753.80 587.90 752.65 590.46 C 750.09 596.24 750.22 602.87 751.54 608.95 C 752.29 612.11 753.52 615.59 756.52 617.29 C 760.69 619.50 766.51 617.96 768.95 613.87 C 771.41 610.05 771.99 605.38 772.19 600.93 C 772.12 596.68 771.83 592.19 769.60 588.46 C 767.52 584.64 762.47 583.22 758.49 584.61 Z" />
<path fill="#000000" opacity="1.00" d=" M 379.24 553.74 C 383.57 553.76 387.90 553.75 392.23 553.74 C 392.28 560.41 392.24 567.09 392.25 573.76 C 395.89 573.78 399.54 573.58 403.17 573.89 C 403.37 577.49 403.20 581.11 403.27 584.72 C 399.58 584.76 395.91 584.73 392.23 584.79 C 392.28 594.55 392.24 604.30 392.24 614.06 C 392.14 616.13 392.84 618.57 394.99 619.36 C 397.85 619.88 400.62 618.64 403.38 618.02 C 404.00 620.95 404.62 623.90 405.03 626.88 C 399.48 629.66 392.76 631.00 386.91 628.31 C 382.19 626.29 380.03 620.87 380.00 616.03 C 379.99 605.61 380.00 595.20 380.02 584.79 C 377.26 584.73 374.50 584.76 371.74 584.72 C 371.74 581.06 371.74 577.39 371.76 573.73 C 374.50 573.74 377.24 573.75 379.99 573.78 C 380.00 567.09 379.73 560.40 379.24 553.74 Z" />
<path fill="#000000" opacity="1.00" d=" M 579.99 554.22 C 593.72 554.25 607.45 554.27 621.18 554.21 C 621.26 557.94 621.25 561.67 621.28 565.40 C 611.93 565.67 602.56 565.35 593.21 565.57 C 593.28 571.77 593.26 577.97 593.22 584.17 C 602.13 584.32 611.04 584.25 619.96 584.21 C 620.02 587.89 620.00 591.57 619.99 595.25 C 611.08 595.23 602.17 595.25 593.26 595.24 C 593.24 606.16 593.26 617.08 593.25 628.00 C 589.08 628.00 584.92 628.00 580.75 628.00 C 580.74 612.01 580.75 596.02 580.75 580.04 C 580.80 571.42 580.66 562.80 579.99 554.22 Z" />
<path fill="#000000" opacity="1.00" d=" M 83.44 573.66 C 90.54 572.26 98.55 573.79 103.75 579.09 C 109.87 584.59 112.05 593.10 112.25 601.06 C 112.26 609.50 110.03 618.63 103.45 624.40 C 94.96 632.46 79.85 631.80 72.17 622.95 C 63.94 612.52 62.99 597.34 68.74 585.53 C 71.46 579.57 76.98 574.96 83.44 573.66 M 85.44 584.61 C 80.01 587.11 78.05 593.53 77.63 599.05 C 77.14 604.72 78.29 610.71 81.47 615.49 C 84.85 620.32 93.04 620.10 96.07 615.01 C 100.66 607.58 101.00 597.69 97.16 589.90 C 95.10 585.71 90.06 582.52 85.44 584.61 Z" />
<path fill="#000000" opacity="1.00" d=" M 136.54 573.79 C 143.45 572.26 151.26 573.49 156.63 578.34 C 163.49 584.05 165.99 593.39 165.79 602.01 C 165.88 610.58 163.09 619.77 156.13 625.24 C 146.81 633.02 130.77 631.22 124.20 620.71 C 117.36 610.16 116.96 595.88 122.78 584.79 C 125.54 579.41 130.59 575.14 136.54 573.79 M 139.39 584.47 C 133.87 586.90 131.66 593.32 131.31 598.94 C 130.91 604.91 131.83 611.49 135.80 616.21 C 139.44 620.50 146.98 619.65 149.80 614.83 C 154.25 607.54 154.64 597.81 150.91 590.14 C 148.89 585.97 144.11 582.61 139.39 584.47 Z" />
<path fill="#000000" opacity="1.00" d=" M 187.77 577.45 C 195.86 570.67 209.14 571.93 215.96 579.93 C 221.21 585.89 222.34 594.25 222.21 601.91 C 221.89 610.16 219.20 619.13 212.33 624.26 C 205.13 629.24 195.01 628.90 187.74 624.24 C 187.78 630.75 187.75 637.26 187.75 643.77 C 183.72 643.73 179.68 643.66 175.65 644.00 L 175.47 644.00 C 175.55 632.68 175.47 621.36 175.50 610.04 C 175.44 598.10 175.78 586.15 174.85 574.23 C 179.14 574.25 183.42 574.24 187.71 574.25 C 187.72 575.05 187.75 576.65 187.77 577.45 M 196.14 584.18 C 191.59 585.06 189.23 589.63 188.39 593.79 C 187.22 599.87 187.66 606.53 190.57 612.08 C 193.24 617.30 201.26 618.75 205.39 614.47 C 208.72 610.49 209.51 605.06 209.69 600.04 C 209.54 595.29 208.85 590.05 205.40 586.49 C 203.08 584.00 199.33 583.61 196.14 584.18 Z" />
<path fill="#000000" opacity="1.00" d=" M 241.96 575.91 C 248.78 572.37 257.39 572.29 264.23 575.80 C 268.90 578.27 271.94 582.92 273.44 587.87 C 275.51 593.92 275.90 600.39 275.76 606.74 C 264.76 606.77 253.76 606.75 242.76 606.76 C 243.40 610.94 245.00 615.60 249.09 617.58 C 255.87 620.84 263.99 618.53 269.48 613.81 C 271.06 616.52 272.70 619.19 274.34 621.87 C 268.05 627.55 259.37 631.00 250.84 629.76 C 244.50 629.00 238.26 625.68 234.78 620.21 C 229.34 612.15 228.40 601.69 230.58 592.38 C 232.25 585.81 235.71 579.14 241.96 575.91 M 246.89 586.92 C 244.32 589.34 243.33 592.85 243.05 596.27 C 249.67 596.18 256.29 596.32 262.91 596.19 C 262.52 593.02 262.22 589.53 259.95 587.06 C 256.75 583.24 250.19 583.25 246.89 586.92 Z" />
<path fill="#000000" opacity="1.00" d=" M 298.76 578.35 C 303.12 573.87 309.45 571.66 315.66 572.75 C 315.05 576.81 314.22 580.82 313.50 584.86 C 307.46 582.61 299.42 586.15 298.81 592.99 C 298.68 604.65 298.78 616.32 298.77 627.98 C 294.58 628.00 290.40 628.02 286.22 627.96 C 286.02 610.08 286.82 592.16 285.66 574.31 C 290.02 574.19 294.39 574.24 298.76 574.26 C 298.75 575.61 298.75 576.98 298.76 578.35 Z" />
<path fill="#000000" opacity="1.00" d=" M 320.90 584.62 C 324.44 578.84 330.43 574.70 337.15 573.65 C 344.19 572.60 352.32 573.04 357.80 578.14 C 361.76 581.52 363.28 586.91 363.26 591.96 C 363.26 600.31 363.25 608.66 363.24 617.02 C 363.20 620.93 363.95 624.78 364.91 628.56 C 361.14 628.48 357.37 628.51 353.61 628.49 C 353.39 627.35 353.17 626.22 352.96 625.10 C 345.34 631.68 332.63 631.60 325.19 624.77 C 318.63 618.27 319.02 606.09 326.20 600.17 C 333.00 594.18 342.60 593.96 351.17 593.38 C 351.23 589.93 350.06 585.75 346.30 584.72 C 339.84 583.00 332.55 586.05 328.73 591.46 C 326.15 589.15 323.55 586.85 320.90 584.62 M 337.16 606.16 C 333.21 608.09 331.41 613.97 334.73 617.26 C 337.82 619.78 342.45 618.97 345.89 617.60 C 350.74 614.85 350.84 608.56 351.32 603.69 C 346.56 604.07 341.55 604.04 337.16 606.16 Z" />
<path fill="#000000" opacity="1.00" d=" M 458.42 573.57 C 465.32 572.34 473.00 573.86 478.09 578.92 C 484.30 584.41 486.52 592.99 486.75 601.00 C 486.76 609.36 484.61 618.37 478.20 624.19 C 469.46 632.71 453.37 631.85 445.94 622.03 C 438.30 611.51 437.60 596.67 443.42 585.16 C 446.25 579.22 451.91 574.72 458.42 573.57 M 460.33 584.45 C 455.00 586.54 452.83 592.61 452.25 597.88 C 451.54 604.00 452.49 610.69 456.19 615.77 C 459.61 620.21 467.21 620.01 470.33 615.33 C 475.14 608.03 475.49 598.13 471.85 590.28 C 469.84 586.10 465.09 582.61 460.33 584.45 Z" />
<path fill="#000000" opacity="1.00" d=" M 509.04 576.95 C 514.91 572.44 523.34 571.77 529.80 575.39 C 535.84 578.97 538.95 586.15 539.00 592.99 C 539.01 604.66 539.01 616.33 539.00 628.00 C 534.91 628.00 530.83 628.00 526.75 628.00 C 526.75 617.33 526.74 606.66 526.76 595.99 C 526.76 592.38 526.21 588.20 523.16 585.83 C 517.92 581.63 508.38 586.14 508.98 593.04 C 509.00 604.69 508.99 616.35 509.00 628.00 C 504.73 627.99 500.47 628.01 496.21 627.96 C 496.05 610.07 496.79 592.16 495.68 574.31 C 500.09 574.18 504.50 574.29 508.91 574.19 C 508.94 574.88 509.01 576.26 509.04 576.95 Z" />
<path fill="#000000" opacity="1.00" d=" M 698.41 576.94 C 704.14 572.95 711.83 571.72 718.25 574.77 C 725.14 577.94 728.48 585.81 728.73 593.04 C 728.83 604.68 728.69 616.32 728.79 627.96 C 724.67 628.01 720.56 628.05 716.45 627.91 C 716.56 617.94 716.45 607.97 716.51 598.00 C 716.43 593.82 716.35 588.97 713.03 585.94 C 707.73 581.60 698.21 586.07 698.50 593.00 C 698.52 604.64 698.45 616.29 698.55 627.93 C 694.36 628.04 690.18 627.99 686.00 628.00 C 685.77 610.08 686.59 592.13 685.28 574.24 C 689.70 574.24 694.12 574.23 698.54 574.26 C 698.51 574.93 698.45 576.27 698.41 576.94 Z" />
<path fill="#000000" opacity="1.00" d=" M 630.46 574.01 C 634.82 574.00 639.19 573.93 643.55 574.10 C 643.44 585.75 643.54 597.40 643.50 609.05 C 643.60 612.20 644.00 616.10 647.00 617.90 C 649.85 619.52 653.64 619.38 656.14 617.14 C 659.75 614.26 661.04 609.42 661.01 604.98 C 661.03 594.65 661.08 584.30 660.31 574.00 C 664.62 573.99 668.94 574.00 673.25 574.00 C 673.25 587.33 673.25 600.66 673.25 614.00 C 673.25 618.87 673.78 623.74 674.78 628.52 C 671.01 628.49 667.26 628.49 663.50 628.51 C 663.15 627.25 662.83 625.99 662.54 624.74 C 655.85 630.96 644.89 631.85 637.38 626.66 C 632.62 623.00 631.00 616.70 631.00 610.96 C 630.95 598.64 631.24 586.31 630.46 574.01 Z" />
<path fill="#000000" opacity="1.00" d=" M 415.20 574.75 C 419.55 574.75 423.90 574.75 428.26 574.75 C 428.20 592.43 428.35 610.11 428.18 627.78 C 424.05 627.73 419.92 627.75 415.79 627.77 C 415.49 610.10 416.28 592.40 415.20 574.75 Z" />
</g>
</svg>
