<?xml version="1.0" encoding="UTF-8" ?>
<!DOCTYPE svg PUBLIC "-//W3C//DTD SVG 1.1//EN" "http://www.w3.org/Graphics/SVG/1.1/DTD/svg11.dtd">
<svg width="900pt" height="675pt" viewBox="0 0 900 675" version="1.1" xmlns="http://www.w3.org/2000/svg">
<g id="#000000ff">
<path fill="#000000" opacity="1.00" d=" M 127.42 6.73 C 343.46 6.73 559.49 6.73 775.53 6.73 C 775.54 228.86 775.58 451.00 775.51 673.13 C 559.48 673.12 343.47 673.13 127.45 673.13 C 127.37 451.00 127.42 228.86 127.42 6.73 M 499.24 52.22 C 489.37 57.23 482.21 66.70 479.03 77.20 C 475.05 90.36 475.87 105.23 482.47 117.42 C 487.34 126.44 495.89 133.37 505.78 136.10 C 517.60 139.38 530.41 137.34 541.32 132.01 C 541.43 118.10 541.33 104.19 541.37 90.29 C 532.09 90.26 522.80 90.27 513.52 90.28 C 513.52 95.47 513.52 100.67 513.52 105.86 C 516.88 105.87 520.24 105.88 523.60 105.88 C 523.64 110.05 523.64 114.23 523.63 118.41 C 519.19 119.42 514.50 119.60 510.17 118.00 C 501.61 115.26 496.04 106.65 495.24 97.95 C 494.85 92.36 494.85 86.50 497.20 81.29 C 499.86 74.61 505.95 69.39 513.06 68.07 C 522.08 66.35 531.21 69.63 538.76 74.43 C 538.77 67.49 538.79 60.55 538.76 53.62 C 526.82 47.00 511.52 45.86 499.24 52.22 M 311.23 49.47 C 311.22 78.41 311.21 107.36 311.23 136.30 C 327.73 136.32 344.23 136.26 360.73 136.33 C 360.82 130.15 360.79 123.98 360.76 117.80 C 350.40 117.80 340.03 117.79 329.67 117.80 C 329.64 95.02 329.67 72.25 329.66 49.47 C 323.51 49.48 317.37 49.48 311.23 49.47 M 395.53 49.48 C 395.53 78.42 395.53 107.36 395.54 136.30 C 411.15 136.30 426.77 136.31 442.39 136.30 C 442.38 130.13 442.40 123.96 442.36 117.79 C 432.82 117.80 423.28 117.79 413.74 117.80 C 413.73 111.74 413.73 105.69 413.74 99.64 C 421.43 99.63 429.12 99.63 436.82 99.64 C 436.82 93.94 436.83 88.24 436.81 82.54 C 429.12 82.54 421.43 82.55 413.73 82.53 C 413.73 77.64 413.72 72.75 413.75 67.85 C 422.93 67.84 432.12 67.87 441.31 67.84 C 441.29 61.72 441.30 55.60 441.30 49.48 C 426.04 49.47 410.79 49.47 395.53 49.48 M 604.05 49.44 C 594.13 78.34 584.61 107.38 574.66 136.27 C 580.89 136.33 587.11 136.29 593.34 136.31 C 595.32 130.18 597.00 123.96 598.94 117.81 C 608.29 117.79 617.64 117.77 627.00 117.82 C 628.72 123.98 630.55 130.11 632.29 136.26 C 638.87 136.33 645.44 136.31 652.02 136.28 C 642.46 107.30 632.50 78.45 622.86 49.50 C 616.59 49.45 610.32 49.51 604.05 49.44 M 686.08 49.46 C 685.87 53.30 685.87 57.15 685.90 61.00 C 686.04 86.11 685.63 111.23 686.11 136.33 C 702.61 136.27 719.10 136.32 735.60 136.30 C 735.58 130.12 735.68 123.94 735.52 117.76 C 725.19 117.86 714.85 117.73 704.52 117.84 C 704.39 95.05 704.50 72.26 704.46 49.48 C 698.33 49.47 692.20 49.49 686.08 49.46 M 169.79 49.49 C 169.79 78.42 169.80 107.34 169.78 136.27 C 175.82 136.33 181.85 136.28 187.89 136.31 C 188.04 107.38 187.68 78.44 188.07 49.51 C 181.97 49.45 175.88 49.47 169.79 49.49 M 227.18 49.48 C 227.18 78.42 227.18 107.35 227.17 136.29 C 243.70 136.31 260.22 136.30 276.75 136.30 C 276.74 130.13 276.77 123.96 276.72 117.79 C 266.27 117.80 255.81 117.80 245.35 117.79 C 245.35 95.02 245.34 72.25 245.36 49.48 C 239.29 49.47 233.23 49.47 227.18 49.48 M 170.35 181.28 C 177.72 210.30 184.81 239.39 192.33 268.37 C 198.76 268.30 205.19 268.31 211.62 268.36 C 215.52 253.36 218.99 238.26 222.42 223.15 C 223.37 223.17 224.32 223.20 225.27 223.24 C 228.41 238.35 232.14 253.32 235.69 268.33 C 242.33 268.34 248.97 268.29 255.61 268.37 C 263.23 239.39 270.43 210.30 277.85 181.27 C 271.76 181.26 265.68 181.27 259.59 181.26 C 255.41 199.12 250.97 216.93 247.06 234.85 C 246.19 234.77 244.43 234.60 243.55 234.51 C 239.47 216.76 235.16 199.06 231.04 181.32 C 226.61 181.24 222.19 181.25 217.76 181.29 C 213.58 198.95 209.00 216.52 205.07 234.24 C 205.00 236.18 203.65 236.87 201.83 236.84 C 198.01 218.24 193.62 199.77 189.44 181.26 C 183.08 181.28 176.71 181.25 170.35 181.28 M 298.50 181.27 C 298.52 210.29 298.49 239.31 298.52 268.33 C 304.62 268.34 310.72 268.28 316.82 268.38 C 317.01 239.34 316.85 210.30 316.90 181.26 C 310.76 181.27 304.63 181.27 298.50 181.27 M 342.63 181.22 C 342.50 210.26 342.60 239.29 342.58 268.33 C 359.00 268.35 375.42 268.29 391.84 268.35 C 392.28 262.13 392.04 255.88 392.11 249.65 C 381.67 249.47 371.23 249.63 360.78 249.56 C 360.78 226.79 360.79 204.03 360.78 181.26 C 354.73 181.26 348.68 181.30 342.63 181.22 M 413.20 181.26 C 413.21 210.29 413.17 239.31 413.22 268.34 C 428.21 267.91 443.95 269.99 458.17 264.10 C 466.54 260.78 473.03 253.68 476.21 245.33 C 480.67 233.82 480.83 220.84 477.78 208.96 C 475.18 198.53 467.92 189.00 457.68 185.16 C 443.55 179.46 428.03 181.74 413.20 181.26 M 502.47 181.27 C 502.50 210.29 502.46 239.31 502.49 268.33 C 519.04 268.31 535.59 268.36 552.13 268.30 C 552.14 262.08 552.12 255.85 552.14 249.63 C 541.73 249.49 531.31 249.63 520.89 249.55 C 520.89 226.79 520.89 204.02 520.89 181.26 C 514.75 181.27 508.61 181.26 502.47 181.27 M 573.31 181.26 C 573.33 210.29 573.30 239.31 573.33 268.33 C 579.38 268.32 585.43 268.32 591.48 268.33 C 591.51 239.31 591.48 210.29 591.50 181.27 C 585.43 181.26 579.37 181.27 573.31 181.26 M 617.17 181.26 C 617.18 210.29 617.14 239.31 617.19 268.34 C 623.23 268.31 629.28 268.34 635.32 268.33 C 635.34 256.66 635.32 244.99 635.33 233.32 C 643.48 233.32 651.62 233.31 659.77 233.32 C 659.79 227.52 659.80 221.73 659.76 215.93 C 651.62 215.91 643.48 216.09 635.34 215.87 C 635.32 210.47 635.32 205.06 635.35 199.65 C 644.98 199.64 654.61 199.68 664.24 199.64 C 664.23 193.53 664.21 187.43 664.26 181.32 C 648.56 181.19 632.86 181.31 617.17 181.26 M 687.83 181.30 C 687.84 210.30 687.82 239.31 687.84 268.31 C 703.52 268.36 719.21 268.31 734.90 268.34 C 734.93 262.08 734.92 255.82 734.91 249.57 C 725.40 249.57 715.89 249.57 706.39 249.57 C 706.38 243.59 706.37 237.60 706.39 231.62 C 714.11 231.62 721.83 231.62 729.55 231.62 C 729.55 225.85 729.55 220.08 729.55 214.30 C 721.83 214.29 714.11 214.29 706.40 214.31 C 706.38 209.42 706.37 204.54 706.40 199.65 C 715.55 199.66 724.71 199.65 733.87 199.65 C 733.87 193.52 733.87 187.39 733.87 181.27 C 718.52 181.29 703.17 181.22 687.83 181.30 M 447.84 312.87 C 437.88 341.89 428.19 371.01 418.36 400.08 C 423.94 400.15 429.52 400.26 435.09 400.13 C 437.27 400.63 437.53 398.28 438.08 396.82 C 439.49 391.72 441.02 386.67 442.58 381.62 C 451.92 381.62 461.26 381.66 470.60 381.60 C 472.69 387.62 473.73 394.00 476.21 399.88 C 482.67 400.61 489.27 399.92 495.78 400.16 C 485.97 371.05 476.31 341.89 466.28 312.86 C 460.13 312.87 453.98 312.86 447.84 312.87 M 170.65 312.87 C 170.61 319.05 170.63 325.24 170.63 331.42 C 178.54 331.45 186.45 331.41 194.36 331.45 C 194.37 354.35 194.30 377.26 194.39 400.17 C 200.45 400.15 206.50 400.15 212.55 400.16 C 212.63 377.25 212.56 354.34 212.59 331.43 C 220.57 331.43 228.55 331.43 236.53 331.43 C 236.53 325.30 236.52 319.16 236.54 313.03 C 214.58 312.66 192.61 312.97 170.65 312.87 M 298.29 312.92 C 298.28 342.00 298.23 371.08 298.32 400.16 C 304.35 400.15 310.39 400.16 316.43 400.16 C 316.54 388.72 316.38 377.29 316.51 365.86 C 318.42 365.84 320.33 365.83 322.24 365.82 C 328.16 377.02 333.15 388.70 339.15 399.85 C 345.83 400.58 352.63 399.99 359.35 400.11 C 353.38 387.56 346.39 375.50 340.18 363.06 C 346.09 360.32 351.20 355.52 353.08 349.15 C 356.07 339.17 354.73 326.69 346.37 319.63 C 340.00 314.04 331.14 313.16 323.02 312.87 C 314.78 312.86 306.53 312.82 298.29 312.92 M 557.82 313.07 C 557.88 342.10 557.82 371.13 557.85 400.15 C 573.33 399.75 589.73 401.95 604.23 395.24 C 614.30 390.70 620.75 380.59 622.94 370.02 C 625.38 358.11 624.83 345.28 619.89 334.06 C 616.34 325.98 609.50 319.41 601.10 316.55 C 587.25 311.66 572.25 312.89 557.82 313.07 M 688.46 313.00 C 688.45 342.02 688.48 371.05 688.45 400.07 C 704.16 400.22 719.89 400.20 735.61 400.08 C 735.60 393.93 735.60 387.77 735.60 381.62 C 725.94 381.61 716.28 381.63 706.62 381.61 C 706.62 375.55 706.61 369.50 706.62 363.45 C 714.47 363.42 722.32 363.47 730.17 363.41 C 730.17 357.65 730.16 351.90 730.17 346.15 C 722.33 346.07 714.48 346.13 706.64 346.11 C 706.61 341.22 706.61 336.33 706.62 331.44 C 715.83 331.40 725.04 331.48 734.25 331.39 C 734.23 325.28 734.23 319.17 734.26 313.06 C 719.00 312.69 703.72 312.82 688.46 313.00 M 169.79 445.15 C 169.79 507.59 169.79 570.03 169.79 632.47 C 358.25 632.48 546.70 632.51 735.15 632.45 C 735.15 570.03 735.15 507.60 735.15 445.17 C 546.70 445.08 358.25 445.13 169.79 445.15 Z" />
<path fill="#000000" opacity="1.00" d=" M 612.12 78.18 C 612.66 78.31 613.74 78.55 614.27 78.67 C 616.27 86.03 618.37 93.36 620.51 100.67 C 615.53 100.70 610.55 100.70 605.57 100.68 C 607.85 93.21 610.12 85.74 612.12 78.18 Z" />
<path fill="#000000" opacity="1.00" d=" M 433.14 201.06 C 439.96 201.41 447.57 201.29 453.19 205.81 C 459.04 210.67 460.38 218.84 460.16 226.05 C 459.94 232.29 458.58 239.27 453.53 243.47 C 447.79 247.95 440.12 248.21 433.16 248.26 C 432.69 234.49 433.46 220.72 432.95 206.95 C 432.92 204.98 433.04 203.02 433.14 201.06 Z" />
<path fill="#000000" opacity="1.00" d=" M 317.81 331.71 C 322.59 331.82 327.99 331.04 332.16 333.88 C 336.76 338.00 335.74 347.99 329.02 349.34 C 325.33 350.14 321.54 349.78 317.81 349.80 C 317.81 343.77 317.81 337.74 317.81 331.71 Z" />
<path fill="#000000" opacity="1.00" d=" M 577.39 333.17 C 584.50 333.01 592.49 333.11 598.17 338.04 C 603.66 342.99 604.87 350.91 604.68 357.95 C 604.50 364.34 602.98 371.52 597.62 375.63 C 591.85 379.92 584.27 379.99 577.39 379.87 C 577.41 364.30 577.40 348.73 577.39 333.17 Z" />
<path fill="#000000" opacity="1.00" d=" M 456.56 339.31 C 457.66 341.22 458.36 343.33 458.87 345.47 C 460.42 351.80 462.39 358.01 464.13 364.28 C 459.17 364.31 454.21 364.31 449.25 364.29 C 451.87 356.02 454.15 347.65 456.56 339.31 Z" />
<path fill="#000000" opacity="1.00" d=" M 388.66 470.88 C 392.67 470.88 396.67 470.88 400.68 470.87 C 400.83 481.66 400.69 492.44 400.76 503.23 C 406.64 503.24 412.51 503.22 418.39 503.25 C 418.39 506.72 418.39 510.18 418.39 513.66 C 408.47 513.67 398.54 513.67 388.62 513.66 C 388.65 499.40 388.57 485.14 388.66 470.88 Z" />
<path fill="#000000" opacity="1.00" d=" M 497.30 470.87 C 506.50 470.89 515.69 470.89 524.89 470.87 C 525.18 474.38 525.19 477.91 524.93 481.42 C 519.82 481.38 514.70 481.39 509.59 481.41 C 509.59 483.14 509.59 484.88 509.59 486.62 C 513.99 486.63 518.39 486.63 522.79 486.62 C 522.80 489.95 522.80 493.28 522.80 496.62 C 518.40 496.61 514.00 496.61 509.60 496.62 C 509.59 498.72 509.58 500.82 509.59 502.93 C 514.95 502.95 520.30 502.96 525.66 502.93 C 525.87 506.50 525.87 510.08 525.85 513.67 C 516.31 513.67 506.78 513.67 497.25 513.67 C 497.28 499.40 497.18 485.14 497.30 470.87 Z" />
<path fill="#000000" opacity="1.00" d=" M 199.90 476.95 C 207.65 469.51 219.77 468.90 229.39 472.73 C 229.39 476.80 229.39 480.87 229.39 484.94 C 223.71 481.88 216.30 479.53 210.44 483.47 C 204.24 487.38 204.35 497.45 210.52 501.33 C 216.54 505.26 224.12 502.93 229.85 499.63 C 229.83 503.77 229.86 507.91 229.77 512.06 C 220.24 515.65 208.34 515.47 200.42 508.41 C 191.39 500.58 191.21 485.10 199.90 476.95 Z" />
<path fill="#000000" opacity="1.00" d=" M 255.31 471.09 C 259.40 470.86 263.51 470.86 267.62 470.87 C 267.69 476.05 267.66 481.22 267.67 486.40 C 272.62 486.39 277.58 486.39 282.54 486.39 C 282.55 481.22 282.53 476.05 282.57 470.88 C 286.64 470.88 290.72 470.88 294.80 470.89 C 294.90 485.14 294.81 499.40 294.85 513.66 C 290.75 513.67 286.65 513.67 282.55 513.66 C 282.53 508.04 282.57 502.43 282.52 496.81 C 277.57 496.81 272.63 496.81 267.68 496.82 C 267.65 502.43 267.67 508.05 267.66 513.66 C 263.54 513.67 259.42 513.66 255.31 513.66 C 255.30 499.47 255.31 485.28 255.31 471.09 Z" />
<path fill="#000000" opacity="1.00" d=" M 318.34 513.63 C 324.24 499.42 329.82 485.08 335.75 470.88 C 339.77 470.84 343.80 470.83 347.82 471.13 C 353.48 485.33 359.27 499.47 364.98 513.65 C 360.50 513.67 356.02 513.66 351.54 513.67 C 350.55 510.84 349.56 508.02 348.58 505.20 C 343.78 505.17 338.98 505.15 334.18 505.23 C 333.22 508.04 332.23 510.84 331.24 513.65 C 326.94 513.67 322.64 513.68 318.34 513.63 M 341.40 484.87 C 340.21 488.49 338.98 492.11 337.72 495.71 C 340.22 495.71 342.73 495.72 345.24 495.72 C 344.06 492.07 342.85 488.42 341.40 484.87 Z" />
<path fill="#000000" opacity="1.00" d=" M 442.87 471.07 C 447.00 470.83 451.15 470.85 455.29 470.89 C 455.36 481.67 455.27 492.46 455.34 503.24 C 461.26 503.24 467.18 503.21 473.09 503.28 C 473.09 506.72 473.09 510.17 473.09 513.63 C 463.02 513.70 452.94 513.67 442.87 513.64 C 442.87 499.45 442.87 485.26 442.87 471.07 Z" />
<path fill="#000000" opacity="1.00" d=" M 551.51 470.89 C 555.29 471.04 559.19 470.41 562.89 471.28 C 569.00 478.99 574.70 487.08 580.41 495.11 C 580.54 487.03 580.39 478.96 580.50 470.88 C 584.43 470.86 588.36 470.87 592.30 470.96 C 592.30 485.19 592.29 499.42 592.30 513.65 C 588.42 513.67 584.55 513.66 580.69 513.67 C 574.83 505.65 568.91 497.67 563.14 489.59 C 563.45 497.61 563.36 505.64 563.36 513.66 C 559.40 513.67 555.44 513.66 551.48 513.66 C 551.49 499.41 551.44 485.15 551.51 470.89 Z" />
<path fill="#000000" opacity="1.00" d=" M 628.49 473.71 C 636.51 469.12 646.49 469.65 654.77 473.27 C 654.81 477.28 654.80 481.30 654.77 485.31 C 649.07 482.33 641.97 479.60 635.80 482.86 C 629.00 486.03 628.10 496.51 633.86 501.10 C 636.55 503.79 640.54 503.77 644.08 503.87 C 644.09 502.36 644.10 500.86 644.10 499.36 C 642.17 499.36 640.25 499.35 638.34 499.36 C 638.32 496.33 638.32 493.29 638.33 490.26 C 644.31 490.27 650.29 490.25 656.27 490.28 C 656.28 497.30 656.24 504.33 656.29 511.35 C 648.55 514.62 639.53 515.50 631.54 512.61 C 625.38 510.42 620.30 505.28 618.55 498.94 C 615.57 489.58 619.80 478.41 628.49 473.71 Z" />
<path fill="#000000" opacity="1.00" d=" M 682.69 470.88 C 691.94 470.88 701.20 470.88 710.46 470.88 C 710.49 474.38 710.49 477.89 710.48 481.39 C 705.37 481.39 700.26 481.40 695.16 481.39 C 695.14 483.13 695.14 484.88 695.15 486.63 C 699.54 486.62 703.92 486.62 708.32 486.63 C 708.32 489.95 708.32 493.28 708.32 496.60 C 703.93 496.61 699.53 496.61 695.15 496.61 C 695.15 498.81 695.16 501.03 695.19 503.24 C 700.58 503.23 705.98 503.22 711.38 503.24 C 711.37 506.71 711.37 510.19 711.37 513.66 C 701.80 513.67 692.24 513.66 682.67 513.66 C 682.68 499.40 682.64 485.14 682.69 470.88 Z" />
<path fill="#000000" opacity="1.00" d=" M 318.63 548.72 C 330.01 548.71 341.39 548.72 352.76 548.71 C 352.77 550.98 352.77 553.25 352.78 555.52 C 343.97 555.53 335.16 555.52 326.35 555.52 C 326.34 561.70 326.33 567.89 326.36 574.07 C 334.15 574.18 341.95 574.11 349.74 574.11 C 349.75 576.35 349.75 578.59 349.76 580.85 C 341.97 580.85 334.17 580.85 326.38 580.85 C 326.30 589.33 326.37 597.82 326.34 606.31 C 323.77 606.31 321.20 606.31 318.63 606.31 C 318.63 587.11 318.62 567.91 318.63 548.72 Z" />
<path fill="#000000" opacity="1.00" d=" M 381.74 548.71 C 384.31 548.71 386.89 548.71 389.46 548.71 C 389.49 558.81 389.48 568.92 389.46 579.02 C 389.65 584.45 389.42 590.58 393.02 595.05 C 397.31 600.34 405.05 600.67 411.18 599.15 C 417.33 597.52 420.53 591.02 420.51 585.05 C 420.66 572.94 420.50 560.83 420.58 548.71 C 423.15 548.71 425.73 548.71 428.31 548.71 C 428.32 559.13 428.29 569.55 428.33 579.97 C 428.23 586.50 427.95 593.60 423.94 599.07 C 419.57 604.87 412.03 607.35 404.98 607.19 C 398.56 607.32 391.75 605.43 387.30 600.59 C 382.86 595.93 381.92 589.16 381.73 583.00 C 381.73 571.57 381.73 560.14 381.74 548.71 Z" />
<path fill="#000000" opacity="1.00" d=" M 459.78 548.72 C 462.25 548.71 464.72 548.71 467.20 548.70 C 478.62 563.60 489.79 578.70 501.13 593.66 C 500.79 578.68 500.75 563.70 500.82 548.72 C 503.38 548.71 505.95 548.71 508.52 548.71 C 508.54 567.91 508.54 587.11 508.53 606.31 C 506.02 606.31 503.53 606.31 501.04 606.31 C 489.80 591.23 478.20 576.42 467.25 561.14 C 467.58 576.19 467.52 591.25 467.50 606.31 C 464.92 606.31 462.34 606.31 459.77 606.31 C 459.76 587.11 459.76 567.92 459.78 548.72 Z" />
<path fill="#000000" opacity="1.00" d=" M 540.48 606.31 C 540.47 587.11 540.42 567.90 540.51 548.69 C 551.47 549.22 563.01 547.11 573.44 551.49 C 581.46 554.69 587.44 562.12 589.17 570.54 C 590.31 576.61 590.09 583.10 587.69 588.85 C 584.63 596.45 577.88 602.45 569.95 604.57 C 560.37 607.37 550.30 605.99 540.48 606.31 M 548.49 555.51 C 548.49 570.14 548.48 584.77 548.50 599.41 C 556.09 599.21 564.21 599.98 571.18 596.35 C 576.54 593.75 580.21 588.40 581.47 582.66 C 583.56 574.32 580.34 564.65 573.09 559.82 C 565.87 554.98 556.76 555.77 548.49 555.51 Z" />
</g>
</svg>
