<?xml version="1.0" encoding="UTF-8"?>
<svg xmlns="http://www.w3.org/2000/svg" width="303pt" height="235pt" viewBox="0 0 303 235" version="1.1">
  <g id="#ff6000ff">
    <path fill="#ff6000" opacity="1.00" d=" M 132.19 25.20 C 148.13 10.99 168.82 2.37 190.09 0.71 C 212.36 -0.94 235.19 5.44 253.39 18.39 L 253.51 18.48 L 253.64 18.57 C 275.61 33.92 290.66 58.55 294.79 84.99 C 297.65 104.09 295.65 124.08 287.89 141.86 C 286.50 145.81 283.92 149.12 280.27 151.20 C 280.24 150.53 280.19 149.20 280.16 148.53 C 277.59 148.57 275.02 148.59 272.46 148.60 C 272.63 154.69 272.52 160.78 272.56 166.87 C 270.67 169.15 268.70 171.36 266.63 173.47 C 266.60 165.14 266.62 156.82 266.63 148.49 C 264.03 148.55 261.43 148.59 258.83 148.62 C 258.88 149.50 258.99 151.26 259.04 152.13 C 255.78 149.80 252.25 147.15 248.02 147.39 C 240.47 147.11 233.16 152.62 231.47 160.01 C 229.12 168.34 232.54 178.72 240.94 182.17 C 247.03 185.21 254.09 182.77 259.02 178.68 C 258.93 179.15 258.76 180.08 258.67 180.55 C 251.40 186.71 243.02 191.47 234.31 195.28 C 231.54 196.51 228.50 196.66 225.52 196.58 C 225.50 197.05 225.46 197.98 225.44 198.45 C 205.09 204.65 182.89 203.80 162.87 196.77 C 162.00 196.23 161.16 195.66 160.32 195.10 C 167.29 192.93 172.07 186.15 172.36 178.95 C 172.78 168.82 172.27 158.68 172.60 148.55 C 169.88 148.57 167.16 148.58 164.45 148.58 C 164.49 149.48 164.56 151.29 164.60 152.19 C 160.49 147.76 154.00 146.06 148.31 148.28 C 139.18 151.10 134.09 161.97 137.17 170.90 C 139.53 178.69 147.66 184.49 155.87 183.35 C 159.44 183.14 162.23 180.76 165.02 178.80 C 164.17 181.64 163.11 184.68 160.53 186.41 C 156.36 189.73 149.94 188.80 146.57 184.78 C 144.92 182.86 142.21 183.50 140.15 184.26 C 138.88 183.28 137.82 182.02 136.43 181.21 C 134.50 180.16 132.76 178.82 131.16 177.32 C 131.06 170.58 131.75 163.76 130.63 157.08 C 128.88 148.31 116.80 144.28 110.04 150.10 C 106.51 143.76 103.69 137.02 101.74 130.03 C 101.58 129.43 101.27 128.24 101.11 127.65 C 98.33 116.03 96.83 103.96 98.30 92.04 C 100.62 66.56 112.90 42.06 132.19 25.20 M 180.97 24.97 C 179.61 25.63 178.00 25.91 176.90 26.98 C 173.34 30.72 173.82 36.32 173.45 41.10 C 172.98 45.44 176.88 49.24 181.20 48.81 C 179.03 46.91 174.42 47.07 175.45 43.12 C 177.03 44.35 178.69 45.47 180.44 46.44 C 179.96 45.19 179.46 43.94 178.95 42.70 C 179.85 43.23 180.76 43.76 181.68 44.29 C 181.53 45.11 181.38 45.94 181.23 46.76 C 182.89 47.79 184.66 48.68 186.10 50.00 C 186.70 51.14 186.38 52.48 186.46 53.71 C 187.62 54.12 188.78 54.53 189.95 54.94 C 189.10 53.81 188.25 52.68 187.44 51.53 C 189.74 50.88 191.14 53.04 192.43 54.54 C 194.48 54.47 197.00 54.19 196.75 57.05 C 196.07 56.88 194.71 56.54 194.02 56.37 C 194.54 57.38 195.05 58.38 195.57 59.39 C 197.44 59.63 199.29 60.01 201.09 60.58 C 201.20 63.42 198.30 62.30 196.68 62.75 C 196.43 63.11 195.95 63.84 195.71 64.20 C 196.02 64.72 196.64 65.77 196.95 66.29 C 195.17 66.72 193.47 66.01 191.76 65.67 C 193.08 66.49 194.44 67.26 195.85 67.93 C 195.30 71.38 191.82 69.29 189.80 68.57 C 191.59 69.70 193.35 70.87 195.12 72.02 C 194.63 72.79 193.64 74.33 193.15 75.09 C 192.25 74.23 191.36 73.36 190.47 72.49 C 190.25 72.94 189.81 73.84 189.60 74.29 C 190.75 74.70 191.91 75.11 193.08 75.53 C 192.74 77.15 192.43 78.77 192.13 80.40 C 192.75 82.31 192.79 84.34 191.63 86.07 C 194.71 86.98 195.99 90.36 198.47 92.17 C 203.98 93.63 209.64 94.71 215.28 93.15 C 214.22 97.08 214.55 101.21 213.58 105.15 C 217.86 110.69 224.74 113.02 230.56 116.48 C 233.38 118.31 229.64 120.06 228.11 120.91 C 234.47 122.65 241.07 121.22 247.18 119.21 C 244.55 121.70 240.98 122.67 237.75 124.11 C 233.65 124.27 236.26 128.38 237.92 129.98 C 238.27 129.62 238.96 128.90 239.31 128.54 C 240.19 129.76 241.07 130.98 241.95 132.20 C 242.38 131.53 243.23 130.18 243.65 129.50 C 244.42 130.40 245.19 131.30 245.97 132.20 C 250.59 129.39 250.84 123.68 252.33 119.04 C 254.64 112.59 252.04 105.84 250.03 99.68 C 248.95 95.76 246.27 92.21 242.49 90.54 C 242.96 88.57 240.82 87.84 239.78 86.67 C 239.82 83.97 239.06 81.38 237.68 79.07 C 237.67 75.31 237.75 71.54 237.30 67.81 L 236.89 67.12 L 237.60 67.01 C 238.00 64.52 237.12 61.51 235.11 59.77 C 233.56 55.59 229.48 53.60 226.62 50.51 C 224.64 45.00 222.32 39.12 217.76 35.18 C 214.86 31.44 210.82 28.77 207.21 25.77 C 198.99 22.42 189.39 22.22 180.97 24.97 M 216.06 137.49 C 216.26 141.20 216.29 144.91 216.05 148.61 C 214.72 148.60 213.38 148.60 212.05 148.61 C 212.14 150.99 212.18 153.37 212.20 155.75 C 213.54 155.75 214.88 155.74 216.23 155.74 C 216.14 164.62 216.28 173.50 216.15 182.37 C 218.91 182.42 221.68 182.43 224.45 182.47 C 224.39 173.56 224.40 164.64 224.43 155.72 C 226.05 155.74 227.66 155.76 229.28 155.78 C 229.29 153.36 229.31 150.95 229.33 148.53 C 227.70 148.54 226.07 148.56 224.45 148.57 C 224.40 144.85 224.41 141.12 224.43 137.40 C 221.64 137.44 218.85 137.46 216.06 137.49 M 177.30 148.53 C 177.60 155.36 177.38 162.20 177.45 169.03 C 177.51 172.83 178.28 177.00 181.24 179.66 C 186.01 184.77 195.31 185.01 199.85 179.47 C 199.87 180.20 199.91 181.64 199.93 182.37 C 202.44 182.42 204.96 182.46 207.47 182.52 C 207.50 171.17 207.39 159.83 207.54 148.49 C 204.76 148.56 201.98 148.61 199.20 148.68 C 199.26 154.80 199.26 160.91 199.24 167.03 C 199.31 169.73 198.29 172.47 196.43 174.43 C 194.68 176.14 191.91 175.93 189.73 175.32 C 186.83 173.71 185.59 170.20 185.66 167.04 C 185.66 160.89 185.68 154.74 185.69 148.59 C 182.89 148.58 180.09 148.57 177.30 148.53 Z"></path>
    <path fill="#ff6000" opacity="1.00" d=" M 185.74 40.88 C 186.25 41.00 187.26 41.24 187.76 41.35 C 187.98 41.75 188.40 42.54 188.61 42.93 C 189.02 43.80 189.43 44.69 189.83 45.57 C 189.57 45.61 189.04 45.70 188.78 45.74 C 187.54 44.27 186.49 42.65 185.74 40.88 Z"></path>
    <path fill="#ff6000" opacity="1.00" d=" M 183.41 46.08 C 184.04 45.51 184.66 44.93 185.29 44.36 C 185.62 46.44 187.59 47.34 189.29 48.14 C 189.78 48.35 190.76 48.75 191.25 48.96 C 190.75 49.19 189.74 49.67 189.24 49.90 C 187.45 48.40 185.49 47.13 183.41 46.08 Z"></path>
    <path fill="#ff6000" opacity="1.00" d=" M 214.36 60.50 C 215.21 59.72 216.07 58.94 216.92 58.15 C 218.09 59.61 219.26 61.07 220.43 62.52 C 220.09 62.92 219.75 63.32 219.42 63.73 C 220.15 65.10 221.74 66.41 221.03 68.11 C 220.21 71.22 220.26 74.44 220.36 77.63 C 221.60 77.43 222.84 77.22 224.08 76.99 C 224.94 77.76 225.84 78.50 226.75 79.23 C 227.94 80.21 229.10 81.24 230.26 82.27 C 230.69 81.95 231.56 81.31 231.99 80.98 C 233.73 82.03 235.42 83.13 237.04 84.36 C 235.17 85.16 233.15 85.25 231.15 85.21 C 231.54 85.75 232.30 86.84 232.69 87.39 C 231.98 87.33 230.56 87.20 229.86 87.14 L 229.30 86.94 C 226.87 84.90 224.39 82.92 221.77 81.14 C 220.99 82.03 220.22 82.92 219.46 83.81 C 219.14 81.35 218.69 78.91 217.87 76.56 C 217.47 75.26 217.03 73.96 216.65 72.65 C 216.59 70.72 216.57 68.78 216.56 66.84 C 217.40 66.68 218.25 66.52 219.10 66.37 C 217.35 64.56 215.79 62.58 214.36 60.50 Z"></path>
    <path fill="#ff6000" opacity="1.00" d=" M 223.39 68.76 C 225.48 66.74 228.01 65.26 230.79 64.40 C 231.99 64.71 233.17 65.14 234.36 65.53 C 233.90 66.02 232.98 67.01 232.52 67.50 C 232.34 69.03 232.17 70.57 231.94 72.09 L 231.23 73.14 C 229.55 74.06 227.81 74.91 225.97 75.46 C 222.93 74.86 223.19 71.14 223.39 68.76 M 226.99 67.75 C 228.02 69.00 229.16 70.19 230.58 71.00 C 230.45 69.92 230.31 68.84 230.16 67.76 C 229.10 67.75 228.04 67.75 226.99 67.75 Z"></path>
    <path fill="#ff6000" opacity="1.00" d=" M 204.79 75.71 C 207.12 75.02 209.63 74.78 212.04 75.22 C 213.60 76.38 214.34 78.28 215.39 79.86 C 215.08 80.13 214.48 80.66 214.17 80.93 C 210.63 84.41 205.50 85.12 200.77 84.38 C 201.43 81.31 201.97 77.59 204.79 75.71 M 206.81 77.01 C 207.36 77.62 208.45 78.84 209.00 79.45 C 208.54 79.81 207.61 80.52 207.15 80.88 C 208.27 80.35 209.40 79.81 210.54 79.28 C 210.30 78.61 210.06 77.94 209.83 77.27 C 209.07 77.21 207.57 77.07 206.81 77.01 Z"></path>
    <path fill="#ff6000" opacity="1.00" d=" M 217.51 99.36 C 218.08 97.84 218.70 96.34 219.33 94.84 C 219.90 97.25 220.45 99.67 220.99 102.10 C 220.44 102.32 219.34 102.77 218.80 102.99 C 218.35 101.79 217.93 100.57 217.51 99.36 Z"></path>
    <path fill="#ff6000" opacity="1.00" d=" M 223.21 96.47 C 225.54 96.34 227.89 96.23 230.22 96.54 L 230.93 97.03 C 232.02 97.82 233.10 98.62 234.19 99.42 C 231.64 102.37 227.07 102.76 224.12 100.17 L 223.58 99.32 C 223.49 98.61 223.31 97.18 223.21 96.47 Z"></path>
    <path fill="#ff6000" opacity="1.00" d=" M 113.06 155.72 C 115.43 155.12 118.45 154.46 120.30 156.56 C 123.60 159.76 122.78 164.76 122.90 168.91 C 119.30 164.76 116.02 160.35 113.06 155.72 Z"></path>
    <path fill="#ff6000" opacity="1.00" d=" M 153.18 155.21 C 159.96 153.90 165.83 161.68 163.86 167.98 C 162.90 172.43 158.58 176.26 153.88 175.75 C 147.86 175.37 143.44 168.80 144.87 163.05 C 145.65 159.06 149.16 155.76 153.18 155.21 Z"></path>
    <path fill="#ff6000" opacity="1.00" d=" M 247.18 155.21 C 250.57 154.51 254.25 155.86 256.42 158.55 C 260.48 163.48 259.04 172.23 253.01 174.92 C 248.05 177.44 241.71 174.49 239.80 169.43 C 237.56 163.82 241.01 156.29 247.18 155.21 Z"></path>
  </g>
  <g id="#03a54dff">
    <path fill="#03a54d" opacity="1.00" d=" M 253.39 18.39 C 253.45 18.44 253.58 18.52 253.64 18.57 L 253.51 18.48 L 253.39 18.39 Z"></path>
    <path fill="#03a54d" opacity="1.00" d=" M 20.14 101.42 C 21.98 101.43 23.83 101.37 25.67 101.53 C 26.23 104.01 25.69 106.62 25.97 109.15 C 27.06 109.52 28.21 109.68 29.41 109.63 C 29.47 111.30 29.53 112.98 29.59 114.65 C 28.37 114.72 27.14 114.78 25.91 114.85 C 25.72 121.13 26.12 127.45 25.78 133.72 C 23.89 133.89 21.99 133.84 20.10 133.85 C 20.07 127.52 20.04 121.19 20.16 114.86 C 19.41 114.81 17.92 114.70 17.17 114.64 C 17.18 112.99 17.18 111.34 17.16 109.69 C 18.15 109.56 19.14 109.44 20.12 109.32 C 20.08 106.69 20.08 104.05 20.14 101.42 Z"></path>
    <path fill="#03a54d" opacity="1.00" d=" M 31.47 101.45 C 33.44 101.46 35.42 101.48 37.39 101.53 C 37.33 104.65 37.31 107.77 37.32 110.89 C 42.42 106.65 51.49 109.08 52.78 115.86 C 53.63 121.77 52.91 127.80 53.17 133.76 C 51.19 133.80 49.20 133.82 47.22 133.83 C 47.08 128.57 47.69 123.23 46.89 118.02 C 46.48 114.95 42.49 113.01 39.94 114.88 C 37.83 116.10 37.53 118.73 37.39 120.92 C 37.22 125.24 37.37 129.56 37.37 133.88 C 35.37 133.84 33.38 133.81 31.38 133.75 C 31.55 122.98 31.39 112.21 31.47 101.45 Z"></path>
    <path fill="#03a54d" opacity="1.00" d=" M 56.68 120.00 C 57.38 112.71 64.92 107.28 72.08 108.97 C 79.02 110.15 83.07 117.51 81.89 124.17 C 75.57 124.19 69.25 124.25 62.93 124.30 C 64.50 129.67 72.27 130.60 75.30 126.02 C 77.36 125.97 79.43 125.98 81.49 126.03 C 79.25 132.06 72.29 136.20 65.99 134.11 C 59.86 132.64 55.79 126.17 56.68 120.00 M 62.56 119.36 C 67.13 119.50 71.71 119.54 76.27 119.31 C 75.02 116.45 72.45 113.71 69.03 114.22 C 65.90 114.25 63.79 116.75 62.56 119.36 Z"></path>
    <path fill="#03a54d" opacity="1.00" d=" M 101.11 127.65 C 101.27 128.24 101.58 129.43 101.74 130.03 C 101.58 129.43 101.27 128.24 101.11 127.65 Z"></path>
    <path fill="#03a54d" opacity="1.00" d=" M 216.06 137.49 C 218.85 137.46 221.64 137.44 224.43 137.40 C 224.41 141.12 224.40 144.85 224.45 148.57 C 226.07 148.56 227.70 148.54 229.33 148.53 C 229.31 150.95 229.29 153.36 229.28 155.78 C 227.66 155.76 226.05 155.74 224.43 155.72 C 224.40 164.64 224.39 173.56 224.45 182.47 C 221.68 182.43 218.91 182.42 216.15 182.37 C 216.28 173.50 216.14 164.62 216.23 155.74 C 214.88 155.74 213.54 155.75 212.20 155.75 C 212.18 153.37 212.14 150.99 212.05 148.61 C 213.38 148.60 214.72 148.60 216.05 148.61 C 216.29 144.91 216.26 141.20 216.06 137.49 Z"></path>
    <path fill="#03a54d" opacity="1.00" d=" M 280.27 151.20 C 283.92 149.12 286.50 145.81 287.89 141.86 C 287.05 143.93 286.12 145.95 285.18 147.97 C 290.12 146.59 295.76 147.89 299.34 151.63 C 301.90 154.37 302.40 158.25 303.00 161.80 L 303.00 182.35 C 300.21 182.40 297.43 182.40 294.64 182.39 C 294.64 176.92 294.74 171.46 294.65 165.99 C 294.48 163.07 294.43 159.87 292.64 157.41 C 290.53 154.27 285.53 154.39 283.10 157.07 C 280.99 159.13 280.99 162.30 280.78 165.04 C 280.65 170.82 280.72 176.60 280.84 182.38 C 278.08 182.39 275.32 182.39 272.56 182.39 C 272.52 177.21 272.58 172.04 272.56 166.87 C 272.52 160.78 272.63 154.69 272.46 148.60 C 275.02 148.59 277.59 148.57 280.16 148.53 C 280.19 149.20 280.24 150.53 280.27 151.20 Z"></path>
    <path fill="#03a54d" opacity="1.00" d=" M 16.44 147.54 C 23.75 146.58 31.60 150.41 34.87 157.12 C 38.99 165.02 36.51 176.07 28.63 180.66 C 21.07 185.57 10.05 183.77 4.62 176.51 C -0.60 170.18 -0.52 160.05 4.96 153.90 C 7.77 150.38 12.05 148.27 16.44 147.54 M 17.21 155.20 C 12.74 156.13 8.99 160.27 9.11 164.94 C 8.53 170.13 12.64 175.45 17.94 175.78 C 23.52 176.59 28.51 171.33 28.55 165.95 C 29.00 160.02 23.34 153.86 17.21 155.20 Z"></path>
    <path fill="#03a54d" opacity="1.00" d=" M 49.55 151.22 C 51.61 148.74 54.45 147.08 57.76 147.30 C 57.80 149.96 57.78 152.63 57.72 155.29 C 54.31 155.36 50.81 157.51 50.39 161.13 C 49.99 168.21 50.32 175.32 50.25 182.41 C 47.47 182.40 44.69 182.40 41.92 182.35 C 42.17 171.11 41.96 159.88 41.89 148.64 C 44.48 148.60 47.06 148.60 49.65 148.61 C 49.62 149.26 49.57 150.56 49.55 151.22 Z"></path>
    <path fill="#03a54d" opacity="1.00" d=" M 110.04 150.10 C 116.80 144.28 128.88 148.31 130.63 157.08 C 131.75 163.76 131.06 170.58 131.16 177.32 C 131.14 179.01 131.15 180.70 131.15 182.39 C 128.40 182.39 125.64 182.39 122.89 182.38 C 122.89 177.89 122.88 173.40 122.90 168.91 C 122.78 164.76 123.60 159.76 120.30 156.56 C 118.45 154.46 115.43 155.12 113.06 155.72 C 111.10 157.28 109.45 159.43 109.48 162.05 C 109.23 168.82 109.48 175.60 109.39 182.38 C 106.64 182.40 103.89 182.40 101.14 182.38 C 101.20 171.14 101.29 159.90 101.09 148.67 C 103.61 148.61 106.13 148.57 108.65 148.53 C 108.67 149.15 108.70 150.41 108.72 151.04 C 109.05 150.80 109.71 150.34 110.04 150.10 Z"></path>
    <path fill="#03a54d" opacity="1.00" d=" M 231.47 160.01 C 233.16 152.62 240.47 147.11 248.02 147.39 C 252.25 147.15 255.78 149.80 259.04 152.13 C 258.99 151.26 258.88 149.50 258.83 148.62 C 261.43 148.59 264.03 148.55 266.63 148.49 C 266.62 156.82 266.60 165.14 266.63 173.47 C 266.63 176.44 266.63 179.42 266.62 182.39 C 264.17 182.41 261.72 182.45 259.27 182.38 C 259.12 181.92 258.82 181.01 258.67 180.55 C 258.76 180.08 258.93 179.15 259.02 178.68 C 254.09 182.77 247.03 185.21 240.94 182.17 C 232.54 178.72 229.12 168.34 231.47 160.01 M 247.18 155.21 C 241.01 156.29 237.56 163.82 239.80 169.43 C 241.71 174.49 248.05 177.44 253.01 174.92 C 259.04 172.23 260.48 163.48 256.42 158.55 C 254.25 155.86 250.57 154.51 247.18 155.21 Z"></path>
    <path fill="#03a54d" opacity="1.00" d=" M 61.36 156.36 C 64.68 149.74 72.89 145.93 80.06 147.95 C 82.88 148.68 85.16 150.60 87.54 152.19 C 87.51 151.30 87.46 149.51 87.43 148.62 C 89.95 148.60 92.48 148.60 95.01 148.63 C 94.74 159.86 94.72 171.11 95.03 182.34 C 92.50 182.40 89.98 182.41 87.46 182.41 C 87.49 181.49 87.56 179.67 87.59 178.75 C 82.64 182.57 75.93 184.99 69.87 182.32 C 59.85 178.59 56.72 165.30 61.36 156.36 M 75.12 155.29 C 69.67 156.50 66.52 162.77 67.81 168.01 C 68.74 173.01 74.09 176.63 79.08 175.69 C 85.21 174.96 88.64 167.55 86.71 162.04 C 85.53 157.10 79.98 153.97 75.12 155.29 Z"></path>
    <path fill="#03a54d" opacity="1.00" d=" M 148.31 148.28 C 154.00 146.06 160.49 147.76 164.60 152.19 C 164.56 151.29 164.49 149.48 164.45 148.58 C 167.16 148.58 169.88 148.57 172.60 148.55 C 172.27 158.68 172.78 168.82 172.36 178.95 C 172.07 186.15 167.29 192.93 160.32 195.10 C 161.16 195.66 162.00 196.23 162.87 196.77 C 161.36 196.71 159.95 196.26 158.65 195.53 C 150.45 197.35 140.92 193.89 137.39 185.90 C 137.30 184.29 136.95 182.72 136.43 181.21 C 137.82 182.02 138.88 183.28 140.15 184.26 C 141.99 185.64 144.47 185.04 146.57 184.78 C 149.94 188.80 156.36 189.73 160.53 186.41 C 163.11 184.68 164.17 181.64 165.02 178.80 C 162.23 180.76 159.44 183.14 155.87 183.35 C 147.66 184.49 139.53 178.69 137.17 170.90 C 134.09 161.97 139.18 151.10 148.31 148.28 M 153.18 155.21 C 149.16 155.76 145.65 159.06 144.87 163.05 C 143.44 168.80 147.86 175.37 153.88 175.75 C 158.58 176.26 162.90 172.43 163.86 167.98 C 165.83 161.68 159.96 153.90 153.18 155.21 Z"></path>
    <path fill="#03a54d" opacity="1.00" d=" M 177.30 148.53 C 180.09 148.57 182.89 148.58 185.69 148.59 C 185.68 154.74 185.66 160.89 185.66 167.04 C 185.59 170.20 186.83 173.71 189.73 175.32 C 191.91 175.93 194.68 176.14 196.43 174.43 C 198.29 172.47 199.31 169.73 199.24 167.03 C 199.26 160.91 199.26 154.80 199.20 148.68 C 201.98 148.61 204.76 148.56 207.54 148.49 C 207.39 159.83 207.50 171.17 207.47 182.52 C 204.96 182.46 202.44 182.42 199.93 182.37 C 199.91 181.64 199.87 180.20 199.85 179.47 C 195.31 185.01 186.01 184.77 181.24 179.66 C 178.28 177.00 177.51 172.83 177.45 169.03 C 177.38 162.20 177.60 155.36 177.30 148.53 Z"></path>
    <path fill="#03a54d" opacity="1.00" d=" M 225.52 196.58 C 228.50 196.66 231.54 196.51 234.31 195.28 C 233.18 195.78 232.04 196.29 230.92 196.80 C 230.90 198.46 230.89 200.13 230.89 201.79 C 229.05 201.78 227.21 201.77 225.38 201.77 C 225.39 200.94 225.42 199.28 225.44 198.45 C 225.46 197.98 225.50 197.05 225.52 196.58 Z"></path>
    <path fill="#03a54d" opacity="1.00" d=" M 288.34 196.61 C 290.10 196.62 291.86 196.57 293.62 196.70 C 294.11 199.12 293.76 201.64 293.81 204.11 C 294.66 204.11 296.34 204.13 297.19 204.13 C 297.19 205.70 297.20 207.28 297.22 208.86 C 296.36 208.95 294.64 209.14 293.78 209.24 C 293.85 215.08 293.84 220.93 293.83 226.77 C 291.99 226.78 290.15 226.78 288.31 226.77 C 288.34 220.94 288.36 215.12 288.32 209.29 C 284.87 209.74 285.59 206.52 285.79 204.25 C 286.43 204.16 287.70 204.00 288.33 203.91 C 288.33 201.48 288.33 199.04 288.34 196.61 Z"></path>
    <path fill="#03a54d" opacity="1.00" d=" M 159.16 204.17 C 160.83 204.12 162.50 204.09 164.18 204.05 C 164.29 204.59 164.53 205.68 164.65 206.22 C 168.49 202.45 175.06 202.46 178.98 206.09 C 185.15 211.41 183.99 222.97 176.40 226.41 C 172.58 228.46 168.11 227.36 164.63 225.16 C 164.67 228.18 164.69 231.21 164.69 234.23 C 162.87 234.21 161.05 234.20 159.22 234.18 C 159.30 224.17 159.41 214.17 159.16 204.17 M 168.15 209.20 C 163.24 211.51 163.24 219.53 168.29 221.68 C 173.37 224.53 179.38 218.06 177.01 213.06 C 175.96 209.46 171.52 207.35 168.15 209.20 Z"></path>
    <path fill="#03a54d" opacity="1.00" d=" M 186.85 204.14 C 188.27 204.12 189.70 204.10 191.13 204.08 C 191.48 204.30 192.20 204.74 192.56 204.97 C 194.05 204.05 195.66 203.38 197.43 203.31 C 197.46 204.97 197.48 206.64 197.50 208.30 C 195.70 209.15 193.09 209.62 192.75 212.00 C 191.91 216.85 192.59 221.83 192.47 226.74 C 190.60 226.78 188.75 226.80 186.89 226.82 C 186.81 219.26 186.86 211.70 186.85 204.14 Z"></path>
    <path fill="#03a54d" opacity="1.00" d=" M 205.16 204.21 C 212.55 201.07 221.54 207.09 221.52 215.09 C 221.91 222.23 215.11 228.51 208.00 227.43 C 200.79 226.76 195.40 218.72 197.87 211.82 C 199.02 208.37 201.67 205.39 205.16 204.21 M 206.39 209.39 C 201.60 211.82 201.96 219.94 207.00 221.88 C 211.34 223.89 216.48 219.58 215.71 214.99 C 215.73 210.54 210.36 206.72 206.39 209.39 Z"></path>
    <path fill="#03a54d" opacity="1.00" d=" M 225.40 204.18 C 227.23 204.14 229.07 204.12 230.92 204.11 C 230.74 211.74 230.93 219.37 230.82 227.00 C 230.78 231.10 227.12 234.07 223.22 234.35 C 223.17 232.52 223.13 230.70 223.08 228.88 C 223.58 228.70 224.58 228.34 225.08 228.17 C 225.91 220.21 225.35 212.17 225.40 204.18 Z"></path>
    <path fill="#03a54d" opacity="1.00" d=" M 238.84 205.82 C 242.71 202.69 248.56 202.59 252.68 205.30 C 256.72 207.82 258.55 213.08 257.65 217.65 C 252.06 218.28 246.40 217.59 240.78 217.93 C 239.23 218.64 241.11 219.65 241.64 220.41 C 243.71 222.74 247.62 223.01 249.95 220.93 C 251.91 218.83 254.84 219.59 257.38 219.63 C 256.07 222.08 254.47 224.51 251.97 225.87 C 247.58 228.54 241.55 227.80 237.87 224.25 C 232.65 219.49 233.07 209.97 238.84 205.82 M 239.62 213.28 C 243.86 213.48 248.10 213.48 252.35 213.28 C 251.38 210.61 248.99 208.17 245.93 208.55 C 242.88 208.34 240.86 210.84 239.62 213.28 Z"></path>
    <path fill="#03a54d" opacity="1.00" d=" M 260.48 217.93 C 258.54 210.54 265.36 202.69 272.94 203.42 C 277.99 203.51 282.06 207.17 283.96 211.63 C 281.81 211.69 279.66 211.70 277.51 211.66 C 275.81 208.82 272.19 207.53 269.23 209.30 C 264.02 211.91 265.12 221.05 270.94 222.19 C 273.65 222.99 275.96 221.27 277.59 219.29 C 279.71 219.25 281.84 219.25 283.97 219.30 C 282.48 222.21 280.58 225.19 277.39 226.42 C 270.73 229.72 261.84 225.20 260.48 217.93 Z"></path>
  </g>
  <g id="#fdfdfcfe">
    <path fill="#fdfdfc" opacity="1.00" d=" M 180.97 24.97 C 189.39 22.22 198.99 22.42 207.21 25.77 C 210.82 28.77 214.86 31.44 217.76 35.18 C 222.32 39.12 224.64 45.00 226.62 50.51 C 229.48 53.60 233.56 55.59 235.11 59.77 C 235.72 61.39 236.23 63.04 236.75 64.69 C 236.15 65.28 235.55 65.88 234.96 66.47 C 234.22 63.86 232.38 61.52 229.86 60.46 C 226.77 60.17 224.47 63.13 223.67 65.81 C 225.93 64.88 228.27 63.30 230.79 64.40 C 228.01 65.26 225.48 66.74 223.39 68.76 C 224.55 64.08 222.13 59.61 222.64 54.96 C 221.62 54.39 220.60 53.82 219.58 53.25 C 218.66 53.86 217.74 54.46 216.82 55.06 C 217.49 53.59 218.15 52.12 218.80 50.64 C 217.94 50.31 216.21 49.64 215.35 49.31 C 215.26 49.87 215.07 50.98 214.98 51.53 C 214.02 50.85 213.56 48.93 212.18 49.22 C 211.01 50.12 210.31 51.47 209.44 52.63 C 208.60 51.67 207.74 50.71 206.90 49.76 C 209.75 49.94 212.30 48.69 214.13 46.54 C 211.71 47.14 209.31 47.83 206.92 48.54 C 207.95 47.79 210.00 46.31 211.02 45.57 C 209.50 45.14 207.98 44.72 206.46 44.29 C 205.02 42.23 202.87 41.17 200.37 41.11 C 200.50 40.35 200.75 38.84 200.87 38.09 C 199.92 37.52 198.97 36.96 198.02 36.39 C 196.71 37.16 195.41 37.93 194.10 38.71 C 194.36 37.85 194.61 36.99 194.87 36.12 C 193.24 33.16 191.55 30.15 188.83 28.03 C 188.53 28.78 187.93 30.26 187.63 31.01 C 186.89 30.13 186.14 29.26 185.40 28.39 C 184.84 28.35 183.73 28.29 183.18 28.25 C 182.37 29.26 181.56 30.26 180.75 31.26 C 179.36 29.14 179.46 26.96 180.97 24.97 M 216.18 46.06 C 215.91 46.36 215.37 46.94 215.10 47.24 C 215.82 50.71 220.03 45.59 216.18 46.06 M 220.22 50.13 C 220.38 53.53 223.15 48.57 220.22 50.13 Z"></path>
    <path fill="#fdfdfc" opacity="1.00" d=" M 176.21 31.09 C 178.33 30.76 178.84 32.90 179.74 34.29 C 180.94 34.54 182.21 34.76 183.09 35.69 C 180.78 35.88 178.54 35.28 176.42 34.40 C 176.35 33.30 176.28 32.19 176.21 31.09 Z"></path>
    <path fill="#fdfdfc" opacity="1.00" d=" M 187.99 35.36 C 189.48 36.43 191.00 37.49 192.46 38.61 C 191.71 38.25 190.20 37.55 189.44 37.19 C 189.42 38.04 189.37 39.72 189.35 40.57 C 190.70 40.59 192.06 40.62 193.42 40.65 C 193.38 41.67 193.30 43.71 193.26 44.73 C 193.63 44.32 194.38 43.50 194.76 43.09 C 194.51 42.16 194.26 41.23 194.01 40.30 C 194.64 40.30 195.90 40.30 196.52 40.30 C 196.50 40.80 196.45 41.80 196.42 42.30 C 198.32 41.93 199.48 42.61 199.88 44.35 C 199.09 44.37 197.50 44.39 196.71 44.41 C 198.57 45.83 200.47 47.23 202.11 48.91 C 200.10 48.72 198.18 48.05 196.96 46.35 C 196.20 46.39 194.70 46.48 193.94 46.52 C 193.95 48.25 192.96 49.17 191.25 48.96 C 190.76 48.75 189.78 48.35 189.29 48.14 C 190.46 47.55 191.62 46.93 192.77 46.28 C 192.24 44.51 190.33 43.35 188.61 42.93 C 188.40 42.54 187.98 41.75 187.76 41.35 C 188.46 39.40 188.85 37.35 187.99 35.36 Z"></path>
    <path fill="#fdfdfc" opacity="1.00" d=" M 197.94 49.85 C 199.55 49.35 200.10 49.93 199.58 51.57 C 197.96 52.05 197.42 51.48 197.94 49.85 Z"></path>
    <path fill="#fdfdfc" opacity="1.00" d=" M 201.70 63.87 C 204.42 62.61 207.73 60.32 210.72 62.11 C 212.21 62.72 213.56 63.69 214.25 65.20 C 211.84 65.36 209.43 65.50 207.01 65.59 C 205.30 64.86 203.51 64.31 201.70 63.87 Z"></path>
    <path fill="#fdfdfc" opacity="1.00" d=" M 200.67 66.30 C 204.11 65.60 207.55 66.25 210.97 66.69 C 210.88 67.15 210.70 68.06 210.61 68.52 C 211.98 69.92 213.25 71.40 214.37 73.00 C 212.36 72.01 210.52 69.40 208.04 70.65 C 204.28 71.60 202.73 75.45 201.47 78.70 C 200.41 78.75 199.35 78.79 198.29 78.83 C 198.24 77.46 198.19 76.08 198.14 74.71 C 198.53 74.73 199.31 74.77 199.70 74.79 C 198.00 74.17 197.79 72.43 199.62 71.85 C 199.09 71.02 198.55 70.18 198.02 69.35 C 198.59 69.08 199.71 68.53 200.28 68.26 C 200.38 67.77 200.57 66.79 200.67 66.30 Z"></path>
    <path fill="#fdfdfc" opacity="1.00" d=" M 226.99 67.75 C 228.04 67.75 229.10 67.75 230.16 67.76 C 230.31 68.84 230.45 69.92 230.58 71.00 C 229.16 70.19 228.02 69.00 226.99 67.75 Z"></path>
    <path fill="#fdfdfc" opacity="1.00" d=" M 235.40 66.70 C 235.77 66.81 236.51 67.01 236.89 67.12 L 237.30 67.81 C 237.75 71.54 237.67 75.31 237.68 79.07 C 234.34 81.32 230.28 80.43 226.75 79.23 C 225.84 78.50 224.94 77.76 224.08 76.99 C 224.19 76.66 224.40 75.99 224.50 75.65 C 227.28 76.57 230.31 77.01 232.75 75.03 C 232.37 74.56 231.61 73.61 231.23 73.14 L 231.94 72.09 C 232.14 71.78 232.54 71.17 232.74 70.86 C 232.78 70.07 232.87 68.49 232.92 67.70 C 233.54 67.45 234.78 66.95 235.40 66.70 Z"></path>
    <path fill="#fdfdfc" opacity="1.00" d=" M 216.36 78.97 C 216.54 76.87 216.63 74.76 216.65 72.65 C 217.03 73.96 217.47 75.26 217.87 76.56 C 218.10 81.25 217.97 86.35 215.32 90.40 C 212.73 93.30 208.34 92.96 204.87 92.30 C 201.64 91.78 198.99 89.60 197.27 86.90 C 197.83 85.78 198.99 85.38 200.09 85.02 C 202.07 88.31 206.48 89.71 209.92 88.01 C 211.77 85.94 212.72 83.26 214.17 80.93 C 214.48 80.66 215.08 80.13 215.39 79.86 C 215.63 79.64 216.12 79.19 216.36 78.97 Z"></path>
    <path fill="#fdfdfc" opacity="1.00" d=" M 206.81 77.01 C 207.57 77.07 209.07 77.21 209.83 77.27 C 210.06 77.94 210.30 78.61 210.54 79.28 C 209.40 79.81 208.27 80.35 207.15 80.88 C 207.61 80.52 208.54 79.81 209.00 79.45 C 208.45 78.84 207.36 77.62 206.81 77.01 Z"></path>
    <path fill="#fdfdfc" opacity="1.00" d=" M 219.03 90.46 C 218.96 87.43 221.36 85.76 223.73 84.44 C 225.54 85.38 227.38 86.25 229.30 86.94 L 229.86 87.14 C 234.01 88.50 238.58 88.40 242.49 90.54 C 246.27 92.21 248.95 95.76 250.03 99.68 C 250.47 103.13 251.38 106.53 251.49 110.01 C 251.30 113.79 251.03 117.56 251.28 121.35 C 246.65 121.60 242.43 123.99 237.75 124.11 C 240.98 122.67 244.55 121.70 247.18 119.21 C 247.67 118.81 248.65 118.00 249.14 117.59 C 248.12 117.64 246.07 117.74 245.05 117.79 C 243.63 116.30 242.35 114.70 241.22 112.99 C 241.30 114.44 241.36 115.90 241.42 117.36 C 240.18 116.54 238.93 115.75 237.65 115.00 C 235.11 114.51 233.07 112.87 230.80 111.76 C 228.90 111.35 226.95 111.40 225.02 111.34 C 221.31 108.80 218.29 105.45 215.45 101.99 C 215.92 100.58 216.40 99.17 216.90 97.77 C 217.05 98.17 217.36 98.96 217.51 99.36 C 217.93 100.57 218.35 101.79 218.80 102.99 C 219.63 104.55 221.38 104.45 222.90 104.65 C 221.96 101.81 221.15 98.91 221.05 95.91 C 221.94 97.01 222.81 98.13 223.58 99.32 L 224.12 100.17 C 226.43 104.45 232.60 102.65 235.50 99.87 C 234.70 97.93 232.85 97.31 230.93 97.03 L 230.22 96.54 C 229.82 96.26 229.02 95.71 228.63 95.43 C 226.02 95.69 223.40 95.68 220.79 95.58 C 221.48 94.22 222.20 92.86 222.91 91.50 C 221.61 91.15 220.32 90.81 219.03 90.46 M 235.53 91.04 C 235.50 93.36 235.64 97.58 239.02 96.96 C 238.52 94.64 237.49 92.47 235.53 91.04 Z"></path>
  </g>
  <g id="#e6b856f7">
    <path fill="#e6b856" opacity="0.97" d=" M 176.90 26.98 C 178.00 25.91 179.61 25.63 180.97 24.97 C 179.46 26.96 179.36 29.14 180.75 31.26 C 181.56 30.26 182.37 29.26 183.18 28.25 C 183.73 28.29 184.84 28.35 185.40 28.39 C 186.14 29.26 186.89 30.13 187.63 31.01 C 187.93 30.26 188.53 28.78 188.83 28.03 C 191.55 30.15 193.24 33.16 194.87 36.12 C 194.61 36.99 194.36 37.85 194.10 38.71 C 195.41 37.93 196.71 37.16 198.02 36.39 C 198.97 36.96 199.92 37.52 200.87 38.09 C 200.75 38.84 200.50 40.35 200.37 41.11 C 202.87 41.17 205.02 42.23 206.46 44.29 C 207.98 44.72 209.50 45.14 211.02 45.57 C 210.00 46.31 207.95 47.79 206.92 48.54 C 209.31 47.83 211.71 47.14 214.13 46.54 C 212.30 48.69 209.75 49.94 206.90 49.76 C 207.74 50.71 208.60 51.67 209.44 52.63 C 210.31 51.47 211.01 50.12 212.18 49.22 C 213.56 48.93 214.02 50.85 214.98 51.53 C 215.07 50.98 215.26 49.87 215.35 49.31 C 216.21 49.64 217.94 50.31 218.80 50.64 C 218.15 52.12 217.49 53.59 216.82 55.06 C 217.74 54.46 218.66 53.86 219.58 53.25 C 220.60 53.82 221.62 54.39 222.64 54.96 C 222.13 59.61 224.55 64.08 223.39 68.76 C 223.19 71.14 222.93 74.86 225.97 75.46 C 227.81 74.91 229.55 74.06 231.23 73.14 C 231.61 73.61 232.37 74.56 232.75 75.03 C 230.31 77.01 227.28 76.57 224.50 75.65 C 224.40 75.99 224.19 76.66 224.08 76.99 C 222.84 77.22 221.60 77.43 220.36 77.63 C 220.26 74.44 220.21 71.22 221.03 68.11 C 221.74 66.41 220.15 65.10 219.42 63.73 C 219.75 63.32 220.09 62.92 220.43 62.52 C 219.26 61.07 218.09 59.61 216.92 58.15 C 216.07 58.94 215.21 59.72 214.36 60.50 C 215.79 62.58 217.35 64.56 219.10 66.37 C 218.25 66.52 217.40 66.68 216.56 66.84 C 216.57 68.78 216.59 70.72 216.65 72.65 C 216.63 74.76 216.54 76.87 216.36 78.97 C 216.12 79.19 215.63 79.64 215.39 79.86 C 214.34 78.28 213.60 76.38 212.04 75.22 C 209.63 74.78 207.12 75.02 204.79 75.71 C 201.97 77.59 201.43 81.31 200.77 84.38 C 205.50 85.12 210.63 84.41 214.17 80.93 C 212.72 83.26 211.77 85.94 209.92 88.01 C 206.48 89.71 202.07 88.31 200.09 85.02 C 198.99 85.38 197.83 85.78 197.27 86.90 C 198.99 89.60 201.64 91.78 204.87 92.30 C 208.34 92.96 212.73 93.30 215.32 90.40 C 217.97 86.35 218.10 81.25 217.87 76.56 C 218.69 78.91 219.14 81.35 219.46 83.81 C 220.22 82.92 220.99 82.03 221.77 81.14 C 224.39 82.92 226.87 84.90 229.30 86.94 C 227.38 86.25 225.54 85.38 223.73 84.44 C 221.36 85.76 218.96 87.43 219.03 90.46 C 220.32 90.81 221.61 91.15 222.91 91.50 C 222.20 92.86 221.48 94.22 220.79 95.58 C 223.40 95.68 226.02 95.69 228.63 95.43 C 229.02 95.71 229.82 96.26 230.22 96.54 C 227.89 96.23 225.54 96.34 223.21 96.47 C 223.31 97.18 223.49 98.61 223.58 99.32 C 222.81 98.13 221.94 97.01 221.05 95.91 C 221.15 98.91 221.96 101.81 222.90 104.65 C 221.38 104.45 219.63 104.55 218.80 102.99 C 219.34 102.77 220.44 102.32 220.99 102.10 C 220.45 99.67 219.90 97.25 219.33 94.84 C 218.70 96.34 218.08 97.84 217.51 99.36 C 217.36 98.96 217.05 98.17 216.90 97.77 C 216.40 99.17 215.92 100.58 215.45 101.99 C 218.29 105.45 221.31 108.80 225.02 111.34 C 226.95 111.40 228.90 111.35 230.80 111.76 C 233.07 112.87 235.11 114.51 237.65 115.00 C 238.93 115.75 240.18 116.54 241.42 117.36 C 241.36 115.90 241.30 114.44 241.22 112.99 C 242.35 114.70 243.63 116.30 245.05 117.79 C 246.07 117.74 248.12 117.64 249.14 117.59 C 248.65 118.00 247.67 118.81 247.18 119.21 C 241.07 121.22 234.47 122.65 228.11 120.91 C 229.64 120.06 233.38 118.31 230.56 116.48 C 224.74 113.02 217.86 110.69 213.58 105.15 C 214.55 101.21 214.22 97.08 215.28 93.15 C 209.64 94.71 203.98 93.63 198.47 92.17 C 195.99 90.36 194.71 86.98 191.63 86.07 C 192.79 84.34 192.75 82.31 192.13 80.40 C 192.43 78.77 192.74 77.15 193.08 75.53 C 191.91 75.11 190.75 74.70 189.60 74.29 C 189.81 73.84 190.25 72.94 190.47 72.49 C 191.36 73.36 192.25 74.23 193.15 75.09 C 193.64 74.33 194.63 72.79 195.12 72.02 C 193.35 70.87 191.59 69.70 189.80 68.57 C 191.82 69.29 195.30 71.38 195.85 67.93 C 194.44 67.26 193.08 66.49 191.76 65.67 C 193.47 66.01 195.17 66.72 196.95 66.29 C 196.64 65.77 196.02 64.72 195.71 64.20 C 195.95 63.84 196.43 63.11 196.68 62.75 C 198.30 62.30 201.20 63.42 201.09 60.58 C 199.29 60.01 197.44 59.63 195.57 59.39 C 195.05 58.38 194.54 57.38 194.02 56.37 C 194.71 56.54 196.07 56.88 196.75 57.05 C 197.00 54.19 194.48 54.47 192.43 54.54 C 191.14 53.04 189.74 50.88 187.44 51.53 C 188.25 52.68 189.10 53.81 189.95 54.94 C 188.78 54.53 187.62 54.12 186.46 53.71 C 186.38 52.48 186.70 51.14 186.10 50.00 C 184.66 48.68 182.89 47.79 181.23 46.76 C 181.38 45.94 181.53 45.11 181.68 44.29 C 180.76 43.76 179.85 43.23 178.95 42.70 C 179.46 43.94 179.96 45.19 180.44 46.44 C 178.69 45.47 177.03 44.35 175.45 43.12 C 174.42 47.07 179.03 46.91 181.20 48.81 C 176.88 49.24 172.98 45.44 173.45 41.10 C 173.82 36.32 173.34 30.72 176.90 26.98 M 176.21 31.09 C 176.28 32.19 176.35 33.30 176.42 34.40 C 178.54 35.28 180.78 35.88 183.09 35.69 C 182.21 34.76 180.94 34.54 179.74 34.29 C 178.84 32.90 178.33 30.76 176.21 31.09 M 187.99 35.36 C 188.85 37.35 188.46 39.40 187.76 41.35 C 187.26 41.24 186.25 41.00 185.74 40.88 C 186.49 42.65 187.54 44.27 188.78 45.74 C 189.04 45.70 189.57 45.61 189.83 45.57 C 189.43 44.69 189.02 43.80 188.61 42.93 C 190.33 43.35 192.24 44.51 192.77 46.28 C 191.62 46.93 190.46 47.55 189.29 48.14 C 187.59 47.34 185.62 46.44 185.29 44.36 C 184.66 44.93 184.04 45.51 183.41 46.08 C 185.49 47.13 187.45 48.40 189.24 49.90 C 189.74 49.67 190.75 49.19 191.25 48.96 C 192.96 49.17 193.95 48.25 193.94 46.52 C 194.70 46.48 196.20 46.39 196.96 46.35 C 198.18 48.05 200.10 48.72 202.11 48.91 C 200.47 47.23 198.57 45.83 196.71 44.41 C 197.50 44.39 199.09 44.37 199.88 44.35 C 199.48 42.61 198.32 41.93 196.42 42.30 C 196.45 41.80 196.50 40.80 196.52 40.30 C 195.90 40.30 194.64 40.30 194.01 40.30 C 194.26 41.23 194.51 42.16 194.76 43.09 C 194.38 43.50 193.63 44.32 193.26 44.73 C 193.30 43.71 193.38 41.67 193.42 40.65 C 192.06 40.62 190.70 40.59 189.35 40.57 C 189.37 39.72 189.42 38.04 189.44 37.19 C 190.20 37.55 191.71 38.25 192.46 38.61 C 191.00 37.49 189.48 36.43 187.99 35.36 M 197.94 49.85 C 197.42 51.48 197.96 52.05 199.58 51.57 C 200.10 49.93 199.55 49.35 197.94 49.85 M 201.70 63.87 C 203.51 64.31 205.30 64.86 207.01 65.59 C 209.43 65.50 211.84 65.36 214.25 65.20 C 213.56 63.69 212.21 62.72 210.72 62.11 C 207.73 60.32 204.42 62.61 201.70 63.87 M 200.67 66.30 C 200.57 66.79 200.38 67.77 200.28 68.26 C 199.71 68.53 198.59 69.08 198.02 69.35 C 198.55 70.18 199.09 71.02 199.62 71.85 C 197.79 72.43 198.00 74.17 199.70 74.79 C 199.31 74.77 198.53 74.73 198.14 74.71 C 198.19 76.08 198.24 77.46 198.29 78.83 C 199.35 78.79 200.41 78.75 201.47 78.70 C 202.73 75.45 204.28 71.60 208.04 70.65 C 210.52 69.40 212.36 72.01 214.37 73.00 C 213.25 71.40 211.98 69.92 210.61 68.52 C 210.70 68.06 210.88 67.15 210.97 66.69 C 207.55 66.25 204.11 65.60 200.67 66.30 Z"></path>
    <path fill="#e6b856" opacity="0.97" d=" M 216.18 46.06 C 220.03 45.59 215.82 50.71 215.10 47.24 C 215.37 46.94 215.91 46.36 216.18 46.06 Z"></path>
    <path fill="#e6b856" opacity="0.97" d=" M 220.22 50.13 C 223.15 48.57 220.38 53.53 220.22 50.13 Z"></path>
    <path fill="#e6b856" opacity="0.97" d=" M 223.67 65.81 C 224.47 63.13 226.77 60.17 229.86 60.46 C 232.38 61.52 234.22 63.86 234.96 66.47 C 235.55 65.88 236.15 65.28 236.75 64.69 C 236.23 63.04 235.72 61.39 235.11 59.77 C 237.12 61.51 238.00 64.52 237.60 67.01 L 236.89 67.12 C 236.51 67.01 235.77 66.81 235.40 66.70 C 234.78 66.95 233.54 67.45 232.92 67.70 C 232.87 68.49 232.78 70.07 232.74 70.86 C 232.54 71.17 232.14 71.78 231.94 72.09 C 232.17 70.57 232.34 69.03 232.52 67.50 C 232.98 67.01 233.90 66.02 234.36 65.53 C 233.17 65.14 231.99 64.71 230.79 64.40 C 228.27 63.30 225.93 64.88 223.67 65.81 Z"></path>
    <path fill="#e6b856" opacity="0.97" d=" M 226.75 79.23 C 230.28 80.43 234.34 81.32 237.68 79.07 C 239.06 81.38 239.82 83.97 239.78 86.67 C 240.82 87.84 242.96 88.57 242.49 90.54 C 238.58 88.40 234.01 88.50 229.86 87.14 C 230.56 87.20 231.98 87.33 232.69 87.39 C 232.30 86.84 231.54 85.75 231.15 85.21 C 233.15 85.25 235.17 85.16 237.04 84.36 C 235.42 83.13 233.73 82.03 231.99 80.98 C 231.56 81.31 230.69 81.95 230.26 82.27 C 229.10 81.24 227.94 80.21 226.75 79.23 Z"></path>
    <path fill="#e6b856" opacity="0.97" d=" M 235.53 91.04 C 237.49 92.47 238.52 94.64 239.02 96.96 C 235.64 97.58 235.50 93.36 235.53 91.04 Z"></path>
    <path fill="#e6b856" opacity="0.97" d=" M 230.93 97.03 C 232.85 97.31 234.70 97.93 235.50 99.87 C 232.60 102.65 226.43 104.45 224.12 100.17 C 227.07 102.76 231.64 102.37 234.19 99.42 C 233.10 98.62 232.02 97.82 230.93 97.03 Z"></path>
    <path fill="#e6b856" opacity="0.97" d=" M 250.03 99.68 C 252.04 105.84 254.64 112.59 252.33 119.04 C 250.84 123.68 250.59 129.39 245.97 132.20 C 245.19 131.30 244.42 130.40 243.65 129.50 C 243.23 130.18 242.38 131.53 241.95 132.20 C 241.07 130.98 240.19 129.76 239.31 128.54 C 238.96 128.90 238.27 129.62 237.92 129.98 C 236.26 128.38 233.65 124.27 237.75 124.11 C 242.43 123.99 246.65 121.60 251.28 121.35 C 251.03 117.56 251.30 113.79 251.49 110.01 C 251.38 106.53 250.47 103.13 250.03 99.68 Z"></path>
    <path fill="#e6b856" opacity="0.97" d=" M 140.15 184.26 C 142.21 183.50 144.92 182.86 146.57 184.78 C 144.47 185.04 141.99 185.64 140.15 184.26 Z"></path>
  </g>
</svg>
