<?xml version="1.0" encoding="UTF-8" ?>
<!DOCTYPE svg PUBLIC "-//W3C//DTD SVG 1.1//EN" "http://www.w3.org/Graphics/SVG/1.1/DTD/svg11.dtd">
<svg width="1450pt" height="500pt" viewBox="0 0 1450 500" version="1.1" xmlns="http://www.w3.org/2000/svg">
<g id="#006cb0ff">
<path fill="#006cb0" opacity="1.00" d=" M 205.84 37.83 C 230.58 22.67 260.04 14.37 289.11 17.18 C 300.89 18.41 312.72 21.04 323.30 26.51 C 298.18 20.52 271.81 27.42 249.62 39.58 C 220.39 55.73 195.83 80.17 179.11 109.05 C 167.46 129.00 161.43 151.97 160.68 175.00 C 159.60 207.24 168.18 240.02 186.21 266.88 C 197.55 283.65 212.80 298.17 231.18 306.91 C 210.25 302.51 191.16 290.94 176.26 275.73 C 156.89 255.94 143.98 230.36 137.66 203.52 C 130.78 174.15 131.80 142.68 142.28 114.28 C 153.95 82.53 177.06 55.42 205.84 37.83 Z" />
</g>
<g id="#e28322ff">
<path fill="#e28322" opacity="1.00" d=" M 302.09 35.43 C 335.25 31.93 369.33 39.40 398.36 55.69 C 421.27 68.48 440.83 87.34 453.84 110.17 C 470.35 138.84 477.26 172.93 473.20 205.77 C 470.23 229.88 460.99 253.49 445.23 272.14 C 440.17 278.12 434.54 283.67 428.03 288.07 C 442.56 271.89 449.61 250.25 451.25 228.85 C 453.43 199.88 447.40 170.63 435.91 144.08 C 428.04 126.17 417.45 109.23 403.30 95.61 C 379.87 72.98 349.02 58.42 316.85 53.73 C 291.34 50.04 264.49 52.80 241.11 64.03 C 235.73 66.73 230.28 69.48 225.68 73.42 C 225.41 73.42 224.88 73.41 224.62 73.41 C 227.49 71.37 229.57 68.48 232.26 66.22 C 251.04 48.20 276.42 38.13 302.09 35.43 Z" />
</g>
<g id="#1c1c1aff">
<path fill="#1c1c1a" opacity="1.00" d=" M 291.26 95.32 C 295.90 93.54 301.87 94.76 304.82 98.95 C 307.72 103.07 310.50 107.31 313.96 111.01 C 319.25 116.52 325.16 122.85 325.33 130.95 C 324.36 138.15 324.64 146.10 320.27 152.29 C 316.30 157.95 308.41 160.75 301.84 158.43 C 299.15 157.59 297.42 155.28 295.86 153.09 C 291.13 146.69 286.03 140.30 283.50 132.64 C 282.10 128.60 282.22 124.27 281.44 120.12 C 280.62 115.15 279.87 109.77 282.11 105.05 C 284.03 100.99 287.18 97.31 291.26 95.32 Z" />
<path fill="#1c1c1a" opacity="1.00" d=" M 1095.32 116.02 C 1095.32 113.13 1098.50 110.97 1100.89 113.10 C 1106.60 118.04 1111.25 124.12 1116.60 129.46 C 1142.25 156.74 1168.30 183.64 1194.83 210.07 C 1210.20 225.74 1225.27 241.69 1240.45 257.55 C 1243.79 260.63 1246.36 264.69 1250.44 266.87 C 1249.69 225.91 1248.67 184.96 1247.76 144.00 C 1247.29 137.67 1247.41 130.24 1242.56 125.46 C 1236.98 120.69 1229.15 122.10 1222.43 121.36 C 1220.77 121.31 1219.81 119.36 1220.79 118.02 C 1222.22 116.79 1224.24 116.93 1226.03 116.79 C 1236.70 116.68 1247.36 117.28 1258.03 117.55 C 1268.38 117.48 1278.75 116.31 1289.10 116.99 C 1290.79 116.90 1292.57 118.69 1291.43 120.34 C 1289.70 121.97 1287.10 121.38 1284.97 121.63 C 1280.25 121.65 1274.72 122.83 1272.21 127.27 C 1269.41 132.33 1269.44 138.33 1269.17 143.95 C 1268.22 197.64 1267.30 251.34 1266.35 305.03 C 1266.17 309.35 1266.51 313.72 1265.76 318.00 C 1265.50 319.82 1263.91 321.69 1261.90 321.01 C 1258.31 320.15 1255.82 317.19 1253.22 314.80 C 1226.02 288.34 1199.59 261.09 1172.60 234.41 C 1159.10 220.90 1145.96 207.03 1133.00 193.00 C 1125.62 185.32 1118.90 176.98 1111.18 169.65 C 1112.00 203.80 1112.95 237.94 1113.83 272.09 C 1114.09 280.42 1113.99 288.80 1115.36 297.05 C 1116.26 301.82 1117.34 307.33 1121.57 310.33 C 1127.35 313.58 1134.23 312.50 1140.51 313.52 C 1143.08 314.48 1141.22 317.85 1138.97 317.65 C 1127.00 318.35 1114.99 317.30 1103.01 317.13 C 1092.31 317.33 1081.60 318.24 1070.91 317.73 C 1068.48 318.11 1066.66 314.36 1069.38 313.47 C 1075.07 312.49 1081.35 313.61 1086.59 310.69 C 1090.57 307.87 1091.06 302.53 1091.70 298.09 C 1092.80 285.76 1092.44 273.35 1092.78 260.99 C 1093.35 223.99 1093.91 186.98 1094.47 149.98 C 1094.84 138.66 1094.40 127.30 1095.32 116.02 Z" />
<path fill="#1c1c1a" opacity="1.00" d=" M 946.55 113.82 C 967.06 112.11 987.75 113.31 1008.05 116.53 C 1015.60 117.89 1023.12 119.49 1030.72 120.52 C 1033.43 120.84 1033.56 123.85 1033.10 125.96 C 1031.36 138.44 1031.77 151.05 1031.38 163.61 C 1031.20 166.13 1031.24 168.72 1030.46 171.15 C 1030.05 172.87 1027.76 173.49 1026.45 172.42 C 1025.23 170.92 1025.48 168.86 1025.28 167.07 C 1024.84 155.08 1018.35 143.21 1007.91 137.08 C 995.59 129.84 981.16 127.07 967.05 126.26 C 951.64 125.59 935.48 127.09 921.80 134.76 C 908.25 142.35 898.22 155.35 892.90 169.81 C 887.78 183.57 886.38 198.41 886.50 213.01 C 886.66 230.24 890.70 247.61 899.36 262.59 C 909.97 281.15 927.51 295.69 947.84 302.39 C 961.39 307.15 976.03 306.64 990.10 305.15 C 1000.03 303.99 1010.14 300.55 1017.18 293.15 C 1023.22 287.09 1026.95 279.05 1028.70 270.74 C 1028.75 267.94 1033.29 267.44 1033.62 270.36 C 1034.17 274.29 1033.14 278.24 1032.75 282.15 C 1031.34 291.29 1030.18 300.54 1027.47 309.40 C 1026.01 314.77 1019.88 315.98 1015.27 317.36 C 998.54 321.36 981.16 321.92 964.03 321.44 C 945.28 320.72 926.39 317.53 909.15 309.88 C 890.96 301.83 874.72 288.80 864.16 271.82 C 854.62 256.67 849.96 238.84 849.13 221.06 C 847.93 200.41 852.78 179.34 863.46 161.58 C 872.31 146.80 885.47 134.77 900.62 126.64 C 914.76 119.07 930.65 115.26 946.55 113.82 Z" />
<path fill="#1c1c1a" opacity="1.00" d=" M 238.22 114.33 C 241.99 113.81 246.24 113.23 249.59 115.50 C 257.73 120.32 261.30 129.57 265.43 137.59 C 269.63 147.23 274.50 157.31 273.59 168.12 C 273.39 173.34 269.79 177.96 265.23 180.24 C 262.32 181.27 259.12 180.82 256.14 180.37 C 251.00 179.55 247.04 175.94 242.98 172.99 C 238.44 169.66 233.58 166.28 230.83 161.23 C 226.19 151.90 224.13 141.41 224.14 131.03 C 224.10 127.27 225.36 123.56 227.42 120.43 C 229.82 116.82 234.12 115.12 238.22 114.33 Z" />
<path fill="#1c1c1a" opacity="1.00" d=" M 537.89 121.17 C 535.73 120.29 536.81 116.97 539.02 117.07 C 553.30 116.03 567.63 118.23 581.92 117.24 C 589.93 117.05 597.98 116.43 605.98 117.03 C 607.89 116.96 609.72 119.37 607.89 120.82 C 604.02 122.55 598.94 120.46 595.59 123.68 C 593.39 126.31 594.33 130.07 594.90 133.14 C 599.26 150.95 604.39 168.56 609.67 186.13 C 617.09 210.95 624.66 235.72 632.36 260.45 C 632.98 262.49 633.45 264.63 634.70 266.40 C 652.26 219.63 669.53 172.75 687.08 125.97 C 688.55 123.03 689.43 118.78 693.00 117.79 C 695.80 117.93 696.83 120.99 697.90 123.11 C 716.42 167.94 734.96 212.75 753.49 257.57 C 754.49 259.93 755.21 262.48 756.84 264.52 C 767.47 227.21 778.86 190.13 789.96 152.96 C 792.27 145.11 795.16 137.20 794.97 128.91 C 794.95 126.61 793.62 124.41 791.58 123.36 C 788.17 121.45 784.13 121.85 780.40 121.39 C 779.05 121.29 777.73 120.49 777.61 119.03 C 778.24 116.71 781.07 116.96 782.95 116.80 C 790.65 116.73 798.36 116.99 806.06 117.37 C 816.07 118.03 826.08 116.23 836.09 116.98 C 838.52 116.77 839.32 120.35 837.04 121.16 C 832.47 122.18 827.19 121.16 823.19 124.14 C 819.16 127.52 817.40 132.70 815.46 137.42 C 802.55 172.32 790.91 207.67 779.09 242.95 C 771.25 266.53 763.46 290.14 755.76 313.76 C 754.89 316.09 754.13 318.56 752.45 320.44 C 751.21 321.81 748.70 322.14 747.39 320.71 C 745.50 318.73 744.51 316.10 743.39 313.65 C 725.49 270.53 707.59 227.40 689.68 184.28 C 688.35 181.18 687.26 177.96 685.57 175.03 C 671.90 211.37 658.17 247.70 643.67 283.73 C 639.11 294.94 634.52 306.16 629.08 316.97 C 627.93 318.93 626.63 321.70 623.97 321.62 C 621.34 321.55 620.35 318.62 619.50 316.61 C 599.74 257.57 580.09 198.50 560.34 139.47 C 558.38 134.23 556.55 128.58 552.42 124.60 C 548.32 121.28 542.72 122.12 537.89 121.17 Z" />
<path fill="#1c1c1a" opacity="1.00" d=" M 359.24 134.20 C 362.76 133.14 366.55 134.48 369.58 136.31 C 375.13 140.21 379.68 145.78 381.76 152.29 C 383.69 158.03 382.22 164.08 382.08 169.96 C 381.83 175.57 380.11 181.90 374.98 184.96 C 370.19 187.46 364.81 185.22 359.86 184.60 C 353.14 183.63 345.35 181.63 341.81 175.26 C 340.01 163.06 343.53 149.96 351.56 140.53 C 353.80 138.10 356.16 135.56 359.24 134.20 Z" />
<path fill="#1c1c1a" opacity="1.00" d=" M 300.37 181.61 C 306.81 179.85 313.81 180.25 319.96 182.89 C 326.27 185.10 330.90 190.17 336.68 193.33 C 344.96 197.90 353.08 202.79 360.89 208.13 C 367.64 212.72 375.13 217.85 377.63 226.07 C 378.59 228.63 378.06 231.39 376.80 233.75 C 374.05 239.57 368.40 243.64 362.28 245.30 C 357.70 246.64 352.79 245.77 348.24 247.22 C 342.91 248.81 337.64 251.02 331.97 250.92 C 323.63 251.40 313.70 252.11 308.29 259.41 C 304.18 266.00 300.16 273.06 293.61 277.56 C 288.11 280.99 280.81 283.58 274.66 280.25 C 268.15 276.72 265.65 269.20 263.62 262.55 C 260.93 254.11 262.86 245.08 265.86 237.00 C 267.59 231.98 270.05 227.22 271.38 222.06 C 273.37 214.52 276.50 207.36 279.21 200.06 C 282.69 190.92 290.92 183.98 300.37 181.61 Z" />
<path fill="#1c1c1a" opacity="1.00" d=" M 211.44 182.57 C 216.84 181.24 221.75 184.64 226.62 186.41 C 235.15 190.27 244.50 193.95 250.34 201.65 C 253.76 207.45 255.52 214.22 255.82 220.92 C 254.67 224.63 251.32 227.07 248.54 229.55 C 244.43 232.62 239.41 235.50 234.07 234.52 C 227.22 233.38 222.23 228.11 217.53 223.43 C 213.60 219.69 211.91 214.39 209.15 209.86 C 206.14 204.31 202.61 198.52 202.78 191.99 C 203.11 187.33 207.32 184.00 211.44 182.57 Z" />
<path fill="#1c1c1a" opacity="1.00" d=" M 135.99 405.39 C 138.90 405.39 141.81 405.39 144.72 405.40 C 144.73 436.50 144.73 467.60 144.73 498.71 C 141.80 498.71 138.88 498.71 135.97 498.71 C 135.97 467.60 135.92 436.50 135.99 405.39 Z" />
<path fill="#1c1c1a" opacity="1.00" d=" M 226.46 405.41 C 229.39 405.36 232.33 405.39 235.26 405.45 C 235.12 436.56 235.39 467.67 235.13 498.78 C 232.24 498.69 229.35 498.69 226.46 498.71 C 226.46 467.60 226.46 436.51 226.46 405.41 Z" />
<path fill="#1c1c1a" opacity="1.00" d=" M 287.89 410.02 C 292.42 404.54 300.39 404.27 306.81 405.85 C 306.81 408.50 306.81 411.16 306.83 413.82 C 303.05 412.94 298.31 412.14 295.33 415.29 C 291.80 419.34 292.88 425.14 292.72 430.08 C 297.29 430.09 301.86 430.06 306.43 430.10 C 306.42 432.66 306.41 435.23 306.42 437.80 C 301.85 437.82 297.28 437.80 292.72 437.82 C 292.70 458.11 292.72 478.41 292.71 498.71 C 289.78 498.71 286.87 498.71 283.95 498.71 C 283.87 478.42 283.94 458.12 283.91 437.82 C 281.51 437.81 279.12 437.81 276.73 437.79 C 276.74 435.24 276.73 432.70 276.66 430.15 C 279.08 430.10 281.50 430.05 283.92 430.07 C 283.90 423.28 283.29 415.62 287.89 410.02 Z" />
<path fill="#1c1c1a" opacity="1.00" d=" M 1407.28 405.39 C 1410.18 405.39 1413.10 405.39 1416.03 405.40 C 1416.07 425.58 1416.02 445.77 1416.05 465.96 C 1423.77 454.01 1431.44 442.03 1439.17 430.08 C 1442.47 430.08 1445.78 430.08 1449.10 430.09 C 1443.01 439.62 1436.18 448.75 1430.50 458.51 C 1436.79 471.92 1443.42 485.20 1450.00 498.48 L 1450.00 498.68 C 1446.66 498.69 1443.33 498.71 1440.01 498.74 C 1434.72 487.95 1429.46 477.14 1424.39 466.26 C 1422.06 469.34 1419.96 472.60 1417.78 475.78 C 1416.94 477.04 1415.96 478.36 1416.06 479.97 C 1415.94 486.21 1416.11 492.46 1416.03 498.71 C 1413.10 498.71 1410.18 498.71 1407.27 498.71 C 1407.27 467.60 1407.26 436.50 1407.28 405.39 Z" />
<path fill="#1c1c1a" opacity="1.00" d=" M 107.88 405.92 C 111.06 405.91 114.25 405.91 117.43 405.92 C 117.44 409.59 117.44 413.25 117.43 416.91 C 114.25 416.92 111.06 416.92 107.88 416.91 C 107.87 413.25 107.87 409.59 107.88 405.92 Z" />
<path fill="#1c1c1a" opacity="1.00" d=" M 199.44 405.40 C 202.40 405.39 205.36 405.39 208.33 405.40 C 208.34 436.50 208.33 467.60 208.33 498.70 C 205.36 498.71 202.40 498.71 199.44 498.71 C 199.44 494.63 199.42 490.56 199.45 486.48 C 196.16 493.19 190.48 499.56 182.51 500.00 L 180.28 500.00 C 174.47 499.17 169.28 495.65 166.24 490.66 C 160.33 481.26 159.89 469.69 160.38 458.92 C 160.92 449.92 163.15 440.27 169.84 433.79 C 175.01 428.61 183.62 427.34 189.97 431.04 C 194.38 433.48 197.13 437.88 199.47 442.18 C 199.39 429.92 199.45 417.66 199.44 405.40 M 180.38 437.43 C 173.70 439.91 171.03 447.43 169.90 453.87 C 168.72 462.24 168.67 470.95 170.91 479.15 C 172.40 484.16 175.24 489.52 180.47 491.37 C 185.34 493.04 190.63 490.51 193.65 486.64 C 198.93 480.04 200.00 471.18 199.83 462.99 C 199.74 455.52 198.30 447.53 193.31 441.69 C 190.24 438.03 185.06 435.82 180.38 437.43 Z" />
<path fill="#1c1c1a" opacity="1.00" d=" M 253.76 405.93 C 256.94 405.91 260.12 405.91 263.31 405.92 C 263.32 409.59 263.32 413.25 263.31 416.91 C 260.12 416.92 256.94 416.92 253.76 416.91 C 253.74 413.25 253.74 409.59 253.76 405.93 Z" />
<path fill="#1c1c1a" opacity="1.00" d=" M 409.49 417.45 C 415.25 410.06 424.67 405.67 434.06 406.37 C 440.55 406.58 446.66 409.54 451.44 413.85 C 449.74 416.21 448.07 418.58 446.48 421.02 C 442.06 417.55 436.81 414.45 430.97 414.99 C 423.04 415.40 416.75 421.58 413.48 428.40 C 407.98 439.88 407.68 453.18 409.58 465.56 C 411.33 475.34 416.06 486.17 425.99 489.93 C 433.39 492.82 441.43 489.40 446.86 484.23 C 448.51 486.58 450.17 488.93 451.82 491.29 C 446.17 496.47 438.71 499.86 430.94 499.61 C 422.02 499.65 413.39 494.97 408.30 487.69 C 401.12 477.70 399.22 464.98 399.24 452.95 C 399.20 440.53 401.57 427.38 409.49 417.45 Z" />
<path fill="#1c1c1a" opacity="1.00" d=" M 879.23 405.93 C 882.41 405.91 885.60 405.91 888.79 405.93 C 888.79 409.58 888.79 413.25 888.79 416.91 C 885.60 416.92 882.41 416.92 879.23 416.91 C 879.22 413.25 879.22 409.59 879.23 405.93 Z" />
<path fill="#1c1c1a" opacity="1.00" d=" M 43.22 407.11 C 45.94 407.09 48.65 407.10 51.37 407.13 C 57.07 431.90 62.87 456.66 68.54 481.44 C 74.16 456.73 79.51 431.96 85.04 407.23 C 88.18 407.22 91.32 407.22 94.46 407.24 C 87.28 437.90 80.10 468.57 72.90 499.23 C 70.06 499.23 67.22 499.23 64.39 499.22 C 58.64 474.84 52.94 450.45 47.17 426.07 C 41.37 450.44 35.68 474.84 29.93 499.22 C 27.08 499.24 24.23 499.23 21.38 499.19 C 14.32 468.52 7.07 437.89 0.01 407.23 C 3.19 407.22 6.37 407.23 9.54 407.23 C 15.02 431.85 20.42 456.49 25.93 481.11 C 31.99 456.52 37.42 431.77 43.22 407.11 Z" />
<path fill="#1c1c1a" opacity="1.00" d=" M 1056.74 407.23 C 1059.69 407.22 1062.66 407.22 1065.63 407.24 C 1077.86 430.67 1090.04 454.11 1102.30 477.53 C 1102.33 454.10 1102.30 430.66 1102.32 407.23 C 1105.27 407.22 1108.23 407.22 1111.20 407.23 C 1111.21 437.72 1111.22 468.22 1111.19 498.71 C 1108.54 498.71 1105.89 498.71 1103.25 498.71 C 1092.97 479.03 1082.73 459.33 1072.47 439.64 C 1070.19 435.48 1068.30 431.10 1065.68 427.14 C 1065.55 450.99 1065.67 474.84 1065.62 498.69 C 1062.61 498.74 1059.61 498.77 1056.62 498.56 C 1056.88 468.12 1056.65 437.67 1056.74 407.23 Z" />
<path fill="#1c1c1a" opacity="1.00" d=" M 842.29 410.74 C 845.24 410.74 848.20 410.75 851.16 410.76 C 851.17 417.20 851.16 423.63 851.17 430.07 C 855.69 430.09 860.22 430.07 864.75 430.09 C 864.74 432.66 864.74 435.23 864.75 437.81 C 860.22 437.81 855.69 437.80 851.17 437.82 C 851.17 452.89 851.16 467.96 851.17 483.02 C 851.12 485.78 851.66 489.11 854.36 490.53 C 857.71 492.27 861.59 491.27 865.04 490.39 C 864.89 492.89 864.86 495.40 864.89 497.92 C 859.42 499.93 852.89 500.31 847.75 497.24 C 843.61 494.72 842.18 489.61 842.27 485.04 C 842.26 469.30 842.28 453.56 842.26 437.82 C 839.94 437.81 837.64 437.81 835.33 437.80 C 835.33 435.23 835.32 432.66 835.33 430.09 C 837.63 430.08 839.94 430.08 842.26 430.07 C 842.28 423.63 842.25 417.18 842.29 410.74 Z" />
<path fill="#1c1c1a" opacity="1.00" d=" M 1188.90 410.77 C 1191.85 410.75 1194.82 410.74 1197.80 410.74 C 1197.83 417.19 1197.79 423.63 1197.82 430.07 C 1202.34 430.09 1206.87 430.06 1211.41 430.11 C 1211.39 432.66 1211.39 435.22 1211.41 437.79 C 1206.87 437.83 1202.34 437.80 1197.82 437.82 C 1197.80 452.87 1197.81 467.92 1197.81 482.97 C 1197.79 485.61 1198.18 488.77 1200.64 490.32 C 1203.98 492.33 1208.05 491.36 1211.56 490.34 C 1211.51 492.87 1211.50 495.41 1211.50 497.95 C 1205.91 499.96 1199.20 500.34 1194.03 497.01 C 1190.12 494.40 1188.82 489.43 1188.90 484.97 C 1188.88 469.25 1188.90 453.54 1188.89 437.82 C 1186.58 437.81 1184.28 437.81 1181.99 437.81 C 1181.97 435.23 1181.97 432.66 1181.98 430.09 C 1184.27 430.08 1186.58 430.08 1188.89 430.08 C 1188.90 423.64 1188.89 417.20 1188.90 410.77 Z" />
<path fill="#1c1c1a" opacity="1.00" d=" M 319.79 438.76 C 323.48 432.98 329.97 428.68 336.99 428.92 C 343.75 428.82 350.02 432.91 353.39 438.64 C 358.77 447.42 359.37 458.08 359.19 468.12 C 346.79 468.15 334.40 468.09 322.00 468.14 C 322.50 474.44 323.80 481.03 327.94 486.03 C 331.26 490.20 336.72 492.62 342.05 491.91 C 346.56 491.52 350.35 488.83 353.74 486.06 C 355.13 488.29 356.53 490.52 357.92 492.76 C 353.64 496.40 348.52 499.01 342.96 500.00 L 337.43 500.00 C 331.73 499.41 326.21 496.90 322.31 492.65 C 316.11 486.07 313.70 476.82 313.37 467.98 C 312.98 457.96 314.18 447.33 319.79 438.76 M 329.66 439.57 C 323.87 445.06 322.49 453.46 321.93 461.06 C 331.48 461.07 341.03 461.07 350.58 461.06 C 350.20 453.50 349.13 445.07 343.48 439.49 C 339.78 435.80 333.36 435.99 329.66 439.57 Z" />
<path fill="#1c1c1a" opacity="1.00" d=" M 478.15 430.21 C 485.09 427.54 493.39 429.07 498.92 434.04 C 505.99 440.25 509.00 449.82 509.72 458.95 C 510.51 469.82 509.26 481.56 502.70 490.62 C 499.28 495.53 493.91 498.84 488.06 500.00 L 483.40 500.00 C 478.71 499.44 474.19 497.49 470.80 494.17 C 464.49 488.15 461.63 479.39 460.79 470.90 C 459.98 461.68 460.62 452.03 464.63 443.55 C 467.37 437.72 471.99 432.47 478.15 430.21 M 481.41 437.59 C 474.81 440.24 471.74 447.50 470.36 454.01 C 468.73 463.38 468.86 473.47 472.81 482.28 C 475.01 487.14 479.30 491.86 485.00 492.01 C 489.97 492.23 494.15 488.63 496.49 484.54 C 500.73 477.13 501.38 468.28 500.85 459.93 C 500.29 452.99 498.44 445.65 493.44 440.53 C 490.41 437.38 485.56 435.94 481.41 437.59 Z" />
<path fill="#1c1c1a" opacity="1.00" d=" M 544.67 429.67 C 551.79 427.51 560.54 429.83 564.52 436.43 C 568.04 441.90 568.29 448.63 568.18 454.94 C 568.14 469.53 568.21 484.12 568.14 498.71 C 565.22 498.71 562.31 498.71 559.40 498.70 C 559.39 483.83 559.41 468.95 559.39 454.07 C 559.32 449.14 558.77 443.65 555.21 439.91 C 550.73 435.41 542.66 435.87 538.28 440.29 C 534.40 444.06 533.15 449.71 533.26 454.95 C 533.34 469.49 533.14 484.03 533.37 498.57 C 530.41 498.79 527.43 498.73 524.47 498.65 C 524.54 475.80 524.47 452.94 524.50 430.08 C 527.42 430.08 530.34 430.08 533.27 430.09 C 533.27 433.46 533.28 436.84 533.23 440.22 C 535.75 435.60 539.42 431.19 544.67 429.67 Z" />
<path fill="#1c1c1a" opacity="1.00" d=" M 589.26 432.31 C 598.59 426.51 611.03 429.28 619.00 436.18 C 617.44 438.45 615.88 440.71 614.31 442.98 C 609.95 439.09 604.17 436.17 598.18 437.23 C 593.88 437.79 589.99 441.47 590.08 445.98 C 589.81 449.96 592.65 453.20 595.67 455.39 C 601.82 459.95 609.22 462.88 614.39 468.70 C 621.16 476.04 620.11 489.01 612.34 495.24 C 607.04 499.60 599.61 500.63 593.07 499.06 C 587.42 497.78 582.45 494.56 578.16 490.78 C 579.79 488.49 581.45 486.22 583.13 483.95 C 588.83 490.06 598.91 495.04 606.57 489.46 C 611.12 485.95 611.62 478.49 607.63 474.37 C 601.37 467.69 591.81 465.30 585.77 458.32 C 578.96 450.95 580.54 437.52 589.26 432.31 Z" />
<path fill="#1c1c1a" opacity="1.00" d=" M 635.85 438.78 C 639.53 433.01 645.98 428.70 653.00 428.92 C 659.76 428.79 666.04 432.87 669.43 438.58 C 674.83 447.38 675.45 458.06 675.25 468.12 C 662.86 468.15 650.47 468.09 638.08 468.14 C 638.57 476.87 641.60 487.05 650.31 490.82 C 657.09 493.87 664.68 490.80 669.82 486.07 C 671.21 488.30 672.61 490.53 674.00 492.77 C 669.70 496.41 664.58 499.02 659.01 500.00 L 653.41 500.00 C 647.76 499.37 642.28 496.90 638.41 492.68 C 632.18 486.09 629.78 476.80 629.43 467.94 C 629.06 457.94 630.26 447.34 635.85 438.78 M 645.63 439.67 C 639.92 445.16 638.58 453.50 637.99 461.05 C 647.54 461.07 657.09 461.07 666.64 461.06 C 666.26 453.48 665.20 445.00 659.49 439.44 C 655.75 435.76 649.30 436.02 645.63 439.67 Z" />
<path fill="#1c1c1a" opacity="1.00" d=" M 698.30 442.03 C 701.35 434.52 708.60 428.64 716.98 429.17 C 717.05 432.41 717.06 435.65 717.03 438.89 C 712.72 439.06 708.24 440.06 704.93 442.99 C 700.03 447.12 698.33 453.82 698.36 460.00 C 698.37 472.88 698.30 485.76 698.40 498.64 C 695.47 498.70 692.53 498.74 689.61 498.71 C 689.56 475.84 689.59 452.96 689.59 430.08 C 692.50 430.08 695.42 430.08 698.35 430.09 C 698.35 434.06 698.38 438.04 698.30 442.03 Z" />
<path fill="#1c1c1a" opacity="1.00" d=" M 783.99 434.21 C 793.00 429.34 804.55 427.10 813.97 432.13 C 820.75 435.69 823.78 443.60 823.84 450.92 C 823.92 466.85 823.86 482.78 823.87 498.71 C 820.94 498.71 818.02 498.71 815.11 498.71 C 815.09 495.63 815.09 492.55 815.14 489.48 C 812.23 494.79 807.32 499.06 801.19 500.00 L 796.24 500.00 C 792.02 499.14 787.95 497.10 785.25 493.68 C 780.31 487.71 779.56 479.34 780.94 471.97 C 782.04 465.88 786.02 460.21 791.83 457.80 C 799.30 454.59 807.78 456.03 815.26 458.48 C 815.20 453.56 815.73 448.24 813.22 443.78 C 811.39 440.35 807.75 438.17 803.96 437.66 C 797.98 436.69 792.01 438.74 786.85 441.63 C 785.89 439.15 784.94 436.68 783.99 434.21 M 794.42 465.46 C 787.98 470.52 787.76 480.66 791.45 487.42 C 795.65 494.64 806.80 493.77 811.47 487.50 C 816.72 481.43 814.93 472.98 815.28 465.65 C 808.78 463.12 800.63 461.30 794.42 465.46 Z" />
<path fill="#1c1c1a" opacity="1.00" d=" M 920.55 430.50 C 927.59 427.48 936.24 428.86 941.98 433.95 C 949.10 440.16 952.14 449.79 952.86 458.96 C 953.66 469.86 952.39 481.64 945.78 490.72 C 942.33 495.60 936.96 498.89 931.12 500.00 L 925.96 500.00 C 921.72 499.25 917.58 497.56 914.40 494.60 C 908.06 488.86 905.05 480.33 904.06 472.03 C 903.10 462.77 903.57 453.07 907.37 444.44 C 909.97 438.48 914.43 433.04 920.55 430.50 M 924.46 437.62 C 917.90 440.33 914.86 447.55 913.50 454.05 C 911.92 463.11 912.02 472.81 915.57 481.42 C 917.60 486.24 921.39 491.05 926.86 491.89 C 931.97 492.78 936.70 489.38 939.23 485.19 C 943.66 478.04 944.44 469.30 944.07 461.07 C 943.64 453.93 941.93 446.37 936.99 440.95 C 933.94 437.51 928.82 435.83 924.46 437.62 Z" />
<path fill="#1c1c1a" opacity="1.00" d=" M 983.67 431.64 C 990.60 427.10 1001.01 428.18 1006.38 434.68 C 1009.92 438.93 1011.14 444.62 1011.28 450.04 C 1011.43 466.22 1011.14 482.40 1011.43 498.58 C 1008.49 498.72 1005.56 498.72 1002.64 498.82 C 1002.33 483.21 1002.68 467.58 1002.46 451.97 C 1002.26 447.21 1001.15 441.85 997.12 438.83 C 991.99 435.21 984.22 436.47 980.39 441.41 C 976.80 445.71 976.22 451.57 976.40 456.95 C 976.35 470.91 976.56 484.87 976.30 498.82 C 973.39 498.71 970.50 498.68 967.61 498.66 C 967.70 475.80 967.62 452.94 967.65 430.09 C 970.56 430.08 973.48 430.08 976.41 430.08 C 976.41 433.46 976.43 436.85 976.37 440.23 C 978.27 436.97 980.42 433.70 983.67 431.64 Z" />
<path fill="#1c1c1a" opacity="1.00" d=" M 1133.47 438.57 C 1137.25 432.74 1143.90 428.51 1151.01 428.93 C 1157.46 429.00 1163.40 432.88 1166.72 438.29 C 1172.30 447.12 1172.92 457.95 1172.73 468.11 C 1160.34 468.15 1147.95 468.10 1135.56 468.13 C 1136.04 474.31 1137.29 480.76 1141.25 485.73 C 1144.44 489.92 1149.75 492.48 1155.05 491.97 C 1159.76 491.73 1163.76 488.94 1167.32 486.09 C 1168.70 488.32 1170.09 490.55 1171.48 492.79 C 1167.09 496.46 1161.88 499.14 1156.19 500.00 L 1150.20 500.00 C 1145.17 499.14 1140.25 497.07 1136.61 493.41 C 1129.87 486.83 1127.26 477.15 1126.92 467.98 C 1126.53 457.89 1127.75 447.16 1133.47 438.57 M 1142.86 439.90 C 1137.36 445.43 1136.05 453.61 1135.47 461.06 C 1145.02 461.07 1154.57 461.07 1164.13 461.06 C 1163.75 453.59 1162.70 445.29 1157.23 439.69 C 1153.44 435.68 1146.58 435.95 1142.86 439.90 Z" />
<path fill="#1c1c1a" opacity="1.00" d=" M 1321.20 430.21 C 1328.13 427.54 1336.44 429.06 1341.98 434.03 C 1349.03 440.23 1352.05 449.78 1352.77 458.90 C 1353.58 469.79 1352.32 481.56 1345.75 490.65 C 1342.31 495.55 1336.93 498.87 1331.07 500.00 L 1325.88 500.00 C 1321.42 499.23 1317.10 497.36 1313.86 494.17 C 1307.58 488.17 1304.70 479.46 1303.87 471.00 C 1303.04 461.80 1303.66 452.17 1307.62 443.69 C 1310.36 437.81 1314.99 432.50 1321.20 430.21 M 1324.43 437.60 C 1317.89 440.25 1314.83 447.43 1313.45 453.90 C 1311.79 463.25 1311.91 473.33 1315.81 482.14 C 1317.99 487.04 1322.26 491.81 1327.99 492.01 C 1332.95 492.27 1337.16 488.69 1339.51 484.61 C 1343.78 477.23 1344.43 468.37 1343.92 460.03 C 1343.36 453.06 1341.52 445.68 1336.51 440.54 C 1333.47 437.37 1328.59 435.94 1324.43 437.60 Z" />
<path fill="#1c1c1a" opacity="1.00" d=" M 1376.28 442.07 C 1379.28 434.52 1386.56 428.67 1394.94 429.15 C 1395.02 432.39 1395.04 435.64 1395.01 438.89 C 1389.76 438.99 1384.27 440.75 1380.92 445.00 C 1376.78 449.98 1376.13 456.76 1376.32 462.98 C 1376.29 474.92 1376.44 486.86 1376.24 498.79 C 1373.33 498.71 1370.43 498.69 1367.54 498.66 C 1367.60 475.80 1367.53 452.94 1367.57 430.09 C 1370.48 430.08 1373.40 430.08 1376.33 430.09 C 1376.32 434.08 1376.36 438.07 1376.28 442.07 Z" />
<path fill="#1c1c1a" opacity="1.00" d=" M 108.27 430.09 C 111.19 430.08 114.11 430.08 117.04 430.09 C 117.04 452.96 117.05 475.83 117.03 498.71 C 114.11 498.71 111.19 498.71 108.27 498.71 C 108.27 475.83 108.27 452.96 108.27 430.09 Z" />
<path fill="#1c1c1a" opacity="1.00" d=" M 254.15 430.09 C 257.07 430.08 259.99 430.08 262.91 430.08 C 262.92 452.96 262.93 475.84 262.91 498.71 C 259.99 498.71 257.07 498.71 254.15 498.71 C 254.14 475.83 254.15 452.96 254.15 430.09 Z" />
<path fill="#1c1c1a" opacity="1.00" d=" M 724.85 430.09 C 727.90 430.08 730.95 430.08 734.01 430.09 C 739.12 448.56 743.92 467.12 749.19 485.54 C 754.39 467.09 759.45 448.60 764.53 430.12 C 767.51 430.08 770.49 430.06 773.47 430.09 C 766.73 453.09 759.98 476.10 753.21 499.11 C 750.50 499.10 747.80 499.10 745.11 499.10 C 738.34 476.10 731.59 453.09 724.85 430.09 Z" />
<path fill="#1c1c1a" opacity="1.00" d=" M 879.63 430.09 C 882.54 430.08 885.46 430.08 888.39 430.08 C 888.41 452.95 888.37 475.82 888.41 498.68 C 885.49 498.69 882.58 498.71 879.68 498.77 C 879.56 475.87 879.65 452.98 879.63 430.09 Z" />
<path fill="#1c1c1a" opacity="1.00" d=" M 1220.90 430.09 C 1223.94 430.07 1226.99 430.08 1230.05 430.09 C 1234.02 448.03 1237.92 466.00 1241.91 483.94 C 1246.21 466.03 1250.29 448.06 1254.44 430.12 C 1256.97 430.08 1259.51 430.07 1262.06 430.08 C 1265.29 444.11 1268.50 458.15 1271.73 472.19 C 1272.74 475.89 1273.08 479.79 1274.62 483.34 C 1278.66 465.61 1282.61 447.86 1286.58 430.11 C 1289.51 430.08 1292.44 430.07 1295.38 430.09 C 1289.86 453.09 1284.32 476.09 1278.79 499.09 C 1275.99 499.15 1273.19 499.14 1270.41 498.95 C 1266.50 481.52 1262.31 464.14 1258.19 446.76 C 1253.76 464.13 1249.93 481.66 1245.74 499.10 C 1243.07 499.08 1240.40 499.10 1237.76 499.19 C 1231.92 476.21 1226.54 453.11 1220.90 430.09 Z" />
</g>
<g id="#7aae2fff">
<path fill="#7aae2f" opacity="1.00" d=" M 434.30 187.77 C 436.27 197.40 438.34 207.10 438.32 216.98 C 438.73 246.25 427.28 274.72 409.82 297.87 C 388.35 326.30 357.53 347.91 322.98 357.02 C 271.23 370.74 213.04 353.31 176.41 314.51 C 163.96 301.29 154.13 285.47 148.59 268.13 C 146.18 260.47 144.32 252.54 144.23 244.47 C 150.87 268.65 169.01 287.93 189.60 301.33 C 218.46 319.91 252.73 329.85 287.00 330.32 C 314.18 330.79 341.05 322.32 364.05 308.09 C 390.91 291.47 413.25 266.89 425.32 237.54 C 431.91 221.84 434.65 204.75 434.30 187.77 Z" />
</g>
</svg>
