<?xml version="1.0" encoding="UTF-8"?>
<!-- Creator: CorelDRAW X7 -->
<svg xmlns="http://www.w3.org/2000/svg" xmlns:xlink="http://www.w3.org/1999/xlink" xml:space="preserve" width="2480px" height="945px" version="1.1" style="shape-rendering:geometricPrecision; text-rendering:geometricPrecision; image-rendering:optimizeQuality; fill-rule:evenodd; clip-rule:evenodd" viewBox="0 0 2480 945">
 <defs>
  <style type="text/css">
   <![CDATA[
    .fil1 {fill:#0C1214}
    .fil0 {fill:#30BFCC}
   ]]>
  </style>
 </defs>
 <g id="Layer_x0020_1">
  <metadata id="CorelCorpID_0Corel-Layer"></metadata>
  <g id="_1847540799440">
   <g id="__x0023_ffffffff">
   </g>
   <g id="__x0023_30bfccff">
    <g>
     <path class="fil0" d="M818 124c42,-53 106,-88 174,-88 23,-1 45,1 68,5 -11,25 -22,50 -32,76 51,-44 116,-71 184,-71 38,-1 75,9 111,21 1,38 0,76 0,114 -39,-33 -96,-50 -146,-35 -58,11 -108,55 -127,111 -36,87 2,200 89,241 70,36 163,13 210,-49 -2,-24 -7,-48 -7,-73 0,-106 0,-212 0,-318 34,-5 68,-5 101,-11 2,117 0,234 1,350 2,39 11,83 43,108 31,24 73,24 109,17 34,-6 60,-35 69,-68 12,-48 9,-99 9,-149 0,-82 0,-165 1,-247 33,-5 68,-5 101,-11 4,49 -4,99 4,147 4,-38 18,-77 47,-103 52,-50 132,-60 199,-39 41,11 75,37 105,66 -19,23 -40,45 -60,68 -28,-25 -61,-49 -101,-53 -33,-4 -72,11 -86,43 -7,25 -4,55 19,70 53,34 122,30 175,66 43,26 73,76 70,128 4,64 -38,125 -95,153 -53,27 -115,28 -173,22 -57,-7 -107,-39 -148,-78 -32,40 -79,67 -130,74 -75,12 -162,-6 -212,-68 -61,54 -147,82 -228,66 -130,-23 -236,-149 -231,-282 -2,-66 24,-131 66,-180 -55,-8 -119,6 -154,52 -34,43 -41,99 -46,151 -3,83 -1,166 -1,249 -33,6 -66,10 -99,11 -1,-19 -1,-37 -2,-55 -42,39 -99,64 -157,62 -66,2 -137,-24 -175,-80 -40,-64 -42,-149 -7,-216 25,-47 72,-82 124,-94 70,-14 147,-4 203,43 -2,-35 4,-75 -21,-103 -28,-29 -71,-32 -110,-31 -55,0 -107,20 -157,39 11,-35 16,-71 26,-106 88,-21 184,-39 271,-3 54,23 82,80 88,136 12,-27 20,-55 38,-78l0 0zm960 88c-2,59 0,119 -1,178 -2,31 8,63 31,85 58,55 160,65 220,8 29,-25 21,-78 -16,-92 -65,-28 -145,-31 -198,-86 -25,-24 -30,-60 -36,-93l0 0zm-1253 101c-50,8 -94,53 -91,105 -3,51 39,98 89,104 40,4 85,4 120,-19 42,-25 58,-83 37,-126 -24,-59 -98,-77 -155,-64z"></path>
    </g>
   </g>
   <g id="__x0023_0c1214ff">
    <g>
     <path class="fil1" d="M548 662c62,-42 160,-20 190,51 19,52 15,117 -23,159 -53,54 -156,49 -198,-15 -17,-21 -20,-48 -24,-74 -36,0 -71,0 -107,0 0,40 0,80 0,120 -11,0 -22,0 -34,0 1,-85 1,-170 0,-256 55,0 109,0 163,0 0,10 0,20 0,31 -43,0 -86,0 -129,0 0,25 0,50 0,76 36,0 71,-1 107,0 8,-35 22,-72 55,-92l0 0zm50 9c-20,5 -39,17 -50,35 -26,43 -25,102 4,144 27,35 81,42 118,20 28,-18 40,-52 43,-83 2,-35 -5,-75 -33,-99 -22,-19 -54,-23 -82,-17z"></path>
    </g>
    <g>
     <path class="fil1" d="M1761 643c43,-8 89,4 120,35 43,47 44,122 14,175 -44,72 -162,75 -210,8 -27,-35 -29,-83 -22,-125 9,-48 51,-85 98,-93l0 0zm0 28c-29,8 -51,33 -60,61 -10,40 -7,88 20,121 32,39 98,40 132,2 32,-41 36,-104 8,-148 -20,-34 -64,-45 -100,-36z"></path>
    </g>
    <g>
     <path class="fil1" d="M759 647c11,0 22,0 34,0 -1,54 -1,108 -1,162 0,19 2,41 18,55 27,27 77,20 98,-11 9,-15 9,-34 9,-51 0,-52 0,-104 0,-155 12,0 25,-1 37,2 44,65 89,130 132,196 0,-66 1,-132 0,-197 42,1 84,-3 126,2 53,9 86,65 83,116 3,44 -9,95 -49,120 -47,28 -104,14 -156,17 -46,-69 -92,-137 -138,-205 -1,48 4,96 -3,144 -13,61 -89,81 -141,58 -26,-12 -48,-37 -48,-66 -2,-63 0,-125 -1,-187l0 0zm362 31c2,65 0,130 1,196 33,-2 69,4 100,-11 33,-17 37,-57 41,-90 -5,-28 -7,-63 -34,-81 -32,-21 -72,-13 -108,-14z"></path>
    </g>
    <g>
     <path class="fil1" d="M1366 648c12,0 23,0 35,0 32,84 61,170 94,255 -12,0 -25,0 -37,0 -9,-26 -17,-52 -27,-78 -33,0 -66,-1 -99,0 -8,26 -17,52 -27,78 -12,0 -24,0 -36,0 32,-85 64,-170 97,-255l0 0zm-22 148c26,0 52,0 77,0 -15,-35 -25,-72 -38,-108 -11,37 -26,72 -39,108z"></path>
    </g>
    <path class="fil1" d="M1428 648c62,-1 123,0 185,-1 0,10 0,21 0,31 -25,0 -49,0 -74,0 0,62 0,125 0,188 0,12 0,25 -4,38 -7,0 -23,-1 -31,-1 0,-75 0,-150 0,-225 -25,0 -50,0 -76,0 0,-10 0,-20 0,-30z"></path>
    <path class="fil1" d="M1922 648c11,0 21,0 32,0 47,68 93,136 139,205 -2,-68 2,-136 -3,-205 11,0 22,0 32,0 0,85 0,170 0,255 -10,0 -21,0 -31,0 -46,-70 -93,-139 -140,-208 2,69 3,139 2,208 -10,0 -20,0 -31,0 0,-85 1,-170 0,-255z"></path>
    <path class="fil1" d="M1619 904c-1,-86 -1,-171 0,-257 11,0 23,1 34,1 0,84 -1,167 1,251 -12,3 -23,5 -35,5z"></path>
   </g>
  </g>
 </g>
</svg>
