<?xml version="1.0" encoding="UTF-8" ?>
<!DOCTYPE svg PUBLIC "-//W3C//DTD SVG 1.1//EN" "http://www.w3.org/Graphics/SVG/1.1/DTD/svg11.dtd">
<svg width="1853pt" height="393pt" viewBox="0 0 1853 393" version="1.1" xmlns="http://www.w3.org/2000/svg">
<g id="#d00d14ff">
<path fill="#d00d14" opacity="1.00" d=" M 5.07 5.89 L 5.07 5.89 C 89.88 48.35 174.73 90.71 259.54 133.16 C 240.64 133.44 221.72 133.17 202.81 133.30 C 136.83 100.50 70.93 67.47 5.05 34.45 C 5.03 24.93 4.99 15.41 5.07 5.89 Z" />
<path fill="#d00d14" opacity="1.00" d=" M 348.38 5.83 C 361.02 5.64 373.67 5.85 386.32 5.72 L 386.73 6.11 C 386.73 133.15 386.71 260.18 386.74 387.22 L 386.37 387.53 C 373.71 387.44 361.04 387.55 348.38 387.48 C 348.36 336.68 348.40 285.89 348.37 235.09 C 233.94 234.88 119.50 235.21 5.07 234.92 C 5.01 209.46 5.03 184.00 5.06 158.54 C 119.48 158.40 233.92 158.56 348.34 158.46 C 348.41 107.58 348.33 56.71 348.38 5.83 Z" />
<path fill="#d00d14" opacity="1.00" d=" M 259.29 260.31 C 278.35 260.23 297.42 260.26 316.49 260.30 C 231.73 302.72 146.94 345.07 62.18 387.48 C 43.13 387.51 24.08 387.53 5.03 387.47 C 89.74 345.01 174.53 302.68 259.29 260.31 Z" />
</g>
<g id="#ffffffff">
<path fill="#ffffff" opacity="1.00" d=" M 5.07 5.89 C 33.42 5.85 61.76 5.89 90.10 5.87 C 167.67 44.84 245.35 83.59 323.01 122.37 C 323.00 83.53 323.07 44.70 322.97 5.86 C 331.44 5.86 339.91 5.93 348.38 5.83 C 348.33 56.71 348.41 107.58 348.34 158.46 C 233.92 158.56 119.48 158.40 5.06 158.54 C 4.94 150.13 5.01 141.71 5.02 133.30 C 61.48 133.28 117.95 133.37 174.41 133.25 C 118.01 104.90 61.52 76.71 5.03 48.53 C 4.98 43.84 4.97 39.14 5.05 34.45 C 70.93 67.47 136.83 100.50 202.81 133.30 C 221.72 133.17 240.64 133.44 259.54 133.16 C 174.73 90.71 89.88 48.35 5.07 5.89 Z" />
<path fill="#ffffff" opacity="1.00" d=" M 5.07 234.92 C 119.50 235.21 233.94 234.88 348.37 235.09 C 348.40 285.89 348.36 336.68 348.38 387.48 C 339.92 387.50 331.45 387.53 322.98 387.47 C 323.06 348.66 323.02 309.85 323.00 271.05 C 245.43 309.85 167.81 348.57 90.28 387.45 C 80.92 387.56 71.54 387.49 62.18 387.48 C 146.94 345.07 231.73 302.72 316.49 260.30 C 297.42 260.26 278.35 260.23 259.29 260.31 C 174.53 302.68 89.74 345.01 5.03 387.47 C 4.98 373.30 4.99 359.13 5.03 344.96 C 61.45 316.69 117.95 288.58 174.34 260.24 C 117.90 260.17 61.46 260.25 5.02 260.20 C 5.02 251.77 4.93 243.34 5.07 234.92 Z" />
</g>
<g id="#03305cff">
<path fill="#03305c" opacity="1.00" d=" M 90.10 5.87 C 132.40 5.60 174.71 5.83 217.01 5.75 C 252.33 5.83 287.67 5.61 322.97 5.86 C 323.07 44.70 323.00 83.53 323.01 122.37 C 245.35 83.59 167.67 44.84 90.10 5.87 Z" />
<path fill="#03305c" opacity="1.00" d=" M 5.03 48.53 C 61.52 76.71 118.01 104.90 174.41 133.25 C 117.95 133.37 61.48 133.28 5.02 133.30 C 5.01 105.04 4.98 76.78 5.03 48.53 Z" />
<path fill="#03305c" opacity="1.00" d=" M 5.02 260.20 C 61.46 260.25 117.90 260.17 174.34 260.24 C 117.95 288.58 61.45 316.69 5.03 344.96 C 4.99 316.71 5.01 288.45 5.02 260.20 Z" />
<path fill="#03305c" opacity="1.00" d=" M 90.28 387.45 C 167.81 348.57 245.43 309.85 323.00 271.05 C 323.02 309.85 323.06 348.66 322.98 387.47 C 245.42 387.51 167.85 387.55 90.28 387.45 Z" />
</g>
<g id="#000000ff">
<path fill="#000000" opacity="1.00" d=" M 430.14 5.90 C 902.34 5.86 1374.54 5.85 1846.74 5.91 C 1846.76 12.02 1846.74 18.13 1846.75 24.25 C 1374.55 24.24 902.34 24.29 430.14 24.23 C 430.11 18.12 430.11 12.01 430.14 5.90 Z" />
<path fill="#000000" opacity="1.00" d=" M 680.44 52.58 C 694.33 49.68 709.29 52.21 721.38 59.68 C 735.56 68.30 745.61 82.75 750.35 98.51 C 755.70 116.33 755.12 135.97 748.41 153.36 C 742.84 167.74 732.60 180.56 718.95 187.98 C 704.50 195.95 686.49 197.05 671.18 190.90 C 658.79 186.05 648.46 176.70 641.50 165.47 C 632.01 150.20 628.53 131.63 630.41 113.86 C 632.08 97.68 638.61 81.77 649.89 69.91 C 658.03 61.25 668.75 54.95 680.44 52.58 M 686.48 87.70 C 680.54 89.08 675.26 92.69 671.50 97.44 C 661.18 110.56 660.35 130.02 668.48 144.42 C 673.18 152.80 682.08 159.35 691.95 159.14 C 701.06 159.31 709.46 153.71 714.27 146.22 C 723.73 131.53 723.10 110.59 711.96 96.95 C 706.00 89.53 695.87 85.41 686.48 87.70 Z" />
<path fill="#000000" opacity="1.00" d=" M 1415.57 60.63 C 1424.55 53.31 1436.58 50.74 1447.96 51.54 C 1459.71 52.35 1471.38 55.59 1481.65 61.43 C 1482.18 73.64 1481.73 86.01 1481.87 98.29 C 1472.51 92.09 1462.09 87.32 1451.04 85.12 C 1446.87 84.39 1442.38 83.76 1438.37 85.49 C 1433.65 87.55 1432.91 94.36 1435.88 98.16 C 1438.32 101.01 1442.09 102.06 1445.48 103.36 C 1456.47 107.12 1467.83 111.34 1476.36 119.54 C 1482.63 125.33 1486.39 133.50 1487.44 141.92 C 1488.84 153.04 1487.45 164.89 1481.71 174.68 C 1477.25 182.41 1469.97 188.35 1461.66 191.50 C 1452.27 195.13 1441.92 195.49 1432.05 194.07 C 1422.31 192.64 1412.67 189.78 1404.13 184.83 C 1404.10 172.42 1404.13 160.01 1404.12 147.61 C 1413.68 154.08 1424.47 158.89 1435.85 161.09 C 1440.38 161.91 1445.35 162.57 1449.67 160.49 C 1456.07 157.28 1455.97 146.62 1449.60 143.42 C 1442.31 139.61 1434.12 137.96 1426.76 134.30 C 1418.05 130.35 1409.67 124.54 1405.10 115.91 C 1400.54 107.39 1399.95 97.35 1401.08 87.92 C 1402.38 77.49 1407.25 67.26 1415.57 60.63 Z" />
<path fill="#000000" opacity="1.00" d=" M 1003.08 53.46 C 1014.82 53.58 1026.57 53.42 1038.32 53.54 C 1046.85 82.60 1055.70 111.57 1063.67 140.79 C 1063.86 140.82 1064.24 140.86 1064.43 140.89 C 1072.69 111.61 1081.92 82.61 1090.77 53.51 C 1102.12 53.49 1113.47 53.47 1124.81 53.52 C 1110.08 99.92 1095.21 146.27 1080.50 192.67 C 1069.41 192.87 1058.31 192.68 1047.23 192.76 C 1033.81 150.86 1020.49 108.92 1007.10 67.00 C 1005.85 62.48 1003.87 58.05 1003.08 53.46 Z" />
<path fill="#000000" opacity="1.00" d=" M 1157.18 53.49 C 1182.27 53.54 1207.37 53.44 1232.46 53.54 C 1232.56 64.57 1232.45 75.62 1232.52 86.65 L 1232.22 87.12 C 1218.11 87.15 1204.01 87.09 1189.91 87.14 C 1190.08 92.93 1189.39 99.09 1190.26 104.65 C 1202.13 104.59 1214.00 104.61 1225.87 104.64 C 1225.88 115.16 1225.89 125.69 1225.86 136.22 C 1213.91 136.30 1201.96 136.23 1190.02 136.25 C 1189.70 143.84 1189.94 151.49 1189.90 159.09 C 1204.72 159.17 1219.54 159.09 1234.35 159.13 C 1234.24 170.32 1234.70 181.71 1234.12 192.77 C 1208.38 192.73 1182.64 192.78 1156.90 192.74 C 1156.84 149.50 1156.89 106.26 1156.87 63.01 C 1157.09 59.87 1156.43 56.46 1157.18 53.49 Z" />
<path fill="#000000" opacity="1.00" d=" M 430.13 53.52 C 444.39 53.55 458.66 53.34 472.92 53.65 C 484.81 54.20 497.74 55.74 507.11 63.82 C 516.85 71.92 519.96 86.06 516.59 97.98 C 514.69 104.73 509.66 110.26 503.59 113.61 C 502.74 114.40 500.67 114.49 500.52 115.68 C 508.99 119.01 516.55 125.41 519.88 134.05 C 523.33 142.92 523.41 152.92 521.16 162.10 C 518.75 172.15 511.72 180.83 502.58 185.58 C 492.34 191.10 480.49 192.53 469.03 192.76 C 456.06 192.74 443.10 192.77 430.14 192.75 C 430.09 146.34 430.13 99.93 430.13 53.52 M 463.26 85.15 C 463.24 93.09 463.28 101.02 463.24 108.96 C 468.13 108.88 473.20 109.56 477.93 107.97 C 487.26 105.05 487.21 88.97 477.75 86.24 C 473.05 84.93 468.09 85.15 463.26 85.15 M 463.26 161.13 C 469.94 161.00 476.89 161.52 483.29 159.24 C 487.42 157.72 489.57 153.19 489.52 148.99 C 489.88 144.42 488.47 139.16 484.21 136.81 C 477.85 133.31 470.34 134.90 463.43 134.45 C 463.03 143.30 463.36 152.24 463.26 161.13 Z" />
<path fill="#000000" opacity="1.00" d=" M 558.52 53.52 C 569.53 53.46 580.55 53.53 591.56 53.48 C 591.70 99.89 591.59 146.31 591.62 192.73 C 580.64 192.81 569.67 192.69 558.70 192.79 C 558.23 181.28 558.63 169.59 558.50 158.02 C 558.51 123.19 558.47 88.35 558.52 53.52 Z" />
<path fill="#000000" opacity="1.00" d=" M 792.22 53.71 C 803.70 53.22 815.38 53.63 826.95 53.50 C 844.12 53.77 862.41 56.08 876.58 66.61 C 890.68 77.04 897.53 94.57 899.28 111.54 C 901.04 129.41 899.36 148.44 890.22 164.25 C 884.08 175.08 873.81 183.29 862.10 187.40 C 850.57 191.60 838.19 192.68 826.00 192.76 C 814.75 192.74 803.51 192.78 792.26 192.74 C 792.20 146.39 792.30 100.05 792.22 53.71 M 825.38 87.16 C 825.37 111.07 825.40 134.98 825.37 158.88 C 835.13 159.47 845.76 158.53 854.39 153.40 C 864.06 147.20 866.83 134.80 866.75 124.03 C 867.01 113.31 864.67 101.24 855.91 94.13 C 847.31 87.48 835.79 87.07 825.38 87.16 Z" />
<path fill="#000000" opacity="1.00" d=" M 937.77 53.53 C 948.68 53.42 959.59 53.59 970.50 53.44 C 971.09 61.17 970.58 69.15 970.75 76.97 C 970.74 115.56 970.78 154.15 970.73 192.74 C 959.74 192.77 948.75 192.74 937.76 192.75 C 937.75 146.34 937.72 99.94 937.77 53.53 Z" />
<path fill="#000000" opacity="1.00" d=" M 1273.10 53.52 C 1287.07 53.47 1301.05 53.50 1315.02 53.50 C 1326.00 53.71 1337.54 54.93 1347.05 60.90 C 1355.73 66.07 1361.77 75.09 1363.80 84.93 C 1365.77 94.54 1365.52 104.79 1362.19 114.07 C 1359.01 122.91 1352.16 130.14 1343.82 134.33 C 1354.01 153.82 1364.34 173.25 1374.52 192.76 C 1362.05 192.75 1349.59 192.76 1337.12 192.75 C 1328.27 175.23 1320.09 157.27 1311.05 139.90 C 1309.44 139.83 1307.85 139.90 1306.26 139.88 C 1306.23 157.50 1306.27 175.12 1306.25 192.74 C 1295.21 192.76 1284.18 192.75 1273.15 192.75 C 1273.07 146.34 1273.17 99.93 1273.10 53.52 M 1306.26 85.15 C 1306.26 94.35 1306.23 103.54 1306.27 112.73 C 1312.77 112.58 1319.64 113.43 1325.77 110.75 C 1330.17 108.73 1332.09 103.62 1331.89 99.02 C 1332.16 94.16 1329.92 88.72 1325.11 86.87 C 1319.11 84.62 1312.54 85.23 1306.26 85.15 Z" />
<path fill="#000000" opacity="1.00" d=" M 1524.77 53.53 C 1535.80 53.47 1546.84 53.49 1557.87 53.52 C 1557.87 99.93 1557.91 146.34 1557.85 192.74 C 1546.84 192.77 1535.83 192.74 1524.83 192.76 C 1524.66 146.36 1524.76 99.94 1524.77 53.53 Z" />
<path fill="#000000" opacity="1.00" d=" M 1592.01 53.51 C 1620.33 53.47 1648.65 53.51 1676.98 53.50 C 1684.21 53.69 1691.71 53.11 1698.78 53.79 C 1698.71 64.89 1698.78 75.98 1698.75 87.08 C 1686.47 87.19 1674.19 87.07 1661.91 87.14 C 1661.82 122.34 1661.93 157.54 1661.86 192.75 C 1650.87 192.76 1639.88 192.76 1628.89 192.74 C 1628.84 157.54 1628.90 122.34 1628.86 87.14 C 1616.58 87.10 1604.30 87.15 1592.02 87.11 C 1591.97 75.91 1592.00 64.71 1592.01 53.51 Z" />
<path fill="#000000" opacity="1.00" d=" M 1723.99 53.49 C 1736.77 53.49 1749.55 53.52 1762.34 53.47 C 1770.13 67.90 1778.18 82.21 1785.50 96.89 C 1785.72 96.84 1786.18 96.74 1786.40 96.69 C 1793.60 82.17 1801.53 68.02 1809.10 53.68 C 1821.61 53.28 1834.26 53.56 1846.83 53.55 C 1831.97 79.04 1816.71 104.34 1802.00 129.91 C 1801.97 150.86 1802.05 171.81 1801.96 192.76 C 1790.96 192.74 1779.96 192.77 1768.96 192.75 C 1768.69 171.94 1769.07 151.10 1768.77 130.31 C 1753.88 104.69 1738.61 79.24 1723.99 53.49 Z" />
<path fill="#000000" opacity="1.00" d=" M 446.99 251.01 C 464.07 235.81 490.68 234.61 510.40 245.22 C 510.60 250.08 510.49 254.96 510.46 259.82 C 499.72 252.14 485.73 248.71 472.75 251.62 C 464.77 253.38 457.41 257.82 452.23 264.15 C 439.11 279.94 440.53 306.14 456.25 319.69 C 471.70 333.10 496.57 331.96 512.00 319.08 C 511.96 324.00 512.06 328.93 511.96 333.85 C 501.01 340.54 487.62 342.50 475.01 341.07 C 460.80 339.46 447.18 331.88 439.08 319.98 C 424.58 299.21 427.81 267.82 446.99 251.01 Z" />
<path fill="#000000" opacity="1.00" d=" M 1131.19 258.16 C 1139.41 247.14 1152.52 240.28 1166.09 238.75 C 1179.20 237.25 1193.27 239.47 1204.40 246.77 C 1204.35 251.73 1204.41 256.70 1204.37 261.66 C 1188.93 248.83 1164.21 246.08 1148.10 259.17 C 1130.13 273.40 1129.44 303.51 1146.03 319.07 C 1158.66 331.10 1178.97 332.43 1194.22 324.83 C 1194.27 317.11 1194.26 309.38 1194.22 301.66 C 1186.73 301.39 1179.09 302.00 1171.72 301.36 C 1171.78 297.58 1171.69 293.79 1171.77 290.01 C 1183.67 289.98 1195.58 290.00 1207.48 290.00 C 1207.54 303.72 1207.47 317.43 1207.52 331.15 C 1203.30 334.67 1197.84 336.69 1192.64 338.46 C 1177.42 343.22 1160.05 342.78 1145.98 334.80 C 1134.47 328.46 1125.89 317.20 1122.63 304.50 C 1118.55 288.84 1121.22 271.13 1131.19 258.16 Z" />
<path fill="#000000" opacity="1.00" d=" M 1789.50 246.55 C 1795.72 240.63 1804.55 238.47 1812.94 238.29 C 1822.44 238.23 1832.14 239.97 1840.61 244.43 C 1841.56 245.01 1843.28 245.38 1842.88 246.93 C 1842.87 251.19 1842.87 255.46 1842.88 259.74 C 1835.19 254.49 1826.13 251.36 1816.88 250.55 C 1811.14 250.23 1804.91 250.65 1800.13 254.15 C 1792.70 259.42 1792.94 272.41 1800.96 277.03 C 1809.16 281.92 1818.96 282.70 1827.69 286.35 C 1835.31 289.19 1842.91 294.19 1845.75 302.20 C 1849.12 311.92 1847.70 323.76 1840.64 331.54 C 1834.45 338.40 1824.97 341.20 1815.99 341.50 C 1804.84 341.77 1793.50 339.28 1783.80 333.72 C 1783.68 328.87 1783.73 324.00 1783.78 319.15 C 1792.22 325.39 1802.57 328.96 1813.05 329.38 C 1818.37 329.47 1824.03 328.64 1828.45 325.45 C 1836.37 319.94 1836.49 306.11 1827.96 301.08 C 1818.65 295.52 1807.37 294.97 1797.69 290.22 C 1791.08 287.31 1785.04 282.14 1782.92 275.04 C 1780.07 265.34 1781.86 253.64 1789.50 246.55 Z" />
<path fill="#000000" opacity="1.00" d=" M 538.78 239.90 C 543.17 239.85 547.58 239.86 551.98 239.90 C 552.03 253.93 551.98 267.96 552.01 281.99 C 570.13 282.01 588.24 282.01 606.36 281.99 C 606.38 268.07 606.40 254.15 606.35 240.23 C 610.51 239.57 615.37 239.76 619.64 240.14 C 619.62 273.41 619.59 306.68 619.65 339.94 C 615.22 340.03 610.77 340.04 606.34 339.94 C 606.41 324.63 606.37 309.32 606.37 294.01 C 588.25 293.99 570.13 294.00 552.01 294.01 C 551.97 309.34 552.03 324.66 551.99 339.99 C 547.58 340.00 543.17 340.02 538.76 339.98 C 538.74 306.62 538.72 273.26 538.78 239.90 Z" />
<path fill="#000000" opacity="1.00" d=" M 681.35 240.15 C 685.47 239.50 689.83 240.06 694.04 239.87 C 708.20 273.05 721.72 306.63 735.56 339.99 C 730.79 339.97 726.01 340.09 721.25 339.93 C 717.58 330.65 713.87 321.38 710.12 312.14 C 695.14 312.11 680.17 312.13 665.20 312.13 C 661.37 321.40 657.67 330.71 653.86 339.98 C 649.34 340.02 644.83 339.99 640.32 339.99 C 653.92 306.68 667.73 273.45 681.35 240.15 M 687.45 255.54 C 682.08 270.72 675.66 285.50 669.83 300.50 C 681.71 300.48 693.59 300.53 705.47 300.48 C 699.82 285.74 693.81 271.15 688.34 256.35 C 688.12 256.15 687.68 255.75 687.45 255.54 Z" />
<path fill="#000000" opacity="1.00" d=" M 756.26 239.87 C 760.63 240.15 765.41 239.33 769.53 240.28 C 769.48 269.52 769.48 298.75 769.53 327.99 C 785.31 328.03 801.10 327.96 816.88 328.03 C 816.87 332.01 816.88 335.99 816.88 339.98 C 796.66 340.01 776.45 340.03 756.24 339.96 C 756.26 306.60 756.23 273.24 756.26 239.87 Z" />
<path fill="#000000" opacity="1.00" d=" M 840.91 239.90 C 845.30 239.86 849.70 239.85 854.10 239.90 C 854.16 269.26 854.10 298.62 854.13 327.98 C 869.87 328.03 885.61 327.98 901.36 328.01 C 901.39 332.00 901.40 335.99 901.36 339.99 C 881.20 340.01 861.05 340.01 840.90 339.98 C 840.86 306.62 840.85 273.26 840.91 239.90 Z" />
<path fill="#000000" opacity="1.00" d=" M 925.49 240.16 L 925.93 239.86 C 945.07 239.90 964.21 239.84 983.35 239.90 C 983.40 243.89 983.39 247.88 983.36 251.87 C 968.50 251.91 953.64 251.83 938.78 251.91 C 938.73 261.97 938.73 272.03 938.78 282.09 C 951.81 282.17 964.84 282.09 977.87 282.13 C 977.87 286.00 977.90 289.87 977.85 293.75 C 964.83 293.78 951.80 293.71 938.78 293.78 C 938.73 305.18 938.74 316.59 938.78 327.99 C 954.07 328.06 969.36 327.91 984.65 328.06 C 984.60 332.02 984.61 335.99 984.65 339.96 C 964.92 339.96 945.16 340.16 925.45 339.86 C 925.56 306.63 925.47 273.39 925.49 240.16 Z" />
<path fill="#000000" opacity="1.00" d=" M 1010.65 239.89 C 1014.81 239.86 1018.98 239.86 1023.15 239.89 C 1043.03 266.11 1063.02 292.30 1082.48 318.85 C 1082.09 292.53 1082.28 266.20 1082.26 239.87 C 1086.53 239.90 1090.81 239.84 1095.10 239.90 C 1095.15 273.26 1095.13 306.62 1095.11 339.98 C 1090.84 339.86 1086.44 340.32 1082.26 339.75 C 1062.70 313.42 1042.57 287.52 1023.27 261.00 C 1023.64 287.29 1023.43 313.60 1023.54 339.90 C 1019.24 340.12 1014.93 339.95 1010.63 339.99 C 1010.62 306.62 1010.58 273.26 1010.65 239.89 Z" />
<path fill="#000000" opacity="1.00" d=" M 1236.90 239.90 C 1256.22 239.86 1275.54 239.85 1294.86 239.91 C 1294.89 243.89 1294.88 247.88 1294.87 251.87 C 1279.96 251.91 1265.05 251.83 1250.14 251.91 C 1250.11 261.97 1250.11 272.03 1250.14 282.09 C 1263.17 282.17 1276.20 282.08 1289.24 282.13 C 1289.27 286.00 1289.25 289.87 1289.25 293.74 C 1276.21 293.79 1263.17 293.71 1250.14 293.78 C 1250.11 305.18 1250.13 316.58 1250.13 327.98 C 1265.45 328.04 1280.78 327.96 1296.10 328.02 C 1296.14 332.00 1296.13 335.99 1296.11 339.98 C 1276.37 340.01 1256.63 340.02 1236.89 339.98 C 1236.87 306.62 1236.85 273.26 1236.90 239.90 Z" />
<path fill="#000000" opacity="1.00" d=" M 1364.49 240.17 C 1367.80 239.45 1371.56 240.09 1375.05 239.87 C 1391.28 239.87 1407.51 239.89 1423.74 239.86 C 1423.75 243.86 1423.75 247.86 1423.75 251.86 C 1408.42 251.93 1393.10 251.83 1377.78 251.90 C 1377.73 262.59 1377.74 273.29 1377.78 283.98 C 1391.26 284.04 1404.75 283.96 1418.24 284.02 C 1418.28 287.81 1418.22 291.60 1418.27 295.39 C 1404.87 295.96 1391.26 295.42 1377.78 295.65 C 1377.72 310.42 1377.76 325.19 1377.76 339.96 C 1373.44 340.04 1369.12 339.98 1364.81 340.00 L 1364.46 339.62 C 1364.55 306.47 1364.48 273.32 1364.49 240.17 Z" />
<path fill="#000000" opacity="1.00" d=" M 1449.26 239.89 C 1453.61 240.14 1458.43 239.32 1462.53 240.29 C 1462.47 256.87 1462.52 273.46 1462.50 290.04 C 1462.57 298.76 1462.33 307.87 1465.79 316.06 C 1468.90 323.25 1476.28 327.76 1483.87 328.77 C 1493.12 330.14 1503.96 328.87 1510.53 321.51 C 1516.77 314.60 1516.95 304.71 1517.24 295.93 C 1517.26 277.27 1517.23 258.61 1517.25 239.95 C 1521.52 239.79 1525.81 239.89 1530.10 239.90 C 1530.16 256.94 1530.10 273.97 1530.13 291.01 C 1529.97 300.37 1530.02 309.99 1526.90 318.95 C 1524.37 326.28 1518.98 332.52 1512.17 336.21 C 1502.74 341.39 1491.50 342.40 1480.99 340.90 C 1471.18 339.43 1461.49 334.53 1455.96 326.06 C 1450.41 317.52 1449.52 307.01 1449.25 297.08 C 1449.25 278.02 1449.23 258.95 1449.26 239.89 Z" />
<path fill="#000000" opacity="1.00" d=" M 1560.26 239.87 C 1564.45 239.92 1568.66 239.78 1572.87 239.94 C 1592.60 266.18 1612.55 292.28 1632.03 318.69 C 1631.77 292.44 1631.88 266.16 1631.90 239.89 C 1636.11 240.06 1640.57 239.47 1644.64 240.18 C 1644.63 273.43 1644.58 306.67 1644.66 339.92 C 1640.48 340.09 1636.29 339.97 1632.12 339.98 C 1612.33 313.67 1592.28 287.53 1572.80 260.98 C 1573.24 287.31 1573.13 313.65 1573.10 339.98 C 1568.81 340.00 1564.51 340.04 1560.23 339.96 C 1560.27 306.60 1560.22 273.24 1560.26 239.87 Z" />
<path fill="#000000" opacity="1.00" d=" M 1675.90 239.90 C 1686.27 239.84 1696.65 239.90 1707.02 239.87 C 1721.09 240.13 1735.94 243.67 1746.42 253.61 C 1765.69 271.29 1766.25 304.60 1748.63 323.60 C 1740.56 332.57 1728.82 337.38 1717.04 338.93 C 1703.40 340.78 1689.60 339.73 1675.90 339.98 C 1675.86 306.62 1675.85 273.26 1675.90 239.90 M 1689.14 251.91 C 1689.10 277.27 1689.14 302.62 1689.13 327.98 C 1703.37 327.85 1718.90 329.41 1731.58 321.56 C 1747.61 311.72 1752.31 289.09 1744.22 272.68 C 1740.06 263.95 1732.11 257.19 1722.87 254.40 C 1711.96 250.96 1700.39 252.03 1689.14 251.91 Z" />
<path fill="#000000" opacity="1.00" d=" M 430.26 369.27 C 902.42 369.23 1374.58 369.24 1846.74 369.26 C 1846.75 375.34 1846.77 381.42 1846.73 387.49 C 1374.58 387.51 902.43 387.50 430.28 387.50 C 430.22 381.42 430.24 375.34 430.26 369.27 Z" />
</g>
</svg>
