<?xml version="1.0" encoding="UTF-8"?>
<svg xmlns="http://www.w3.org/2000/svg" width="948pt" height="1130pt" viewBox="0 0 948 1130" version="1.1">
  <g id="#000000ff">
    <path fill="#000000" opacity="1.00" d=" M 293.00 131.98 C 302.23 130.14 311.68 130.62 321.03 130.74 C 336.81 131.63 352.25 135.70 367.04 141.13 C 390.08 149.63 411.60 161.70 432.36 174.71 C 443.25 181.20 452.57 189.86 462.46 197.70 C 478.82 211.29 495.41 224.59 511.98 237.92 C 524.23 247.70 536.37 257.66 549.01 266.95 C 564.37 278.86 578.93 291.77 593.46 304.68 C 604.66 315.06 616.58 325.08 624.67 338.23 C 642.12 365.45 656.69 394.42 670.26 423.74 C 684.19 454.02 696.38 485.15 706.10 517.05 C 711.54 535.08 715.26 553.57 718.96 572.03 C 723.30 593.54 727.73 615.07 730.53 636.85 C 730.78 639.49 731.11 642.79 728.73 644.63 C 726.47 646.33 724.00 644.02 723.14 641.97 C 717.13 628.30 708.79 615.84 700.37 603.56 C 680.14 574.36 657.24 547.02 632.19 521.83 C 610.33 499.98 589.27 477.32 569.34 453.69 C 557.46 439.45 545.88 424.91 535.74 409.36 C 529.98 400.48 524.54 391.18 521.65 380.92 C 521.17 377.93 519.94 374.34 521.58 371.57 C 523.85 369.69 526.03 372.12 526.76 374.23 C 533.09 388.84 541.43 402.48 550.62 415.45 C 570.27 443.27 593.55 468.28 617.64 492.27 C 640.18 514.49 662.44 537.07 686.53 557.64 C 687.95 558.58 690.09 560.46 691.48 558.48 C 692.04 556.42 691.15 554.34 690.74 552.34 C 682.08 519.24 671.38 486.69 659.45 454.63 C 647.70 423.52 634.64 392.77 617.88 363.99 C 607.90 347.28 596.79 330.86 581.93 318.07 C 541.52 282.74 500.41 248.20 458.88 214.19 C 440.94 199.04 421.76 185.38 401.62 173.32 C 388.57 165.57 375.43 157.73 361.09 152.57 C 347.00 147.35 331.81 146.72 316.96 146.22 C 291.73 147.06 265.78 149.72 242.69 160.63 C 227.37 167.90 211.61 175.34 199.60 187.63 C 195.89 191.12 192.23 196.19 186.47 195.51 C 186.52 193.02 186.94 190.49 188.30 188.35 C 193.22 179.81 201.05 173.45 209.00 167.86 C 220.76 159.69 233.99 154.02 246.84 147.83 C 261.63 141.01 276.82 134.57 293.00 131.98 Z"></path>
    <path fill="#000000" opacity="1.00" d=" M 246.48 175.35 C 254.47 173.12 262.70 171.46 271.01 171.31 C 274.53 171.39 278.85 171.79 280.99 175.00 C 281.66 177.14 279.46 178.22 277.82 178.83 C 271.75 181.22 265.12 179.81 258.96 178.58 C 254.78 177.61 250.40 177.21 246.48 175.35 Z"></path>
    <path fill="#000000" opacity="1.00" d=" M 251.29 186.02 C 254.21 181.62 263.04 180.08 265.30 186.03 C 266.33 193.06 262.21 200.87 255.40 203.41 C 250.54 205.18 245.45 208.72 240.11 206.90 C 235.41 204.48 232.12 198.40 234.18 193.23 C 236.09 189.24 240.37 187.29 244.28 185.81 C 244.82 188.60 244.71 191.90 246.95 193.99 C 248.35 195.28 250.94 195.80 252.39 194.33 C 253.84 191.59 251.69 188.76 251.29 186.02 Z"></path>
    <path fill="#000000" opacity="1.00" d=" M 271.98 185.89 C 273.81 182.53 277.53 186.02 278.34 188.43 C 280.62 195.08 276.22 201.36 271.83 205.93 C 268.65 208.91 265.62 212.81 260.96 213.26 C 260.50 208.24 265.00 205.12 266.87 200.93 C 269.57 196.28 270.17 190.85 271.98 185.89 Z"></path>
    <path fill="#000000" opacity="1.00" d=" M 159.54 212.51 C 164.30 207.87 169.47 203.18 175.93 201.13 C 180.53 199.49 185.43 201.28 189.42 203.63 C 194.23 206.34 187.87 213.62 192.98 216.09 C 197.98 216.07 202.62 213.59 207.59 213.45 C 210.71 214.22 209.75 218.52 210.97 220.87 C 216.08 223.77 222.31 222.89 227.54 225.45 C 230.65 226.93 233.86 228.29 236.66 230.32 C 237.78 232.48 237.59 235.01 237.83 237.36 C 233.93 235.70 230.51 233.17 226.77 231.22 C 219.91 227.96 212.08 233.00 205.28 229.80 C 201.38 228.04 202.28 223.17 201.16 219.80 C 200.88 219.62 200.31 219.26 200.02 219.08 C 194.46 221.64 188.09 222.13 182.25 220.16 C 182.23 219.39 182.18 217.84 182.16 217.07 C 177.05 217.91 172.01 219.62 167.93 222.90 C 158.35 230.39 150.90 240.21 144.23 250.29 C 140.81 255.79 136.97 261.29 135.71 267.76 C 135.03 271.18 132.77 273.93 130.60 276.54 C 126.90 273.56 126.77 268.42 127.71 264.13 C 129.48 256.02 133.22 248.47 137.42 241.36 C 143.65 230.93 151.00 221.16 159.54 212.51 Z"></path>
    <path fill="#000000" opacity="1.00" d=" M 491.92 201.50 C 573.42 201.50 654.92 201.49 736.42 201.51 C 736.41 307.74 736.43 413.97 736.41 520.21 C 732.67 517.98 729.00 515.65 725.31 513.37 C 725.17 413.14 725.29 312.90 725.25 212.67 C 669.82 212.66 614.39 212.67 558.96 212.67 C 541.33 212.56 523.68 212.88 506.06 212.52 C 501.01 209.36 496.69 205.09 491.92 201.50 Z"></path>
    <path fill="#000000" opacity="1.00" d=" M 180.75 242.79 C 185.03 238.77 189.82 234.31 196.00 233.96 C 201.95 233.74 207.37 236.62 213.04 237.95 C 217.66 239.18 222.48 238.58 227.20 239.00 C 222.80 241.37 217.85 242.62 212.94 243.34 C 208.61 244.28 205.40 239.53 201.06 240.62 C 194.39 242.68 189.80 248.36 184.01 251.96 C 179.90 254.45 176.67 258.05 173.07 261.17 C 170.63 263.51 167.04 263.18 163.93 263.49 C 159.44 263.62 155.18 265.25 150.75 265.79 C 151.36 264.74 151.86 263.47 153.18 263.17 C 157.71 261.34 162.91 260.94 166.82 257.76 C 172.22 253.53 175.76 247.46 180.75 242.79 Z"></path>
    <path fill="#000000" opacity="1.00" d=" M 236.76 253.70 C 237.83 252.53 239.44 252.19 240.87 251.63 C 240.48 256.00 239.08 260.20 237.07 264.09 C 235.41 267.20 234.59 270.78 232.35 273.56 C 229.32 276.83 224.92 278.90 222.90 283.04 C 223.50 289.01 225.16 294.94 227.61 300.42 C 229.73 306.21 237.58 307.52 238.76 313.87 C 239.34 321.61 239.33 329.44 238.34 337.15 C 237.02 337.80 236.41 336.24 235.66 335.49 C 228.87 326.84 225.95 316.02 220.10 306.82 C 216.72 301.17 212.95 295.72 210.15 289.75 C 209.26 287.80 208.36 285.45 209.52 283.41 C 210.97 280.37 212.54 277.31 214.81 274.79 C 218.05 271.19 222.94 269.72 226.29 266.26 C 230.10 262.34 232.94 257.60 236.76 253.70 Z"></path>
    <path fill="#000000" opacity="1.00" d=" M 186.12 273.86 C 192.70 273.00 199.39 272.08 205.39 269.08 C 207.35 269.08 206.37 271.72 206.72 272.96 C 206.73 276.37 206.60 281.29 202.65 282.53 C 194.58 284.50 186.20 283.41 178.00 283.30 C 169.07 283.16 160.33 281.04 151.91 278.21 C 147.60 276.65 143.00 277.47 138.59 277.96 C 139.18 274.52 142.42 272.58 145.47 271.56 C 148.64 270.76 151.94 271.42 155.15 271.61 C 161.14 272.19 167.19 271.88 173.15 272.80 C 177.45 273.37 181.77 274.38 186.12 273.86 Z"></path>
    <path fill="#000000" opacity="1.00" d=" M 284.34 293.10 C 287.03 290.72 289.76 294.27 288.66 297.01 C 287.04 304.60 282.77 311.32 278.96 317.99 C 269.15 333.49 260.34 350.38 258.49 368.91 C 257.75 376.76 258.53 384.90 261.86 392.12 C 264.48 397.86 266.13 403.98 268.40 409.86 C 279.06 438.37 292.98 465.70 310.14 490.86 C 328.34 517.72 350.26 541.94 374.23 563.76 C 378.62 567.75 382.14 572.65 386.90 576.24 C 394.16 581.87 402.73 585.42 411.15 588.93 C 429.01 596.17 447.44 601.87 465.97 607.13 C 478.19 610.37 490.41 613.95 503.00 615.44 C 519.01 615.80 534.71 619.49 549.98 624.07 C 552.24 624.75 555.03 625.61 555.67 628.23 C 557.09 633.58 556.09 639.14 555.88 644.59 C 551.06 642.99 547.23 639.50 542.64 637.46 C 537.05 634.89 530.83 634.52 524.84 633.60 C 508.58 631.35 492.39 628.61 476.15 626.23 C 468.82 625.12 461.41 624.03 454.46 621.34 C 428.54 610.76 398.03 614.22 373.96 627.99 C 371.38 629.65 368.27 631.14 366.95 634.10 C 367.55 636.46 369.26 638.35 371.18 639.77 C 377.13 644.40 384.45 647.60 388.62 654.18 C 386.60 654.83 384.45 655.43 382.41 654.52 C 374.30 651.70 366.69 647.64 359.11 643.66 C 354.81 645.33 349.55 646.97 347.74 651.70 C 346.80 655.36 347.26 659.21 347.15 662.96 C 347.21 667.49 347.17 672.31 349.43 676.39 C 351.00 679.30 354.45 680.13 356.83 682.17 C 358.22 683.48 358.21 685.54 358.65 687.28 C 350.20 685.11 342.02 682.04 333.63 679.66 C 330.61 678.73 326.81 677.99 325.57 674.64 C 322.45 667.30 320.92 659.40 319.48 651.60 C 317.91 643.63 323.41 636.76 327.59 630.57 C 329.97 627.75 331.75 623.65 335.69 622.83 C 346.27 620.46 356.30 616.26 366.44 612.52 C 375.64 608.90 384.98 605.63 394.05 601.69 C 380.10 595.31 368.50 584.97 357.65 574.32 C 350.65 567.33 343.64 560.30 337.55 552.49 C 330.02 541.66 323.49 530.08 314.90 520.02 C 310.92 515.35 306.01 511.56 302.24 506.71 C 297.47 500.64 293.68 493.89 289.37 487.50 C 278.82 471.62 269.05 455.15 261.29 437.70 C 250.32 413.40 243.74 386.82 244.66 360.04 C 244.97 353.34 245.12 346.62 245.51 339.93 C 246.31 330.50 252.19 322.18 259.66 316.70 C 262.98 314.25 267.03 312.95 270.15 310.21 C 275.77 305.29 279.78 298.92 284.34 293.10 Z"></path>
    <path fill="#000000" opacity="1.00" d=" M 170.50 298.93 C 174.19 299.52 177.93 299.82 181.67 299.97 C 181.67 457.23 181.66 614.49 181.67 771.75 C 263.19 771.75 344.71 771.74 426.22 771.76 C 423.29 759.38 428.83 746.97 436.28 737.32 C 450.48 718.72 470.59 705.65 491.42 695.54 C 517.69 681.50 542.71 665.25 567.56 648.87 C 565.35 647.36 562.40 646.42 561.12 643.92 C 559.32 638.17 562.02 632.18 565.84 627.92 C 576.64 633.40 587.81 639.13 600.07 640.23 C 609.73 640.72 619.55 638.02 627.60 632.65 C 631.09 630.45 634.12 627.30 638.31 626.45 C 637.31 633.27 633.42 639.79 627.45 643.37 C 617.63 649.62 606.02 651.75 595.10 655.28 C 593.74 655.64 592.59 656.51 591.94 657.77 C 587.65 665.19 580.90 671.54 572.44 673.73 C 554.42 681.06 536.89 689.60 519.66 698.63 C 508.72 704.59 497.42 710.63 488.95 719.98 C 487.39 721.99 484.86 724.76 486.66 727.38 C 489.15 731.14 492.17 734.53 494.62 738.34 C 497.76 743.19 501.48 748.08 502.14 754.01 C 502.32 755.55 502.02 758.08 499.99 758.15 C 494.94 758.18 491.08 754.44 487.20 751.72 C 482.23 748.15 475.94 745.05 469.69 746.69 C 465.30 748.05 464.01 752.97 462.98 756.91 C 461.84 762.17 459.60 767.11 456.89 771.74 C 460.51 771.75 464.13 771.75 467.75 771.74 C 469.23 766.31 469.42 758.88 475.09 756.06 C 484.31 757.61 492.70 762.21 501.31 765.71 C 504.73 767.23 508.67 768.30 510.83 771.64 C 582.30 771.89 653.77 771.68 725.25 771.75 C 725.26 744.71 725.25 717.67 725.25 690.63 C 728.96 690.56 732.68 690.57 736.41 690.63 C 736.42 721.39 736.41 752.15 736.42 782.92 C 547.77 782.91 359.13 782.93 170.49 782.91 C 170.50 621.58 170.50 460.26 170.50 298.93 Z"></path>
    <path fill="#000000" opacity="1.00" d=" M 715.79 533.28 C 725.69 536.95 734.92 542.24 744.63 546.40 C 752.99 549.81 760.12 555.43 767.68 560.25 C 777.61 566.70 787.67 573.20 798.89 577.22 C 804.63 579.69 811.07 581.86 814.88 587.16 C 817.71 590.89 820.72 595.04 820.74 599.93 C 820.96 603.46 819.04 606.55 817.94 609.78 C 816.49 613.68 815.81 617.92 813.48 621.45 C 810.46 626.39 806.12 630.88 805.32 636.85 C 804.72 639.24 805.03 642.21 803.04 644.03 C 798.91 647.59 792.89 648.99 790.07 654.00 C 787.83 657.46 787.91 662.07 785.23 665.23 C 780.24 668.72 773.66 667.80 767.91 667.60 C 764.28 667.59 760.19 665.56 756.98 668.07 C 753.65 670.23 749.93 671.86 745.94 672.21 C 741.22 672.90 736.67 670.98 731.97 671.04 C 723.06 670.85 713.99 672.02 705.26 669.64 C 699.98 668.33 694.53 666.31 690.86 662.09 C 680.96 651.06 671.78 639.04 659.52 630.46 C 654.78 627.02 648.93 625.46 643.13 625.28 C 632.78 625.13 622.37 625.16 612.14 626.85 C 609.82 626.94 606.88 628.29 605.31 625.86 C 607.62 623.73 610.92 623.61 613.86 623.16 C 623.51 622.08 632.87 619.29 641.96 615.93 C 648.52 613.56 655.05 610.86 662.02 609.96 C 670.53 608.69 679.17 610.25 687.40 612.44 C 692.98 614.15 698.90 615.93 703.08 620.27 C 701.44 620.76 699.82 621.31 698.12 621.51 C 687.41 622.68 676.65 623.45 665.95 624.74 C 675.78 635.64 686.03 646.20 696.52 656.48 C 698.93 659.16 702.40 660.34 705.87 660.94 C 700.76 653.18 695.43 645.55 689.78 638.18 C 688.14 635.88 685.81 633.92 685.05 631.13 C 686.67 630.12 688.50 631.37 690.08 631.91 C 695.01 633.94 698.32 638.27 702.02 641.89 C 708.22 648.05 714.35 654.29 720.58 660.43 C 724.17 664.36 729.86 661.03 734.27 662.78 C 739.25 664.11 745.51 667.56 749.96 663.31 C 747.98 658.09 743.22 654.77 740.64 649.95 C 739.39 646.48 743.95 647.49 745.67 648.43 C 750.38 649.78 752.93 655.15 757.98 655.52 C 763.44 656.17 768.99 657.82 774.50 656.61 C 781.28 654.73 783.35 645.59 780.18 639.92 C 776.54 634.02 771.16 629.35 765.39 625.60 C 757.87 620.55 750.19 615.49 743.91 608.92 C 743.90 608.46 743.89 607.53 743.88 607.07 C 748.04 607.50 751.68 609.81 755.29 611.74 C 763.51 616.71 770.83 623.02 779.08 627.93 C 782.53 629.89 785.84 632.51 789.89 633.04 C 793.85 630.46 795.11 625.15 796.55 620.87 C 797.96 617.45 794.01 615.87 791.88 614.18 C 772.40 601.51 752.40 589.67 733.06 576.79 C 730.40 575.28 729.05 571.41 730.76 568.79 C 733.57 566.98 736.91 569.13 739.39 570.62 C 754.50 580.50 769.35 590.80 784.72 600.28 C 789.16 602.89 793.49 605.77 798.28 607.73 C 799.45 608.42 800.53 607.10 801.53 606.61 C 804.05 604.90 806.06 602.55 807.70 600.00 C 791.51 591.67 776.03 582.04 760.61 572.38 C 748.25 564.52 735.90 556.61 724.00 548.07 C 718.71 544.92 718.71 538.13 715.79 533.28 Z"></path>
    <path fill="#000000" opacity="1.00" d=" M 251.53 607.93 C 251.61 598.40 254.85 589.15 258.66 580.51 C 267.88 583.91 277.06 587.46 286.46 590.35 C 290.20 591.46 294.00 592.77 297.97 592.44 C 297.26 590.95 296.55 589.48 295.83 588.01 C 298.87 587.89 301.97 587.48 304.97 588.16 C 306.71 588.63 307.34 590.52 308.17 591.92 C 311.97 599.85 316.27 607.56 321.18 614.86 C 322.74 617.20 324.54 619.43 325.69 622.03 C 323.88 626.14 320.47 629.24 318.10 633.02 C 315.64 636.48 314.15 640.48 312.84 644.49 C 304.17 638.47 296.08 631.65 287.61 625.36 C 282.94 622.01 278.65 617.61 272.85 616.35 C 266.50 615.05 260.00 614.60 253.67 613.19 C 251.33 612.82 251.94 609.66 251.53 607.93 Z"></path>
    <path fill="#000000" opacity="1.00" d=" M 741.29 624.26 C 745.57 624.84 749.20 627.30 752.98 629.22 C 758.65 632.28 764.36 635.48 769.16 639.85 C 770.28 641.01 771.82 642.26 771.65 644.08 C 768.66 645.45 764.71 646.16 761.99 643.87 C 755.97 639.71 750.06 635.34 744.67 630.39 C 742.82 628.82 741.87 626.55 741.29 624.26 Z"></path>
    <path fill="#000000" opacity="1.00" d=" M 357.12 648.88 C 371.93 659.56 390.63 663.04 405.39 673.77 C 419.55 686.12 433.68 698.55 447.14 711.67 C 435.62 719.56 428.13 731.60 421.16 743.39 C 413.12 736.95 405.22 730.34 397.29 723.78 C 392.13 718.99 385.20 717.05 379.02 714.01 C 374.80 711.86 369.32 710.61 367.17 705.91 C 366.39 704.06 365.40 701.64 366.83 699.87 C 369.12 696.67 373.62 696.87 376.45 694.44 C 378.39 692.61 377.24 689.82 376.05 687.94 C 372.64 682.67 367.46 678.68 361.72 676.24 C 356.06 673.87 351.96 668.14 351.40 662.08 C 352.07 657.25 354.85 653.09 357.12 648.88 Z"></path>
    <path fill="#000000" opacity="1.00" d=" M 170.67 801.92 C 182.13 802.03 193.60 801.62 205.05 802.30 C 216.52 803.17 228.64 805.79 237.46 813.67 C 246.48 821.71 250.21 834.19 250.02 845.98 C 250.13 857.09 246.74 868.73 238.60 876.62 C 230.28 884.82 218.37 887.84 207.06 888.89 C 194.95 889.78 182.80 889.14 170.67 889.33 C 170.66 860.19 170.66 831.06 170.67 801.92 M 195.00 822.96 C 195.00 838.10 194.99 853.24 195.01 868.38 C 202.52 868.15 210.56 868.15 217.24 864.23 C 222.86 860.93 225.30 854.23 225.57 848.01 C 226.06 840.72 224.39 832.40 218.15 827.85 C 211.48 823.07 202.85 823.19 195.00 822.96 Z"></path>
    <path fill="#000000" opacity="1.00" d=" M 295.46 802.09 C 303.54 801.90 311.62 802.02 319.70 802.02 C 331.20 831.13 342.78 860.22 354.30 889.33 C 345.44 889.34 336.58 889.32 327.72 889.34 C 325.69 883.34 323.72 877.33 321.70 871.34 C 311.96 871.33 302.23 871.33 292.49 871.34 C 290.40 877.34 288.33 883.34 286.22 889.33 C 277.82 889.34 269.41 889.30 261.01 889.36 C 272.34 860.21 284.13 831.24 295.46 802.09 M 299.00 853.00 C 304.47 853.00 309.95 853.00 315.43 853.00 C 312.61 844.90 309.91 836.75 307.40 828.56 C 304.65 836.72 301.98 844.91 299.00 853.00 Z"></path>
    <path fill="#000000" opacity="1.00" d=" M 373.00 802.00 C 383.34 802.00 393.67 802.00 404.01 802.00 C 413.16 802.06 422.88 803.10 430.58 808.49 C 444.13 817.54 444.23 840.61 430.69 849.71 C 428.92 850.95 426.99 851.92 425.10 852.95 C 432.63 865.08 440.18 877.19 447.69 889.33 C 438.48 889.34 429.26 889.33 420.05 889.33 C 413.65 878.31 407.42 867.19 400.90 856.24 C 399.70 856.27 398.51 856.32 397.33 856.37 C 397.33 867.36 397.34 878.34 397.33 889.33 C 389.22 889.33 381.11 889.33 373.00 889.33 C 373.00 860.22 373.00 831.11 373.00 802.00 M 397.34 821.83 C 397.33 827.67 397.33 833.50 397.34 839.35 C 402.21 839.21 407.34 839.80 411.97 837.96 C 417.88 835.51 417.80 825.48 411.85 823.13 C 407.25 821.30 402.17 821.95 397.34 821.83 Z"></path>
    <path fill="#000000" opacity="1.00" d=" M 457.95 802.00 C 466.50 802.00 475.05 801.98 483.60 802.02 C 488.30 819.92 493.27 837.75 497.71 855.72 C 502.49 837.74 507.81 819.90 512.91 802.00 C 518.89 802.00 524.87 801.99 530.86 802.00 C 535.82 819.90 541.03 837.73 545.69 855.71 C 550.40 837.75 555.57 819.92 560.50 802.03 C 568.73 801.97 576.97 802.01 585.21 802.01 C 576.51 831.12 567.80 860.22 559.10 889.33 C 550.47 889.33 541.84 889.34 533.22 889.32 C 529.16 874.69 524.95 860.10 521.24 845.38 C 517.37 860.09 513.17 874.71 508.98 889.33 C 500.56 889.33 492.14 889.33 483.72 889.34 C 475.12 860.23 466.54 831.11 457.95 802.00 Z"></path>
    <path fill="#000000" opacity="1.00" d=" M 604.33 802.01 C 612.44 801.99 620.56 801.99 628.67 802.01 C 628.64 831.12 628.70 860.23 628.65 889.34 C 620.56 889.35 612.48 889.27 604.40 889.40 C 604.24 860.27 604.38 831.14 604.33 802.01 Z"></path>
    <path fill="#000000" opacity="1.00" d=" M 654.00 802.00 C 661.63 802.00 669.25 802.00 676.88 802.00 C 688.87 818.79 701.13 835.39 712.85 852.38 C 712.56 835.59 712.70 818.79 712.67 802.00 C 720.47 802.00 728.27 802.00 736.08 802.00 C 736.08 831.11 736.08 860.22 736.08 889.33 C 728.44 889.32 720.80 889.35 713.16 889.31 C 701.22 872.49 688.91 855.94 677.24 838.93 C 677.52 855.73 677.39 872.53 677.41 889.33 C 669.61 889.33 661.80 889.33 654.00 889.33 C 654.00 860.22 654.00 831.11 654.00 802.00 Z"></path>
    <path fill="#000000" opacity="1.00" d=" M 170.66 908.35 C 173.63 908.33 176.61 908.33 179.59 908.33 C 179.59 930.89 179.58 953.44 179.59 975.99 C 176.62 975.99 173.64 975.99 170.67 976.00 C 170.66 953.45 170.68 930.90 170.66 908.35 Z"></path>
    <path fill="#000000" opacity="1.00" d=" M 208.33 908.34 C 211.14 908.33 213.95 908.32 216.76 908.32 C 230.15 926.12 243.75 943.78 256.89 961.77 C 256.59 943.97 256.85 926.17 256.71 908.38 C 259.60 908.32 262.48 908.32 265.37 908.38 C 265.28 930.92 265.36 953.46 265.33 976.00 C 262.51 975.99 259.69 975.99 256.88 976.00 C 243.52 958.20 229.96 940.56 216.79 922.63 C 217.04 940.42 216.87 958.21 216.92 976.00 C 214.05 975.99 211.19 975.99 208.33 975.99 C 208.34 953.44 208.33 930.89 208.33 908.34 Z"></path>
    <path fill="#000000" opacity="1.00" d=" M 294.01 908.33 C 296.97 908.33 299.94 908.33 302.91 908.33 C 302.93 930.89 302.91 953.44 302.92 976.00 C 299.94 975.99 296.97 975.99 294.00 976.00 C 294.00 953.44 293.99 930.88 294.01 908.33 Z"></path>
    <path fill="#000000" opacity="1.00" d=" M 325.83 908.25 C 344.03 908.25 362.22 908.26 380.41 908.25 C 380.41 910.96 380.41 913.68 380.42 916.41 C 372.80 916.42 365.19 916.40 357.58 916.43 C 357.59 936.28 357.57 956.13 357.59 975.99 C 354.62 975.99 351.64 975.99 348.67 976.00 C 348.66 956.14 348.67 936.28 348.66 916.42 C 341.05 916.41 333.44 916.42 325.83 916.41 C 325.83 913.68 325.83 910.96 325.83 908.25 Z"></path>
    <path fill="#000000" opacity="1.00" d=" M 403.61 908.40 C 406.60 908.33 409.59 908.32 412.58 908.33 C 412.59 930.88 412.57 953.43 412.59 975.99 C 409.61 975.99 406.64 975.99 403.67 976.00 C 403.63 953.47 403.74 930.93 403.61 908.40 Z"></path>
    <path fill="#000000" opacity="1.00" d=" M 462.11 908.33 C 464.98 908.33 467.85 908.33 470.73 908.33 C 480.06 930.89 489.40 953.44 498.71 976.00 C 495.49 975.99 492.27 975.99 489.05 976.00 C 486.55 969.71 483.99 963.45 481.55 957.14 C 471.39 957.01 461.23 957.11 451.08 957.08 C 448.56 963.35 445.90 969.56 443.54 975.89 C 440.42 976.00 437.31 976.01 434.19 976.01 C 443.50 953.44 452.78 930.88 462.11 908.33 M 454.18 949.33 C 462.24 949.33 470.30 949.34 478.37 949.33 C 474.36 939.09 470.24 928.90 466.38 918.61 C 462.45 928.90 458.25 939.09 454.18 949.33 Z"></path>
    <path fill="#000000" opacity="1.00" d=" M 505.84 908.25 C 524.03 908.25 542.22 908.26 560.41 908.25 C 560.41 910.96 560.41 913.68 560.41 916.41 C 552.80 916.42 545.19 916.40 537.58 916.43 C 537.60 936.28 537.56 956.13 537.60 975.98 C 534.62 975.99 531.64 975.99 528.67 976.00 C 528.66 956.14 528.67 936.28 528.66 916.42 C 521.05 916.41 513.44 916.42 505.83 916.41 C 505.83 913.68 505.83 910.96 505.84 908.25 Z"></path>
    <path fill="#000000" opacity="1.00" d=" M 583.33 908.32 C 586.33 908.31 589.32 908.33 592.32 908.41 C 592.15 930.94 592.30 953.47 592.25 976.00 C 589.27 975.99 586.30 975.99 583.33 975.99 C 583.34 953.44 583.33 930.88 583.33 908.32 Z"></path>
    <path fill="#000000" opacity="1.00" d=" M 613.70 908.33 C 616.92 908.33 620.15 908.33 623.38 908.34 C 630.39 926.99 637.64 945.55 644.48 964.27 C 651.33 945.55 658.77 927.05 665.78 908.39 C 668.87 908.33 671.95 908.32 675.05 908.32 C 666.39 930.89 657.70 953.44 649.01 976.00 C 645.95 975.99 642.89 975.99 639.83 976.00 C 631.11 953.45 622.40 930.89 613.70 908.33 Z"></path>
    <path fill="#000000" opacity="1.00" d=" M 696.67 908.25 C 709.73 908.25 722.78 908.25 735.83 908.25 C 735.83 910.96 735.83 913.68 735.84 916.41 C 725.75 916.43 715.67 916.40 705.58 916.43 C 705.59 923.25 705.58 930.08 705.59 936.92 C 714.42 936.92 723.25 936.91 732.08 936.92 C 732.08 939.49 732.07 942.08 732.08 944.67 C 723.25 944.67 714.42 944.66 705.59 944.67 C 705.58 952.42 705.58 960.17 705.59 967.92 C 715.97 967.92 726.36 967.91 736.75 967.92 C 736.74 970.63 736.74 973.35 736.75 976.08 C 723.39 976.09 710.03 976.08 696.67 976.08 C 696.67 953.47 696.66 930.86 696.67 908.25 Z"></path>
    <path fill="#000000" opacity="1.00" d=" M 170.67 994.75 C 359.86 994.75 549.05 994.75 738.25 994.75 C 738.25 998.49 738.25 1002.24 738.25 1006.00 C 549.06 1006.00 359.86 1006.00 170.67 1006.00 C 170.66 1002.24 170.66 998.49 170.67 994.75 Z"></path>
  </g>
</svg>
