<?xml version="1.0" encoding="UTF-8"?>
<!-- Creator: CorelDRAW X7 -->
<svg xmlns="http://www.w3.org/2000/svg" xmlns:xlink="http://www.w3.org/1999/xlink" xml:space="preserve" width="2480px" height="945px" version="1.1" style="shape-rendering:geometricPrecision; text-rendering:geometricPrecision; image-rendering:optimizeQuality; fill-rule:evenodd; clip-rule:evenodd" viewBox="0 0 2480 945">
 <defs>
  <style type="text/css">
   <![CDATA[
    .fil0 {fill:#0E2B4A}
    .fil1 {fill:#517AA6}
    .fil2 {fill:white}
   ]]>
  </style>
 </defs>
 <g id="Layer_x0020_1">
  <metadata id="CorelCorpID_0Corel-Layer"></metadata>
  <path class="fil0" d="M-606 -1194l3 0 2 3c-2,34 -1,68 -1,102 0,1067 0,2135 0,3203 0,17 -1,34 1,50l-5 0 0 -3358z"></path>
  <g id="_1847504603568">
   <g>
    <path class="fil0" d="M449 10c529,0 1057,0 1585,0 0,308 0,617 0,925 -528,0 -1056,0 -1585,0 0,-308 0,-617 0,-925l0 0zm786 29c0,3 0,7 0,10 -1,2 -2,5 -3,7 -5,0 -9,0 -14,0 -2,4 -3,9 0,13 5,1 9,0 14,2 2,6 1,13 0,19 -5,3 -9,8 -11,14 -4,-1 -8,0 -11,-1 -20,-6 -41,-4 -61,-5 -12,0 -23,5 -35,6 -3,1 -5,3 -7,3 -14,4 -26,13 -37,22 -3,3 -4,8 -8,11 -6,1 -13,-2 -20,-2 -15,1 -30,-1 -45,3 -10,1 -20,6 -30,7 -1,1 -2,2 -3,3 -12,2 -23,8 -32,16 -11,7 -22,16 -28,27 -6,7 -8,16 -11,24 -1,8 -1,17 0,25 8,32 29,60 55,80 4,4 7,10 4,16 0,21 25,32 43,26 6,-2 11,-7 16,-9 6,0 10,6 16,7 22,9 50,-1 60,-23 2,0 3,0 5,0 5,7 14,11 22,14 6,2 13,2 19,2 7,0 13,-4 20,-6 6,-5 11,-13 19,-14 1,1 2,3 3,5 3,1 6,2 10,4 8,3 17,2 25,2 11,0 21,-6 28,-13 5,-4 9,2 13,4 12,11 28,10 43,8 7,-1 13,-6 19,-10 1,0 3,0 4,0 7,10 19,18 31,20 10,-1 22,1 31,-4 6,-3 10,-12 18,-10 2,11 13,18 23,23 12,2 25,4 37,-1 5,-2 9,-6 14,-7 5,-1 8,5 13,7 9,5 21,4 31,1 7,-4 14,-10 17,-18 2,-7 -2,-15 4,-20 17,-16 34,-34 45,-55 4,-6 5,-13 9,-18 1,-15 3,-29 -1,-43 -4,-12 -11,-24 -20,-33 -20,-20 -47,-31 -74,-37 -20,-2 -40,-6 -60,-3 -4,1 -9,2 -14,0 -4,-3 -7,-9 -12,-12 -7,-7 -15,-12 -25,-16 -9,-3 -18,-7 -29,-9 -16,-4 -32,-3 -49,-3 -14,0 -28,5 -43,6 -3,-7 -8,-12 -13,-16 -1,-5 -1,-11 0,-17 2,0 4,-1 6,-2 4,2 7,1 11,0 0,-4 0,-8 0,-12 -6,-2 -12,-2 -18,-2 0,-6 1,-11 -2,-16 -4,0 -8,0 -12,0l0 0zm-39 326c-9,2 -17,0 -26,2 -7,1 -14,0 -21,1 -17,4 -34,3 -51,6 -25,4 -50,10 -75,14 -2,1 -4,1 -6,3 -1,3 0,6 1,9 3,10 5,21 10,31 8,0 15,-4 23,-5 9,-1 17,-5 26,-5 8,-1 14,-3 21,-4 16,0 33,-2 49,-4 8,-2 16,-1 24,-2 10,-2 19,0 28,-3 28,0 56,0 84,0 17,2 35,2 52,4 18,3 38,3 57,7 13,1 25,5 38,7 8,1 15,4 23,5 4,-1 3,-5 5,-8 4,-11 4,-22 8,-32 -9,-3 -18,-6 -28,-7 -21,-5 -43,-9 -64,-10 -11,-4 -22,-2 -33,-4 -5,-1 -10,0 -15,-1 -14,-3 -27,-3 -41,-5 -23,0 -47,0 -70,0 -6,0 -13,0 -19,1l0 0zm440 127c-6,7 -11,14 -18,21 0,1 0,3 0,4 6,1 13,1 19,0 7,-3 13,-9 19,-13 4,-1 4,-5 4,-8 -6,-2 -11,-5 -16,-7 -3,-1 -7,0 -8,3l0 0zm-290 70c-6,13 -11,28 -8,42 3,20 16,38 33,47 15,10 35,10 52,8 14,-1 24,-9 35,-16 4,-2 3,-7 3,-11 -7,-3 -10,-12 -18,-11 -8,11 -22,16 -36,16 -12,1 -24,-6 -32,-16 -3,-3 -5,-9 -9,-11 0,-1 0,-2 0,-2 -1,-2 -2,-4 -2,-5 -1,-6 -1,-13 -1,-19 5,5 3,11 3,17 2,-8 -1,-17 2,-25 8,-19 30,-30 50,-25 10,1 17,8 26,13 1,0 3,0 4,0 4,-4 9,-8 12,-13 2,-5 -3,-8 -6,-11 -13,-9 -29,-14 -45,-13 -25,-2 -52,12 -63,35l0 0zm257 -29c-3,0 -6,1 -9,1 0,1 0,2 0,3 -4,1 -7,4 -11,6 0,1 -1,2 -2,3 -5,1 -7,7 -11,11 -3,4 -4,8 -7,11 -1,3 -1,6 -2,9 -1,12 -2,24 1,36 1,3 0,7 3,9 1,3 3,6 5,9 3,3 7,6 9,11 6,2 11,8 18,10 0,1 1,2 1,3 11,4 22,7 33,6 11,-2 22,-3 31,-8 9,-5 17,-10 22,-19 3,-4 4,-8 7,-11 2,-3 3,-6 3,-10 1,-2 1,-3 3,-5 2,-12 2,-25 -3,-36 -1,-3 -1,-5 -1,-7 -1,0 -2,0 -3,0 -1,-3 -1,-5 -2,-8 -3,0 -3,-3 -5,-5 -2,-1 -4,-3 -5,-6 0,0 -2,0 -3,0 -1,-2 -2,-3 -3,-5l-2 0c-4,-6 -11,-9 -18,-11 -11,-4 -23,-3 -34,-3 -6,1 -12,0 -15,6l0 0zm-873 -2c-1,22 0,45 0,68 0,7 -1,15 1,21 1,4 2,8 3,11 0,1 1,1 2,2 4,10 14,17 24,21 13,6 26,4 39,4 5,0 8,-4 13,-4 9,-4 19,-10 23,-20 1,-2 2,-3 3,-4 1,-1 1,-4 2,-5 1,-6 4,-12 4,-19 0,-24 0,-49 0,-74 -1,0 -3,-1 -4,-1 -7,1 -17,-4 -21,3 1,28 1,56 0,83 -1,2 -2,3 -3,5 -1,4 -5,7 -8,11 -4,1 -8,4 -12,4 -8,1 -16,1 -23,0 -4,-2 -7,-4 -11,-6 -1,-2 -2,-4 -3,-6 0,0 -2,0 -2,0 -1,-3 -2,-6 -3,-8 -2,-4 -2,-8 -2,-12 -1,-25 0,-50 -1,-75 -7,0 -14,1 -21,1l0 0zm158 0c-1,0 -3,1 -4,2 0,41 0,82 0,123 8,0 15,0 23,0 0,-28 0,-57 0,-85 1,0 3,-1 4,-1 6,8 11,15 18,22 1,2 3,4 4,6 2,1 3,3 4,5 6,6 11,13 16,19 2,2 3,4 5,6 3,1 3,5 6,6 2,4 5,8 9,11 1,2 3,4 4,8 1,0 2,0 3,0 0,1 0,2 0,3 6,0 13,0 19,0 1,-2 2,-5 2,-8 0,-38 0,-77 0,-115 -1,-1 -3,-2 -4,-3 -6,1 -12,0 -18,1 -1,3 0,6 -1,9 1,25 0,50 1,74 -2,0 -4,0 -6,0 0,-1 0,-2 0,-3 -3,0 -3,-3 -4,-5 -3,-1 -4,-3 -5,-6 -1,0 -2,-1 -3,-2 -2,-4 -7,-7 -9,-11 -2,-4 -6,-7 -8,-11 -4,-4 -9,-8 -10,-14 -1,0 -2,0 -2,0 -3,-4 -6,-7 -9,-11 -2,-2 -4,-5 -5,-8 -3,0 -3,-3 -3,-5 -3,0 -5,-1 -5,-4 -2,-1 -4,-2 -5,-3 -6,-1 -12,-1 -17,0l0 0zm354 -1c-1,2 -3,3 -4,5 -1,3 -1,7 -4,8 0,1 0,1 0,2 -2,1 -4,3 -5,5 -3,10 -9,19 -12,29 -4,7 -8,14 -11,22 -7,12 -11,25 -18,38 -3,6 -6,12 -5,19 7,0 15,1 22,-1 9,-6 10,-19 16,-28 2,-2 5,-1 8,-1 17,0 33,0 49,0 3,-1 5,2 6,4 4,9 7,18 12,26 9,1 18,0 27,0 1,-7 -5,-12 -7,-18 -3,-7 -8,-14 -10,-22 -2,-7 -6,-13 -9,-19 -3,-7 -6,-13 -10,-19 0,1 0,3 0,4 -1,-4 -2,-7 -4,-10 -2,-3 -2,-6 -3,-9 0,0 -2,0 -2,0 -1,-4 -2,-8 -5,-12 -1,-3 -2,-6 -4,-9 -1,-3 -2,-6 -4,-8 0,-1 0,-3 0,-4 -7,-4 -15,-1 -23,-2l0 0zm-645 2c0,42 0,83 0,124 8,0 15,0 23,0 0,-17 0,-34 0,-51 21,0 43,0 64,0 1,0 3,-1 4,-2 0,-5 0,-11 0,-16 -10,-2 -21,0 -31,-1 -5,-2 -10,1 -15,-1 -6,2 -12,1 -18,1 -1,-1 -3,-1 -4,-2 0,-11 0,-22 0,-33 3,0 6,-1 10,-1 17,0 35,0 52,0 3,0 6,-1 9,1 1,0 3,-1 4,-2 0,-6 0,-11 1,-17 -3,-1 -5,-2 -7,-2 -29,1 -58,0 -88,1 -1,0 -3,1 -4,1l0 0zm447 0c1,42 0,83 1,124 19,0 38,0 57,0 2,0 4,0 6,-1 5,-1 10,-2 15,-3 2,-2 5,-3 8,-4 3,-1 5,-1 5,-4 4,-1 8,-5 11,-9 3,0 4,-2 5,-5 4,-1 4,-5 5,-8 4,-2 3,-7 6,-10 3,-9 2,-19 2,-28 -1,-3 -1,-6 -3,-9 -1,-4 -1,-8 -5,-10 -2,-8 -9,-13 -14,-18 -2,-1 -4,-1 -4,-4 -2,-1 -5,-1 -6,-4 -3,-1 -8,-1 -10,-5 -3,0 -6,0 -9,-2 -5,0 -10,1 -14,-1 -17,-1 -34,0 -51,-1 -1,1 -3,2 -5,2l0 0zm453 0c1,41 0,83 0,124 8,0 15,0 22,0 0,-41 0,-83 0,-124 -7,-2 -15,-2 -22,0l0 0zm239 -1c-1,3 -1,6 -1,9 0,36 0,72 0,108 0,3 1,6 2,8 7,0 14,0 21,0 0,-29 0,-57 0,-86 2,0 3,1 5,1 0,0 0,2 0,2 3,1 4,3 5,5 2,2 3,4 4,6 4,1 3,5 6,6 3,2 4,5 5,8 3,1 4,2 5,5 5,3 6,9 11,12 2,5 8,7 8,13 3,0 4,3 6,5 6,7 12,14 17,21 7,1 14,1 21,1 0,-37 0,-73 0,-110 0,-5 0,-10 -1,-14 -5,-1 -11,0 -16,0 -1,0 -3,1 -4,1 0,28 0,55 0,82 -7,1 -9,-7 -14,-11 -2,-4 -7,-6 -8,-11 -4,-2 -7,-7 -8,-11 -5,0 -4,-6 -8,-8 -3,-3 -7,-6 -8,-11 -6,-5 -10,-12 -16,-17 -2,-4 -6,-6 -7,-11 -2,-1 -5,-2 -7,-4 -6,1 -12,0 -18,1l0 0zm-15 141c-6,7 -11,14 -17,21 -2,2 -3,4 -4,7 7,1 14,1 21,0 6,-6 14,-9 20,-15 2,-2 1,-4 2,-6 -6,-2 -11,-6 -17,-8 -2,-1 -4,-1 -5,1l0 0zm-856 37c-1,3 -2,6 -2,9 1,38 0,76 0,114 0,2 1,5 3,7 7,1 14,0 21,0 2,-1 3,-2 4,-3 0,-41 0,-82 0,-124 -1,-1 -2,-2 -3,-3 -8,0 -16,0 -23,0l0 0zm154 0c-3,10 -1,20 -2,30 0,17 0,34 1,51 -1,0 -3,0 -4,1 -8,-9 -15,-19 -22,-28 -10,-13 -22,-25 -31,-39 -2,-1 -4,-2 -6,-2 -1,-1 -1,-3 -2,-4 -2,-1 -4,-3 -5,-6 -7,-3 -14,-1 -21,-1 -1,1 -2,3 -3,4 0,13 0,25 0,38 0,7 0,14 1,21 0,3 -1,6 1,9 0,2 -1,5 -2,7 1,4 -1,10 2,14 -3,4 -2,10 0,14 -2,4 -2,9 -2,14 1,1 2,3 2,5 8,-1 15,0 23,-1 -1,-29 -1,-57 0,-86 1,1 3,2 5,2 2,7 9,12 13,18 1,3 3,4 6,6 1,3 3,5 4,8 1,0 2,0 2,0 3,9 14,13 17,22 2,2 4,4 6,5 3,6 9,11 13,18l-1 1c3,3 5,7 9,9 6,1 12,0 18,0 1,-1 2,-2 3,-3 0,-41 0,-83 0,-124 -1,-1 -2,-2 -3,-3 -7,0 -15,0 -22,0l0 0zm270 13c-11,13 -11,33 -1,46 4,4 9,7 14,10 13,5 27,8 41,12 5,2 12,5 12,12 1,8 -6,13 -13,15 -9,1 -20,1 -29,-3 -4,-1 -8,-5 -12,-4 -1,0 -2,-1 -3,-1 2,-5 -4,-6 -7,-8 -5,4 -9,10 -14,14 -2,2 -1,6 2,8 5,3 10,6 16,9 12,8 26,7 39,9 9,-2 19,-2 27,-6 13,-7 23,-21 21,-36 1,-11 -7,-20 -15,-26 -13,-7 -27,-10 -40,-14 -7,-2 -15,-4 -20,-10 -3,-8 3,-15 10,-17 9,-1 18,-2 27,1 4,2 9,2 12,5 3,2 5,6 9,5 3,-4 5,-8 8,-12 3,-2 3,-6 2,-9 -15,-12 -36,-16 -55,-15 -12,1 -22,8 -31,15l0 0zm284 -13c-1,1 -3,2 -4,3 0,41 0,83 0,124 1,1 3,2 4,3 7,0 14,1 22,0 2,-3 2,-7 2,-11 0,-13 0,-26 0,-40 21,-2 43,1 65,-1 4,-6 1,-14 2,-21 -1,-1 -3,-2 -4,-3 -20,0 -40,0 -61,0l-1 -1c-2,-8 -1,-16 -1,-25 0,-3 4,-4 6,-4 21,0 42,0 63,0 4,0 7,-2 7,-6 1,-5 1,-11 -1,-17 -1,-2 -4,-1 -6,-1 -31,0 -62,-1 -93,0l0 0zm232 0c-8,13 -13,28 -20,42 -6,13 -12,26 -19,39 -4,11 -10,20 -13,30 -3,6 -7,12 -6,20 8,-1 16,-1 24,-1 7,-9 8,-22 16,-30 17,-1 34,0 51,-1 3,0 7,0 10,2 4,9 7,20 14,29 8,1 17,1 26,-1 0,-4 -1,-8 -6,-10l0 0c-1,-12 -9,-22 -13,-32 -4,-11 -9,-21 -14,-31l-2 2c0,-2 -1,-4 -1,-5 -3,-1 -3,-5 -3,-8 -1,0 -3,0 -3,0 0,-5 -3,-9 -4,-13 -5,-8 -6,-17 -12,-23 0,-2 0,-4 -1,-6l-1 0c0,-1 0,-3 0,-4 -8,0 -15,0 -23,1l0 0zm-683 4c0,2 -1,5 -2,8 -1,1 -2,2 -3,3l0 1c-1,1 -2,2 -3,2 -6,12 -10,25 -17,37 -7,14 -14,27 -18,41 -4,8 -8,16 -12,24 -2,3 -2,6 -1,9 7,-1 16,3 23,-2l0 -2c0,1 1,2 2,3 4,-9 8,-18 12,-26 2,-3 5,-3 7,-3 17,0 33,0 49,0 3,0 6,0 7,3 4,8 7,17 12,25 7,6 17,2 25,3 3,-7 -1,-12 -4,-17 -4,-12 -10,-23 -15,-34 -2,-3 -2,-8 -6,-9 0,-1 -1,-2 -1,-2 0,-1 -2,-2 -2,-3 -1,-2 -1,-3 -2,-5 -1,-2 -2,-4 -3,-6 -1,-5 -5,-9 -6,-15 -1,-2 -2,-3 -4,-4 0,-1 0,-3 0,-3 -1,-3 -3,-5 -4,-7 -1,-4 -2,-7 -3,-11 -4,-2 -4,-7 -5,-10 -1,-1 -3,-2 -4,-2 -7,0 -15,-2 -22,2l0 0zm-525 -1c0,42 0,83 0,124 8,0 15,1 23,0 0,-14 0,-28 0,-42 9,-3 18,0 27,-1 2,1 4,2 6,3 3,6 7,11 11,16 2,9 10,14 14,22 3,6 11,4 16,5 5,0 11,2 15,-2 1,-5 -4,-9 -7,-13 -9,-9 -14,-22 -23,-31 -3,-2 1,-4 3,-5 21,-6 32,-32 23,-52 -3,-7 -7,-15 -15,-16l0 2 0 -2c-1,-1 -3,-2 -4,-2 -2,-1 -5,-2 -7,-4 -19,-5 -40,-2 -60,-3 -7,2 -15,-1 -22,1l0 0zm139 0c0,41 0,83 0,124 2,0 4,1 7,1 8,-1 15,0 23,-1 5,0 11,3 16,1 7,-1 15,-1 22,0 2,0 4,1 6,1 3,-2 7,-2 10,0 5,0 10,-1 15,-2 0,-6 0,-12 0,-17 -11,-1 -22,0 -32,-1 -5,0 -10,1 -14,0 -10,-1 -19,1 -29,0 -1,-12 -1,-24 0,-35 4,-2 8,1 11,1 4,0 9,-3 12,0 3,-3 6,-2 9,-1 3,0 6,-1 9,1 3,0 6,0 9,-1 3,-1 6,-1 8,1 2,-3 6,-2 8,-2 0,-6 0,-12 0,-17 -22,-1 -44,0 -66,-1 0,-11 -1,-23 1,-34 24,-1 48,0 73,0 1,-6 1,-12 1,-18 -4,-1 -9,-2 -13,-1 -23,0 -47,-1 -70,0 -5,-1 -11,0 -16,1l0 0zm710 2c-1,0 -3,0 -4,0 -4,4 -9,6 -14,9 -1,4 -6,4 -7,7 -3,2 -3,6 -7,7 -4,8 -9,16 -11,25 -1,14 0,28 6,40 2,3 4,6 5,9 2,1 3,3 4,5 4,4 9,8 13,11 2,1 4,2 6,4 3,1 7,2 10,5 7,1 13,3 20,2 8,0 17,1 24,-1 1,-1 3,-1 4,-1 2,-1 5,-2 7,-2 2,-1 4,-3 5,-4 6,-1 10,-6 14,-8 2,-3 3,-5 6,-5 2,-5 6,-9 9,-14 5,-11 8,-24 7,-36 -2,-5 -2,-10 -2,-15 -1,0 -2,0 -3,0 1,-6 -6,-9 -6,-16 -1,1 -2,1 -3,1 0,-2 -1,-4 -2,-5 -3,-1 -3,-3 -4,-5 -2,-1 -5,-2 -5,-4 -3,-1 -6,-3 -9,-5 -2,-1 -5,-2 -7,-4 -6,-1 -12,-4 -19,-4 -13,1 -26,-2 -37,4l0 0zm253 -2c0,42 0,83 0,124 7,1 15,0 23,0 0,-34 -1,-68 0,-102 -1,-7 1,-15 0,-22 -8,-3 -16,-1 -23,0z"></path>
   </g>
   <path class="fil0" d="M1109 129c35,-15 76,-13 112,-3 3,1 8,2 7,6 1,8 1,16 0,23 -2,4 -6,6 -9,8 -28,20 -63,29 -96,28 -16,1 -32,1 -47,-3 -2,0 -4,-1 -5,-2 0,-10 3,-20 8,-29 6,-13 18,-22 30,-28z"></path>
   <path class="fil0" d="M1303 120c11,-2 22,-1 33,1 21,1 41,8 57,20 8,7 12,16 16,25 3,7 5,14 3,22 -19,4 -39,4 -59,3 -12,1 -24,-2 -36,-4 -21,-7 -42,-14 -59,-29 -2,-2 -4,-3 -4,-6 0,-7 0,-14 1,-21 14,-8 32,-8 48,-11z"></path>
   <path class="fil0" d="M1010 159c7,-1 13,-1 20,-1 7,0 15,-1 22,2 -1,11 -5,22 -4,33 -9,9 -20,15 -30,22 -13,8 -28,12 -43,18 -3,1 -8,2 -12,2 -4,0 -7,3 -12,3 -12,0 -24,0 -36,0 -4,-10 1,-21 5,-30 4,-7 9,-12 14,-18 4,-5 10,-7 15,-10 13,-9 28,-13 42,-17 6,-4 13,-3 19,-4z"></path>
   <path class="fil0" d="M1433 158c20,0 40,-2 58,5 12,2 24,7 35,11 13,9 27,17 36,31 6,10 6,22 5,33 -14,-1 -30,2 -44,-3 -11,0 -20,-4 -30,-8 -10,-3 -19,-8 -28,-13 -10,-5 -19,-12 -28,-19 -1,-12 -5,-24 -4,-37z"></path>
   <path class="fil0" d="M1204 193c9,-3 16,-10 24,-13 0,22 1,43 0,65 -8,3 -15,11 -19,19 0,7 0,13 1,20 2,5 5,9 9,13 4,4 9,6 13,10 -3,9 -9,19 -19,22 -10,2 -23,2 -31,-7 -6,-5 -5,-13 -4,-19 -4,-3 -8,-8 -13,-7 -7,-1 -13,5 -14,11 0,5 5,8 4,13 -4,8 -11,14 -19,17 -12,4 -26,0 -34,-10l0 -2c6,-7 14,-12 16,-21 0,-7 2,-15 -2,-21 -3,-6 -7,-11 -13,-14 -4,-3 -10,-3 -15,-6 -6,-10 -7,-22 -12,-33 -2,-7 -2,-16 -4,-24 7,0 13,3 19,2 19,0 37,1 56,0 11,-2 22,-3 32,-7 9,-1 17,-5 25,-8z"></path>
   <path class="fil0" d="M1254 180c6,1 11,5 16,8 20,11 43,15 66,20 19,1 39,1 59,0 5,0 13,-6 17,0 0,6 -1,12 -4,18 -4,5 -3,11 -6,17 -3,7 -4,15 -8,21 -11,2 -22,8 -26,18 -8,12 -2,29 8,38 2,2 5,3 5,7 -4,5 -9,7 -14,11 -7,0 -14,1 -21,0 -8,-5 -15,-11 -18,-20 3,-5 5,-11 2,-16 -4,-8 -16,-8 -22,-1 -4,4 -2,10 -2,16 -5,6 -11,12 -19,12 -7,1 -16,2 -22,-3 -7,-4 -13,-12 -14,-20 6,-5 14,-7 18,-13 2,-3 5,-6 6,-10 1,-6 1,-12 0,-18 -4,-9 -11,-17 -20,-20 -1,-22 -1,-43 -1,-65z"></path>
   <path class="fil0" d="M1035 224c4,-2 8,-6 13,-8 4,16 8,31 14,46 1,3 3,6 2,8 -3,4 -6,7 -8,10 -7,13 -4,30 7,38 4,3 9,5 11,9 -1,8 -6,16 -13,20 -15,11 -39,3 -45,-14 -2,-16 -19,-29 -35,-27 -7,-1 -14,8 -20,2 -16,-14 -29,-31 -40,-49 0,-2 0,-4 0,-7 13,1 26,0 39,-2 4,-1 8,-3 12,-3 7,0 13,-4 19,-5 16,-2 29,-13 44,-18z"></path>
   <path class="fil0" d="M1435 218c1,1 4,1 6,1 27,17 57,30 89,34 10,2 21,1 31,1 -1,9 -8,16 -12,23 -7,11 -18,20 -27,30 -5,6 -12,-3 -18,-2 -13,-2 -25,4 -33,14 -5,7 -4,18 -11,23 -14,14 -40,9 -48,-9 0,-1 -1,-3 -2,-5 5,-5 12,-8 16,-14 5,-6 5,-15 5,-22 0,-8 -5,-15 -11,-20 -1,-6 2,-11 5,-17 3,-12 8,-24 10,-37z"></path>
   <path class="fil0" d="M1614 552c19,-5 41,1 51,19 6,8 6,20 6,30 -1,7 -4,13 -7,19 -6,6 -13,13 -22,15 -9,1 -18,1 -26,0 -10,-1 -17,-9 -25,-16l0 0c-2,-6 -5,-12 -6,-18 -1,-10 0,-20 5,-29 4,-10 14,-16 24,-20z"></path>
   <path class="fil0" d="M1067 551c15,0 30,-1 45,1 0,1 1,2 2,2 6,0 10,5 14,8 3,4 7,8 9,13 0,0 1,2 2,3 3,12 3,24 -2,35 -1,1 -2,3 -2,4 -3,2 -4,7 -8,8 -1,4 -6,4 -9,7 -2,1 -5,2 -8,3 -14,1 -28,0 -43,0 0,-28 0,-56 0,-84z"></path>
   <path class="fil0" d="M1248 565c1,-2 4,-3 6,-4l1 1c1,16 13,28 16,43 -14,0 -27,1 -41,0 7,-13 13,-26 18,-40z"></path>
   <path class="fil0" d="M1439 743c7,-8 18,-14 30,-14 5,0 10,1 15,1 3,1 7,2 10,3 2,2 5,4 8,6 5,6 11,11 13,18 1,3 2,6 3,8 0,6 1,12 0,18 0,2 -1,4 -2,6 -2,7 -7,13 -12,19 -4,3 -7,6 -12,6 -6,1 -12,3 -18,3 -7,0 -13,-3 -19,-2l-2 0c-5,-3 -10,-6 -14,-10 -2,-2 -4,-5 -7,-8 -4,-10 -3,-21 -3,-31 0,-7 1,-14 6,-18 1,-2 2,-4 4,-5z"></path>
   <path class="fil0" d="M620 731c16,0 31,0 46,1 2,0 4,1 6,2 3,2 6,5 9,8 2,5 2,10 2,15 -2,3 -3,9 -8,10 -2,5 -8,4 -12,5 -14,0 -29,0 -43,0 0,-14 0,-27 0,-41z"></path>
   <path class="fil0" d="M1128 750c1,-3 3,-7 4,-10 2,0 4,0 5,0 2,7 6,12 8,19 4,9 11,18 10,29 -14,-1 -28,-1 -42,-1 0,-2 0,-4 0,-7 1,0 2,-2 3,-2 0,-3 1,-6 3,-8 2,-2 1,-6 4,-8 1,-4 2,-9 5,-12z"></path>
   <path class="fil0" d="M1796 785c8,-14 12,-30 21,-43 2,6 4,12 9,17l0 1c2,9 8,16 10,25 -13,0 -26,0 -40,0z"></path>
   <path class="fil1" d="M446 11c1,0 2,-1 3,-1 0,308 0,617 0,925 -1,0 -2,-1 -3,-1 0,-215 0,-429 0,-644 0,-93 0,-186 0,-279z"></path>
   <g>
    <path class="fil1" d="M1235 39c4,0 8,0 12,0 3,5 2,10 2,16 6,0 12,0 18,2 0,4 0,8 0,12 -4,1 -7,2 -11,0 -2,1 -4,2 -6,2 -1,6 -1,12 0,17 5,4 10,9 13,16 15,-1 29,-6 43,-6 17,0 33,-1 49,3 11,2 20,6 29,9 10,4 18,9 25,16 5,3 8,9 12,12 5,2 10,1 14,0 20,-3 40,1 60,3 27,6 54,17 74,37 9,9 16,21 20,33 4,14 2,28 1,43 -4,5 -5,12 -9,18 -11,21 -28,39 -45,55 -6,5 -2,13 -4,20 -3,8 -10,14 -17,18 -10,3 -22,4 -31,-1 -5,-2 -8,-8 -13,-7 -5,1 -9,5 -14,7 -12,5 -25,3 -37,1 -10,-5 -21,-12 -23,-23 -8,-2 -12,7 -18,10 -9,5 -21,3 -31,4 -12,-2 -24,-10 -31,-20 -1,0 -3,0 -4,0 -6,4 -12,9 -19,10 -15,2 -31,3 -43,-8 -4,-2 -8,-8 -13,-4 -7,7 -17,13 -28,13 -8,0 -17,1 -25,-2 -4,-2 -7,-3 -10,-4 -1,-2 -2,-4 -3,-5 -8,1 -13,9 -19,14 -7,2 -13,6 -20,6 -6,0 -13,0 -19,-2 -8,-3 -17,-7 -22,-14 -2,0 -3,0 -5,0 -10,22 -38,32 -60,23 -6,-1 -10,-7 -16,-7 -5,2 -10,7 -16,9 -18,6 -43,-5 -43,-26 3,-6 0,-12 -4,-16 -26,-20 -47,-48 -55,-80 -1,-8 -1,-17 0,-25 3,-8 5,-17 11,-24 6,-11 17,-20 28,-27 9,-8 20,-14 32,-16 1,-1 2,-2 3,-3 10,-1 20,-6 30,-7 15,-4 30,-2 45,-3 7,0 14,3 20,2 4,-3 5,-8 8,-11 11,-9 23,-18 37,-22 2,0 4,-2 7,-3 12,-1 23,-6 35,-6 20,1 41,-1 61,5 3,1 7,0 11,1 2,-6 6,-11 11,-14 1,-6 2,-13 0,-19 -5,-2 -9,-1 -14,-2 -3,-4 -2,-9 0,-13 5,0 9,0 14,0 1,-2 2,-5 3,-7 0,-3 0,-7 0,-10l0 0zm-126 90c-12,6 -24,15 -30,28 -5,9 -8,19 -8,29 1,1 3,2 5,2 15,4 31,4 47,3 33,1 68,-8 96,-28 3,-2 7,-4 9,-8 1,-7 1,-15 0,-23 1,-4 -4,-5 -7,-6 -36,-10 -77,-12 -112,3l0 0zm194 -9c-16,3 -34,3 -48,11 -1,7 -1,14 -1,21 0,3 2,4 4,6 17,15 38,22 59,29 12,2 24,5 36,4 20,1 40,1 59,-3 2,-8 0,-15 -3,-22 -4,-9 -8,-18 -16,-25 -16,-12 -36,-19 -57,-20 -11,-2 -22,-3 -33,-1l0 0zm-293 39c-6,1 -13,0 -19,4 -14,4 -29,8 -42,17 -5,3 -11,5 -15,10 -5,6 -10,11 -14,18 -4,9 -9,20 -5,30 12,0 24,0 36,0 5,0 8,-3 12,-3 4,0 9,-1 12,-2 15,-6 30,-10 43,-18 10,-7 21,-13 30,-22 -1,-11 3,-22 4,-33 -7,-3 -15,-2 -22,-2 -7,0 -13,0 -20,1l0 0zm423 -1c-1,13 3,25 4,37 9,7 18,14 28,19 9,5 18,10 28,13 10,4 19,8 30,8 14,5 30,2 44,3 1,-11 1,-23 -5,-33 -9,-14 -23,-22 -36,-31 -11,-4 -23,-9 -35,-11 -18,-7 -38,-5 -58,-5l0 0zm-229 35c-8,3 -16,7 -25,8 -10,4 -21,5 -32,7 -19,1 -37,0 -56,0 -6,1 -12,-2 -19,-2 2,8 2,17 4,24 5,11 6,23 12,33 5,3 11,3 15,6 6,3 10,8 13,14 4,6 2,14 2,21 -2,9 -10,14 -16,21l0 2c8,10 22,14 34,10 8,-3 15,-9 19,-17 1,-5 -4,-8 -4,-13 1,-6 7,-12 14,-11 5,-1 9,4 13,7 -1,6 -2,14 4,19 8,9 21,9 31,7 10,-3 16,-13 19,-22 -4,-4 -9,-6 -13,-10 -4,-4 -7,-8 -9,-13 -1,-7 -1,-13 -1,-20 4,-8 11,-16 19,-19 1,-22 0,-43 0,-65 -8,3 -15,10 -24,13l0 0zm50 -13c0,22 0,43 1,65 9,3 16,11 20,20 1,6 1,12 0,18 -1,4 -4,7 -6,10 -4,6 -12,8 -18,13 1,8 7,16 14,20 6,5 15,4 22,3 8,0 14,-6 19,-12 0,-6 -2,-12 2,-16 6,-7 18,-7 22,1 3,5 1,11 -2,16 3,9 10,15 18,20 7,1 14,0 21,0 5,-4 10,-6 14,-11 0,-4 -3,-5 -5,-7 -10,-9 -16,-26 -8,-38 4,-10 15,-16 26,-18 4,-6 5,-14 8,-21 3,-6 2,-12 6,-17 3,-6 4,-12 4,-18 -4,-6 -12,0 -17,0 -20,1 -40,1 -59,0 -23,-5 -46,-9 -66,-20 -5,-3 -10,-7 -16,-8l0 0zm-219 44c-15,5 -28,16 -44,18 -6,1 -12,5 -19,5 -4,0 -8,2 -12,3 -13,2 -26,3 -39,2 0,3 0,5 0,7 11,18 24,35 40,49 6,6 13,-3 20,-2 16,-2 33,11 35,27 6,17 30,25 45,14 7,-4 12,-12 13,-20 -2,-4 -7,-6 -11,-9 -11,-8 -14,-25 -7,-38 2,-3 5,-6 8,-10 1,-2 -1,-5 -2,-8 -6,-15 -10,-30 -14,-46 -5,2 -9,6 -13,8l0 0zm400 -6c-2,13 -7,25 -10,37 -3,6 -6,11 -5,17 6,5 11,12 11,20 0,7 0,16 -5,22 -4,6 -11,9 -16,14 1,2 2,4 2,5 8,18 34,23 48,9 7,-5 6,-16 11,-23 8,-10 20,-16 33,-14 6,-1 13,8 18,2 9,-10 20,-19 27,-30 4,-7 11,-14 12,-23 -10,0 -21,1 -31,-1 -32,-4 -62,-17 -89,-34 -2,0 -5,0 -6,-1z"></path>
   </g>
   <path class="fil1" d="M1196 365c6,-1 13,-1 19,-1 23,0 47,0 70,0 14,2 27,2 41,5 5,1 10,0 15,1 11,2 22,0 33,4 21,1 43,5 64,10 10,1 19,4 28,7 -4,10 -4,21 -8,32 -2,3 -1,7 -5,8 -8,-1 -15,-4 -23,-5 -13,-2 -25,-6 -38,-7 -19,-4 -39,-4 -57,-7 -17,-2 -35,-2 -52,-4 -28,0 -56,0 -84,0 -9,3 -18,1 -28,3 -8,1 -16,0 -24,2 -16,2 -33,4 -49,4 -7,1 -13,3 -21,4 -9,0 -17,4 -26,5 -8,1 -15,5 -23,5 -5,-10 -7,-21 -10,-31 -1,-3 -2,-6 -1,-9 2,-2 4,-2 6,-3 25,-4 50,-10 75,-14 17,-3 34,-2 51,-6 7,-1 14,0 21,-1 9,-2 17,0 26,-2z"></path>
   <g>
    <path class="fil1" d="M1636 492c1,-3 5,-4 8,-3 5,2 10,5 16,7 0,3 0,7 -4,8 -6,4 -12,10 -19,13 -6,1 -13,1 -19,0 0,-1 0,-3 0,-4 7,-7 12,-14 18,-21l0 0zm-3 8c-3,5 -8,8 -9,13 5,0 10,1 14,-1 6,-4 11,-7 17,-11 0,-1 0,-2 0,-3 -4,-2 -9,-4 -14,-7 -3,3 -5,6 -8,9z"></path>
   </g>
   <path class="fil1" d="M1346 562c11,-23 38,-37 63,-35 16,-1 32,4 45,13 3,3 8,6 6,11 -3,5 -8,9 -12,13 -1,0 -3,0 -4,0 -9,-5 -16,-12 -26,-13 -20,-5 -42,6 -50,25 -3,8 0,17 -2,25 0,-6 2,-12 -3,-17 2,-14 12,-26 24,-33 9,-5 19,-5 29,-4 11,2 20,9 30,14 4,-4 8,-8 12,-13 -12,-12 -29,-18 -45,-18 -17,-1 -35,3 -49,14 -10,9 -18,21 -22,34 -1,10 -1,20 0,30 4,19 18,34 35,43 26,13 60,7 80,-13 1,-5 -4,-8 -8,-11 -4,-3 -8,2 -11,4 -13,9 -30,12 -45,7 -13,-5 -25,-15 -27,-28 4,2 6,8 9,11 8,10 20,17 32,16 14,0 28,-5 36,-16 8,-1 11,8 18,11 0,4 1,9 -3,11 -11,7 -21,15 -35,16 -17,2 -37,2 -52,-8 -17,-9 -30,-27 -33,-47 -3,-14 2,-29 8,-42z"></path>
   <path class="fil1" d="M1603 533c3,-6 9,-5 15,-6 11,0 23,-1 34,3 7,2 14,5 18,11 -6,-1 -11,-6 -17,-8 -17,-5 -34,-3 -50,0z"></path>
   <path class="fil1" d="M1229 550c1,-2 3,-4 5,-5 -1,6 -4,12 -7,18 -10,23 -22,45 -32,68 -3,7 -8,15 -9,24 5,0 10,0 15,0 3,0 5,-2 6,-5 4,-8 7,-18 12,-25 22,0 43,-1 65,0 5,9 8,20 15,29 6,1 13,1 19,1 -2,-6 -3,-11 -6,-16 -8,-15 -14,-32 -23,-47 -1,-3 -2,-5 -2,-8 0,-1 0,-3 0,-4 4,6 7,12 10,19 3,6 7,12 9,19 2,8 7,15 10,22 2,6 8,11 7,18 -9,0 -18,1 -27,0 -5,-8 -8,-17 -12,-26 -1,-2 -3,-5 -6,-4 -16,0 -32,0 -49,0 -3,0 -6,-1 -8,1 -6,9 -7,22 -16,28 -7,2 -15,1 -22,1 -1,-7 2,-13 5,-19 7,-13 11,-26 18,-38 3,-8 7,-15 11,-22 3,-10 9,-19 12,-29z"></path>
   <path class="fil1" d="M1612 549c15,-5 34,-3 46,8 6,4 9,11 14,16 3,14 5,31 -3,43 -1,2 -2,4 -5,4 3,-6 6,-12 7,-19 0,-10 0,-22 -6,-30 -10,-18 -32,-24 -51,-19 -10,4 -20,10 -24,20 -5,9 -6,19 -5,29 1,6 4,12 6,18l-2 2c-4,-8 -8,-16 -8,-25 -2,-20 12,-40 31,-47z"></path>
   <path class="fil1" d="M1249 557c2,0 4,0 6,0 -1,1 -1,3 -1,4 -2,1 -5,2 -6,4 -5,14 -11,27 -18,40 14,1 27,0 41,0 -3,-15 -15,-27 -16,-43 2,2 3,4 4,6 3,8 6,14 10,21 1,3 1,7 4,9 1,3 2,7 0,10 -15,1 -30,1 -44,1 -2,-11 7,-19 9,-29 4,-8 7,-16 11,-23z"></path>
   <path class="fil1" d="M1591 619c8,7 15,15 25,16 8,1 17,1 26,0 9,-2 16,-9 22,-15l1 2c-5,9 -15,14 -25,17 -13,3 -28,1 -39,-7 -4,-3 -10,-6 -10,-13z"></path>
   <path class="fil1" d="M1658 651c11,-4 20,-13 27,-22 0,2 0,3 -1,5 -5,9 -13,14 -22,19 -9,5 -20,6 -31,8 -11,1 -22,-2 -33,-6 0,-1 -1,-2 -1,-3 13,4 26,7 40,5 7,0 14,-4 21,-6z"></path>
   <g>
    <path class="fil1" d="M1721 672c1,-2 3,-2 5,-1 6,2 11,6 17,8 -1,2 0,4 -2,6 -6,6 -14,9 -20,15 -7,1 -14,1 -21,0 1,-3 2,-5 4,-7 6,-7 11,-14 17,-21l0 0zm-16 24c4,1 9,1 13,0 8,-3 13,-10 20,-13 -2,-6 -9,-6 -14,-8 -8,6 -13,14 -19,21z"></path>
   </g>
   <g>
    <path class="fil1" d="M865 709c7,0 15,0 23,0 1,1 2,2 3,3 0,42 0,83 0,124 -1,1 -2,2 -4,3 -7,0 -14,1 -21,0 -2,-2 -3,-5 -3,-7 0,-38 1,-76 0,-114 0,-3 1,-6 2,-9l0 0zm3 3c-1,3 -1,5 -1,8 0,38 0,76 0,114 7,1 13,1 20,1 1,-41 1,-82 0,-123 -6,0 -13,0 -19,0z"></path>
   </g>
   <path class="fil1" d="M1019 709c7,0 15,0 22,0 1,1 2,2 3,3 0,41 0,83 0,124 -1,1 -2,2 -3,3 -6,0 -12,1 -18,0 -4,-2 -6,-6 -9,-9l1 -1c0,-1 0,-3 0,-4 2,3 4,7 8,9 5,1 11,1 17,1 0,-35 0,-70 0,-105 0,-6 0,-12 -1,-18 -6,0 -12,0 -19,0 0,28 0,56 0,84 -6,0 -10,-4 -13,-8 -17,-23 -36,-43 -52,-66 2,0 4,1 6,2 9,14 21,26 31,39 7,9 14,19 22,28 1,-1 3,-1 4,-1 -1,-17 -1,-34 -1,-51 1,-10 -1,-20 2,-30z"></path>
   <path class="fil1" d="M1289 722c9,-7 19,-14 31,-15 19,-1 40,3 55,15 1,3 1,7 -2,9 -3,4 -5,8 -8,12 -4,1 -6,-3 -9,-5 -3,-3 -8,-3 -12,-5 -9,-3 -18,-2 -27,-1 -7,2 -13,9 -10,17 5,6 13,8 20,10 13,4 27,7 40,14 8,6 16,15 15,26 2,15 -8,29 -21,36 -8,4 -18,4 -27,6 -13,-2 -27,-1 -39,-9 -6,-3 -11,-6 -16,-9 -3,-2 -4,-6 -2,-8 5,-4 9,-10 14,-14 3,2 9,3 7,8 -2,-1 -5,-2 -7,-4 -4,4 -8,9 -12,13 6,7 14,10 22,13 16,6 34,10 51,3 11,-2 21,-10 25,-21 4,-10 0,-21 -4,-31 -14,-15 -37,-15 -55,-22 -7,-2 -15,-7 -14,-15 -1,-8 6,-14 13,-17 16,-5 32,2 46,11 4,-4 9,-8 9,-14 -1,-3 -5,-4 -7,-5 -16,-9 -36,-12 -54,-7 -12,4 -25,12 -27,26 0,8 -1,17 3,24 8,10 20,15 33,17 13,4 28,5 38,16 0,5 1,10 -1,14 -4,7 -12,11 -19,11 -13,1 -28,-1 -37,-11 4,-1 8,3 12,4 9,4 20,4 29,3 7,-2 14,-7 13,-15 0,-7 -7,-10 -12,-12 -14,-4 -28,-7 -41,-12 -5,-3 -10,-6 -14,-10 -10,-13 -10,-33 1,-46z"></path>
   <g>
    <path class="fil1" d="M1573 709c31,-1 62,0 93,0 2,0 5,-1 6,1 2,6 2,12 1,17 0,4 -3,6 -7,6 -21,0 -42,0 -63,0 -2,0 -6,1 -6,4 0,9 -1,17 1,25l1 1c21,0 41,0 61,0 1,1 3,2 4,3 -1,7 2,15 -2,21 -22,2 -44,-1 -65,1 0,14 0,27 0,40 0,4 0,8 -2,11 -8,1 -15,0 -22,0 -1,-1 -3,-2 -4,-3 0,-41 0,-83 0,-124 1,-1 3,-2 4,-3l0 0zm0 3c0,41 0,83 0,124 6,0 12,0 19,0 1,-3 1,-6 1,-9 0,-14 0,-28 1,-41 3,-1 6,-2 9,-2 17,0 34,0 51,0 2,0 5,1 7,-1 1,-5 1,-10 1,-15 -22,0 -43,0 -64,0 -2,0 -4,-1 -4,-3 -1,-11 -1,-22 0,-34 3,-1 6,-2 9,-1 22,0 44,0 66,0 0,-6 0,-12 0,-18 -32,0 -64,0 -96,0z"></path>
   </g>
   <path class="fil1" d="M1805 709c8,-1 15,-1 23,-1 0,1 0,3 0,4 -7,0 -14,0 -21,0 -6,13 -12,26 -19,39 -4,9 -9,18 -10,28 -1,-1 -2,-2 -2,-3 -3,11 -9,21 -14,32 -3,9 -9,17 -12,27 7,0 13,0 20,0 6,-9 8,-19 13,-28 2,-3 5,-2 7,-2 19,0 38,0 57,0 9,8 9,22 17,31 6,1 12,0 18,0 0,-3 0,-5 0,-8 5,2 6,6 6,10 -9,2 -18,2 -26,1 -7,-9 -10,-20 -14,-29 -3,-2 -7,-2 -10,-2 -17,1 -34,0 -51,1 -8,8 -9,21 -16,30 -8,0 -16,0 -24,1 -1,-8 3,-14 6,-20 3,-10 9,-19 13,-30 7,-13 13,-26 19,-39 7,-14 12,-29 20,-42z"></path>
   <path class="fil1" d="M690 722l0 -2c8,1 12,9 15,16 9,20 -2,46 -23,52 -2,1 -6,3 -3,5 9,9 14,22 23,31 3,4 8,8 7,13 -4,4 -10,2 -15,2 -5,-1 -13,1 -16,-5 -4,-8 -12,-13 -14,-22 1,1 3,2 4,2 4,8 10,14 15,21 8,0 16,0 23,-1 -5,-8 -12,-15 -17,-23 -4,-6 -10,-11 -14,-17 -2,-3 0,-5 1,-8 15,-3 29,-15 28,-31 1,-12 -2,-26 -13,-32 0,0 -1,-1 -1,-1z"></path>
   <path class="fil1" d="M1114 727c1,0 2,-1 3,-2 -2,12 -9,21 -13,32 -7,15 -13,30 -21,44 -4,12 -10,22 -15,33 6,4 14,1 21,2 -7,5 -16,1 -23,2 -1,-3 -1,-6 1,-9 4,-8 8,-16 12,-24 4,-14 11,-27 18,-41 7,-12 11,-25 17,-37z"></path>
   <path class="fil1" d="M1806 755c3,-6 4,-14 11,-18 5,6 9,14 9,22 -5,-5 -7,-11 -9,-17 -9,13 -13,29 -21,43 14,0 27,0 40,0 -2,-9 -8,-16 -10,-25 4,2 5,7 8,11 2,6 7,11 4,18 -15,0 -29,0 -43,0 -2,-13 7,-23 11,-34z"></path>
   <path class="fil1" d="M1853 767l2 -2c5,10 10,20 14,31 4,10 12,20 13,32 -3,-3 -6,-7 -7,-12 -7,-16 -16,-32 -22,-49z"></path>
   <path class="fil1" d="M1178 779c4,1 4,6 6,9 5,11 11,22 15,34 3,5 7,10 4,17 -8,-1 -18,3 -25,-3 -5,-8 -8,-17 -12,-25 -1,-3 -4,-3 -7,-3 -16,0 -32,0 -49,0 -2,0 -5,0 -7,3 -4,8 -8,17 -12,26 -1,-1 -2,-2 -2,-3 4,-10 8,-20 14,-29 21,0 42,0 64,0 4,9 8,18 12,28 6,4 16,5 22,1 -2,-9 -8,-18 -12,-27 -3,-9 -10,-18 -11,-28z"></path>
   <path class="fil1" d="M1455 815c6,-1 12,2 19,2 6,0 12,-2 18,-3 -1,1 -2,3 -2,4 -10,3 -22,4 -32,0 -2,0 -3,-1 -3,-3z"></path>
   <path class="fil2" d="M1633 500c3,-3 5,-6 8,-9 5,3 10,5 14,7 0,1 0,2 0,3 -6,4 -11,7 -17,11 -4,2 -9,1 -14,1 1,-5 6,-8 9,-13z"></path>
   <path class="fil2" d="M730 531c7,0 14,-1 21,-1 1,25 0,50 1,75 0,4 0,8 2,12 1,2 2,5 3,8 0,0 2,0 2,0 1,2 2,4 3,6 4,2 7,4 11,6 7,1 15,1 23,0 4,0 8,-3 12,-4 3,-4 7,-7 8,-11 1,-2 2,-3 3,-5 1,-27 1,-55 0,-83 4,-7 14,-2 21,-3 1,0 3,1 4,1 0,25 0,50 0,74 0,7 -3,13 -4,19 -1,1 -1,4 -2,5 -1,1 -2,2 -3,4 -4,10 -14,16 -23,20 -5,0 -8,4 -13,4 -13,0 -26,2 -39,-4 -10,-4 -20,-11 -24,-21 -1,-1 -2,-1 -2,-2 -1,-3 -2,-7 -3,-11 -2,-6 -1,-14 -1,-21 0,-23 -1,-46 0,-68z"></path>
   <path class="fil2" d="M888 531c5,-1 11,-1 17,0 1,1 3,2 5,3 0,3 2,4 5,4 0,2 0,5 3,5 1,3 3,6 5,8 3,4 6,7 9,11 0,0 1,0 2,0 1,6 6,10 10,14 2,4 6,7 8,11 2,4 7,7 9,11 1,1 2,2 3,2 1,3 2,5 5,6 1,2 1,5 4,5 0,1 0,2 0,3 2,0 4,0 6,0 -1,-24 0,-49 -1,-74 1,-3 0,-6 1,-9 6,-1 12,0 18,-1 1,1 3,2 4,3 0,38 0,77 0,115 0,3 -1,6 -2,8 -6,0 -13,0 -19,0 0,-1 0,-2 0,-3 -1,0 -2,0 -3,0 -1,-4 -3,-6 -4,-8 -4,-3 -7,-7 -9,-11 -3,-1 -3,-5 -6,-6 -2,-2 -3,-4 -5,-6 -5,-6 -10,-13 -16,-19 -1,-2 -2,-4 -4,-5 -1,-2 -3,-4 -4,-6 -7,-7 -12,-14 -18,-22 -1,0 -3,1 -4,1 0,28 0,57 0,85 -8,0 -15,0 -23,0 0,-41 0,-82 0,-123 1,-1 3,-2 4,-2z"></path>
   <g>
    <path class="fil2" d="M1242 530c8,1 16,-2 23,2 0,1 0,3 0,4 2,2 3,5 4,8 2,3 3,6 4,9 3,4 4,8 5,12 0,0 2,0 2,0 1,3 1,6 3,9 2,3 3,6 4,10 0,3 1,5 2,8 9,15 15,32 23,47 3,5 4,10 6,16 -6,0 -13,0 -19,-1 -7,-9 -10,-20 -15,-29 -22,-1 -43,0 -65,0 -5,7 -8,17 -12,25 -1,3 -3,5 -6,5 -5,0 -10,0 -15,0 1,-9 6,-17 9,-24 10,-23 22,-45 32,-68 3,-6 6,-12 7,-18 0,-1 0,-1 0,-2 3,-1 3,-5 4,-8 1,-2 3,-3 4,-5l0 0zm7 27c-4,7 -7,15 -11,23 -2,10 -11,18 -9,29 14,0 29,0 44,-1 2,-3 1,-7 0,-10 -3,-2 -3,-6 -4,-9 -4,-7 -7,-13 -10,-21 -1,-2 -2,-4 -4,-6l-1 -1c0,-1 0,-3 1,-4 -2,0 -4,0 -6,0z"></path>
   </g>
   <path class="fil2" d="M597 532c1,0 3,-1 4,-1 30,-1 59,0 88,-1 2,0 4,1 7,2 -1,6 -1,11 -1,17 -1,1 -3,2 -4,2 -3,-2 -6,-1 -9,-1 -17,0 -35,0 -52,0 -4,0 -7,1 -10,1 0,11 0,22 0,33 1,1 3,1 4,2 6,0 12,1 18,-1 5,2 10,-1 15,1 10,1 21,-1 31,1 0,5 0,11 0,16 -1,1 -3,2 -4,2 -21,0 -43,0 -64,0 0,17 0,34 0,51 -8,0 -15,0 -23,0 0,-41 0,-82 0,-124z"></path>
   <g>
    <path class="fil2" d="M1044 532c2,0 4,-1 5,-2 17,1 34,0 51,1 4,2 9,1 14,1 3,2 6,2 9,2 2,4 7,4 10,5 1,3 4,3 6,4 0,3 2,3 4,4 5,5 12,10 14,18 4,2 4,6 5,10 2,3 2,6 3,9 0,9 1,19 -2,28 -3,3 -2,8 -6,10 -1,3 -1,7 -5,8 -1,3 -2,5 -5,5 -3,4 -7,8 -11,9 0,3 -2,3 -5,4 -3,1 -6,2 -8,4 -5,1 -10,2 -15,3 -2,1 -4,1 -6,1 -19,0 -38,0 -57,0 -1,-41 0,-82 -1,-124l0 0zm23 19c0,28 0,56 0,84 15,0 29,1 43,0 3,-1 6,-2 8,-3 3,-3 8,-3 9,-7 4,-1 5,-6 8,-8 0,-1 1,-3 2,-4 5,-11 5,-23 2,-35 -1,-1 -2,-3 -2,-3 -2,-5 -6,-9 -9,-13 -4,-3 -8,-8 -14,-8 -1,0 -2,-1 -2,-2 -15,-2 -30,-1 -45,-1z"></path>
   </g>
   <path class="fil2" d="M1364 544c14,-11 32,-15 49,-14 16,0 33,6 45,18 -4,5 -8,9 -12,13 -10,-5 -19,-12 -30,-14 -10,-1 -20,-1 -29,4 -12,7 -22,19 -24,33 0,6 0,13 1,19 0,1 1,3 2,5 0,0 0,1 0,2 2,13 14,23 27,28 15,5 32,2 45,-7 3,-2 7,-7 11,-4 4,3 9,6 8,11 -20,20 -54,26 -80,13 -17,-9 -31,-24 -35,-43 -1,-10 -1,-20 0,-30 4,-13 12,-25 22,-34z"></path>
   <path class="fil2" d="M1497 532c7,-2 15,-2 22,0 0,41 0,83 0,124 -7,0 -14,0 -22,0 0,-41 1,-83 0,-124z"></path>
   <g>
    <path class="fil2" d="M1594 534c3,0 6,-1 9,-1 16,-3 33,-5 50,0 6,2 11,7 17,8l2 0c1,2 2,3 3,5 1,0 3,0 3,0 1,3 3,5 5,6 2,2 2,5 5,5 1,3 1,5 2,8 1,0 2,0 3,0 0,2 0,4 1,7 5,11 5,24 3,36 -2,2 -2,3 -3,5 0,4 -1,7 -3,10 -3,3 -4,7 -7,11 1,-2 1,-3 1,-5 -7,9 -16,18 -27,22 -7,2 -14,6 -21,6 -14,2 -27,-1 -40,-5 -7,-2 -12,-8 -18,-10 -2,-5 -6,-8 -9,-11 -2,-3 -4,-6 -5,-9 -3,-2 -2,-6 -3,-9 -3,-12 -2,-24 -1,-36 1,-3 1,-6 2,-9 3,-3 4,-7 7,-11 4,-4 6,-10 11,-11 1,-1 2,-2 2,-3 4,-2 7,-5 11,-6 0,-1 0,-2 0,-3l0 0zm18 15c-19,7 -33,27 -31,47 0,9 4,17 8,25l2 -2 0 0c0,7 6,10 10,13 11,8 26,10 39,7 10,-3 20,-8 25,-17l-1 -2c3,0 4,-2 5,-4 8,-12 6,-29 3,-43 -5,-5 -8,-12 -14,-16 -12,-11 -31,-13 -46,-8z"></path>
   </g>
   <path class="fil2" d="M1736 531c6,-1 12,0 18,-1 2,2 5,3 7,4 1,5 5,7 7,11 6,5 10,12 16,17 1,5 5,8 8,11 4,2 3,8 8,8 1,4 4,9 8,11 1,5 6,7 8,11 5,4 7,12 14,11 0,-27 0,-54 0,-82 1,0 3,-1 4,-1 5,0 11,-1 16,0 1,4 1,9 1,14 0,37 0,73 0,110 -7,0 -14,0 -21,-1 -5,-7 -11,-14 -17,-21 -2,-2 -3,-5 -6,-5 0,-6 -6,-8 -8,-13 -5,-3 -6,-9 -11,-12 -1,-3 -2,-4 -5,-5 -1,-3 -2,-6 -5,-8 -3,-1 -2,-5 -6,-6 -1,-2 -2,-4 -4,-6 -1,-2 -2,-4 -5,-5 0,0 0,-2 0,-2 -2,0 -3,-1 -5,-1 0,29 0,57 0,86 -7,0 -14,0 -21,0 -1,-2 -2,-5 -2,-8 0,-36 0,-72 0,-108 0,-3 0,-6 1,-9z"></path>
   <path class="fil2" d="M1705 696c6,-7 11,-15 19,-21 5,2 12,2 14,8 -7,3 -12,10 -20,13 -4,1 -9,1 -13,0z"></path>
   <path class="fil2" d="M927 711c7,0 14,-2 21,1 1,3 3,5 5,6 1,1 1,3 2,4 16,23 35,43 52,66 3,4 7,8 13,8 0,-28 0,-56 0,-84 7,0 13,0 19,0 1,6 1,12 1,18 0,35 0,70 0,105 -6,0 -12,0 -17,-1 -4,-2 -6,-6 -8,-9 0,1 0,3 0,4 -4,-7 -10,-12 -13,-18 -2,-1 -4,-3 -6,-5 -3,-9 -14,-13 -17,-22 0,0 -1,0 -2,0 -1,-3 -3,-5 -4,-8 -3,-2 -5,-3 -6,-6 -4,-6 -11,-11 -13,-18 -2,0 -4,-1 -5,-2 -1,29 -1,57 0,86 -8,1 -15,0 -23,1 0,-2 -1,-4 -2,-5 0,-5 0,-10 2,-14 -2,-4 -3,-10 0,-14 -3,-4 -1,-10 -2,-14 1,-2 2,-5 2,-7 -2,-3 -1,-6 -1,-9 -1,-7 -1,-14 -1,-21 0,-13 0,-25 0,-38 1,-1 2,-3 3,-4z"></path>
   <g>
    <path class="fil2" d="M1122 713c7,-4 15,-2 22,-2 1,0 3,1 4,2 1,3 1,8 5,10 1,4 2,7 3,11 1,2 3,4 4,7 0,0 0,2 0,3 2,1 3,2 4,4 1,6 5,10 6,15 1,2 2,4 3,6 1,2 1,3 2,5 0,1 2,2 2,3 0,0 1,1 1,2 1,10 8,19 11,28 4,9 10,18 12,27 -6,4 -16,3 -22,-1 -4,-10 -8,-19 -12,-28 -22,0 -43,0 -64,0 -6,9 -10,19 -14,29l0 2c-7,-1 -15,2 -21,-2 5,-11 11,-21 15,-33 8,-14 14,-29 21,-44 4,-11 11,-20 13,-32l0 -1c1,-1 2,-2 3,-3 1,-3 2,-6 2,-8l0 0zm6 37c-3,3 -4,8 -5,12 -3,2 -2,6 -4,8 -2,2 -3,5 -3,8 -1,0 -2,2 -3,2 0,3 0,5 0,7 14,0 28,0 42,1 1,-11 -6,-20 -10,-29 -2,-7 -6,-12 -8,-19 -1,0 -3,0 -5,0 -1,3 -3,7 -4,10z"></path>
   </g>
   <g>
    <path class="fil2" d="M597 712c7,-2 15,1 22,-1 20,1 41,-2 60,3 2,2 5,3 7,4 1,0 3,1 4,2l0 2c0,0 1,1 1,1 11,6 14,20 13,32 1,16 -13,28 -28,31 -1,3 -3,5 -1,8 4,6 10,11 14,17 5,8 12,15 17,23 -7,1 -15,1 -23,1 -5,-7 -11,-13 -15,-21 -1,0 -3,-1 -4,-2 -4,-5 -8,-10 -11,-16 -2,-1 -4,-2 -6,-3 -9,1 -18,-2 -27,1 0,14 0,28 0,42 -8,1 -15,0 -23,0 0,-41 0,-82 0,-124l0 0zm23 19c0,14 0,27 0,41 14,0 29,0 43,0 4,-1 10,0 12,-5 5,-1 6,-7 8,-10 0,-5 0,-10 -2,-15 -3,-3 -6,-6 -9,-8 -2,-1 -4,-2 -6,-2 -15,-1 -30,-1 -46,-1z"></path>
   </g>
   <path class="fil2" d="M736 712c5,-1 11,-2 16,-1 23,-1 47,0 70,0 4,-1 9,0 13,1 0,6 0,12 -1,18 -25,0 -49,-1 -73,0 -2,11 -1,23 -1,34 22,1 44,0 66,1 0,5 0,11 0,17 -2,0 -6,-1 -8,2 -2,-2 -5,-2 -8,-1 -3,1 -6,1 -9,1 -3,-2 -6,-1 -9,-1 -3,-1 -6,-2 -9,1 -3,-3 -8,0 -12,0 -3,0 -7,-3 -11,-1 -1,11 -1,23 0,35 10,1 19,-1 29,0 4,1 9,0 14,0 10,1 21,0 32,1 0,5 0,11 0,17 -5,1 -10,2 -15,2 -3,-2 -7,-2 -10,0 -2,0 -4,-1 -6,-1 -7,-1 -15,-1 -22,0 -5,2 -11,-1 -16,-1 -8,1 -15,0 -23,1 -3,0 -5,-1 -7,-1 0,-41 0,-83 0,-124z"></path>
   <path class="fil2" d="M868 712c6,0 13,0 19,0 1,41 1,82 0,123 -7,0 -13,0 -20,-1 0,-38 0,-76 0,-114 0,-3 0,-5 1,-8z"></path>
   <path class="fil2" d="M1311 713c18,-5 38,-2 54,7 2,1 6,2 7,5 0,6 -5,10 -9,14 -14,-9 -30,-16 -46,-11 -7,3 -14,9 -13,17 -1,8 7,13 14,15 18,7 41,7 55,22 4,10 8,21 4,31 -4,11 -14,19 -25,21 -17,7 -35,3 -51,-3 -8,-3 -16,-6 -22,-13 4,-4 8,-9 12,-13 2,2 5,3 7,4 1,0 2,1 3,1 9,10 24,12 37,11 7,0 15,-4 19,-11 2,-4 1,-9 1,-14 -10,-11 -25,-12 -38,-16 -13,-2 -25,-7 -33,-17 -4,-7 -3,-16 -3,-24 2,-14 15,-22 27,-26z"></path>
   <g>
    <path class="fil2" d="M1446 714c11,-6 24,-3 37,-4 7,0 13,3 19,4 2,2 5,3 7,4 3,2 6,4 9,5 0,2 3,3 5,4 1,2 1,4 4,5 1,1 2,3 2,5 1,0 2,0 3,-1 0,7 7,10 6,16 1,0 2,0 3,0 0,5 0,10 2,15 1,12 -2,25 -7,36 -3,5 -7,9 -9,14 -3,0 -4,2 -6,5 -4,2 -8,7 -14,8 -1,1 -3,3 -5,4 -2,0 -5,1 -7,2 -1,0 -3,0 -4,1 -7,2 -16,1 -24,1 -7,1 -13,-1 -20,-2 -3,-3 -7,-4 -10,-5 -2,-2 -4,-3 -6,-4 -4,-3 -9,-7 -13,-11 -1,-2 -2,-4 -4,-5 -1,-3 -3,-6 -5,-9 -6,-12 -7,-26 -6,-40 2,-9 7,-17 11,-25 4,-1 4,-5 7,-7 1,-3 6,-3 7,-7 5,-3 10,-5 14,-9 1,0 3,0 4,0l0 0zm-7 29c-2,1 -3,3 -4,5 -5,4 -6,11 -6,18 0,10 -1,21 3,31 3,3 5,6 7,8 4,4 9,7 14,10l2 0c0,2 1,3 3,3 10,4 22,3 32,0 0,-1 1,-3 2,-4 5,0 8,-3 12,-6 5,-6 10,-12 12,-19 1,-2 2,-4 2,-6 1,-6 0,-12 0,-18 -1,-2 -2,-5 -3,-8 -2,-7 -8,-12 -13,-18 -3,-2 -6,-4 -8,-6 -3,-1 -7,-2 -10,-3 -5,0 -10,-1 -15,-1 -12,0 -23,6 -30,14z"></path>
   </g>
   <path class="fil2" d="M1573 712c32,0 64,0 96,0 0,6 0,12 0,18 -22,0 -44,0 -66,0 -3,-1 -6,0 -9,1 -1,12 -1,23 0,34 0,2 2,3 4,3 21,0 42,0 64,0 0,5 0,10 -1,15 -2,2 -5,1 -7,1 -17,0 -34,0 -51,0 -3,0 -6,1 -9,2 -1,13 -1,27 -1,41 0,3 0,6 -1,9 -7,0 -13,0 -19,0 0,-41 0,-83 0,-124z"></path>
   <path class="fil2" d="M1699 712c7,-1 15,-3 23,0 1,7 -1,15 0,22 -1,34 0,68 0,102 -8,0 -16,1 -23,0 0,-41 0,-82 0,-124z"></path>
   <g>
    <path class="fil2" d="M1807 712c7,0 14,0 21,0l1 0c1,2 1,4 1,6 6,6 7,15 12,23 1,4 4,8 4,13 0,0 2,0 3,0 0,3 0,7 3,8 0,1 1,3 1,5 6,17 15,33 22,49 1,5 4,9 7,12l0 0c0,3 0,5 0,8 -6,0 -12,1 -18,0 -8,-9 -8,-23 -17,-31 -19,0 -38,0 -57,0 -2,0 -5,-1 -7,2 -5,9 -7,19 -13,28 -7,0 -13,0 -20,0 3,-10 9,-18 12,-27 5,-11 11,-21 14,-32 0,1 1,2 2,3 1,-10 6,-19 10,-28 7,-13 13,-26 19,-39l0 0zm-1 43c-4,11 -13,21 -11,34 14,0 28,0 43,0 3,-7 -2,-12 -4,-18 -3,-4 -4,-9 -8,-11l0 -1c0,-8 -4,-16 -9,-22 -7,4 -8,12 -11,18z"></path>
   </g>
  </g>
 </g>
</svg>
