<?xml version="1.0" encoding="UTF-8" ?>
<!DOCTYPE svg PUBLIC "-//W3C//DTD SVG 1.1//EN" "http://www.w3.org/Graphics/SVG/1.1/DTD/svg11.dtd">
<svg width="924pt" height="1020pt" viewBox="0 0 924 1020" version="1.1" xmlns="http://www.w3.org/2000/svg">
<g id="#395aa8ff">
<path fill="#395aa8" opacity="1.00" d=" M 444.22 3.21 C 469.52 2.86 494.88 2.98 520.03 6.05 C 589.64 13.95 657.25 38.65 715.60 77.44 C 774.36 116.32 823.75 169.26 858.44 230.60 C 891.76 289.28 911.41 355.62 915.49 422.97 C 916.75 441.97 916.29 461.02 916.38 480.04 C 916.32 512.37 916.48 544.70 916.30 577.02 C 915.04 664.07 887.53 750.50 838.14 822.20 C 799.16 879.14 746.89 926.90 686.63 960.53 C 637.39 988.09 582.86 1006.15 526.90 1013.41 C 498.10 1017.34 468.97 1017.63 439.97 1016.97 C 375.57 1015.00 311.63 998.93 254.05 970.00 C 193.99 939.98 140.90 896.20 99.85 843.08 C 47.72 775.96 15.42 693.69 8.16 609.00 C 5.84 585.06 6.54 561.00 6.44 536.99 C 6.44 507.99 6.44 479.00 6.43 450.00 C 6.43 375.65 25.40 301.39 61.21 236.22 C 102.32 160.92 165.55 97.93 241.00 57.10 C 303.15 23.25 373.48 4.68 444.22 3.21 M 422.56 19.78 C 362.09 24.06 302.63 41.47 249.29 70.26 C 176.07 109.67 114.68 170.71 74.83 243.69 C 40.94 305.45 22.60 375.61 21.97 446.06 C 21.91 488.71 21.92 531.37 21.97 574.02 C 22.56 643.19 40.20 712.11 72.90 773.06 C 103.32 830.06 146.85 879.93 198.90 918.17 C 254.38 958.93 319.78 986.14 387.84 996.59 C 421.92 1002.00 456.57 1002.46 490.97 1001.09 C 582.44 996.69 672.05 961.87 742.65 903.58 C 793.38 861.89 834.65 808.67 861.85 748.87 C 887.50 692.96 900.85 631.50 900.81 570.00 C 900.81 529.34 900.81 488.67 900.81 448.01 C 900.54 364.59 875.12 281.54 828.89 212.12 C 791.20 155.43 740.06 107.69 680.73 74.26 C 619.69 39.75 550.14 20.46 480.03 18.78 C 460.87 18.49 441.68 18.36 422.56 19.78 Z" />
<path fill="#395aa8" opacity="1.00" d=" M 443.38 38.38 C 468.99 37.93 494.70 38.10 520.14 41.45 C 587.89 49.83 653.38 75.46 708.92 115.14 C 761.70 152.81 805.66 202.86 835.76 260.33 C 867.42 320.32 883.85 388.18 883.32 456.01 C 883.31 483.99 883.32 511.98 883.31 539.97 C 883.26 559.46 883.69 578.98 882.12 598.43 C 875.54 690.40 836.74 779.56 774.25 847.32 C 731.65 893.88 678.36 930.63 619.54 953.56 C 591.69 964.50 562.64 972.39 533.07 977.01 C 501.00 982.21 468.40 982.74 435.99 981.63 C 372.32 978.99 309.43 961.13 253.69 930.27 C 198.88 900.00 151.21 857.02 115.10 805.88 C 73.88 747.50 48.06 678.30 41.38 607.12 C 39.26 586.80 39.43 566.36 39.50 545.97 C 39.50 514.64 39.50 483.30 39.49 451.97 C 39.47 382.46 57.57 313.13 91.30 252.37 C 123.79 193.55 170.92 142.96 227.08 106.09 C 291.03 64.02 366.84 40.21 443.38 38.38 M 271.84 110.58 C 252.80 116.60 235.23 126.50 218.93 137.90 C 193.26 155.85 170.47 177.46 145.90 196.82 C 144.01 198.26 142.10 200.44 142.80 203.02 C 143.66 207.19 144.57 211.62 142.78 215.69 C 139.11 225.44 129.29 230.35 122.41 237.49 C 116.37 243.67 113.02 251.99 111.53 260.40 C 109.43 272.13 110.33 284.12 111.52 295.90 C 112.50 306.64 113.22 317.88 109.38 328.18 C 106.97 334.78 102.18 340.90 95.35 343.24 C 90.47 345.10 84.38 346.83 82.48 352.33 C 80.49 358.95 84.64 365.14 86.90 371.10 C 92.10 384.04 94.33 399.64 87.20 412.30 C 82.53 421.00 73.86 428.47 74.05 439.06 C 74.37 448.26 82.89 453.76 86.41 461.59 C 88.13 465.26 87.78 469.55 86.12 473.18 C 82.02 482.68 77.59 492.49 77.61 503.05 C 77.51 508.74 79.39 514.17 80.61 519.66 C 83.20 530.47 85.55 541.35 88.81 551.99 C 89.60 554.03 90.15 556.70 92.41 557.61 C 94.16 558.20 95.82 557.12 97.21 556.20 C 102.63 552.37 108.43 549.05 114.56 546.51 C 122.41 543.32 131.60 543.86 138.99 548.02 C 148.54 553.33 157.68 560.57 168.92 561.67 C 174.19 562.04 180.38 561.28 184.16 557.23 C 184.16 550.78 181.00 544.98 179.42 538.86 C 175.04 522.55 170.62 506.25 166.18 489.97 C 165.36 487.19 164.86 483.42 167.66 481.57 C 172.28 478.61 177.95 481.81 182.87 480.09 C 183.94 479.65 185.58 478.80 184.64 477.42 C 178.37 464.78 172.24 452.04 167.07 438.90 C 165.89 436.21 165.85 432.00 169.07 430.76 C 172.40 430.00 175.72 431.41 178.99 431.94 C 182.22 432.59 186.42 433.30 188.66 430.21 C 185.30 422.06 180.69 414.04 180.50 405.00 C 180.27 393.54 188.20 383.61 187.40 372.07 C 186.40 359.77 179.89 348.51 179.95 336.04 C 179.91 329.34 182.51 322.86 186.49 317.55 C 195.70 305.13 210.00 297.34 218.14 284.02 C 239.54 250.12 264.34 218.08 294.03 191.01 C 298.78 186.64 303.94 182.08 305.91 175.71 C 307.56 170.87 306.39 164.90 302.20 161.72 C 299.51 159.53 295.77 159.58 292.57 160.37 C 283.61 162.59 275.16 166.54 267.31 171.34 C 247.00 183.81 230.81 201.63 211.87 215.91 C 210.34 217.41 207.37 217.34 206.75 214.97 C 205.61 210.17 208.12 205.45 210.49 201.43 C 223.73 181.54 243.68 166.92 265.34 157.31 C 275.25 153.07 285.04 147.56 296.01 146.84 C 305.72 146.11 315.44 151.21 320.68 159.35 C 323.40 163.46 325.49 168.47 330.14 170.80 C 335.02 173.17 340.66 172.65 345.91 172.26 C 351.85 171.82 358.07 169.58 361.82 164.75 C 363.91 162.34 361.93 158.59 358.97 158.24 C 354.80 157.67 350.43 157.94 346.57 156.00 C 347.45 154.88 348.51 153.81 350.04 153.76 C 356.62 152.46 363.49 155.21 369.94 152.93 C 372.91 151.96 375.53 148.40 373.81 145.35 C 371.35 142.12 367.05 141.28 363.25 140.82 C 358.55 139.97 353.41 141.06 349.03 138.93 C 349.06 138.52 349.12 137.69 349.16 137.28 C 354.73 134.46 361.21 135.71 367.02 137.04 C 372.91 138.37 378.77 141.43 384.95 140.30 C 387.95 139.72 388.99 135.85 387.65 133.40 C 386.57 131.70 384.64 130.89 382.89 130.10 C 375.92 127.24 368.49 125.44 360.96 125.06 C 359.42 124.84 357.67 125.01 356.40 123.98 C 356.21 121.69 359.18 121.10 360.93 120.93 C 372.37 120.59 382.80 126.52 394.06 127.43 C 399.28 127.90 401.33 121.09 398.67 117.40 C 395.55 112.78 390.03 110.71 385.00 108.90 C 367.28 103.40 348.52 101.94 330.05 102.54 C 310.44 102.95 290.61 104.59 271.84 110.58 M 549.17 108.26 C 544.37 109.56 539.05 110.77 535.62 114.66 C 533.33 117.19 533.33 121.83 536.41 123.74 C 539.52 125.81 543.44 124.99 546.88 124.44 C 555.22 122.84 563.58 121.07 572.10 120.90 C 573.55 120.97 575.83 120.87 575.99 122.83 C 575.14 123.69 574.11 124.37 572.90 124.53 C 564.80 126.09 556.28 126.32 548.63 129.63 C 545.72 130.55 543.22 135.45 547.04 136.90 C 554.31 139.20 561.86 136.27 569.09 135.17 C 572.78 134.64 577.60 133.23 580.14 136.96 C 574.60 141.41 566.50 138.74 560.59 142.66 C 558.08 143.75 556.55 147.91 559.48 149.42 C 566.86 152.08 574.87 147.55 582.30 150.00 C 579.38 154.30 572.95 151.81 569.34 155.37 C 566.66 156.90 568.00 160.60 570.62 161.29 C 577.85 163.33 585.47 161.15 592.80 162.62 C 595.86 163.10 599.98 164.24 602.07 161.15 C 603.74 157.22 601.16 152.95 602.00 148.88 C 603.25 141.68 609.75 135.84 617.10 135.57 C 627.15 135.21 636.91 138.74 645.64 143.47 C 672.15 156.93 695.85 175.27 717.73 195.27 C 727.61 204.67 737.12 215.12 742.43 227.86 C 743.68 230.23 741.96 233.61 739.05 233.05 C 734.65 232.01 732.72 227.25 729.03 224.98 C 705.73 203.57 683.65 180.62 657.88 162.07 C 648.58 155.46 638.89 148.61 627.50 146.28 C 622.72 145.26 616.97 145.71 613.58 149.65 C 610.46 153.21 611.25 158.60 613.56 162.37 C 619.61 172.72 629.63 179.72 638.61 187.31 C 657.02 203.17 674.99 219.81 689.80 239.17 C 697.06 248.54 703.43 258.56 709.12 268.96 C 716.73 282.36 725.97 295.28 738.71 304.26 C 744.06 308.17 750.48 311.01 754.38 316.60 C 758.38 322.32 759.45 329.37 761.15 335.98 C 763.34 344.45 765.58 352.90 767.72 361.39 C 771.64 377.02 775.74 392.81 776.10 409.01 C 776.38 428.04 771.42 446.63 765.73 464.63 C 758.31 487.95 750.38 511.10 742.39 534.24 C 740.14 540.54 739.01 548.09 742.87 554.03 C 746.94 560.56 755.63 562.62 762.76 560.76 C 769.11 559.29 773.69 554.38 778.84 550.75 C 784.33 546.69 791.10 544.35 797.94 544.33 C 804.35 544.26 810.57 546.43 816.99 546.10 C 825.85 545.66 834.20 540.36 838.65 532.73 C 842.34 526.53 842.87 519.05 842.30 512.02 C 841.45 502.36 840.58 492.70 839.91 483.03 C 838.67 465.30 836.31 447.68 834.96 429.96 C 833.03 405.31 831.10 380.61 826.76 356.25 C 818.51 308.68 806.33 260.95 782.48 218.59 C 765.19 188.14 740.25 162.18 710.99 143.03 C 680.29 122.94 644.52 110.99 608.05 107.61 C 588.51 105.96 568.47 103.37 549.17 108.26 M 445.87 121.05 C 436.25 123.12 426.33 126.16 418.97 133.00 C 415.22 136.37 413.03 141.01 409.75 144.76 C 404.24 151.04 394.86 152.03 389.65 158.67 C 386.94 161.85 386.39 166.76 388.71 170.31 C 391.43 174.57 396.08 176.92 399.99 179.92 C 407.07 185.18 412.27 192.79 414.86 201.20 C 419.23 215.16 417.60 230.20 414.10 244.17 C 413.54 245.78 413.43 247.93 411.72 248.82 C 410.47 249.61 409.27 248.36 408.28 247.75 C 399.71 241.04 392.26 232.95 385.90 224.13 C 380.06 216.03 376.32 206.64 370.50 198.53 C 366.00 192.17 359.66 186.65 351.90 184.93 C 344.15 183.18 336.04 186.13 330.10 191.12 C 321.77 198.02 318.15 208.92 309.88 215.87 C 302.96 221.74 294.11 224.53 286.75 229.74 C 278.40 235.61 271.03 242.83 264.74 250.86 C 261.43 254.89 260.39 261.11 263.43 265.58 C 267.60 271.48 275.54 273.26 279.47 279.42 C 284.22 286.74 285.18 295.66 286.57 304.07 C 286.89 307.32 287.85 310.64 287.20 313.89 C 286.00 317.21 281.94 315.47 279.76 314.24 C 267.93 307.37 267.77 290.95 256.60 283.43 C 252.01 280.19 245.31 280.14 240.99 283.88 C 235.38 288.65 232.62 295.93 231.10 302.95 C 229.74 308.97 231.53 315.61 236.20 319.75 C 247.44 330.37 259.54 340.17 272.70 348.33 C 285.90 356.58 301.39 360.17 314.66 368.30 C 333.70 379.56 348.67 397.06 357.86 417.10 C 364.69 431.90 369.52 448.38 367.38 464.82 C 366.67 470.28 364.04 476.45 358.31 478.16 C 351.56 480.02 344.67 477.25 338.50 474.68 C 322.39 467.54 310.85 452.88 304.07 436.97 C 295.83 417.78 292.78 396.72 292.57 375.95 C 292.45 372.28 292.29 368.14 289.65 365.29 C 287.20 362.69 283.14 362.74 280.03 364.02 C 275.76 365.77 272.76 369.58 270.51 373.47 C 264.67 384.07 261.47 395.97 260.22 407.97 C 260.17 410.73 258.01 413.51 255.01 413.07 C 249.67 412.34 244.24 410.47 240.13 406.89 C 235.77 402.94 235.10 396.61 235.54 391.08 C 237.13 373.17 234.14 355.01 227.79 338.25 C 226.78 335.26 223.33 332.89 220.21 334.25 C 216.24 335.94 214.29 340.23 213.31 344.18 C 210.14 356.86 215.03 370.05 211.83 382.73 C 209.99 390.31 204.03 396.24 202.85 404.04 C 200.94 417.33 211.44 428.76 209.82 442.04 C 209.07 448.87 202.98 453.44 201.50 459.98 C 201.30 461.84 203.48 462.48 204.71 463.33 C 223.66 473.34 246.47 472.87 264.87 484.17 C 268.80 486.57 273.56 489.76 273.30 494.98 C 272.70 500.64 267.61 504.40 262.95 506.87 C 251.22 512.62 237.30 515.66 224.56 511.57 C 216.25 509.00 210.08 502.54 202.66 498.36 C 200.69 497.04 197.90 497.71 196.70 499.73 C 195.02 502.43 195.91 505.73 196.54 508.61 C 200.34 523.82 203.87 539.11 207.75 554.31 C 208.78 559.09 213.36 561.99 217.98 562.52 C 237.98 565.29 257.06 553.89 277.04 557.26 C 283.72 558.22 289.25 562.37 295.52 564.50 C 302.25 566.70 309.64 565.08 315.74 561.82 C 322.14 558.43 325.62 551.27 332.32 548.32 C 335.29 546.86 338.66 547.96 341.16 549.83 C 354.79 559.18 368.44 569.33 377.83 583.17 C 384.78 593.31 388.50 605.70 387.76 618.01 C 386.99 634.05 380.23 648.87 374.69 663.69 C 367.18 683.79 362.21 704.70 355.68 725.12 C 342.58 725.13 329.48 725.12 316.38 725.12 C 316.37 677.00 316.38 628.87 316.37 580.75 C 304.33 580.75 292.29 580.75 280.25 580.75 C 280.25 628.87 280.26 677.00 280.25 725.12 C 253.94 725.13 227.63 725.12 201.31 725.12 C 201.29 711.40 201.36 697.67 201.28 683.95 C 201.28 682.61 201.31 681.25 201.93 680.05 C 218.81 646.95 235.73 613.86 252.60 580.76 C 238.94 580.74 225.28 580.75 211.62 580.75 C 202.19 602.98 192.83 625.25 183.39 647.48 C 173.88 625.25 164.44 602.99 154.95 580.75 C 141.28 580.75 127.62 580.74 113.96 580.75 C 130.78 613.72 147.60 646.69 164.44 679.64 C 165.18 680.96 165.30 682.49 165.28 683.98 C 165.21 697.69 165.27 711.41 165.25 725.12 C 144.87 725.14 124.49 725.11 104.11 725.13 C 120.84 761.19 143.37 794.51 170.44 823.60 C 213.07 869.52 266.93 904.83 325.86 926.03 C 394.92 951.00 470.79 956.48 542.82 942.39 C 605.69 930.14 665.55 902.60 715.53 862.51 C 761.46 825.79 799.02 778.53 823.76 725.14 C 814.02 725.11 804.29 725.13 794.57 725.12 C 794.55 677.00 794.57 628.87 794.56 580.75 C 782.52 580.75 770.48 580.75 758.44 580.75 C 758.42 628.87 758.44 677.00 758.43 725.12 C 744.49 725.13 730.55 725.11 716.60 725.13 C 705.24 706.29 693.93 687.41 682.57 668.57 C 686.22 667.38 689.88 666.13 693.29 664.33 C 710.98 655.54 719.53 633.12 714.31 614.44 C 710.24 599.73 697.82 588.02 683.31 583.74 C 671.58 579.94 659.13 580.84 647.00 580.75 C 632.31 580.75 617.63 580.74 602.94 580.75 C 602.93 628.87 602.95 677.00 602.94 725.12 C 594.52 725.13 586.10 725.12 577.68 725.12 C 570.89 707.02 563.16 689.26 557.43 670.78 C 548.09 640.81 553.41 606.41 572.21 581.15 C 580.72 569.64 592.88 561.03 606.40 556.45 C 625.19 549.84 645.34 550.00 664.98 548.84 C 676.87 547.73 688.45 553.46 700.32 551.23 C 705.09 550.40 708.98 546.49 709.83 541.74 C 711.00 535.79 711.34 529.71 712.95 523.86 C 713.68 518.86 704.87 522.24 705.54 517.08 C 719.73 499.78 732.01 480.10 736.55 457.90 C 737.19 455.39 734.46 452.94 732.03 453.95 C 727.36 455.71 723.23 458.65 718.72 460.76 C 681.73 479.73 641.34 492.23 600.02 496.99 C 596.12 497.74 593.07 493.64 593.70 490.03 C 594.66 482.48 598.17 475.53 602.18 469.16 C 610.18 456.83 620.69 446.18 632.71 437.74 C 646.51 428.01 661.92 420.82 677.55 414.55 C 695.04 407.57 713.25 402.34 731.86 399.38 C 735.04 399.03 738.07 396.48 737.69 393.03 C 737.23 386.45 736.26 379.90 735.30 373.38 C 735.02 370.31 731.65 369.29 729.03 369.76 C 691.50 373.12 654.66 383.48 620.69 399.74 C 618.56 401.46 616.66 398.12 618.60 396.63 C 634.11 373.59 654.14 353.42 677.64 338.54 C 681.00 336.31 685.18 337.71 688.24 339.77 C 698.09 346.19 710.22 348.99 721.89 347.54 C 725.77 347.05 728.62 342.95 727.90 339.13 C 727.09 335.23 724.15 332.28 721.42 329.58 C 716.07 324.53 710.42 319.80 705.34 314.47 C 701.98 314.29 698.50 314.77 695.26 313.77 C 693.93 311.02 696.49 308.16 697.61 305.73 C 690.77 297.13 684.93 287.76 680.02 277.94 C 676.05 269.88 671.44 262.12 666.15 254.86 C 663.76 251.23 658.05 251.10 655.23 254.28 C 653.70 255.72 653.42 257.89 653.25 259.88 C 652.49 270.02 648.83 279.83 643.36 288.37 C 638.14 296.61 630.66 303.01 623.87 309.90 C 615.23 318.15 606.96 326.82 597.96 334.68 C 592.05 326.40 589.45 316.06 588.99 306.00 C 588.76 292.76 592.25 279.65 597.69 267.65 C 605.40 250.81 617.18 236.18 630.28 223.21 C 631.35 222.00 632.80 220.77 632.83 219.01 C 632.84 217.22 631.48 215.86 630.47 214.54 C 624.55 207.81 618.77 200.90 612.15 194.83 C 604.53 187.83 595.46 181.65 585.00 180.21 C 575.97 179.18 566.92 178.40 557.90 177.42 C 556.19 177.26 553.37 176.55 554.18 174.25 C 555.24 172.50 557.37 171.23 557.53 169.05 C 555.48 165.43 552.18 162.73 549.56 159.53 C 547.05 156.96 545.04 153.74 541.86 151.93 C 537.41 149.47 535.71 158.81 531.49 155.46 C 529.27 152.05 530.96 147.79 530.59 144.02 C 530.43 139.64 526.44 137.02 523.21 134.77 C 518.27 131.65 512.95 128.28 506.92 128.14 C 502.56 128.02 498.87 131.38 497.61 135.38 C 495.71 140.82 497.50 146.53 498.07 152.03 C 494.59 149.71 493.01 145.68 490.74 142.33 C 486.16 134.89 480.92 127.28 472.96 123.15 C 464.67 118.72 454.80 119.16 445.87 121.05 Z" />
<path fill="#395aa8" opacity="1.00" d=" M 443.29 181.50 C 442.19 172.19 439.01 162.59 441.80 153.29 C 446.20 153.63 449.62 156.63 453.30 158.72 C 465.00 165.87 476.69 174.48 482.96 187.05 C 488.37 197.56 488.09 210.17 484.26 221.15 C 479.07 236.16 469.29 249.13 458.26 260.36 C 457.36 261.91 454.39 262.30 454.58 259.92 C 450.79 233.79 447.74 207.54 443.29 181.50 Z" />
<path fill="#395aa8" opacity="1.00" d=" M 543.98 209.50 C 559.02 208.96 574.06 208.56 589.10 208.15 C 591.63 207.53 593.76 210.61 591.80 212.61 C 582.58 224.72 573.52 237.07 566.72 250.74 C 564.78 254.27 563.70 258.30 561.07 261.43 C 554.93 256.46 549.59 250.54 544.71 244.35 C 539.16 236.97 533.92 228.48 533.98 218.93 C 534.05 215.88 534.37 212.00 537.36 210.34 C 539.45 209.50 541.77 209.65 543.98 209.50 Z" />
<path fill="#395aa8" opacity="1.00" d=" M 510.24 240.07 C 511.86 238.42 513.30 240.52 514.39 241.62 C 542.05 273.51 555.53 317.38 550.06 359.29 C 549.95 361.03 549.24 362.63 548.19 364.01 C 537.47 355.38 526.68 346.75 516.90 337.04 C 504.51 324.81 496.26 308.49 493.86 291.24 C 491.08 272.99 496.02 252.56 510.24 240.07 Z" />
<path fill="#395aa8" opacity="1.00" d=" M 301.75 247.17 C 315.84 246.91 329.94 246.81 344.04 246.57 C 346.83 246.60 350.17 246.50 352.17 248.82 C 353.79 250.68 353.63 253.45 352.52 255.53 C 343.34 273.68 330.62 289.87 316.18 304.11 C 314.46 305.61 310.89 304.70 311.14 302.08 C 311.25 292.59 310.44 283.04 308.00 273.85 C 305.88 264.98 301.51 256.45 301.75 247.17 Z" />
<path fill="#395aa8" opacity="1.00" d=" M 372.27 272.07 C 375.46 270.36 378.97 272.64 381.79 274.17 C 391.27 280.43 400.34 287.91 406.23 297.80 C 413.66 310.10 416.09 325.93 410.53 339.42 C 404.90 353.21 390.25 363.67 375.05 361.85 C 360.22 360.19 348.32 349.94 338.53 339.44 C 335.75 336.63 334.44 332.15 336.55 328.57 C 341.23 320.23 347.11 312.60 353.44 305.45 C 359.88 298.13 367.25 290.79 369.71 281.04 C 370.66 278.12 369.72 274.28 372.27 272.07 Z" />
<path fill="#395aa8" opacity="1.00" d=" M 468.35 339.47 C 473.59 338.00 478.47 341.56 481.92 345.12 C 489.82 353.54 494.68 364.20 499.43 374.58 C 507.85 393.38 515.34 412.75 519.65 432.95 C 523.48 450.41 521.99 468.97 515.60 485.64 C 509.59 500.48 494.55 510.21 478.97 512.14 C 462.01 514.65 443.19 508.08 433.56 493.42 C 425.17 480.34 423.21 464.26 423.58 449.03 C 424.32 430.15 428.39 411.47 434.77 393.72 C 440.76 377.44 450.20 362.79 459.11 348.01 C 461.33 344.43 464.14 340.74 468.35 339.47 Z" />
<path fill="#395aa8" opacity="1.00" d=" M 445.74 580.38 C 460.34 580.37 474.95 580.37 489.55 580.38 C 504.24 622.98 518.95 665.57 533.65 708.17 C 536.27 715.08 537.78 722.61 542.37 728.58 C 546.83 734.45 552.33 739.75 559.02 742.98 C 567.26 747.09 575.90 750.31 584.56 753.41 C 589.49 755.08 594.36 757.17 599.61 757.65 C 634.23 762.03 669.20 760.40 704.00 760.97 C 723.06 760.84 742.11 759.81 761.17 759.34 C 759.46 765.68 758.04 772.18 755.17 778.13 C 753.55 781.55 750.68 784.61 746.87 785.47 C 741.24 786.72 735.44 785.77 729.80 785.16 C 718.64 783.62 707.35 783.54 696.12 782.86 C 705.79 793.71 715.49 804.53 725.15 815.39 C 717.67 822.23 710.21 829.10 702.74 835.96 C 694.29 821.08 681.75 808.29 666.15 801.00 C 643.01 790.05 616.73 790.10 591.68 790.71 C 590.42 801.09 589.99 812.67 596.49 821.55 C 604.15 832.05 615.59 838.84 626.36 845.74 C 636.30 851.86 646.48 857.59 656.65 863.33 C 649.83 868.49 643.08 874.33 634.72 876.79 C 627.41 878.85 620.07 875.61 613.74 872.19 C 600.97 865.34 588.74 856.88 579.73 845.36 C 576.46 841.00 572.37 837.37 568.74 833.32 C 557.90 821.50 547.13 809.16 540.73 794.28 C 535.93 785.17 530.69 776.32 525.56 767.40 C 521.12 787.19 510.61 804.86 503.50 823.71 C 515.43 834.34 527.23 845.14 538.66 856.30 C 546.99 864.63 555.60 872.84 562.50 882.45 C 566.79 889.57 570.64 897.10 572.87 905.15 C 566.04 905.67 559.21 906.14 552.39 906.63 C 546.14 892.48 537.90 879.01 526.96 868.00 C 517.63 859.04 507.31 851.13 496.42 844.15 C 490.43 866.42 489.18 890.51 495.51 912.83 C 484.20 914.91 472.86 916.90 461.43 918.31 C 461.66 897.48 462.61 876.65 464.88 855.94 C 466.71 840.87 468.67 825.56 474.24 811.33 C 482.11 794.19 493.52 778.78 499.76 760.87 C 503.61 751.39 504.70 740.82 503.03 730.75 C 499.88 721.85 497.02 712.83 494.02 703.88 C 476.27 703.86 458.52 703.89 440.78 703.86 C 438.13 716.88 432.89 729.56 433.28 743.04 C 433.38 749.11 434.26 755.18 436.00 761.01 C 440.27 773.71 439.65 787.34 439.48 800.55 C 438.00 838.90 432.95 877.01 427.25 914.92 C 416.17 911.71 405.35 907.72 394.45 904.00 C 397.92 891.86 400.91 879.59 403.60 867.25 C 386.61 872.64 371.57 882.94 358.60 894.98 C 352.51 891.85 346.42 888.72 340.36 885.54 C 345.94 878.72 352.75 872.92 360.05 868.02 C 375.07 859.70 391.37 854.05 407.41 848.05 C 409.34 837.10 410.96 826.08 411.43 814.97 C 412.03 801.24 409.76 787.60 406.84 774.24 C 393.67 789.27 380.22 804.05 367.13 819.15 C 363.16 823.90 358.78 828.42 355.88 833.95 C 347.38 848.95 334.19 860.87 319.22 869.24 C 311.59 873.52 303.21 878.89 294.05 877.03 C 285.21 874.88 278.20 868.66 271.09 863.34 C 286.11 854.77 301.35 846.47 315.46 836.44 C 322.86 831.01 330.39 824.89 334.19 816.29 C 337.72 808.25 336.96 799.22 336.06 790.71 C 312.26 790.14 287.51 790.05 265.16 799.39 C 247.98 806.39 234.07 819.93 225.00 835.95 C 217.53 829.09 210.05 822.24 202.59 815.37 C 212.26 804.53 221.94 793.71 231.61 782.87 C 219.10 783.51 206.56 783.83 194.14 785.61 C 187.57 786.19 179.18 787.35 174.60 781.38 C 170.01 774.89 168.71 766.82 166.55 759.34 C 190.03 759.92 213.51 761.34 237.01 760.90 C 264.37 760.60 291.81 761.40 319.09 758.67 C 328.96 757.66 338.88 756.36 348.40 753.49 C 355.95 750.55 363.39 747.32 370.64 743.71 C 376.62 740.65 382.86 737.39 386.82 731.75 C 393.35 722.91 398.60 713.15 403.14 703.16 C 417.42 662.26 431.53 621.31 445.74 580.38 M 449.87 676.56 C 461.57 676.57 473.28 676.56 484.98 676.56 C 479.16 658.92 473.27 641.30 467.44 623.67 C 461.57 641.29 455.73 658.93 449.87 676.56 Z" />
<path fill="#395aa8" opacity="1.00" d=" M 639.07 608.25 C 646.41 608.26 653.76 608.24 661.11 608.24 C 665.08 608.17 669.18 609.12 672.36 611.60 C 680.14 617.49 681.24 629.89 675.55 637.56 C 672.44 641.73 667.17 643.76 662.07 643.78 C 654.40 643.88 646.73 643.77 639.07 643.81 C 639.06 631.96 639.06 620.10 639.07 608.25 Z" />
<path fill="#395aa8" opacity="1.00" d=" M 639.07 671.25 C 640.44 671.24 641.82 671.23 643.21 671.25 C 653.61 689.20 664.00 707.15 674.38 725.12 C 662.61 725.13 650.84 725.12 639.07 725.12 C 639.06 707.16 639.06 689.20 639.07 671.25 Z" />
</g>
<g id="#ffffffff">
<path fill="#ffffff" opacity="1.00" d=" M 271.84 110.58 C 290.61 104.59 310.44 102.95 330.05 102.54 C 348.52 101.94 367.28 103.40 385.00 108.90 C 390.03 110.71 395.55 112.78 398.67 117.40 C 401.33 121.09 399.28 127.90 394.06 127.43 C 382.80 126.52 372.37 120.59 360.93 120.93 C 359.18 121.10 356.21 121.69 356.40 123.98 C 357.67 125.01 359.42 124.84 360.96 125.06 C 368.49 125.44 375.92 127.24 382.89 130.10 C 384.64 130.89 386.57 131.70 387.65 133.40 C 388.99 135.85 387.95 139.72 384.95 140.30 C 378.77 141.43 372.91 138.37 367.02 137.04 C 361.21 135.71 354.73 134.46 349.16 137.28 C 349.12 137.69 349.06 138.52 349.03 138.93 C 353.41 141.06 358.55 139.97 363.25 140.82 C 367.05 141.28 371.35 142.12 373.81 145.35 C 375.53 148.40 372.91 151.96 369.94 152.93 C 363.49 155.21 356.62 152.46 350.04 153.76 C 348.51 153.81 347.45 154.88 346.57 156.00 C 350.43 157.94 354.80 157.67 358.97 158.24 C 361.93 158.59 363.91 162.34 361.82 164.75 C 358.07 169.58 351.85 171.82 345.91 172.26 C 340.66 172.65 335.02 173.17 330.14 170.80 C 325.49 168.47 323.40 163.46 320.68 159.35 C 315.44 151.21 305.72 146.11 296.01 146.84 C 285.04 147.56 275.25 153.07 265.34 157.31 C 243.68 166.92 223.73 181.54 210.49 201.43 C 208.12 205.45 205.61 210.17 206.75 214.97 C 207.37 217.34 210.34 217.41 211.87 215.91 C 230.81 201.63 247.00 183.81 267.31 171.34 C 275.16 166.54 283.61 162.59 292.57 160.37 C 295.77 159.58 299.51 159.53 302.20 161.72 C 306.39 164.90 307.56 170.87 305.91 175.71 C 303.94 182.08 298.78 186.64 294.03 191.01 C 264.34 218.08 239.54 250.12 218.14 284.02 C 210.00 297.34 195.70 305.13 186.49 317.55 C 182.51 322.86 179.91 329.34 179.95 336.04 C 179.89 348.51 186.40 359.77 187.40 372.07 C 188.20 383.61 180.27 393.54 180.50 405.00 C 180.69 414.04 185.30 422.06 188.66 430.21 C 186.42 433.30 182.22 432.59 178.99 431.94 C 175.72 431.41 172.40 430.00 169.07 430.76 C 165.85 432.00 165.89 436.21 167.07 438.90 C 172.24 452.04 178.37 464.78 184.64 477.42 C 185.58 478.80 183.94 479.65 182.87 480.09 C 177.95 481.81 172.28 478.61 167.66 481.57 C 164.86 483.42 165.36 487.19 166.18 489.97 C 170.62 506.25 175.04 522.55 179.42 538.86 C 181.00 544.98 184.16 550.78 184.16 557.23 C 180.38 561.28 174.19 562.04 168.92 561.67 C 157.68 560.57 148.54 553.33 138.99 548.02 C 131.60 543.86 122.41 543.32 114.56 546.51 C 108.43 549.05 102.63 552.37 97.21 556.20 C 95.82 557.12 94.16 558.20 92.41 557.61 C 90.15 556.70 89.60 554.03 88.81 551.99 C 85.55 541.35 83.20 530.47 80.61 519.66 C 79.39 514.17 77.51 508.74 77.61 503.05 C 77.59 492.49 82.02 482.68 86.12 473.18 C 87.78 469.55 88.13 465.26 86.41 461.59 C 82.89 453.76 74.37 448.26 74.05 439.06 C 73.86 428.47 82.53 421.00 87.20 412.30 C 94.33 399.64 92.10 384.04 86.90 371.10 C 84.64 365.14 80.49 358.95 82.48 352.33 C 84.38 346.83 90.47 345.10 95.35 343.24 C 102.18 340.90 106.97 334.78 109.38 328.18 C 113.22 317.88 112.50 306.64 111.52 295.90 C 110.33 284.12 109.43 272.13 111.53 260.40 C 113.02 251.99 116.37 243.67 122.41 237.49 C 129.29 230.35 139.11 225.44 142.78 215.69 C 144.57 211.62 143.66 207.19 142.80 203.02 C 142.10 200.44 144.01 198.26 145.90 196.82 C 170.47 177.46 193.26 155.85 218.93 137.90 C 235.23 126.50 252.80 116.60 271.84 110.58 Z" />
<path fill="#ffffff" opacity="1.00" d=" M 549.17 108.26 C 568.47 103.37 588.51 105.96 608.05 107.61 C 644.52 110.99 680.29 122.94 710.99 143.03 C 740.25 162.18 765.19 188.14 782.48 218.59 C 806.33 260.95 818.51 308.68 826.76 356.25 C 831.10 380.61 833.03 405.31 834.96 429.96 C 836.31 447.68 838.67 465.30 839.91 483.03 C 840.58 492.70 841.45 502.36 842.30 512.02 C 842.87 519.05 842.34 526.53 838.65 532.73 C 834.20 540.36 825.85 545.66 816.99 546.10 C 810.57 546.43 804.35 544.26 797.94 544.33 C 791.10 544.35 784.33 546.69 778.84 550.75 C 773.69 554.38 769.11 559.29 762.76 560.76 C 755.63 562.62 746.94 560.56 742.87 554.03 C 739.01 548.09 740.14 540.54 742.39 534.24 C 750.38 511.10 758.31 487.95 765.73 464.63 C 771.42 446.63 776.38 428.04 776.10 409.01 C 775.74 392.81 771.64 377.02 767.72 361.39 C 765.58 352.90 763.34 344.45 761.15 335.98 C 759.45 329.37 758.38 322.32 754.38 316.60 C 750.48 311.01 744.06 308.17 738.71 304.26 C 725.97 295.28 716.73 282.36 709.12 268.96 C 703.43 258.56 697.06 248.54 689.80 239.17 C 674.99 219.81 657.02 203.17 638.61 187.31 C 629.63 179.72 619.61 172.72 613.56 162.37 C 611.25 158.60 610.46 153.21 613.58 149.65 C 616.97 145.71 622.72 145.26 627.50 146.28 C 638.89 148.61 648.58 155.46 657.88 162.07 C 683.65 180.62 705.73 203.57 729.03 224.98 C 732.72 227.25 734.65 232.01 739.05 233.05 C 741.96 233.61 743.68 230.23 742.43 227.86 C 737.12 215.12 727.61 204.67 717.73 195.27 C 695.85 175.27 672.15 156.93 645.64 143.47 C 636.91 138.74 627.15 135.21 617.10 135.57 C 609.75 135.84 603.25 141.68 602.00 148.88 C 601.16 152.95 603.74 157.22 602.07 161.15 C 599.98 164.24 595.86 163.10 592.80 162.62 C 585.47 161.15 577.85 163.33 570.62 161.29 C 568.00 160.60 566.66 156.90 569.34 155.37 C 572.95 151.81 579.38 154.30 582.30 150.00 C 574.87 147.55 566.86 152.08 559.48 149.42 C 556.55 147.91 558.08 143.75 560.59 142.66 C 566.50 138.74 574.60 141.41 580.14 136.96 C 577.60 133.23 572.78 134.64 569.09 135.17 C 561.86 136.27 554.31 139.20 547.04 136.90 C 543.22 135.45 545.72 130.55 548.63 129.63 C 556.28 126.32 564.80 126.09 572.90 124.53 C 574.11 124.37 575.14 123.69 575.99 122.83 C 575.83 120.87 573.55 120.97 572.10 120.90 C 563.58 121.07 555.22 122.84 546.88 124.44 C 543.44 124.99 539.52 125.81 536.41 123.74 C 533.33 121.83 533.33 117.19 535.62 114.66 C 539.05 110.77 544.37 109.56 549.17 108.26 Z" />
<path fill="#ffffff" opacity="1.00" d=" M 445.87 121.05 C 454.80 119.16 464.67 118.72 472.96 123.15 C 480.92 127.28 486.16 134.89 490.74 142.33 C 493.01 145.68 494.59 149.71 498.07 152.03 C 497.50 146.53 495.71 140.82 497.61 135.38 C 498.87 131.38 502.56 128.02 506.92 128.14 C 512.95 128.28 518.27 131.65 523.21 134.77 C 526.44 137.02 530.43 139.64 530.59 144.02 C 530.96 147.79 529.27 152.05 531.49 155.46 C 535.71 158.81 537.41 149.47 541.86 151.93 C 545.04 153.74 547.05 156.96 549.56 159.53 C 552.18 162.73 555.48 165.43 557.53 169.05 C 557.37 171.23 555.24 172.50 554.18 174.25 C 553.37 176.55 556.19 177.26 557.90 177.42 C 566.92 178.40 575.97 179.18 585.00 180.21 C 595.46 181.65 604.53 187.83 612.15 194.83 C 618.77 200.90 624.55 207.81 630.47 214.54 C 631.48 215.86 632.84 217.22 632.83 219.01 C 632.80 220.77 631.35 222.00 630.28 223.21 C 617.18 236.18 605.40 250.81 597.69 267.65 C 592.25 279.65 588.76 292.76 588.99 306.00 C 589.45 316.06 592.05 326.40 597.96 334.68 C 606.96 326.82 615.23 318.15 623.87 309.90 C 630.66 303.01 638.14 296.61 643.36 288.37 C 648.83 279.83 652.49 270.02 653.25 259.88 C 653.42 257.89 653.70 255.72 655.23 254.28 C 658.05 251.10 663.76 251.23 666.15 254.86 C 671.44 262.12 676.05 269.88 680.02 277.94 C 684.93 287.76 690.77 297.13 697.61 305.73 C 696.49 308.16 693.93 311.02 695.26 313.77 C 698.50 314.77 701.98 314.29 705.34 314.47 C 710.42 319.80 716.07 324.53 721.42 329.58 C 724.15 332.28 727.09 335.23 727.90 339.13 C 728.62 342.95 725.77 347.05 721.89 347.54 C 710.22 348.99 698.09 346.19 688.24 339.77 C 685.18 337.71 681.00 336.31 677.64 338.54 C 654.14 353.42 634.11 373.59 618.60 396.63 C 616.66 398.12 618.56 401.46 620.69 399.74 C 654.66 383.48 691.50 373.12 729.03 369.76 C 731.65 369.29 735.02 370.31 735.30 373.38 C 736.26 379.90 737.23 386.45 737.69 393.03 C 738.07 396.48 735.04 399.03 731.86 399.38 C 713.25 402.34 695.04 407.57 677.55 414.55 C 661.92 420.82 646.51 428.01 632.71 437.74 C 620.69 446.18 610.18 456.83 602.18 469.16 C 598.17 475.53 594.66 482.48 593.70 490.03 C 593.07 493.64 596.12 497.74 600.02 496.99 C 641.34 492.23 681.73 479.73 718.72 460.76 C 723.23 458.65 727.36 455.71 732.03 453.95 C 734.46 452.94 737.19 455.39 736.55 457.90 C 732.01 480.10 719.73 499.78 705.54 517.08 C 704.87 522.24 713.68 518.86 712.95 523.86 C 711.34 529.71 711.00 535.79 709.83 541.74 C 708.98 546.49 705.09 550.40 700.32 551.23 C 688.45 553.46 676.87 547.73 664.98 548.84 C 645.34 550.00 625.19 549.84 606.40 556.45 C 592.88 561.03 580.72 569.64 572.21 581.15 C 553.41 606.41 548.09 640.81 557.43 670.78 C 563.16 689.26 570.89 707.02 577.68 725.12 C 586.10 725.12 594.52 725.13 602.94 725.12 C 602.95 677.00 602.93 628.87 602.94 580.75 C 617.63 580.74 632.31 580.75 647.00 580.75 C 659.13 580.84 671.58 579.94 683.31 583.74 C 697.82 588.02 710.24 599.73 714.31 614.44 C 719.53 633.12 710.98 655.54 693.29 664.33 C 689.88 666.13 686.22 667.38 682.57 668.57 C 693.93 687.41 705.24 706.29 716.60 725.13 C 730.55 725.11 744.49 725.13 758.43 725.12 C 758.44 677.00 758.42 628.87 758.44 580.75 C 770.48 580.75 782.52 580.75 794.56 580.75 C 794.57 628.87 794.55 677.00 794.57 725.12 C 804.29 725.13 814.02 725.11 823.76 725.14 C 799.02 778.53 761.46 825.79 715.53 862.51 C 665.55 902.60 605.69 930.14 542.82 942.39 C 470.79 956.48 394.92 951.00 325.86 926.03 C 266.93 904.83 213.07 869.52 170.44 823.60 C 143.37 794.51 120.84 761.19 104.11 725.13 C 124.49 725.11 144.87 725.14 165.25 725.12 C 165.27 711.41 165.21 697.69 165.28 683.98 C 165.30 682.49 165.18 680.96 164.44 679.64 C 147.60 646.69 130.78 613.72 113.96 580.75 C 127.62 580.74 141.28 580.75 154.95 580.75 C 164.44 602.99 173.88 625.25 183.39 647.48 C 192.83 625.25 202.19 602.98 211.62 580.75 C 225.28 580.75 238.94 580.74 252.60 580.76 C 235.73 613.86 218.81 646.95 201.93 680.05 C 201.31 681.25 201.28 682.61 201.28 683.95 C 201.36 697.67 201.29 711.40 201.31 725.12 C 227.63 725.12 253.94 725.13 280.25 725.12 C 280.26 677.00 280.25 628.87 280.25 580.75 C 292.29 580.75 304.33 580.75 316.37 580.75 C 316.38 628.87 316.37 677.00 316.38 725.12 C 329.48 725.12 342.58 725.13 355.68 725.12 C 362.21 704.70 367.18 683.79 374.69 663.69 C 380.23 648.87 386.99 634.05 387.76 618.01 C 388.50 605.70 384.78 593.31 377.83 583.17 C 368.44 569.33 354.79 559.18 341.16 549.83 C 338.66 547.96 335.29 546.86 332.32 548.32 C 325.62 551.27 322.14 558.43 315.74 561.82 C 309.64 565.08 302.25 566.70 295.52 564.50 C 289.25 562.37 283.72 558.22 277.04 557.26 C 257.06 553.89 237.98 565.29 217.98 562.52 C 213.36 561.99 208.78 559.09 207.75 554.31 C 203.87 539.11 200.34 523.82 196.54 508.61 C 195.91 505.73 195.02 502.43 196.70 499.73 C 197.90 497.71 200.69 497.04 202.66 498.36 C 210.08 502.54 216.25 509.00 224.56 511.57 C 237.30 515.66 251.22 512.62 262.95 506.87 C 267.61 504.40 272.70 500.64 273.30 494.98 C 273.56 489.76 268.80 486.57 264.87 484.17 C 246.47 472.87 223.66 473.34 204.71 463.33 C 203.48 462.48 201.30 461.84 201.50 459.98 C 202.98 453.44 209.07 448.87 209.82 442.04 C 211.44 428.76 200.94 417.33 202.85 404.04 C 204.03 396.24 209.99 390.31 211.83 382.73 C 215.03 370.05 210.14 356.86 213.31 344.18 C 214.29 340.23 216.24 335.94 220.21 334.25 C 223.33 332.89 226.78 335.26 227.79 338.25 C 234.14 355.01 237.13 373.17 235.54 391.08 C 235.10 396.61 235.77 402.94 240.13 406.89 C 244.24 410.47 249.67 412.34 255.01 413.07 C 258.01 413.51 260.17 410.73 260.22 407.97 C 261.47 395.97 264.67 384.07 270.51 373.47 C 272.76 369.58 275.76 365.77 280.03 364.02 C 283.14 362.74 287.20 362.69 289.65 365.29 C 292.29 368.14 292.45 372.28 292.57 375.95 C 292.78 396.72 295.83 417.78 304.07 436.97 C 310.85 452.88 322.39 467.54 338.50 474.68 C 344.67 477.25 351.56 480.02 358.31 478.16 C 364.04 476.45 366.67 470.28 367.38 464.82 C 369.52 448.38 364.69 431.90 357.86 417.10 C 348.67 397.06 333.70 379.56 314.66 368.30 C 301.39 360.17 285.90 356.58 272.70 348.33 C 259.54 340.17 247.44 330.37 236.20 319.75 C 231.53 315.61 229.74 308.97 231.10 302.95 C 232.62 295.93 235.38 288.65 240.99 283.88 C 245.31 280.14 252.01 280.19 256.60 283.43 C 267.77 290.95 267.93 307.37 279.76 314.24 C 281.94 315.47 286.00 317.21 287.20 313.89 C 287.85 310.64 286.89 307.32 286.57 304.07 C 285.18 295.66 284.22 286.74 279.47 279.42 C 275.54 273.26 267.60 271.48 263.43 265.58 C 260.39 261.11 261.43 254.89 264.74 250.86 C 271.03 242.83 278.40 235.61 286.75 229.74 C 294.11 224.53 302.96 221.74 309.88 215.87 C 318.15 208.92 321.77 198.02 330.10 191.12 C 336.04 186.13 344.15 183.18 351.90 184.93 C 359.66 186.65 366.00 192.17 370.50 198.53 C 376.32 206.64 380.06 216.03 385.90 224.13 C 392.26 232.95 399.71 241.04 408.28 247.75 C 409.27 248.36 410.47 249.61 411.72 248.82 C 413.43 247.93 413.54 245.78 414.10 244.17 C 417.60 230.20 419.23 215.16 414.86 201.20 C 412.27 192.79 407.07 185.18 399.99 179.92 C 396.08 176.92 391.43 174.57 388.71 170.31 C 386.39 166.76 386.94 161.85 389.65 158.67 C 394.86 152.03 404.24 151.04 409.75 144.76 C 413.03 141.01 415.22 136.37 418.97 133.00 C 426.33 126.16 436.25 123.12 445.87 121.05 M 443.29 181.50 C 447.74 207.54 450.79 233.79 454.58 259.92 C 454.39 262.30 457.36 261.91 458.26 260.36 C 469.29 249.13 479.07 236.16 484.26 221.15 C 488.09 210.17 488.37 197.56 482.96 187.05 C 476.69 174.48 465.00 165.87 453.30 158.72 C 449.62 156.63 446.20 153.63 441.80 153.29 C 439.01 162.59 442.19 172.19 443.29 181.50 M 543.98 209.50 C 541.77 209.65 539.45 209.50 537.36 210.34 C 534.37 212.00 534.05 215.88 533.98 218.93 C 533.92 228.48 539.16 236.97 544.71 244.35 C 549.59 250.54 554.93 256.46 561.07 261.43 C 563.70 258.30 564.78 254.27 566.72 250.74 C 573.52 237.07 582.58 224.72 591.80 212.61 C 593.76 210.61 591.63 207.53 589.10 208.15 C 574.06 208.56 559.02 208.96 543.98 209.50 M 510.24 240.07 C 496.02 252.56 491.08 272.99 493.86 291.24 C 496.26 308.49 504.51 324.81 516.90 337.04 C 526.68 346.75 537.47 355.38 548.19 364.01 C 549.24 362.63 549.95 361.03 550.06 359.29 C 555.53 317.38 542.05 273.51 514.39 241.62 C 513.30 240.52 511.86 238.42 510.24 240.07 M 301.75 247.17 C 301.51 256.45 305.88 264.98 308.00 273.85 C 310.44 283.04 311.25 292.59 311.14 302.08 C 310.89 304.70 314.46 305.61 316.18 304.11 C 330.62 289.87 343.34 273.68 352.52 255.53 C 353.63 253.45 353.79 250.68 352.17 248.82 C 350.17 246.50 346.83 246.60 344.04 246.57 C 329.94 246.81 315.84 246.91 301.75 247.17 M 372.27 272.07 C 369.72 274.28 370.66 278.12 369.71 281.04 C 367.25 290.79 359.88 298.13 353.44 305.45 C 347.11 312.60 341.23 320.23 336.55 328.57 C 334.44 332.15 335.75 336.63 338.53 339.44 C 348.32 349.94 360.22 360.19 375.05 361.85 C 390.25 363.67 404.90 353.21 410.53 339.42 C 416.09 325.93 413.66 310.10 406.23 297.80 C 400.34 287.91 391.27 280.43 381.79 274.17 C 378.97 272.64 375.46 270.36 372.27 272.07 M 468.35 339.47 C 464.14 340.74 461.33 344.43 459.11 348.01 C 450.20 362.79 440.76 377.44 434.77 393.72 C 428.39 411.47 424.32 430.15 423.58 449.03 C 423.21 464.26 425.17 480.34 433.56 493.42 C 443.19 508.08 462.01 514.65 478.97 512.14 C 494.55 510.21 509.59 500.48 515.60 485.64 C 521.99 468.97 523.48 450.41 519.65 432.95 C 515.34 412.75 507.85 393.38 499.43 374.58 C 494.68 364.20 489.82 353.54 481.92 345.12 C 478.47 341.56 473.59 338.00 468.35 339.47 M 445.74 580.38 C 431.53 621.31 417.42 662.26 403.14 703.16 C 398.60 713.15 393.35 722.91 386.82 731.75 C 382.86 737.39 376.62 740.65 370.64 743.71 C 363.39 747.32 355.95 750.55 348.40 753.49 C 338.88 756.36 328.96 757.66 319.09 758.67 C 291.81 761.40 264.37 760.60 237.01 760.90 C 213.51 761.34 190.03 759.92 166.55 759.34 C 168.71 766.82 170.01 774.89 174.60 781.38 C 179.18 787.35 187.57 786.19 194.14 785.61 C 206.56 783.83 219.10 783.51 231.61 782.87 C 221.94 793.71 212.26 804.53 202.59 815.37 C 210.05 822.24 217.53 829.09 225.00 835.95 C 234.07 819.93 247.98 806.39 265.16 799.39 C 287.51 790.05 312.26 790.14 336.06 790.71 C 336.96 799.22 337.72 808.25 334.19 816.29 C 330.39 824.89 322.86 831.01 315.46 836.44 C 301.35 846.47 286.11 854.77 271.09 863.34 C 278.20 868.66 285.21 874.88 294.05 877.03 C 303.21 878.89 311.59 873.52 319.22 869.24 C 334.19 860.87 347.38 848.95 355.88 833.95 C 358.78 828.42 363.16 823.90 367.13 819.15 C 380.22 804.05 393.67 789.27 406.84 774.24 C 409.76 787.60 412.03 801.24 411.43 814.97 C 410.96 826.08 409.34 837.10 407.41 848.05 C 391.37 854.05 375.07 859.70 360.05 868.02 C 352.75 872.92 345.94 878.72 340.36 885.54 C 346.42 888.72 352.51 891.85 358.60 894.98 C 371.57 882.94 386.61 872.64 403.60 867.25 C 400.91 879.59 397.92 891.86 394.45 904.00 C 405.35 907.72 416.17 911.71 427.25 914.92 C 432.95 877.01 438.00 838.90 439.48 800.55 C 439.65 787.34 440.27 773.71 436.00 761.01 C 434.26 755.18 433.38 749.11 433.28 743.04 C 432.89 729.56 438.13 716.88 440.78 703.86 C 458.52 703.89 476.27 703.86 494.02 703.88 C 497.02 712.83 499.88 721.85 503.03 730.75 C 504.70 740.82 503.61 751.39 499.76 760.87 C 493.52 778.78 482.11 794.19 474.24 811.33 C 468.67 825.56 466.71 840.87 464.88 855.94 C 462.61 876.65 461.66 897.48 461.43 918.31 C 472.86 916.90 484.20 914.91 495.51 912.83 C 489.18 890.51 490.43 866.42 496.42 844.15 C 507.31 851.13 517.63 859.04 526.96 868.00 C 537.90 879.01 546.14 892.48 552.39 906.63 C 559.21 906.14 566.04 905.67 572.87 905.15 C 570.64 897.10 566.79 889.57 562.50 882.45 C 555.60 872.84 546.99 864.63 538.66 856.30 C 527.23 845.14 515.43 834.34 503.50 823.71 C 510.61 804.86 521.12 787.19 525.56 767.40 C 530.69 776.32 535.93 785.17 540.73 794.28 C 547.13 809.16 557.90 821.50 568.74 833.32 C 572.37 837.37 576.46 841.00 579.73 845.36 C 588.74 856.88 600.97 865.34 613.74 872.19 C 620.07 875.61 627.41 878.85 634.72 876.79 C 643.08 874.33 649.83 868.49 656.65 863.33 C 646.48 857.59 636.30 851.86 626.36 845.74 C 615.59 838.84 604.15 832.05 596.49 821.55 C 589.99 812.67 590.42 801.09 591.68 790.71 C 616.73 790.10 643.01 790.05 666.15 801.00 C 681.75 808.29 694.29 821.08 702.74 835.96 C 710.21 829.10 717.67 822.23 725.15 815.39 C 715.49 804.53 705.79 793.71 696.12 782.86 C 707.35 783.54 718.64 783.62 729.80 785.16 C 735.44 785.77 741.24 786.72 746.87 785.47 C 750.68 784.61 753.55 781.55 755.17 778.13 C 758.04 772.18 759.46 765.68 761.17 759.34 C 742.11 759.81 723.06 760.84 704.00 760.97 C 669.20 760.40 634.23 762.03 599.61 757.65 C 594.36 757.17 589.49 755.08 584.56 753.41 C 575.90 750.31 567.26 747.09 559.02 742.98 C 552.33 739.75 546.83 734.45 542.37 728.58 C 537.78 722.61 536.27 715.08 533.65 708.17 C 518.95 665.57 504.24 622.98 489.55 580.38 C 474.95 580.37 460.34 580.37 445.74 580.38 M 639.07 608.25 C 639.06 620.10 639.06 631.96 639.07 643.81 C 646.73 643.77 654.40 643.88 662.07 643.78 C 667.17 643.76 672.44 641.73 675.55 637.56 C 681.24 629.89 680.14 617.49 672.36 611.60 C 669.18 609.12 665.08 608.17 661.11 608.24 C 653.76 608.24 646.41 608.26 639.07 608.25 M 639.07 671.25 C 639.06 689.20 639.06 707.16 639.07 725.12 C 650.84 725.12 662.61 725.13 674.38 725.12 C 664.00 707.15 653.61 689.20 643.21 671.25 C 641.82 671.23 640.44 671.24 639.07 671.25 Z" />
<path fill="#ffffff" opacity="1.00" d=" M 449.87 676.56 C 455.73 658.93 461.57 641.29 467.44 623.67 C 473.27 641.30 479.16 658.92 484.98 676.56 C 473.28 676.56 461.57 676.57 449.87 676.56 Z" />
</g>
</svg>
