<?xml version="1.0" encoding="UTF-8"?>
<svg xmlns="http://www.w3.org/2000/svg" width="256pt" height="197pt" viewBox="0 0 256 197" version="1.1">
  <g id="#ffffffff">
</g>
  <g id="#8facbbff">
    <path fill="#8facbb" opacity="1.00" d=" M 124.29 19.28 C 125.14 18.46 125.87 16.96 127.31 17.45 C 132.28 21.94 136.41 27.35 139.84 33.10 C 143.22 39.18 146.74 45.43 147.85 52.38 C 131.63 62.68 119.40 81.00 119.93 100.66 C 116.82 100.69 113.72 100.68 110.61 100.60 C 103.72 84.06 102.28 65.01 107.68 47.83 C 110.64 37.07 116.72 27.39 124.29 19.28 Z"></path>
    <path fill="#8facbb" opacity="1.00" d=" M 75.51 100.39 C 60.93 85.85 56.32 62.39 63.50 43.20 C 76.14 45.09 88.70 48.53 99.78 55.03 C 97.45 70.29 99.07 86.04 104.09 100.61 C 94.57 100.58 85.00 100.99 75.51 100.39 Z"></path>
    <path fill="#8facbb" opacity="1.00" d=" M 177.90 45.80 C 182.23 44.81 186.57 43.56 191.06 43.63 C 196.89 62.79 193.34 85.51 178.93 100.02 C 177.93 101.03 176.31 100.53 175.06 100.71 C 158.50 100.57 141.94 100.79 125.38 100.60 C 125.55 86.26 132.63 72.65 143.10 63.10 C 152.92 54.40 165.20 48.82 177.90 45.80 Z"></path>
    <path fill="#8facbb" opacity="1.00" d=" M 24.49 72.82 C 34.47 70.14 45.22 69.13 55.36 71.37 C 56.37 82.10 61.01 92.35 68.01 100.50 C 57.42 100.87 46.82 100.59 36.22 100.64 C 31.41 91.78 27.49 82.45 24.49 72.82 Z"></path>
    <path fill="#8facbb" opacity="1.00" d=" M 199.54 70.54 C 209.43 70.21 219.49 69.83 229.04 72.90 C 226.33 82.56 222.34 91.87 217.38 100.59 C 206.96 100.70 196.53 100.76 186.11 100.54 C 193.72 92.22 196.78 81.17 199.54 70.54 Z"></path>
  </g>
  <g id="#305566ff">
    <path fill="#305566" opacity="1.00" d=" M 38.12 112.44 C 47.56 113.14 57.56 110.90 66.53 114.70 C 76.61 119.13 77.77 134.79 69.14 141.19 C 63.48 145.43 56.03 145.62 49.26 145.40 C 49.31 151.42 49.22 157.43 49.33 163.44 C 45.62 163.50 41.90 163.49 38.19 163.56 C 38.00 146.52 38.15 129.48 38.12 112.44 M 49.28 120.54 C 49.31 126.13 49.17 131.72 49.38 137.31 C 53.16 137.25 57.21 137.53 60.66 135.69 C 64.14 133.39 64.49 128.39 63.14 124.80 C 60.42 119.85 54.04 120.65 49.28 120.54 Z"></path>
    <path fill="#305566" opacity="1.00" d=" M 82.94 112.50 C 92.46 113.10 102.46 110.97 111.59 114.46 C 119.39 117.80 120.36 129.80 113.76 134.82 C 112.33 135.78 110.67 136.32 109.10 136.97 C 112.62 137.73 116.22 139.33 118.26 142.45 C 121.79 147.92 120.73 156.33 115.16 160.07 C 112.81 161.88 109.86 162.49 107.08 163.29 C 99.07 163.67 91.04 163.43 83.02 163.48 C 83.05 146.49 83.18 129.49 82.94 112.50 M 93.69 120.66 C 93.70 124.93 93.73 129.21 93.68 133.48 C 97.27 133.44 101.14 134.05 104.49 132.46 C 108.47 130.30 108.43 123.65 104.35 121.63 C 100.99 120.16 97.24 120.72 93.69 120.66 M 93.69 141.44 C 93.72 146.07 93.72 150.70 93.70 155.33 C 98.68 155.51 104.10 155.91 108.35 152.79 C 109.39 149.97 109.39 147.02 108.41 144.19 C 104.49 140.14 98.70 141.57 93.69 141.44 Z"></path>
    <path fill="#305566" opacity="1.00" d=" M 130.52 163.57 C 130.60 146.57 130.51 129.58 130.54 112.58 C 133.75 112.72 136.98 112.72 140.20 112.63 C 146.05 121.28 151.13 130.43 156.80 139.20 C 158.56 141.84 160.04 144.65 161.34 147.54 C 162.11 135.92 161.42 124.24 161.67 112.60 C 164.93 112.71 168.18 112.72 171.44 112.67 C 171.48 129.61 171.38 146.55 171.50 163.49 C 168.01 163.55 164.51 163.57 161.02 163.40 C 154.36 152.37 147.54 141.39 140.40 130.68 C 140.14 141.62 140.28 152.57 140.33 163.52 C 137.06 163.50 133.79 163.51 130.52 163.57 Z"></path>
    <path fill="#305566" opacity="1.00" d=" M 186.34 163.56 C 186.46 146.57 186.31 129.57 186.42 112.57 C 196.21 112.94 206.00 112.44 215.78 112.83 C 215.71 115.73 215.71 118.63 215.81 121.52 C 209.65 121.64 203.50 121.58 197.34 121.53 C 197.32 125.80 197.34 130.08 197.34 134.35 C 202.73 134.22 208.12 134.31 213.51 134.29 C 213.52 137.02 213.54 139.76 213.56 142.50 C 208.17 142.53 202.79 142.57 197.41 142.56 C 197.25 149.53 197.34 156.51 197.35 163.48 C 193.68 163.51 190.01 163.53 186.34 163.56 Z"></path>
  </g>
</svg>
