<?xml version="1.0" encoding="UTF-8"?>
<svg xmlns="http://www.w3.org/2000/svg" width="383pt" height="132pt" viewBox="0 0 383 132" version="1.1">
  <g id="#ffffffff">
    <path fill="#ffffff" opacity="1.00" d=" M 51.49 15.58 C 56.34 14.06 61.48 16.82 63.93 21.03 C 68.38 28.53 69.58 37.45 69.98 46.02 C 70.50 52.73 68.07 59.56 63.72 64.65 C 57.51 71.42 47.07 71.64 38.82 69.12 C 31.88 66.72 24.63 63.81 19.83 57.99 C 16.06 53.64 14.74 47.45 16.19 41.90 C 17.43 35.64 22.60 30.68 28.50 28.63 C 32.14 27.26 36.43 30.49 39.66 27.71 C 41.56 22.16 45.34 16.72 51.49 15.58 M 52.39 28.51 C 49.91 30.05 49.90 33.52 49.88 36.12 C 53.19 39.84 62.07 36.42 60.56 31.04 C 58.93 28.46 55.17 27.80 52.39 28.51 M 26.29 40.23 C 23.11 42.07 23.98 48.40 27.46 49.57 C 30.71 49.72 34.03 47.83 35.59 44.97 C 36.58 43.53 35.69 41.65 34.54 40.61 C 32.07 39.17 28.90 39.22 26.29 40.23 M 42.50 47.49 C 39.22 49.97 37.56 53.94 37.10 57.93 C 39.75 60.56 43.04 62.87 46.91 63.04 C 51.43 63.21 55.82 61.09 59.15 58.14 C 62.50 54.92 62.87 49.64 61.48 45.43 C 55.35 43.10 47.65 42.86 42.50 47.49 Z"></path>
  </g>
  <g id="#000000ff">
    <path fill="#000000" opacity="1.00" d=" M 38.94 0.00 L 42.61 0.00 C 52.10 0.52 62.57 4.24 67.08 13.25 C 69.62 13.02 72.60 12.23 74.69 14.17 C 77.64 16.97 79.60 20.92 79.88 25.00 C 79.92 27.85 78.09 30.17 76.30 32.19 C 78.40 43.09 78.30 54.95 72.84 64.92 C 71.80 67.20 69.57 69.21 70.11 71.93 C 71.13 85.17 73.14 98.40 77.32 111.04 C 73.17 109.76 68.74 108.65 65.47 105.62 C 61.12 101.74 56.27 98.43 51.06 95.82 C 54.83 100.98 58.94 106.10 64.28 109.70 C 68.48 112.56 73.66 113.01 78.36 114.60 C 80.50 120.01 82.15 125.60 84.30 131.01 C 70.58 131.81 56.30 128.10 45.56 119.34 C 36.45 111.83 30.20 101.26 26.78 90.06 C 24.84 83.86 24.39 77.36 23.58 70.96 C 23.46 67.76 19.99 66.43 17.74 64.83 C 14.77 64.71 11.68 65.59 8.80 64.49 C 4.04 62.95 1.14 58.23 0.00 53.59 L 0.00 51.54 C 0.61 48.80 2.42 46.63 4.44 44.78 C 2.62 36.81 3.06 28.10 7.03 20.81 C 13.23 9.04 25.73 1.14 38.94 0.00 M 51.49 15.58 C 45.34 16.72 41.56 22.16 39.66 27.71 C 36.43 30.49 32.14 27.26 28.50 28.63 C 22.60 30.68 17.43 35.64 16.19 41.90 C 14.74 47.45 16.06 53.64 19.83 57.99 C 24.63 63.81 31.88 66.72 38.82 69.12 C 47.07 71.64 57.51 71.42 63.72 64.65 C 68.07 59.56 70.50 52.73 69.98 46.02 C 69.58 37.45 68.38 28.53 63.93 21.03 C 61.48 16.82 56.34 14.06 51.49 15.58 Z"></path>
    <path fill="#000000" opacity="1.00" d=" M 52.39 28.51 C 55.17 27.80 58.93 28.46 60.56 31.04 C 62.07 36.42 53.19 39.84 49.88 36.12 C 49.90 33.52 49.91 30.05 52.39 28.51 Z"></path>
    <path fill="#000000" opacity="1.00" d=" M 26.29 40.23 C 28.90 39.22 32.07 39.17 34.54 40.61 C 35.69 41.65 36.58 43.53 35.59 44.97 C 34.03 47.83 30.71 49.72 27.46 49.57 C 23.98 48.40 23.11 42.07 26.29 40.23 Z"></path>
    <path fill="#000000" opacity="1.00" d=" M 42.50 47.49 C 47.65 42.86 55.35 43.10 61.48 45.43 C 62.87 49.64 62.50 54.92 59.15 58.14 C 55.82 61.09 51.43 63.21 46.91 63.04 C 43.04 62.87 39.75 60.56 37.10 57.93 C 37.56 53.94 39.22 49.97 42.50 47.49 Z"></path>
    <path fill="#000000" opacity="1.00" d=" M 95.65 87.67 C 99.59 87.51 103.52 87.16 107.44 86.72 C 109.88 97.51 112.35 108.29 114.70 119.10 C 118.17 108.66 121.18 98.06 124.30 87.51 C 127.49 87.49 130.68 87.49 133.86 87.47 C 136.58 98.07 139.37 108.64 142.02 119.25 C 144.92 108.72 147.62 98.13 150.24 87.53 C 153.80 87.47 157.36 87.50 160.92 87.46 C 156.25 101.99 151.67 116.55 147.05 131.10 C 143.31 131.35 139.56 131.36 135.81 131.16 C 133.15 121.96 130.82 112.67 128.12 103.48 C 124.85 112.58 122.53 122.06 119.04 131.07 C 115.64 131.59 112.20 131.32 108.78 131.20 C 104.43 116.68 100.05 102.17 95.65 87.67 Z"></path>
    <path fill="#000000" opacity="1.00" d=" M 165.87 87.50 C 169.48 87.49 173.10 87.54 176.72 87.36 C 176.60 101.95 176.64 116.54 176.70 131.13 C 173.10 131.37 169.48 131.43 165.87 131.26 C 165.87 116.67 165.89 102.08 165.87 87.50 Z"></path>
    <path fill="#000000" opacity="1.00" d=" M 186.46 87.50 C 190.05 87.45 193.64 87.34 197.23 87.13 C 197.21 98.72 197.19 110.31 197.24 121.90 C 203.19 121.86 209.14 121.88 215.09 121.88 C 214.96 124.95 214.78 128.04 214.14 131.05 C 204.94 131.51 195.67 131.42 186.46 131.07 C 186.51 116.54 186.51 102.02 186.46 87.50 Z"></path>
    <path fill="#000000" opacity="1.00" d=" M 219.75 87.46 C 230.64 86.83 242.79 85.13 252.43 91.50 C 262.68 98.37 262.32 114.16 254.85 122.98 C 250.21 128.40 243.03 131.63 235.88 131.38 C 230.50 131.34 225.13 131.33 219.76 131.25 C 219.75 116.65 219.77 102.05 219.75 87.46 M 230.41 96.36 C 230.38 105.02 230.37 113.69 230.42 122.35 C 235.07 122.87 240.17 123.00 244.15 120.12 C 249.51 116.06 250.26 108.03 247.79 102.17 C 244.51 95.97 236.52 95.78 230.41 96.36 Z"></path>
    <path fill="#000000" opacity="1.00" d=" M 267.28 87.51 C 270.88 87.46 274.49 87.37 278.08 87.07 C 278.07 98.67 278.08 110.28 278.08 121.88 C 284.00 121.88 289.93 121.86 295.85 121.89 C 295.73 124.98 295.48 128.06 295.21 131.13 C 285.91 131.38 276.59 131.48 267.30 131.10 C 267.34 116.57 267.37 102.04 267.28 87.51 Z"></path>
    <path fill="#000000" opacity="1.00" d=" M 300.59 87.48 C 304.18 87.50 307.77 87.54 311.36 87.37 C 311.29 101.96 311.33 116.56 311.34 131.15 C 307.77 131.33 304.19 131.37 300.61 131.27 C 300.60 116.67 300.63 102.08 300.59 87.48 Z"></path>
    <path fill="#000000" opacity="1.00" d=" M 320.90 87.54 C 330.30 87.46 339.71 87.46 349.11 87.53 C 348.94 90.65 348.55 93.74 348.29 96.85 C 342.77 96.76 337.26 96.81 331.74 96.80 C 331.74 100.07 331.74 103.34 331.74 106.61 C 336.20 106.63 340.66 106.63 345.12 106.61 C 345.08 109.57 344.84 112.52 344.60 115.47 C 340.31 115.40 336.02 115.44 331.74 115.43 C 331.76 120.67 331.70 125.91 331.78 131.14 C 328.18 131.36 324.56 131.39 320.96 131.24 C 321.22 116.68 321.12 102.10 320.90 87.54 Z"></path>
    <path fill="#000000" opacity="1.00" d=" M 353.96 87.48 C 363.34 87.51 372.71 87.47 382.09 87.51 C 381.89 90.36 381.59 93.20 381.34 96.05 C 375.79 96.04 370.24 96.06 364.69 96.03 C 364.67 99.20 364.66 102.36 364.67 105.53 C 369.36 105.52 374.05 105.53 378.73 105.52 C 378.62 107.88 378.50 110.24 378.38 112.60 C 373.81 112.58 369.24 112.60 364.68 112.57 C 364.67 115.85 364.67 119.13 364.68 122.41 C 370.78 122.42 376.89 122.39 383.00 122.43 L 383.00 126.28 C 382.77 127.92 382.52 129.57 382.30 131.21 C 372.84 131.21 363.38 131.21 353.92 131.21 C 353.94 116.64 353.88 102.06 353.96 87.48 Z"></path>
  </g>
  <g id="#b5aa2eff">
    <path fill="#b5aa2e" opacity="1.00" d=" M 95.67 36.05 C 105.01 34.53 115.33 33.31 124.06 37.83 C 132.30 42.21 131.94 54.70 125.48 60.49 C 120.58 65.50 113.05 66.45 106.42 65.40 C 106.41 69.94 106.41 74.47 106.40 79.01 C 102.82 79.18 99.23 79.23 95.64 79.13 C 95.64 64.77 95.59 50.41 95.67 36.05 M 106.64 43.56 C 105.49 47.76 106.44 52.48 106.20 56.89 C 111.39 57.79 119.36 56.70 119.59 49.99 C 119.87 43.26 111.55 42.43 106.64 43.56 Z"></path>
    <path fill="#b5aa2e" opacity="1.00" d=" M 135.11 36.09 C 144.82 34.61 155.42 33.25 164.63 37.52 C 170.56 40.18 171.94 48.29 168.57 53.46 C 166.94 56.44 163.83 58.06 160.95 59.58 C 165.44 66.09 170.09 72.48 174.61 78.98 C 170.13 79.14 165.66 79.26 161.18 79.39 C 157.98 74.00 154.95 68.52 151.77 63.13 C 150.84 60.81 147.95 61.55 146.01 61.04 C 145.99 67.02 146.00 72.99 146.00 78.97 C 142.37 79.11 138.74 79.21 135.10 79.12 C 135.10 64.78 135.09 50.43 135.11 36.09 M 145.71 43.08 C 145.68 46.79 145.68 50.49 145.68 54.20 C 149.63 54.76 154.07 54.93 157.45 52.44 C 160.05 50.57 160.48 46.11 157.55 44.34 C 154.02 42.17 149.63 43.22 145.71 43.08 Z"></path>
    <path fill="#b5aa2e" opacity="1.00" d=" M 193.46 34.65 C 201.21 33.03 209.92 35.90 214.46 42.54 C 221.04 52.40 218.68 66.96 209.54 74.43 C 202.13 80.71 190.21 81.57 182.41 75.53 C 176.86 71.20 174.52 63.84 174.85 56.99 C 175.11 46.47 182.92 36.45 193.46 34.65 M 192.42 44.47 C 181.88 49.36 183.75 69.44 196.07 70.32 C 205.07 70.44 209.29 59.51 206.61 52.02 C 205.35 45.81 198.36 41.70 192.42 44.47 Z"></path>
  </g>
</svg>
