<svg width="800" height="560" viewBox="0 0 800 560" fill="none" xmlns="http://www.w3.org/2000/svg">
  <rect width="800" height="560" rx="32" fill="#DDF1E0"/>
  <rect x="0" y="404" width="800" height="156" fill="#8DB474"/>
  <circle cx="614" cy="116" r="48" fill="#EAF6B7"/>
  <rect x="78" y="86" width="28" height="336" rx="14" fill="#4C3627"/>
  <rect x="202" y="40" width="34" height="382" rx="17" fill="#543B2A"/>
  <rect x="348" y="118" width="30" height="304" rx="15" fill="#4C3627"/>
  <rect x="504" y="92" width="28" height="330" rx="14" fill="#563A28"/>
  <rect x="648" y="58" width="32" height="364" rx="16" fill="#523728"/>
  <circle cx="92" cy="102" r="88" fill="#4B8747"/>
  <circle cx="236" cy="86" r="98" fill="#6AA85D"/>
  <circle cx="362" cy="148" r="88" fill="#5D9653"/>
  <circle cx="518" cy="112" r="94" fill="#4F8948"/>
  <circle cx="664" cy="92" r="106" fill="#6FAA61"/>
  <circle cx="162" cy="176" r="76" fill="#7CB968" fill-opacity="0.92"/>
  <circle cx="442" cy="188" r="84" fill="#75B467" fill-opacity="0.92"/>
  <circle cx="598" cy="186" r="78" fill="#82BE70" fill-opacity="0.92"/>
</svg>
