<?xml version="1.0" encoding="UTF-8"?>
<svg xmlns="http://www.w3.org/2000/svg" width="480pt" height="200pt" viewBox="0 0 480 200" version="1.1">
  <g id="#fefffeff">
    <path fill="#fefffe" opacity="1.00" d=" M 0.00 0.00 L 16.31 0.00 C 8.12 1.44 1.41 8.06 0.00 16.29 L 0.00 0.00 Z"></path>
    <path fill="#fefffe" opacity="1.00" d=" M 463.66 0.00 L 480.00 0.00 L 480.00 16.38 C 478.37 8.27 471.96 1.36 463.66 0.00 Z"></path>
    <path fill="#fefffe" opacity="1.00" d=" M 317.39 18.29 C 320.93 15.91 324.71 13.64 328.99 12.94 C 328.63 17.06 325.54 20.08 322.99 23.04 C 317.97 28.31 313.35 34.05 307.47 38.42 C 305.80 39.60 303.97 40.96 301.80 40.62 C 299.60 39.63 299.98 36.85 301.11 35.19 C 305.33 28.54 310.87 22.72 317.39 18.29 Z"></path>
    <path fill="#fefffe" opacity="1.00" d=" M 431.92 26.20 C 434.38 20.40 439.05 15.11 445.05 12.91 C 446.44 12.03 449.19 13.20 448.24 15.05 C 446.52 18.78 443.65 21.91 440.69 24.70 C 438.31 26.93 434.90 27.02 431.92 26.20 Z"></path>
    <path fill="#fefffe" opacity="1.00" d=" M 457.36 14.41 C 458.57 13.92 460.55 12.73 461.54 14.21 C 461.78 15.49 461.94 16.96 461.17 18.10 C 458.33 22.35 453.63 24.69 449.68 27.74 C 446.81 29.81 443.61 32.96 439.82 31.16 C 444.04 24.18 450.13 18.22 457.36 14.41 Z"></path>
    <path fill="#fefffe" opacity="1.00" d=" M 59.37 17.08 C 61.09 15.34 63.57 15.73 65.62 16.56 C 66.00 20.67 63.76 24.25 63.14 28.20 C 67.22 24.56 68.68 17.03 75.31 17.21 C 77.66 21.70 74.20 25.88 72.04 29.62 C 72.68 29.64 73.96 29.67 74.60 29.69 C 75.97 26.81 76.87 22.05 80.99 22.30 C 84.35 21.81 85.35 25.85 84.08 28.31 C 82.90 30.62 80.88 32.59 80.39 35.20 C 80.72 38.91 84.21 41.13 86.83 43.31 C 87.17 43.79 87.83 44.74 88.16 45.22 C 84.68 46.28 81.18 44.51 78.18 42.89 C 73.77 39.89 70.32 34.95 64.79 33.93 C 57.65 33.40 50.53 32.61 43.42 31.81 C 43.00 28.52 41.64 23.50 45.51 21.78 C 49.30 21.21 52.18 24.43 52.68 27.95 C 54.17 27.42 55.89 27.20 57.04 26.02 C 57.79 23.05 56.68 19.29 59.37 17.08 Z"></path>
    <path fill="#fefffe" opacity="1.00" d=" M 335.34 16.53 C 337.25 15.65 339.67 15.26 341.39 16.78 C 341.91 19.91 339.41 22.39 337.43 24.45 C 331.54 30.25 325.81 36.21 320.10 42.18 C 318.55 43.86 316.48 45.37 314.05 44.85 C 310.92 43.79 310.47 39.61 312.17 37.14 C 314.80 33.13 318.88 30.46 322.44 27.36 C 326.59 23.59 330.13 18.91 335.34 16.53 Z"></path>
    <path fill="#fefffe" opacity="1.00" d=" M 173.84 20.86 C 179.33 17.15 186.43 19.24 192.31 20.79 C 199.29 23.39 205.90 27.61 210.74 33.32 C 214.31 37.57 216.18 44.06 213.40 49.16 C 211.45 52.84 207.05 53.45 203.55 54.83 L 203.60 56.36 C 206.20 56.10 208.91 54.56 211.50 55.73 C 215.01 57.50 218.38 60.79 218.39 64.97 C 218.06 69.39 214.68 72.80 211.22 75.20 C 202.30 81.47 193.30 87.79 183.41 92.46 C 178.70 94.40 173.58 96.98 168.37 95.48 C 164.81 94.37 163.96 90.43 162.29 87.57 C 159.27 82.71 153.55 80.36 148.03 79.99 C 142.78 79.50 140.49 73.62 140.70 69.01 C 141.96 58.69 142.56 47.92 147.59 38.56 C 150.07 33.65 153.74 29.26 158.44 26.35 C 160.81 24.94 163.94 23.87 166.48 25.52 C 169.65 27.37 168.06 32.45 171.47 34.03 C 170.85 29.60 169.67 23.98 173.84 20.86 Z"></path>
    <path fill="#fefffe" opacity="1.00" d=" M 341.23 25.22 C 342.40 23.88 344.21 24.23 345.78 24.26 C 345.91 26.61 345.64 29.10 343.53 30.54 C 337.66 35.55 332.15 40.98 327.19 46.89 C 327.18 47.13 327.17 47.60 327.16 47.83 C 327.36 47.82 327.77 47.80 327.98 47.79 C 332.08 43.49 335.71 38.49 340.98 35.51 C 342.38 35.43 343.79 35.50 345.19 35.72 C 344.52 42.43 339.95 47.86 335.83 52.87 C 330.61 58.31 327.15 65.13 321.91 70.53 C 321.04 67.07 320.09 63.54 320.30 59.94 C 321.02 56.15 323.76 53.22 325.47 49.87 L 324.87 49.84 C 322.80 50.70 321.70 54.43 319.08 53.16 C 316.94 51.27 317.11 47.91 319.12 45.99 C 325.83 38.41 333.61 31.86 341.23 25.22 Z"></path>
    <path fill="#fefffe" opacity="1.00" d=" M 426.14 29.09 C 427.35 27.66 429.30 27.43 430.98 26.91 C 431.29 29.16 432.00 31.61 430.81 33.74 C 428.47 38.46 424.87 42.52 420.80 45.83 C 419.82 46.79 418.38 46.53 417.15 46.66 C 418.97 40.31 421.45 33.90 426.14 29.09 Z"></path>
    <path fill="#fefffe" opacity="1.00" d=" M 86.68 29.63 C 87.86 29.01 89.06 28.42 90.28 27.87 C 92.13 30.17 91.93 33.28 91.02 35.92 C 89.92 37.99 88.59 39.94 87.22 41.84 C 85.51 40.40 82.55 39.62 82.30 37.03 C 81.66 33.78 84.46 31.46 86.68 29.63 Z"></path>
    <path fill="#fefffe" opacity="1.00" d=" M 454.62 30.67 C 456.44 29.31 458.67 28.85 460.91 28.90 C 460.61 30.97 460.57 33.30 458.90 34.82 C 453.82 40.53 447.09 44.38 441.51 49.55 C 437.66 52.75 434.22 57.15 428.98 57.96 C 429.71 53.19 433.71 50.10 436.68 46.66 C 442.28 40.94 447.93 35.13 454.62 30.67 Z"></path>
    <path fill="#fefffe" opacity="1.00" d=" M 425.07 52.00 C 426.45 43.95 431.49 36.45 438.13 31.78 C 438.52 31.90 439.28 32.15 439.67 32.27 C 440.37 37.24 437.16 41.61 434.37 45.39 C 431.97 48.39 429.40 52.19 425.07 52.00 Z"></path>
    <path fill="#fefffe" opacity="1.00" d=" M 54.30 37.34 C 55.33 35.85 57.51 36.92 58.98 36.92 C 67.48 38.20 75.35 42.59 81.28 48.74 C 83.14 50.19 82.52 52.71 82.15 54.69 C 80.90 59.87 77.44 64.11 74.02 68.04 C 64.53 78.31 53.65 87.20 42.30 95.32 C 37.32 98.72 31.03 101.70 24.91 99.89 C 20.77 98.68 19.17 93.93 19.52 90.00 C 20.26 78.98 25.52 69.01 29.87 59.07 C 32.00 52.80 33.75 45.54 39.76 41.76 C 43.02 39.25 47.24 40.45 50.96 40.80 C 52.47 40.19 53.12 38.40 54.30 37.34 Z"></path>
    <path fill="#fefffe" opacity="1.00" d=" M 392.45 41.52 C 393.88 39.47 397.38 40.60 397.62 43.04 C 398.53 48.01 397.90 53.67 394.77 57.79 C 394.08 58.88 391.67 59.39 391.44 57.68 C 390.32 52.46 389.57 46.29 392.45 41.52 Z"></path>
    <path fill="#fefffe" opacity="1.00" d=" M 443.66 50.67 C 446.23 48.54 448.82 46.13 452.19 45.39 C 454.40 46.40 453.83 49.26 453.14 51.09 C 450.92 55.45 446.25 57.64 442.21 59.97 C 438.38 61.77 434.33 64.36 429.92 63.38 C 433.97 58.60 438.98 54.79 443.66 50.67 Z"></path>
    <path fill="#fefffe" opacity="1.00" d=" M 286.90 48.77 C 289.04 46.55 292.44 46.95 295.08 47.93 C 297.90 49.39 300.75 46.68 303.65 47.54 C 305.57 48.02 306.48 49.97 307.62 51.40 C 311.12 51.67 313.42 54.05 314.78 57.10 C 318.24 61.26 318.65 66.87 318.82 72.05 C 319.04 74.42 317.00 75.95 315.50 77.43 C 310.20 82.20 304.87 86.94 299.50 91.63 C 295.63 95.00 292.23 99.07 287.62 101.48 C 283.65 103.48 278.08 103.53 274.98 99.97 C 272.19 96.89 271.87 92.47 272.49 88.55 C 270.71 89.98 268.39 91.44 266.08 90.26 C 260.82 87.72 256.55 81.34 258.63 75.41 C 260.46 71.16 263.65 67.11 268.07 65.41 C 270.70 64.37 272.82 66.38 274.67 67.96 C 278.21 61.27 281.59 54.27 286.90 48.77 Z"></path>
    <path fill="#fefffe" opacity="1.00" d=" M 267.46 50.56 C 268.61 49.11 270.30 49.91 271.78 50.22 C 271.76 52.29 271.35 54.33 270.05 55.99 C 268.15 58.52 267.90 61.77 266.48 64.53 C 265.70 66.10 263.72 65.57 262.32 65.87 C 262.05 60.41 263.61 54.56 267.46 50.56 Z"></path>
    <path fill="#fefffe" opacity="1.00" d=" M 406.36 50.43 C 409.75 49.13 413.68 49.32 416.83 51.17 C 420.33 53.13 424.04 55.15 426.48 58.43 C 428.63 61.27 427.16 64.91 425.76 67.72 C 422.16 74.67 417.67 81.54 411.02 85.91 C 408.70 87.52 405.11 88.43 402.98 86.03 C 400.59 83.26 400.39 79.41 399.82 75.96 C 399.29 70.46 397.99 64.84 399.46 59.37 C 400.16 55.53 402.58 51.82 406.36 50.43 Z"></path>
    <path fill="#fefffe" opacity="1.00" d=" M 387.26 60.26 C 388.11 58.54 390.29 59.87 391.30 60.70 C 393.48 62.47 394.52 65.22 394.73 67.95 C 395.43 74.09 396.68 80.52 400.60 85.49 C 402.24 87.63 404.65 89.29 405.54 91.92 C 405.06 96.29 402.32 100.49 398.46 102.62 C 395.76 104.31 392.62 102.29 390.87 100.17 C 384.57 92.33 383.16 81.73 384.40 72.00 C 385.01 68.06 384.96 63.68 387.26 60.26 Z"></path>
  </g>
  <g id="#0da354ff">
    <path fill="#0da354" opacity="1.00" d=" M 16.31 0.00 L 97.67 0.00 C 106.24 1.52 113.62 9.05 113.63 17.97 C 113.66 43.65 113.63 69.33 113.63 95.01 C 114.13 105.03 104.77 113.82 94.91 113.50 C 69.27 113.47 43.63 113.52 17.99 113.47 C 9.11 113.40 1.64 106.00 0.00 97.52 L 0.00 16.29 C 1.41 8.06 8.12 1.44 16.31 0.00 M 59.37 17.08 C 56.68 19.29 57.79 23.05 57.04 26.02 C 55.89 27.20 54.17 27.42 52.68 27.95 C 52.18 24.43 49.30 21.21 45.51 21.78 C 41.64 23.50 43.00 28.52 43.42 31.81 C 50.53 32.61 57.65 33.40 64.79 33.93 C 70.32 34.95 73.77 39.89 78.18 42.89 C 81.18 44.51 84.68 46.28 88.16 45.22 C 87.83 44.74 87.17 43.79 86.83 43.31 C 88.92 41.29 90.67 38.89 91.02 35.92 C 91.93 33.28 92.13 30.17 90.28 27.87 C 89.06 28.42 87.86 29.01 86.68 29.63 C 86.97 29.39 87.55 28.91 87.84 28.67 C 87.32 28.50 86.29 28.17 85.77 28.00 C 85.78 27.29 85.80 25.87 85.80 25.16 C 85.25 26.22 84.69 27.28 84.08 28.31 C 85.35 25.85 84.35 21.81 80.99 22.30 C 76.87 22.05 75.97 26.81 74.60 29.69 C 73.96 29.67 72.68 29.64 72.04 29.62 C 74.20 25.88 77.66 21.70 75.31 17.21 C 68.68 17.03 67.22 24.56 63.14 28.20 C 63.76 24.25 66.00 20.67 65.62 16.56 C 63.57 15.73 61.09 15.34 59.37 17.08 M 54.30 37.34 C 53.12 38.40 52.47 40.19 50.96 40.80 C 47.24 40.45 43.02 39.25 39.76 41.76 C 33.75 45.54 32.00 52.80 29.87 59.07 C 25.52 69.01 20.26 78.98 19.52 90.00 C 19.17 93.93 20.77 98.68 24.91 99.89 C 31.03 101.70 37.32 98.72 42.30 95.32 C 53.65 87.20 64.53 78.31 74.02 68.04 C 77.44 64.11 80.90 59.87 82.15 54.69 C 82.52 52.71 83.14 50.19 81.28 48.74 C 75.35 42.59 67.48 38.20 58.98 36.92 C 57.51 36.92 55.33 35.85 54.30 37.34 Z"></path>
  </g>
  <g id="#274150ff">
    <path fill="#274150" opacity="1.00" d=" M 137.59 0.00 L 219.68 0.00 C 228.34 1.50 235.82 9.07 235.76 18.11 C 235.81 43.74 235.79 69.37 235.77 95.00 C 236.02 104.61 227.62 113.36 218.03 113.54 C 192.34 113.60 166.66 113.53 140.97 113.57 C 131.93 113.93 123.36 106.66 122.28 97.67 C 121.52 74.46 122.30 51.23 122.02 28.01 C 121.86 21.39 121.16 14.04 125.19 8.31 C 127.97 3.94 132.74 1.41 137.59 0.00 M 173.84 20.86 C 169.67 23.98 170.85 29.60 171.47 34.03 C 168.06 32.45 169.65 27.37 166.48 25.52 C 163.94 23.87 160.81 24.94 158.44 26.35 C 153.74 29.26 150.07 33.65 147.59 38.56 C 142.56 47.92 141.96 58.69 140.70 69.01 C 140.49 73.62 142.78 79.50 148.03 79.99 C 153.55 80.36 159.27 82.71 162.29 87.57 C 163.96 90.43 164.81 94.37 168.37 95.48 C 173.58 96.98 178.70 94.40 183.41 92.46 C 193.30 87.79 202.30 81.47 211.22 75.20 C 214.68 72.80 218.06 69.39 218.39 64.97 C 218.38 60.79 215.01 57.50 211.50 55.73 C 208.91 54.56 206.20 56.10 203.60 56.36 L 203.55 54.83 C 207.05 53.45 211.45 52.84 213.40 49.16 C 216.18 44.06 214.31 37.57 210.74 33.32 C 205.90 27.61 199.29 23.39 192.31 20.79 C 186.43 19.24 179.33 17.15 173.84 20.86 Z"></path>
  </g>
  <g id="#106e6eff">
    <path fill="#106e6e" opacity="1.00" d=" M 260.32 0.00 L 341.68 0.00 C 350.27 1.50 357.73 9.03 357.71 17.99 C 357.85 43.67 357.73 69.35 357.76 95.04 C 358.04 104.97 348.96 113.87 339.05 113.54 C 315.70 113.54 292.36 113.51 269.01 113.55 C 265.05 113.51 260.98 113.90 257.14 112.71 C 249.61 110.44 243.93 102.95 244.18 95.02 C 244.16 70.01 244.21 44.99 244.14 19.98 C 243.25 10.31 250.87 1.42 260.32 0.00 M 317.39 18.29 C 310.87 22.72 305.33 28.54 301.11 35.19 C 299.98 36.85 299.60 39.63 301.80 40.62 C 303.97 40.96 305.80 39.60 307.47 38.42 C 313.35 34.05 317.97 28.31 322.99 23.04 C 325.54 20.08 328.63 17.06 328.99 12.94 C 324.71 13.64 320.93 15.91 317.39 18.29 M 335.34 16.53 C 330.13 18.91 326.59 23.59 322.44 27.36 C 318.88 30.46 314.80 33.13 312.17 37.14 C 310.47 39.61 310.92 43.79 314.05 44.85 C 316.48 45.37 318.55 43.86 320.10 42.18 C 325.81 36.21 331.54 30.25 337.43 24.45 C 339.41 22.39 341.91 19.91 341.39 16.78 C 339.67 15.26 337.25 15.65 335.34 16.53 M 341.23 25.22 C 333.61 31.86 325.83 38.41 319.12 45.99 C 317.11 47.91 316.94 51.27 319.08 53.16 C 321.70 54.43 322.80 50.70 324.87 49.84 L 325.47 49.87 C 323.76 53.22 321.02 56.15 320.30 59.94 C 320.09 63.54 321.04 67.07 321.91 70.53 C 327.15 65.13 330.61 58.31 335.83 52.87 C 339.95 47.86 344.52 42.43 345.19 35.72 C 343.79 35.50 342.38 35.43 340.98 35.51 C 335.71 38.49 332.08 43.49 327.98 47.79 C 327.77 47.80 327.36 47.82 327.16 47.83 C 327.17 47.60 327.18 47.13 327.19 46.89 C 332.15 40.98 337.66 35.55 343.53 30.54 C 345.64 29.10 345.91 26.61 345.78 24.26 C 344.21 24.23 342.40 23.88 341.23 25.22 M 286.90 48.77 C 281.59 54.27 278.21 61.27 274.67 67.96 C 272.82 66.38 270.70 64.37 268.07 65.41 C 263.65 67.11 260.46 71.16 258.63 75.41 C 256.55 81.34 260.82 87.72 266.08 90.26 C 268.39 91.44 270.71 89.98 272.49 88.55 C 271.87 92.47 272.19 96.89 274.98 99.97 C 278.08 103.53 283.65 103.48 287.62 101.48 C 292.23 99.07 295.63 95.00 299.50 91.63 C 304.87 86.94 310.20 82.20 315.50 77.43 C 317.00 75.95 319.04 74.42 318.82 72.05 C 318.65 66.87 318.24 61.26 314.78 57.10 C 313.42 54.05 311.12 51.67 307.62 51.40 C 306.48 49.97 305.57 48.02 303.65 47.54 C 300.75 46.68 297.90 49.39 295.08 47.93 C 292.44 46.95 289.04 46.55 286.90 48.77 M 267.46 50.56 C 263.61 54.56 262.05 60.41 262.32 65.87 C 263.72 65.57 265.70 66.10 266.48 64.53 C 267.90 61.77 268.15 58.52 270.05 55.99 C 271.35 54.33 271.76 52.29 271.78 50.22 C 270.30 49.91 268.61 49.11 267.46 50.56 Z"></path>
  </g>
  <g id="#9fd18aff">
    <path fill="#9fd18a" opacity="1.00" d=" M 381.39 0.00 L 463.66 0.00 C 471.96 1.36 478.37 8.27 480.00 16.38 L 480.00 97.60 C 478.48 103.34 475.05 108.84 469.58 111.51 C 464.85 114.24 459.23 113.51 454.01 113.56 C 430.99 113.52 407.96 113.54 384.94 113.56 C 379.13 113.57 373.37 110.73 369.84 106.12 C 367.02 102.41 366.14 97.63 366.15 93.07 C 366.16 68.74 366.17 44.40 366.17 20.07 C 366.23 16.66 366.27 13.04 368.06 10.01 C 370.81 4.93 376.09 1.86 381.39 0.00 M 431.92 26.20 C 434.90 27.02 438.31 26.93 440.69 24.70 C 443.65 21.91 446.52 18.78 448.24 15.05 C 449.19 13.20 446.44 12.03 445.05 12.91 C 439.05 15.11 434.38 20.40 431.92 26.20 M 457.36 14.41 C 450.13 18.22 444.04 24.18 439.82 31.16 C 443.61 32.96 446.81 29.81 449.68 27.74 C 453.63 24.69 458.33 22.35 461.17 18.10 C 461.94 16.96 461.78 15.49 461.54 14.21 C 460.55 12.73 458.57 13.92 457.36 14.41 M 426.14 29.09 C 421.45 33.90 418.97 40.31 417.15 46.66 C 418.38 46.53 419.82 46.79 420.80 45.83 C 424.87 42.52 428.47 38.46 430.81 33.74 C 432.00 31.61 431.29 29.16 430.98 26.91 C 429.30 27.43 427.35 27.66 426.14 29.09 M 454.62 30.67 C 447.93 35.13 442.28 40.94 436.68 46.66 C 433.71 50.10 429.71 53.19 428.98 57.96 C 434.22 57.15 437.66 52.75 441.51 49.55 C 447.09 44.38 453.82 40.53 458.90 34.82 C 460.57 33.30 460.61 30.97 460.91 28.90 C 458.67 28.85 456.44 29.31 454.62 30.67 M 425.07 52.00 C 429.40 52.19 431.97 48.39 434.37 45.39 C 437.16 41.61 440.37 37.24 439.67 32.27 C 439.28 32.15 438.52 31.90 438.13 31.78 C 431.49 36.45 426.45 43.95 425.07 52.00 M 392.45 41.52 C 389.57 46.29 390.32 52.46 391.44 57.68 C 391.67 59.39 394.08 58.88 394.77 57.79 C 397.90 53.67 398.53 48.01 397.62 43.04 C 397.38 40.60 393.88 39.47 392.45 41.52 M 443.66 50.67 C 438.98 54.79 433.97 58.60 429.92 63.38 C 434.33 64.36 438.38 61.77 442.21 59.97 C 446.25 57.64 450.92 55.45 453.14 51.09 C 453.83 49.26 454.40 46.40 452.19 45.39 C 448.82 46.13 446.23 48.54 443.66 50.67 M 406.36 50.43 C 402.58 51.82 400.16 55.53 399.46 59.37 C 397.99 64.84 399.29 70.46 399.82 75.96 C 400.39 79.41 400.59 83.26 402.98 86.03 C 405.11 88.43 408.70 87.52 411.02 85.91 C 417.67 81.54 422.16 74.67 425.76 67.72 C 427.16 64.91 428.63 61.27 426.48 58.43 C 424.04 55.15 420.33 53.13 416.83 51.17 C 413.68 49.32 409.75 49.13 406.36 50.43 M 387.26 60.26 C 384.96 63.68 385.01 68.06 384.40 72.00 C 383.16 81.73 384.57 92.33 390.87 100.17 C 392.62 102.29 395.76 104.31 398.46 102.62 C 402.32 100.49 405.06 96.29 405.54 91.92 C 404.65 89.29 402.24 87.63 400.60 85.49 C 396.68 80.52 395.43 74.09 394.73 67.95 C 394.52 65.22 393.48 62.47 391.30 60.70 C 390.29 59.87 388.11 58.54 387.26 60.26 Z"></path>
  </g>
  <g id="#59595aff">
    <path fill="#59595a" opacity="1.00" d=" M 84.08 28.31 C 84.69 27.28 85.25 26.22 85.80 25.16 C 85.80 25.87 85.78 27.29 85.77 28.00 C 86.29 28.17 87.32 28.50 87.84 28.67 C 87.55 28.91 86.97 29.39 86.68 29.63 C 84.46 31.46 81.66 33.78 82.30 37.03 C 82.55 39.62 85.51 40.40 87.22 41.84 C 88.59 39.94 89.92 37.99 91.02 35.92 C 90.67 38.89 88.92 41.29 86.83 43.31 C 84.21 41.13 80.72 38.91 80.39 35.20 C 80.88 32.59 82.90 30.62 84.08 28.31 Z"></path>
    <path fill="#59595a" opacity="1.00" d=" M 83.18 136.52 C 87.01 136.62 90.83 136.62 94.66 136.55 C 94.70 139.71 94.71 142.87 94.71 146.03 C 90.86 146.13 87.01 146.13 83.16 146.10 C 83.04 142.91 83.03 139.71 83.18 136.52 Z"></path>
    <path fill="#59595a" opacity="1.00" d=" M 206.13 136.53 C 209.96 136.62 213.79 136.62 217.63 136.55 C 217.65 139.67 217.66 142.80 217.70 145.92 C 213.76 146.20 209.82 146.16 205.88 146.08 C 205.78 142.89 205.79 139.70 206.13 136.53 Z"></path>
    <path fill="#59595a" opacity="1.00" d=" M 235.26 139.21 C 239.48 135.35 245.51 136.49 250.71 136.33 C 250.70 139.52 250.70 142.70 250.73 145.89 C 248.12 146.45 244.15 145.09 242.73 148.02 C 242.21 150.26 242.37 152.58 242.29 154.86 C 245.07 154.86 247.84 154.84 250.62 154.79 C 250.69 157.78 250.72 160.77 250.74 163.76 C 247.93 163.75 245.13 163.76 242.32 163.84 C 242.40 175.57 242.34 187.30 242.35 199.03 C 238.56 200.59 234.59 199.65 230.77 198.80 C 230.77 187.14 230.73 175.48 230.79 163.81 C 229.25 163.78 227.72 163.76 226.19 163.74 C 226.19 160.73 226.21 157.73 226.31 154.73 C 227.78 154.78 229.26 154.83 230.75 154.89 C 230.56 149.46 230.62 142.95 235.26 139.21 Z"></path>
    <path fill="#59595a" opacity="1.00" d=" M 0.87 136.95 C 5.04 136.86 9.21 136.83 13.37 137.16 C 16.34 149.94 19.49 162.68 22.75 175.38 C 26.89 162.74 30.26 149.84 34.03 137.07 C 37.06 136.92 40.10 136.74 43.13 137.00 C 47.48 149.64 50.22 162.84 54.81 175.41 C 57.79 162.64 61.15 149.96 64.13 137.18 C 68.41 136.99 72.69 136.87 76.98 136.88 C 71.74 157.64 65.97 178.27 60.42 198.96 C 56.94 199.22 53.44 199.22 49.96 198.94 C 47.04 188.91 43.84 178.98 40.91 168.96 C 40.28 166.72 39.51 164.52 38.52 162.42 C 34.85 174.56 31.04 186.67 27.50 198.85 C 24.07 200.31 20.44 199.63 16.94 198.87 C 11.94 180.45 7.12 161.99 2.11 143.58 C 1.51 141.40 1.13 139.18 0.87 136.95 Z"></path>
    <path fill="#59595a" opacity="1.00" d=" M 105.31 137.08 C 109.13 136.85 112.95 136.88 116.77 136.93 C 116.91 153.31 116.62 169.71 116.91 186.09 C 117.03 190.45 122.31 189.48 125.24 189.65 C 125.24 192.79 125.24 195.94 125.22 199.09 C 121.26 199.31 117.20 199.44 113.32 198.41 C 108.20 196.73 105.18 191.27 105.36 186.04 C 105.27 169.72 105.39 153.40 105.31 137.08 Z"></path>
    <path fill="#59595a" opacity="1.00" d=" M 155.66 136.89 C 159.51 136.90 163.36 136.90 167.21 136.91 C 167.24 157.58 167.23 178.25 167.21 198.92 C 163.43 199.24 159.63 199.30 155.86 198.94 C 155.85 197.71 155.84 196.48 155.84 195.26 C 153.85 196.95 151.79 199.14 148.95 198.96 C 144.09 198.75 138.43 200.13 134.45 196.55 C 129.25 192.37 128.96 185.06 128.76 178.93 C 128.87 172.05 128.28 164.36 132.41 158.42 C 138.00 151.66 149.21 151.48 155.70 157.09 C 155.58 150.35 155.61 143.62 155.66 136.89 M 144.30 164.24 C 140.61 166.37 140.43 171.20 140.31 174.98 C 140.39 179.31 139.92 184.37 143.09 187.82 C 146.21 190.57 152.13 190.02 154.11 186.13 C 155.66 183.01 155.59 179.41 155.64 176.01 C 155.54 172.72 155.60 169.14 153.79 166.25 C 151.84 163.16 147.37 162.90 144.30 164.24 Z"></path>
    <path fill="#59595a" opacity="1.00" d=" M 178.15 136.99 C 181.91 136.89 185.66 136.89 189.42 136.88 C 189.52 152.58 189.45 168.28 189.45 183.99 C 189.63 185.69 189.12 188.07 191.02 188.98 C 193.13 189.97 195.61 189.42 197.86 189.65 C 197.84 192.76 197.84 195.87 197.82 198.98 C 192.10 199.61 185.00 199.90 180.96 195.00 C 177.10 190.63 178.05 184.36 178.03 179.00 C 177.88 164.99 177.86 150.99 178.15 136.99 Z"></path>
    <path fill="#59595a" opacity="1.00" d=" M 342.14 137.06 C 345.39 136.88 348.66 136.88 351.91 137.04 C 359.44 157.69 367.06 178.32 374.55 198.99 C 370.24 199.99 365.85 199.59 361.56 198.77 C 360.49 195.30 359.32 191.87 358.27 188.40 C 350.89 188.16 343.51 188.36 336.13 188.27 C 334.92 191.82 333.68 195.35 332.58 198.93 C 328.28 199.78 323.94 198.82 319.61 198.97 C 327.16 178.35 334.68 157.72 342.14 137.06 M 339.79 177.81 C 344.80 177.80 349.81 177.82 354.83 177.79 C 352.38 170.54 349.89 163.30 347.53 156.03 C 344.48 163.10 342.17 170.49 339.79 177.81 Z"></path>
    <path fill="#59595a" opacity="1.00" d=" M 422.47 145.88 C 422.53 142.77 422.55 139.66 422.62 136.55 C 426.51 136.60 430.40 136.60 434.29 136.60 C 434.30 139.68 434.31 142.75 434.38 145.83 C 430.42 146.22 426.43 146.22 422.47 145.88 Z"></path>
    <path fill="#59595a" opacity="1.00" d=" M 259.50 160.44 C 267.02 149.97 285.55 150.77 291.74 162.26 C 295.05 167.60 294.93 174.04 294.78 180.09 C 285.28 180.18 275.77 180.20 266.27 180.08 C 266.30 184.55 269.22 189.22 273.91 189.81 C 278.62 190.85 283.30 189.00 286.79 185.88 C 289.11 188.14 291.41 190.41 293.65 192.75 C 290.05 195.83 285.97 199.27 280.92 198.99 C 276.65 198.87 272.32 199.33 268.09 198.65 C 261.09 196.85 256.45 190.08 255.54 183.16 C 254.58 175.48 254.72 166.92 259.50 160.44 M 268.53 165.54 C 266.93 167.39 266.69 169.92 266.19 172.22 C 272.03 172.24 277.87 172.25 283.72 172.20 C 283.16 169.97 282.95 167.49 281.43 165.65 C 278.36 161.73 271.65 161.63 268.53 165.54 Z"></path>
    <path fill="#59595a" opacity="1.00" d=" M 379.48 162.42 C 381.76 156.71 388.02 153.61 393.89 153.27 C 400.79 152.84 408.46 153.57 413.73 158.55 C 411.37 160.79 409.11 163.12 406.90 165.50 C 402.52 163.08 397.13 161.58 392.25 163.27 C 389.11 164.13 388.53 169.20 391.84 170.24 C 397.33 171.78 403.44 170.66 408.62 173.38 C 417.16 177.57 417.04 191.46 409.18 196.29 C 405.96 198.68 401.89 199.26 397.99 199.00 C 392.56 198.68 386.69 199.99 381.69 197.30 C 379.59 196.24 377.81 194.70 376.03 193.21 C 378.49 190.77 380.94 188.34 383.35 185.85 C 388.18 189.61 394.59 190.84 400.49 189.28 C 402.89 188.57 404.62 185.90 403.45 183.49 C 402.17 181.21 399.30 181.31 397.06 180.96 C 392.14 180.45 386.70 180.61 382.60 177.40 C 378.15 173.97 377.65 167.38 379.48 162.42 Z"></path>
    <path fill="#59595a" opacity="1.00" d=" M 443.52 159.54 C 449.05 152.53 458.84 152.50 466.89 153.72 C 472.59 154.67 478.62 158.83 478.94 165.07 C 479.08 176.37 478.96 187.67 479.00 198.97 C 475.47 199.89 471.84 199.83 468.33 198.91 C 468.32 198.16 468.30 196.65 468.28 195.90 C 466.04 197.32 463.77 199.26 460.92 198.99 C 457.30 198.87 453.61 199.35 450.06 198.58 C 440.61 195.38 438.61 180.51 446.93 174.98 C 453.18 170.59 461.22 172.75 468.32 172.21 C 467.90 169.49 468.33 165.95 465.64 164.26 C 460.90 161.58 454.53 162.58 450.77 166.53 C 448.36 164.19 445.93 161.87 443.52 159.54 M 454.80 189.17 C 457.92 190.89 462.04 190.79 465.17 189.13 C 468.36 187.37 467.94 183.34 468.39 180.26 C 464.26 180.20 460.08 179.80 455.99 180.54 C 452.36 181.71 451.62 187.06 454.80 189.17 Z"></path>
    <path fill="#59595a" opacity="1.00" d=" M 83.13 153.73 C 86.93 153.66 90.72 153.66 94.51 153.62 C 94.74 168.72 94.46 183.82 94.65 198.92 C 90.84 199.62 86.97 199.26 83.15 198.89 C 83.18 183.84 83.21 168.78 83.13 153.73 Z"></path>
    <path fill="#59595a" opacity="1.00" d=" M 206.18 157.91 C 206.47 156.61 205.62 154.66 206.81 153.78 C 210.38 153.52 213.97 153.74 217.55 153.61 C 217.83 168.70 217.52 183.79 217.71 198.88 C 213.89 199.34 210.03 199.50 206.20 198.98 C 206.21 185.29 206.24 171.60 206.18 157.91 Z"></path>
    <path fill="#59595a" opacity="1.00" d=" M 422.68 153.68 C 426.53 153.66 430.38 153.66 434.24 153.69 C 434.20 168.82 434.23 183.94 434.22 199.07 C 430.39 199.69 426.51 199.58 422.69 198.99 C 422.63 183.88 422.65 168.78 422.68 153.68 Z"></path>
  </g>
</svg>
