<svg width="800" height="640" viewBox="0 0 800 640" fill="none" xmlns="http://www.w3.org/2000/svg">
  <rect width="800" height="640" rx="32" fill="#E4F1DE"/>
  <rect x="0" y="500" width="800" height="140" fill="#8CB26D"/>
  <circle cx="625" cy="104" r="48" fill="#F2F5B6"/>
  <circle cx="176" cy="110" r="118" fill="#7FB160"/>
  <circle cx="278" cy="164" r="94" fill="#5F9851"/>
  <circle cx="392" cy="92" r="88" fill="#6CA85B"/>
  <path d="M364 445C338 373 361 276 429 243C496 210 587 233 631 301C676 371 645 471 572 505C500 539 394 530 364 445Z" fill="#8C552F"/>
  <ellipse cx="512" cy="359" rx="112" ry="95" fill="#C88357"/>
  <ellipse cx="472" cy="341" rx="28" ry="36" fill="#2C170F"/>
  <ellipse cx="549" cy="347" rx="34" ry="42" fill="#2C170F"/>
  <ellipse cx="514" cy="421" rx="94" ry="68" fill="#E5B48C"/>
  <ellipse cx="516" cy="429" rx="28" ry="16" fill="#6E3B21"/>
  <path d="M157 640C188 514 264 452 332 430" stroke="#325B33" stroke-width="24" stroke-linecap="round"/>
  <path d="M130 0C116 142 130 250 188 362" stroke="#315933" stroke-width="20" stroke-linecap="round"/>
</svg>
