<svg width="800" height="640" viewBox="0 0 800 640" fill="none" xmlns="http://www.w3.org/2000/svg">
  <rect width="800" height="640" rx="32" fill="#E8F4E8"/>
  <circle cx="121" cy="107" r="52" fill="#F2F0B3"/>
  <path d="M0 306C100 258 208 265 310 313C407 359 499 443 608 463C674 475 736 462 800 430V640H0V306Z" fill="#8EB471"/>
  <path d="M0 372C92 347 177 349 266 375C372 407 462 481 566 514C649 541 726 544 800 526V640H0V372Z" fill="#6C995A"/>
  <path d="M315 640C296 561 321 491 390 425C465 353 579 308 696 240C737 216 771 194 800 172V640H315Z" fill="#C7E5F0"/>
  <path d="M344 640C328 575 353 517 412 468C491 403 612 355 728 289C757 273 780 260 800 248V640H344Z" fill="#8BC8DA"/>
</svg>
