<svg width="1440" height="900" viewBox="0 0 1440 900" fill="none" xmlns="http://www.w3.org/2000/svg">
  <defs>
    <linearGradient id="bg" x1="0" y1="0" x2="1440" y2="900" gradientUnits="userSpaceOnUse">
      <stop stop-color="#153823"/>
      <stop offset="0.5" stop-color="#2F6B3B"/>
      <stop offset="1" stop-color="#87B35D"/>
    </linearGradient>
    <radialGradient id="light" cx="0" cy="0" r="1" gradientUnits="userSpaceOnUse" gradientTransform="translate(1100 180) rotate(128.947) scale(429.756 468.025)">
      <stop stop-color="#E3F8B1" stop-opacity="0.75"/>
      <stop offset="1" stop-color="#E3F8B1" stop-opacity="0"/>
    </radialGradient>
  </defs>
  <rect width="1440" height="900" fill="url(#bg)"/>
  <rect width="1440" height="900" fill="url(#light)"/>
  <g opacity="0.6">
    <circle cx="120" cy="145" r="140" fill="#245031"/>
    <circle cx="420" cy="102" r="120" fill="#1C4A2B"/>
    <circle cx="760" cy="158" r="160" fill="#356F42"/>
    <circle cx="1280" cy="90" r="180" fill="#41784E"/>
  </g>
  <g opacity="0.75">
    <path d="M1080 786C1080 651.243 1189.24 542 1324 542H1440V900H1080V786Z" fill="#1A311E"/>
    <path d="M755 900C780 695 900 565 1042 529C1187 492 1298 555 1370 662C1246 735 1194 810 1162 900H755Z" fill="#2B2016"/>
    <path d="M789 637C735 558 742 446 821 404C901 362 1027 376 1078 467C1127 554 1088 682 1004 726C921 770 837 707 789 637Z" fill="#8A522E"/>
    <path d="M868 573C845 531 861 471 903 445C944 419 1009 426 1036 469C1061 509 1040 564 999 591C958 619 892 616 868 573Z" fill="#B77647"/>
    <ellipse cx="931" cy="529" rx="86" ry="66" fill="#D39969"/>
    <ellipse cx="982" cy="530" rx="19" ry="24" fill="#2A170E"/>
    <ellipse cx="911" cy="515" rx="14" ry="18" fill="#2A170E"/>
    <ellipse cx="922" cy="569" rx="61" ry="41" fill="#E0B389"/>
    <ellipse cx="925" cy="574" rx="18" ry="11" fill="#62351D"/>
  </g>
  <g opacity="0.7">
    <path d="M0 793C153 665 278 623 394 610C519 595 619 628 741 685C860 739 971 804 1098 825C1221 846 1330 825 1440 770V900H0V793Z" fill="#102017"/>
    <path d="M123 0C60 125 47 246 94 362C124 438 118 516 76 596" stroke="#224C2F" stroke-width="22" stroke-linecap="round"/>
    <path d="M307 0C258 78 221 183 228 289C237 404 268 504 215 634" stroke="#1F462A" stroke-width="16" stroke-linecap="round"/>
    <path d="M458 24C520 131 534 244 508 352C485 447 452 548 467 668" stroke="#285A34" stroke-width="18" stroke-linecap="round"/>
    <path d="M1305 0C1251 102 1216 218 1224 320C1231 403 1261 474 1253 592" stroke="#345E37" stroke-width="18" stroke-linecap="round"/>
  </g>
</svg>
